G04 #@! TF.GenerationSoftware,KiCad,Pcbnew,(5.0.0)*
G04 #@! TF.CreationDate,2021-03-23T16:32:05-04:00*
G04 #@! TF.ProjectId,Projet_ControlledEnvironment,50726F6A65745F436F6E74726F6C6C65,1.0*
G04 #@! TF.SameCoordinates,Original*
G04 #@! TF.FileFunction,Legend,Top*
G04 #@! TF.FilePolarity,Positive*
%FSLAX46Y46*%
G04 Gerber Fmt 4.6, Leading zero omitted, Abs format (unit mm)*
G04 Created by KiCad (PCBNEW (5.0.0)) date 03/23/21 16:32:05*
%MOMM*%
%LPD*%
G01*
G04 APERTURE LIST*
%ADD10C,0.300000*%
%ADD11C,0.200000*%
%ADD12C,0.375000*%
%ADD13C,0.500000*%
%ADD14C,0.120000*%
%ADD15C,0.150000*%
G04 APERTURE END LIST*
D10*
X199107142Y-88821428D02*
X199107142Y-87678571D01*
X199678571Y-88250000D02*
X198535714Y-88250000D01*
X199107142Y-93821428D02*
X199107142Y-92678571D01*
X199107142Y-76071428D02*
X199107142Y-74928571D01*
X199678571Y-75500000D02*
X198535714Y-75500000D01*
X199107142Y-81071428D02*
X199107142Y-79928571D01*
X199107142Y-68571428D02*
X199107142Y-67428571D01*
X199107142Y-63571428D02*
X199107142Y-62428571D01*
X199678571Y-63000000D02*
X198535714Y-63000000D01*
D11*
X144809523Y-104904761D02*
X144952380Y-104952380D01*
X145190476Y-104952380D01*
X145285714Y-104904761D01*
X145333333Y-104857142D01*
X145380952Y-104761904D01*
X145380952Y-104666666D01*
X145333333Y-104571428D01*
X145285714Y-104523809D01*
X145190476Y-104476190D01*
X145000000Y-104428571D01*
X144904761Y-104380952D01*
X144857142Y-104333333D01*
X144809523Y-104238095D01*
X144809523Y-104142857D01*
X144857142Y-104047619D01*
X144904761Y-104000000D01*
X145000000Y-103952380D01*
X145238095Y-103952380D01*
X145380952Y-104000000D01*
X146380952Y-104857142D02*
X146333333Y-104904761D01*
X146190476Y-104952380D01*
X146095238Y-104952380D01*
X145952380Y-104904761D01*
X145857142Y-104809523D01*
X145809523Y-104714285D01*
X145761904Y-104523809D01*
X145761904Y-104380952D01*
X145809523Y-104190476D01*
X145857142Y-104095238D01*
X145952380Y-104000000D01*
X146095238Y-103952380D01*
X146190476Y-103952380D01*
X146333333Y-104000000D01*
X146380952Y-104047619D01*
X147285714Y-104952380D02*
X146809523Y-104952380D01*
X146809523Y-103952380D01*
X144785714Y-107404761D02*
X144928571Y-107452380D01*
X145166666Y-107452380D01*
X145261904Y-107404761D01*
X145309523Y-107357142D01*
X145357142Y-107261904D01*
X145357142Y-107166666D01*
X145309523Y-107071428D01*
X145261904Y-107023809D01*
X145166666Y-106976190D01*
X144976190Y-106928571D01*
X144880952Y-106880952D01*
X144833333Y-106833333D01*
X144785714Y-106738095D01*
X144785714Y-106642857D01*
X144833333Y-106547619D01*
X144880952Y-106500000D01*
X144976190Y-106452380D01*
X145214285Y-106452380D01*
X145357142Y-106500000D01*
X145785714Y-107452380D02*
X145785714Y-106452380D01*
X146023809Y-106452380D01*
X146166666Y-106500000D01*
X146261904Y-106595238D01*
X146309523Y-106690476D01*
X146357142Y-106880952D01*
X146357142Y-107023809D01*
X146309523Y-107214285D01*
X146261904Y-107309523D01*
X146166666Y-107404761D01*
X146023809Y-107452380D01*
X145785714Y-107452380D01*
X146738095Y-107166666D02*
X147214285Y-107166666D01*
X146642857Y-107452380D02*
X146976190Y-106452380D01*
X147309523Y-107452380D01*
X145238095Y-109000000D02*
X145142857Y-108952380D01*
X145000000Y-108952380D01*
X144857142Y-109000000D01*
X144761904Y-109095238D01*
X144714285Y-109190476D01*
X144666666Y-109380952D01*
X144666666Y-109523809D01*
X144714285Y-109714285D01*
X144761904Y-109809523D01*
X144857142Y-109904761D01*
X145000000Y-109952380D01*
X145095238Y-109952380D01*
X145238095Y-109904761D01*
X145285714Y-109857142D01*
X145285714Y-109523809D01*
X145095238Y-109523809D01*
X145714285Y-109952380D02*
X145714285Y-108952380D01*
X146285714Y-109952380D01*
X146285714Y-108952380D01*
X146761904Y-109952380D02*
X146761904Y-108952380D01*
X147000000Y-108952380D01*
X147142857Y-109000000D01*
X147238095Y-109095238D01*
X147285714Y-109190476D01*
X147333333Y-109380952D01*
X147333333Y-109523809D01*
X147285714Y-109714285D01*
X147238095Y-109809523D01*
X147142857Y-109904761D01*
X147000000Y-109952380D01*
X146761904Y-109952380D01*
X144761904Y-111452380D02*
X145380952Y-111452380D01*
X145047619Y-111833333D01*
X145190476Y-111833333D01*
X145285714Y-111880952D01*
X145333333Y-111928571D01*
X145380952Y-112023809D01*
X145380952Y-112261904D01*
X145333333Y-112357142D01*
X145285714Y-112404761D01*
X145190476Y-112452380D01*
X144904761Y-112452380D01*
X144809523Y-112404761D01*
X144761904Y-112357142D01*
X145666666Y-111452380D02*
X146000000Y-112452380D01*
X146333333Y-111452380D01*
X146571428Y-111452380D02*
X147190476Y-111452380D01*
X146857142Y-111833333D01*
X147000000Y-111833333D01*
X147095238Y-111880952D01*
X147142857Y-111928571D01*
X147190476Y-112023809D01*
X147190476Y-112261904D01*
X147142857Y-112357142D01*
X147095238Y-112404761D01*
X147000000Y-112452380D01*
X146714285Y-112452380D01*
X146619047Y-112404761D01*
X146571428Y-112357142D01*
D10*
X100857142Y-133878571D02*
X100857142Y-132378571D01*
X101428571Y-132378571D01*
X101571428Y-132450000D01*
X101642857Y-132521428D01*
X101714285Y-132664285D01*
X101714285Y-132878571D01*
X101642857Y-133021428D01*
X101571428Y-133092857D01*
X101428571Y-133164285D01*
X100857142Y-133164285D01*
X102357142Y-133878571D02*
X102357142Y-132878571D01*
X102357142Y-133164285D02*
X102428571Y-133021428D01*
X102500000Y-132950000D01*
X102642857Y-132878571D01*
X102785714Y-132878571D01*
X103500000Y-133878571D02*
X103357142Y-133807142D01*
X103285714Y-133735714D01*
X103214285Y-133592857D01*
X103214285Y-133164285D01*
X103285714Y-133021428D01*
X103357142Y-132950000D01*
X103500000Y-132878571D01*
X103714285Y-132878571D01*
X103857142Y-132950000D01*
X103928571Y-133021428D01*
X104000000Y-133164285D01*
X104000000Y-133592857D01*
X103928571Y-133735714D01*
X103857142Y-133807142D01*
X103714285Y-133878571D01*
X103500000Y-133878571D01*
X104642857Y-132878571D02*
X104642857Y-134164285D01*
X104571428Y-134307142D01*
X104428571Y-134378571D01*
X104357142Y-134378571D01*
X104642857Y-132378571D02*
X104571428Y-132450000D01*
X104642857Y-132521428D01*
X104714285Y-132450000D01*
X104642857Y-132378571D01*
X104642857Y-132521428D01*
X105928571Y-133807142D02*
X105785714Y-133878571D01*
X105500000Y-133878571D01*
X105357142Y-133807142D01*
X105285714Y-133664285D01*
X105285714Y-133092857D01*
X105357142Y-132950000D01*
X105500000Y-132878571D01*
X105785714Y-132878571D01*
X105928571Y-132950000D01*
X106000000Y-133092857D01*
X106000000Y-133235714D01*
X105285714Y-133378571D01*
X106428571Y-132878571D02*
X107000000Y-132878571D01*
X106642857Y-132378571D02*
X106642857Y-133664285D01*
X106714285Y-133807142D01*
X106857142Y-133878571D01*
X107000000Y-133878571D01*
X108642857Y-133092857D02*
X109142857Y-133092857D01*
X109357142Y-133878571D02*
X108642857Y-133878571D01*
X108642857Y-132378571D01*
X109357142Y-132378571D01*
X110000000Y-132878571D02*
X110000000Y-133878571D01*
X110000000Y-133021428D02*
X110071428Y-132950000D01*
X110214285Y-132878571D01*
X110428571Y-132878571D01*
X110571428Y-132950000D01*
X110642857Y-133092857D01*
X110642857Y-133878571D01*
X111214285Y-132878571D02*
X111571428Y-133878571D01*
X111928571Y-132878571D01*
X112500000Y-133878571D02*
X112500000Y-132878571D01*
X112500000Y-132378571D02*
X112428571Y-132450000D01*
X112500000Y-132521428D01*
X112571428Y-132450000D01*
X112500000Y-132378571D01*
X112500000Y-132521428D01*
X113214285Y-133878571D02*
X113214285Y-132878571D01*
X113214285Y-133164285D02*
X113285714Y-133021428D01*
X113357142Y-132950000D01*
X113500000Y-132878571D01*
X113642857Y-132878571D01*
X114357142Y-133878571D02*
X114214285Y-133807142D01*
X114142857Y-133735714D01*
X114071428Y-133592857D01*
X114071428Y-133164285D01*
X114142857Y-133021428D01*
X114214285Y-132950000D01*
X114357142Y-132878571D01*
X114571428Y-132878571D01*
X114714285Y-132950000D01*
X114785714Y-133021428D01*
X114857142Y-133164285D01*
X114857142Y-133592857D01*
X114785714Y-133735714D01*
X114714285Y-133807142D01*
X114571428Y-133878571D01*
X114357142Y-133878571D01*
X115500000Y-132878571D02*
X115500000Y-133878571D01*
X115500000Y-133021428D02*
X115571428Y-132950000D01*
X115714285Y-132878571D01*
X115928571Y-132878571D01*
X116071428Y-132950000D01*
X116142857Y-133092857D01*
X116142857Y-133878571D01*
X116857142Y-132878571D02*
X116857142Y-133878571D01*
X116857142Y-133021428D02*
X116928571Y-132950000D01*
X117071428Y-132878571D01*
X117285714Y-132878571D01*
X117428571Y-132950000D01*
X117500000Y-133092857D01*
X117500000Y-133878571D01*
X118785714Y-133807142D02*
X118642857Y-133878571D01*
X118357142Y-133878571D01*
X118214285Y-133807142D01*
X118142857Y-133664285D01*
X118142857Y-133092857D01*
X118214285Y-132950000D01*
X118357142Y-132878571D01*
X118642857Y-132878571D01*
X118785714Y-132950000D01*
X118857142Y-133092857D01*
X118857142Y-133235714D01*
X118142857Y-133378571D01*
X119500000Y-133878571D02*
X119500000Y-132878571D01*
X119500000Y-133021428D02*
X119571428Y-132950000D01*
X119714285Y-132878571D01*
X119928571Y-132878571D01*
X120071428Y-132950000D01*
X120142857Y-133092857D01*
X120142857Y-133878571D01*
X120142857Y-133092857D02*
X120214285Y-132950000D01*
X120357142Y-132878571D01*
X120571428Y-132878571D01*
X120714285Y-132950000D01*
X120785714Y-133092857D01*
X120785714Y-133878571D01*
X122071428Y-133807142D02*
X121928571Y-133878571D01*
X121642857Y-133878571D01*
X121500000Y-133807142D01*
X121428571Y-133664285D01*
X121428571Y-133092857D01*
X121500000Y-132950000D01*
X121642857Y-132878571D01*
X121928571Y-132878571D01*
X122071428Y-132950000D01*
X122142857Y-133092857D01*
X122142857Y-133235714D01*
X121428571Y-133378571D01*
X122785714Y-132878571D02*
X122785714Y-133878571D01*
X122785714Y-133021428D02*
X122857142Y-132950000D01*
X123000000Y-132878571D01*
X123214285Y-132878571D01*
X123357142Y-132950000D01*
X123428571Y-133092857D01*
X123428571Y-133878571D01*
X123928571Y-132878571D02*
X124500000Y-132878571D01*
X124142857Y-132378571D02*
X124142857Y-133664285D01*
X124214285Y-133807142D01*
X124357142Y-133878571D01*
X124500000Y-133878571D01*
X127000000Y-133735714D02*
X126928571Y-133807142D01*
X126714285Y-133878571D01*
X126571428Y-133878571D01*
X126357142Y-133807142D01*
X126214285Y-133664285D01*
X126142857Y-133521428D01*
X126071428Y-133235714D01*
X126071428Y-133021428D01*
X126142857Y-132735714D01*
X126214285Y-132592857D01*
X126357142Y-132450000D01*
X126571428Y-132378571D01*
X126714285Y-132378571D01*
X126928571Y-132450000D01*
X127000000Y-132521428D01*
X127857142Y-133878571D02*
X127714285Y-133807142D01*
X127642857Y-133735714D01*
X127571428Y-133592857D01*
X127571428Y-133164285D01*
X127642857Y-133021428D01*
X127714285Y-132950000D01*
X127857142Y-132878571D01*
X128071428Y-132878571D01*
X128214285Y-132950000D01*
X128285714Y-133021428D01*
X128357142Y-133164285D01*
X128357142Y-133592857D01*
X128285714Y-133735714D01*
X128214285Y-133807142D01*
X128071428Y-133878571D01*
X127857142Y-133878571D01*
X129000000Y-132878571D02*
X129000000Y-133878571D01*
X129000000Y-133021428D02*
X129071428Y-132950000D01*
X129214285Y-132878571D01*
X129428571Y-132878571D01*
X129571428Y-132950000D01*
X129642857Y-133092857D01*
X129642857Y-133878571D01*
X130142857Y-132878571D02*
X130714285Y-132878571D01*
X130357142Y-132378571D02*
X130357142Y-133664285D01*
X130428571Y-133807142D01*
X130571428Y-133878571D01*
X130714285Y-133878571D01*
X131214285Y-133878571D02*
X131214285Y-132878571D01*
X131214285Y-133164285D02*
X131285714Y-133021428D01*
X131357142Y-132950000D01*
X131500000Y-132878571D01*
X131642857Y-132878571D01*
X132357142Y-133878571D02*
X132214285Y-133807142D01*
X132142857Y-133735714D01*
X132071428Y-133592857D01*
X132071428Y-133164285D01*
X132142857Y-133021428D01*
X132214285Y-132950000D01*
X132357142Y-132878571D01*
X132571428Y-132878571D01*
X132714285Y-132950000D01*
X132785714Y-133021428D01*
X132857142Y-133164285D01*
X132857142Y-133592857D01*
X132785714Y-133735714D01*
X132714285Y-133807142D01*
X132571428Y-133878571D01*
X132357142Y-133878571D01*
X133714285Y-133878571D02*
X133571428Y-133807142D01*
X133500000Y-133664285D01*
X133500000Y-132378571D01*
X134857142Y-133807142D02*
X134714285Y-133878571D01*
X134428571Y-133878571D01*
X134285714Y-133807142D01*
X134214285Y-133664285D01*
X134214285Y-133092857D01*
X134285714Y-132950000D01*
X134428571Y-132878571D01*
X134714285Y-132878571D01*
X134857142Y-132950000D01*
X134928571Y-133092857D01*
X134928571Y-133235714D01*
X134214285Y-133378571D01*
X134714285Y-132307142D02*
X134500000Y-132521428D01*
X100678571Y-136357142D02*
X100892857Y-136428571D01*
X101249999Y-136428571D01*
X101392857Y-136357142D01*
X101464285Y-136285714D01*
X101535714Y-136142857D01*
X101535714Y-136000000D01*
X101464285Y-135857142D01*
X101392857Y-135785714D01*
X101249999Y-135714285D01*
X100964285Y-135642857D01*
X100821428Y-135571428D01*
X100749999Y-135500000D01*
X100678571Y-135357142D01*
X100678571Y-135214285D01*
X100749999Y-135071428D01*
X100821428Y-135000000D01*
X100964285Y-134928571D01*
X101321428Y-134928571D01*
X101535714Y-135000000D01*
X102178571Y-136428571D02*
X102178571Y-135428571D01*
X102178571Y-134928571D02*
X102107142Y-135000000D01*
X102178571Y-135071428D01*
X102249999Y-135000000D01*
X102178571Y-134928571D01*
X102178571Y-135071428D01*
X102892857Y-136428571D02*
X102892857Y-135428571D01*
X102892857Y-135571428D02*
X102964285Y-135500000D01*
X103107142Y-135428571D01*
X103321428Y-135428571D01*
X103464285Y-135500000D01*
X103535714Y-135642857D01*
X103535714Y-136428571D01*
X103535714Y-135642857D02*
X103607142Y-135500000D01*
X103749999Y-135428571D01*
X103964285Y-135428571D01*
X104107142Y-135500000D01*
X104178571Y-135642857D01*
X104178571Y-136428571D01*
X105107142Y-136428571D02*
X104964285Y-136357142D01*
X104892857Y-136285714D01*
X104821428Y-136142857D01*
X104821428Y-135714285D01*
X104892857Y-135571428D01*
X104964285Y-135500000D01*
X105107142Y-135428571D01*
X105321428Y-135428571D01*
X105464285Y-135500000D01*
X105535714Y-135571428D01*
X105607142Y-135714285D01*
X105607142Y-136142857D01*
X105535714Y-136285714D01*
X105464285Y-136357142D01*
X105321428Y-136428571D01*
X105107142Y-136428571D01*
X106249999Y-135428571D02*
X106249999Y-136428571D01*
X106249999Y-135571428D02*
X106321428Y-135500000D01*
X106464285Y-135428571D01*
X106678571Y-135428571D01*
X106821428Y-135500000D01*
X106892857Y-135642857D01*
X106892857Y-136428571D01*
X109178571Y-134928571D02*
X109178571Y-136000000D01*
X109107142Y-136214285D01*
X108964285Y-136357142D01*
X108749999Y-136428571D01*
X108607142Y-136428571D01*
X110107142Y-136428571D02*
X109964285Y-136357142D01*
X109892857Y-136285714D01*
X109821428Y-136142857D01*
X109821428Y-135714285D01*
X109892857Y-135571428D01*
X109964285Y-135500000D01*
X110107142Y-135428571D01*
X110321428Y-135428571D01*
X110464285Y-135500000D01*
X110535714Y-135571428D01*
X110607142Y-135714285D01*
X110607142Y-136142857D01*
X110535714Y-136285714D01*
X110464285Y-136357142D01*
X110321428Y-136428571D01*
X110107142Y-136428571D01*
X111892857Y-135428571D02*
X111892857Y-136428571D01*
X111249999Y-135428571D02*
X111249999Y-136214285D01*
X111321428Y-136357142D01*
X111464285Y-136428571D01*
X111678571Y-136428571D01*
X111821428Y-136357142D01*
X111892857Y-136285714D01*
X112607142Y-136428571D02*
X112607142Y-135428571D01*
X112607142Y-135714285D02*
X112678571Y-135571428D01*
X112749999Y-135500000D01*
X112892857Y-135428571D01*
X113035714Y-135428571D01*
X114178571Y-136428571D02*
X114178571Y-134928571D01*
X114178571Y-136357142D02*
X114035714Y-136428571D01*
X113749999Y-136428571D01*
X113607142Y-136357142D01*
X113535714Y-136285714D01*
X113464285Y-136142857D01*
X113464285Y-135714285D01*
X113535714Y-135571428D01*
X113607142Y-135500000D01*
X113749999Y-135428571D01*
X114035714Y-135428571D01*
X114178571Y-135500000D01*
X115464285Y-136357142D02*
X115321428Y-136428571D01*
X115035714Y-136428571D01*
X114892857Y-136357142D01*
X114821428Y-136214285D01*
X114821428Y-135642857D01*
X114892857Y-135500000D01*
X115035714Y-135428571D01*
X115321428Y-135428571D01*
X115464285Y-135500000D01*
X115535714Y-135642857D01*
X115535714Y-135785714D01*
X114821428Y-135928571D01*
X116178571Y-135428571D02*
X116178571Y-136428571D01*
X116178571Y-135571428D02*
X116249999Y-135500000D01*
X116392857Y-135428571D01*
X116607142Y-135428571D01*
X116749999Y-135500000D01*
X116821428Y-135642857D01*
X116821428Y-136428571D01*
X118178571Y-136428571D02*
X118178571Y-135642857D01*
X118107142Y-135500000D01*
X117964285Y-135428571D01*
X117678571Y-135428571D01*
X117535714Y-135500000D01*
X118178571Y-136357142D02*
X118035714Y-136428571D01*
X117678571Y-136428571D01*
X117535714Y-136357142D01*
X117464285Y-136214285D01*
X117464285Y-136071428D01*
X117535714Y-135928571D01*
X117678571Y-135857142D01*
X118035714Y-135857142D01*
X118178571Y-135785714D01*
X118892857Y-136428571D02*
X118892857Y-135428571D01*
X118892857Y-134928571D02*
X118821428Y-135000000D01*
X118892857Y-135071428D01*
X118964285Y-135000000D01*
X118892857Y-134928571D01*
X118892857Y-135071428D01*
X119535714Y-136357142D02*
X119678571Y-136428571D01*
X119964285Y-136428571D01*
X120107142Y-136357142D01*
X120178571Y-136214285D01*
X120178571Y-136142857D01*
X120107142Y-136000000D01*
X119964285Y-135928571D01*
X119749999Y-135928571D01*
X119607142Y-135857142D01*
X119535714Y-135714285D01*
X119535714Y-135642857D01*
X119607142Y-135500000D01*
X119749999Y-135428571D01*
X119964285Y-135428571D01*
X120107142Y-135500000D01*
X101785714Y-138978571D02*
X101714285Y-138978571D01*
X101571428Y-138907142D01*
X101357142Y-138692857D01*
X101000000Y-138264285D01*
X100857142Y-138050000D01*
X100785714Y-137835714D01*
X100785714Y-137692857D01*
X100857142Y-137550000D01*
X101000000Y-137478571D01*
X101071428Y-137478571D01*
X101214285Y-137550000D01*
X101285714Y-137692857D01*
X101285714Y-137764285D01*
X101214285Y-137907142D01*
X101142857Y-137978571D01*
X100714285Y-138264285D01*
X100642857Y-138335714D01*
X100571428Y-138478571D01*
X100571428Y-138692857D01*
X100642857Y-138835714D01*
X100714285Y-138907142D01*
X100857142Y-138978571D01*
X101071428Y-138978571D01*
X101214285Y-138907142D01*
X101285714Y-138835714D01*
X101500000Y-138550000D01*
X101571428Y-138335714D01*
X101571428Y-138192857D01*
X103428571Y-137478571D02*
X103785714Y-138978571D01*
X104071428Y-137907142D01*
X104357142Y-138978571D01*
X104714285Y-137478571D01*
X105285714Y-138978571D02*
X105285714Y-137978571D01*
X105285714Y-137478571D02*
X105214285Y-137550000D01*
X105285714Y-137621428D01*
X105357142Y-137550000D01*
X105285714Y-137478571D01*
X105285714Y-137621428D01*
X106214285Y-138978571D02*
X106071428Y-138907142D01*
X106000000Y-138764285D01*
X106000000Y-137478571D01*
X107000000Y-138978571D02*
X106857142Y-138907142D01*
X106785714Y-138764285D01*
X106785714Y-137478571D01*
X107571428Y-138978571D02*
X107571428Y-137978571D01*
X107571428Y-137478571D02*
X107500000Y-137550000D01*
X107571428Y-137621428D01*
X107642857Y-137550000D01*
X107571428Y-137478571D01*
X107571428Y-137621428D01*
X108928571Y-138978571D02*
X108928571Y-138192857D01*
X108857142Y-138050000D01*
X108714285Y-137978571D01*
X108428571Y-137978571D01*
X108285714Y-138050000D01*
X108928571Y-138907142D02*
X108785714Y-138978571D01*
X108428571Y-138978571D01*
X108285714Y-138907142D01*
X108214285Y-138764285D01*
X108214285Y-138621428D01*
X108285714Y-138478571D01*
X108428571Y-138407142D01*
X108785714Y-138407142D01*
X108928571Y-138335714D01*
X109642857Y-138978571D02*
X109642857Y-137978571D01*
X109642857Y-138121428D02*
X109714285Y-138050000D01*
X109857142Y-137978571D01*
X110071428Y-137978571D01*
X110214285Y-138050000D01*
X110285714Y-138192857D01*
X110285714Y-138978571D01*
X110285714Y-138192857D02*
X110357142Y-138050000D01*
X110500000Y-137978571D01*
X110714285Y-137978571D01*
X110857142Y-138050000D01*
X110928571Y-138192857D01*
X110928571Y-138978571D01*
X113285714Y-138192857D02*
X113500000Y-138264285D01*
X113571428Y-138335714D01*
X113642857Y-138478571D01*
X113642857Y-138692857D01*
X113571428Y-138835714D01*
X113500000Y-138907142D01*
X113357142Y-138978571D01*
X112785714Y-138978571D01*
X112785714Y-137478571D01*
X113285714Y-137478571D01*
X113428571Y-137550000D01*
X113500000Y-137621428D01*
X113571428Y-137764285D01*
X113571428Y-137907142D01*
X113500000Y-138050000D01*
X113428571Y-138121428D01*
X113285714Y-138192857D01*
X112785714Y-138192857D01*
X114500000Y-138978571D02*
X114357142Y-138907142D01*
X114285714Y-138835714D01*
X114214285Y-138692857D01*
X114214285Y-138264285D01*
X114285714Y-138121428D01*
X114357142Y-138050000D01*
X114500000Y-137978571D01*
X114714285Y-137978571D01*
X114857142Y-138050000D01*
X114928571Y-138121428D01*
X115000000Y-138264285D01*
X115000000Y-138692857D01*
X114928571Y-138835714D01*
X114857142Y-138907142D01*
X114714285Y-138978571D01*
X114500000Y-138978571D01*
X116285714Y-137978571D02*
X116285714Y-138978571D01*
X115642857Y-137978571D02*
X115642857Y-138764285D01*
X115714285Y-138907142D01*
X115857142Y-138978571D01*
X116071428Y-138978571D01*
X116214285Y-138907142D01*
X116285714Y-138835714D01*
X117642857Y-138907142D02*
X117500000Y-138978571D01*
X117214285Y-138978571D01*
X117071428Y-138907142D01*
X117000000Y-138835714D01*
X116928571Y-138692857D01*
X116928571Y-138264285D01*
X117000000Y-138121428D01*
X117071428Y-138050000D01*
X117214285Y-137978571D01*
X117500000Y-137978571D01*
X117642857Y-138050000D01*
X118285714Y-138978571D02*
X118285714Y-137478571D01*
X118928571Y-138978571D02*
X118928571Y-138192857D01*
X118857142Y-138050000D01*
X118714285Y-137978571D01*
X118500000Y-137978571D01*
X118357142Y-138050000D01*
X118285714Y-138121428D01*
X120285714Y-138978571D02*
X120285714Y-138192857D01*
X120214285Y-138050000D01*
X120071428Y-137978571D01*
X119785714Y-137978571D01*
X119642857Y-138050000D01*
X120285714Y-138907142D02*
X120142857Y-138978571D01*
X119785714Y-138978571D01*
X119642857Y-138907142D01*
X119571428Y-138764285D01*
X119571428Y-138621428D01*
X119642857Y-138478571D01*
X119785714Y-138407142D01*
X120142857Y-138407142D01*
X120285714Y-138335714D01*
X121000000Y-138978571D02*
X121000000Y-137978571D01*
X121000000Y-138264285D02*
X121071428Y-138121428D01*
X121142857Y-138050000D01*
X121285714Y-137978571D01*
X121428571Y-137978571D01*
X122571428Y-138978571D02*
X122571428Y-137478571D01*
X122571428Y-138907142D02*
X122428571Y-138978571D01*
X122142857Y-138978571D01*
X122000000Y-138907142D01*
X121928571Y-138835714D01*
X121857142Y-138692857D01*
X121857142Y-138264285D01*
X121928571Y-138121428D01*
X122000000Y-138050000D01*
X122142857Y-137978571D01*
X122428571Y-137978571D01*
X122571428Y-138050000D01*
X189142857Y-68750000D02*
X189142857Y-69250000D01*
X189928571Y-69250000D02*
X188428571Y-69250000D01*
X188428571Y-68535714D01*
X189928571Y-67321428D02*
X189142857Y-67321428D01*
X189000000Y-67392857D01*
X188928571Y-67535714D01*
X188928571Y-67821428D01*
X189000000Y-67964285D01*
X189857142Y-67321428D02*
X189928571Y-67464285D01*
X189928571Y-67821428D01*
X189857142Y-67964285D01*
X189714285Y-68035714D01*
X189571428Y-68035714D01*
X189428571Y-67964285D01*
X189357142Y-67821428D01*
X189357142Y-67464285D01*
X189285714Y-67321428D01*
X188928571Y-66607142D02*
X189928571Y-66607142D01*
X189071428Y-66607142D02*
X189000000Y-66535714D01*
X188928571Y-66392857D01*
X188928571Y-66178571D01*
X189000000Y-66035714D01*
X189142857Y-65964285D01*
X189928571Y-65964285D01*
X189928571Y-64107142D02*
X188428571Y-64107142D01*
X188428571Y-63750000D01*
X188500000Y-63535714D01*
X188642857Y-63392857D01*
X188785714Y-63321428D01*
X189071428Y-63250000D01*
X189285714Y-63250000D01*
X189571428Y-63321428D01*
X189714285Y-63392857D01*
X189857142Y-63535714D01*
X189928571Y-63750000D01*
X189928571Y-64107142D01*
X189142857Y-62607142D02*
X189142857Y-62107142D01*
X189928571Y-61892857D02*
X189928571Y-62607142D01*
X188428571Y-62607142D01*
X188428571Y-61892857D01*
X189928571Y-60535714D02*
X189928571Y-61250000D01*
X188428571Y-61250000D01*
X189142857Y-83892857D02*
X189142857Y-84392857D01*
X189928571Y-84392857D02*
X188428571Y-84392857D01*
X188428571Y-83678571D01*
X189928571Y-82464285D02*
X189142857Y-82464285D01*
X189000000Y-82535714D01*
X188928571Y-82678571D01*
X188928571Y-82964285D01*
X189000000Y-83107142D01*
X189857142Y-82464285D02*
X189928571Y-82607142D01*
X189928571Y-82964285D01*
X189857142Y-83107142D01*
X189714285Y-83178571D01*
X189571428Y-83178571D01*
X189428571Y-83107142D01*
X189357142Y-82964285D01*
X189357142Y-82607142D01*
X189285714Y-82464285D01*
X188928571Y-81750000D02*
X189928571Y-81750000D01*
X189071428Y-81750000D02*
X189000000Y-81678571D01*
X188928571Y-81535714D01*
X188928571Y-81321428D01*
X189000000Y-81178571D01*
X189142857Y-81107142D01*
X189928571Y-81107142D01*
X189142857Y-78750000D02*
X189214285Y-78535714D01*
X189285714Y-78464285D01*
X189428571Y-78392857D01*
X189642857Y-78392857D01*
X189785714Y-78464285D01*
X189857142Y-78535714D01*
X189928571Y-78678571D01*
X189928571Y-79250000D01*
X188428571Y-79250000D01*
X188428571Y-78750000D01*
X188500000Y-78607142D01*
X188571428Y-78535714D01*
X188714285Y-78464285D01*
X188857142Y-78464285D01*
X189000000Y-78535714D01*
X189071428Y-78607142D01*
X189142857Y-78750000D01*
X189142857Y-79250000D01*
X189928571Y-77535714D02*
X189857142Y-77678571D01*
X189785714Y-77750000D01*
X189642857Y-77821428D01*
X189214285Y-77821428D01*
X189071428Y-77750000D01*
X189000000Y-77678571D01*
X188928571Y-77535714D01*
X188928571Y-77321428D01*
X189000000Y-77178571D01*
X189071428Y-77107142D01*
X189214285Y-77035714D01*
X189642857Y-77035714D01*
X189785714Y-77107142D01*
X189857142Y-77178571D01*
X189928571Y-77321428D01*
X189928571Y-77535714D01*
X189928571Y-76392857D02*
X188928571Y-76392857D01*
X188428571Y-76392857D02*
X188500000Y-76464285D01*
X188571428Y-76392857D01*
X188500000Y-76321428D01*
X188428571Y-76392857D01*
X188571428Y-76392857D01*
X188928571Y-75892857D02*
X188928571Y-75321428D01*
X188428571Y-75678571D02*
X189714285Y-75678571D01*
X189857142Y-75607142D01*
X189928571Y-75464285D01*
X189928571Y-75321428D01*
X189928571Y-74821428D02*
X188928571Y-74821428D01*
X188428571Y-74821428D02*
X188500000Y-74892857D01*
X188571428Y-74821428D01*
X188500000Y-74750000D01*
X188428571Y-74821428D01*
X188571428Y-74821428D01*
X189857142Y-73535714D02*
X189928571Y-73678571D01*
X189928571Y-73964285D01*
X189857142Y-74107142D01*
X189714285Y-74178571D01*
X189142857Y-74178571D01*
X189000000Y-74107142D01*
X188928571Y-73964285D01*
X188928571Y-73678571D01*
X189000000Y-73535714D01*
X189142857Y-73464285D01*
X189285714Y-73464285D01*
X189428571Y-74178571D01*
X189928571Y-72821428D02*
X188928571Y-72821428D01*
X189214285Y-72821428D02*
X189071428Y-72750000D01*
X189000000Y-72678571D01*
X188928571Y-72535714D01*
X188928571Y-72392857D01*
X189142857Y-94285714D02*
X189142857Y-94785714D01*
X189928571Y-94785714D02*
X188428571Y-94785714D01*
X188428571Y-94071428D01*
X189928571Y-92857142D02*
X189142857Y-92857142D01*
X189000000Y-92928571D01*
X188928571Y-93071428D01*
X188928571Y-93357142D01*
X189000000Y-93500000D01*
X189857142Y-92857142D02*
X189928571Y-93000000D01*
X189928571Y-93357142D01*
X189857142Y-93500000D01*
X189714285Y-93571428D01*
X189571428Y-93571428D01*
X189428571Y-93500000D01*
X189357142Y-93357142D01*
X189357142Y-93000000D01*
X189285714Y-92857142D01*
X188928571Y-92142857D02*
X189928571Y-92142857D01*
X189071428Y-92142857D02*
X189000000Y-92071428D01*
X188928571Y-91928571D01*
X188928571Y-91714285D01*
X189000000Y-91571428D01*
X189142857Y-91500000D01*
X189928571Y-91500000D01*
X189142857Y-89642857D02*
X189142857Y-89142857D01*
X189928571Y-88928571D02*
X189928571Y-89642857D01*
X188428571Y-89642857D01*
X188428571Y-88928571D01*
X189928571Y-88428571D02*
X188928571Y-87642857D01*
X188928571Y-88428571D02*
X189928571Y-87642857D01*
X188928571Y-87285714D02*
X188928571Y-86714285D01*
X188428571Y-87071428D02*
X189714285Y-87071428D01*
X189857142Y-87000000D01*
X189928571Y-86857142D01*
X189928571Y-86714285D01*
X189785714Y-86214285D02*
X189857142Y-86142857D01*
X189928571Y-86214285D01*
X189857142Y-86285714D01*
X189785714Y-86214285D01*
X189928571Y-86214285D01*
D12*
X190678571Y-135321428D02*
X189178571Y-135321428D01*
X189178571Y-134964285D01*
X189250000Y-134750000D01*
X189392857Y-134607142D01*
X189535714Y-134535714D01*
X189821428Y-134464285D01*
X190035714Y-134464285D01*
X190321428Y-134535714D01*
X190464285Y-134607142D01*
X190607142Y-134750000D01*
X190678571Y-134964285D01*
X190678571Y-135321428D01*
X190607142Y-133250000D02*
X190678571Y-133392857D01*
X190678571Y-133678571D01*
X190607142Y-133821428D01*
X190464285Y-133892857D01*
X189892857Y-133892857D01*
X189750000Y-133821428D01*
X189678571Y-133678571D01*
X189678571Y-133392857D01*
X189750000Y-133250000D01*
X189892857Y-133178571D01*
X190035714Y-133178571D01*
X190178571Y-133892857D01*
X190678571Y-132535714D02*
X189178571Y-132535714D01*
X190678571Y-131892857D02*
X189892857Y-131892857D01*
X189750000Y-131964285D01*
X189678571Y-132107142D01*
X189678571Y-132321428D01*
X189750000Y-132464285D01*
X189821428Y-132535714D01*
X189678571Y-130535714D02*
X190678571Y-130535714D01*
X189678571Y-131178571D02*
X190464285Y-131178571D01*
X190607142Y-131107142D01*
X190678571Y-130964285D01*
X190678571Y-130750000D01*
X190607142Y-130607142D01*
X190535714Y-130535714D01*
X190678571Y-129821428D02*
X189678571Y-129821428D01*
X189821428Y-129821428D02*
X189750000Y-129750000D01*
X189678571Y-129607142D01*
X189678571Y-129392857D01*
X189750000Y-129250000D01*
X189892857Y-129178571D01*
X190678571Y-129178571D01*
X189892857Y-129178571D02*
X189750000Y-129107142D01*
X189678571Y-128964285D01*
X189678571Y-128750000D01*
X189750000Y-128607142D01*
X189892857Y-128535714D01*
X190678571Y-128535714D01*
X190678571Y-127821428D02*
X189678571Y-127821428D01*
X189178571Y-127821428D02*
X189250000Y-127892857D01*
X189321428Y-127821428D01*
X189250000Y-127750000D01*
X189178571Y-127821428D01*
X189321428Y-127821428D01*
X190678571Y-126464285D02*
X189178571Y-126464285D01*
X190607142Y-126464285D02*
X190678571Y-126607142D01*
X190678571Y-126892857D01*
X190607142Y-127035714D01*
X190535714Y-127107142D01*
X190392857Y-127178571D01*
X189964285Y-127178571D01*
X189821428Y-127107142D01*
X189750000Y-127035714D01*
X189678571Y-126892857D01*
X189678571Y-126607142D01*
X189750000Y-126464285D01*
X190678571Y-125750000D02*
X189678571Y-125750000D01*
X189178571Y-125750000D02*
X189250000Y-125821428D01*
X189321428Y-125750000D01*
X189250000Y-125678571D01*
X189178571Y-125750000D01*
X189321428Y-125750000D01*
X189678571Y-125250000D02*
X189678571Y-124678571D01*
X190678571Y-125035714D02*
X189392857Y-125035714D01*
X189250000Y-124964285D01*
X189178571Y-124821428D01*
X189178571Y-124678571D01*
X190535714Y-124178571D02*
X190607142Y-124107142D01*
X190678571Y-124178571D01*
X190607142Y-124250000D01*
X190535714Y-124178571D01*
X190678571Y-124178571D01*
X188512435Y-148697209D02*
X188007359Y-149202285D01*
X186946699Y-148141625D01*
X188613450Y-147181980D02*
X189320557Y-147889087D01*
X188158882Y-147636549D02*
X188714466Y-148192133D01*
X188865988Y-148242640D01*
X189017511Y-148192133D01*
X189169034Y-148040610D01*
X189219542Y-147889087D01*
X189219542Y-147788072D01*
X189825633Y-147384011D02*
X189118527Y-146676904D01*
X189219542Y-146777919D02*
X189219542Y-146676904D01*
X189270049Y-146525381D01*
X189421572Y-146373858D01*
X189573095Y-146323350D01*
X189724618Y-146373858D01*
X190280202Y-146929442D01*
X189724618Y-146373858D02*
X189674111Y-146222335D01*
X189724618Y-146070812D01*
X189876141Y-145919289D01*
X190027664Y-145868782D01*
X190179187Y-145919289D01*
X190734771Y-146474873D01*
X191239847Y-145969797D02*
X190532740Y-145262690D01*
X190179187Y-144909137D02*
X190179187Y-145010152D01*
X190280202Y-145010152D01*
X190280202Y-144909137D01*
X190179187Y-144909137D01*
X190280202Y-145010152D01*
X192098477Y-145010152D02*
X192047969Y-145161675D01*
X191845938Y-145363705D01*
X191694416Y-145414213D01*
X191542893Y-145363705D01*
X191138832Y-144959644D01*
X191088324Y-144808122D01*
X191138832Y-144656599D01*
X191340862Y-144454568D01*
X191492385Y-144404061D01*
X191643908Y-144454568D01*
X191744923Y-144555583D01*
X191340862Y-145161675D01*
X192654061Y-144555583D02*
X191946954Y-143848477D01*
X192148984Y-144050507D02*
X192098477Y-143898984D01*
X192098477Y-143797969D01*
X192148984Y-143646446D01*
X192250000Y-143545431D01*
X193664213Y-143444416D02*
X193613705Y-143595938D01*
X193411675Y-143797969D01*
X193260152Y-143848477D01*
X193108629Y-143797969D01*
X192704568Y-143393908D01*
X192654061Y-143242385D01*
X192704568Y-143090862D01*
X192906599Y-142888832D01*
X193058122Y-142838324D01*
X193209644Y-142888832D01*
X193310660Y-142989847D01*
X192906599Y-143595938D01*
X194472335Y-141626141D02*
X194825888Y-141272588D01*
X195532995Y-141676649D02*
X195027919Y-142181725D01*
X193967259Y-141121065D01*
X194472335Y-140615988D01*
X195886549Y-141323095D02*
X195735026Y-140060405D01*
X195179442Y-140615988D02*
X196442133Y-140767511D01*
X195987564Y-139807866D02*
X196391625Y-139403805D01*
X195785533Y-139302790D02*
X196694671Y-140211927D01*
X196846194Y-140262435D01*
X196997716Y-140211927D01*
X197098732Y-140110912D01*
X197351270Y-139656344D02*
X197452285Y-139656344D01*
X197452285Y-139757359D01*
X197351270Y-139757359D01*
X197351270Y-139656344D01*
X197452285Y-139757359D01*
X169464285Y-149178571D02*
X169464285Y-147678571D01*
X169464285Y-148392857D02*
X170321428Y-148392857D01*
X170321428Y-149178571D02*
X170321428Y-147678571D01*
X171678571Y-148178571D02*
X171678571Y-149178571D01*
X171035714Y-148178571D02*
X171035714Y-148964285D01*
X171107142Y-149107142D01*
X171250000Y-149178571D01*
X171464285Y-149178571D01*
X171607142Y-149107142D01*
X171678571Y-149035714D01*
X172392857Y-149178571D02*
X172392857Y-148178571D01*
X172392857Y-148321428D02*
X172464285Y-148250000D01*
X172607142Y-148178571D01*
X172821428Y-148178571D01*
X172964285Y-148250000D01*
X173035714Y-148392857D01*
X173035714Y-149178571D01*
X173035714Y-148392857D02*
X173107142Y-148250000D01*
X173250000Y-148178571D01*
X173464285Y-148178571D01*
X173607142Y-148250000D01*
X173678571Y-148392857D01*
X173678571Y-149178571D01*
X174392857Y-149178571D02*
X174392857Y-148178571D01*
X174392857Y-147678571D02*
X174321428Y-147750000D01*
X174392857Y-147821428D01*
X174464285Y-147750000D01*
X174392857Y-147678571D01*
X174392857Y-147821428D01*
X175750000Y-149178571D02*
X175750000Y-147678571D01*
X175750000Y-149107142D02*
X175607142Y-149178571D01*
X175321428Y-149178571D01*
X175178571Y-149107142D01*
X175107142Y-149035714D01*
X175035714Y-148892857D01*
X175035714Y-148464285D01*
X175107142Y-148321428D01*
X175178571Y-148250000D01*
X175321428Y-148178571D01*
X175607142Y-148178571D01*
X175750000Y-148250000D01*
X176464285Y-149178571D02*
X176464285Y-148178571D01*
X176464285Y-147678571D02*
X176392857Y-147750000D01*
X176464285Y-147821428D01*
X176535714Y-147750000D01*
X176464285Y-147678571D01*
X176464285Y-147821428D01*
X176964285Y-148178571D02*
X177535714Y-148178571D01*
X177178571Y-149178571D02*
X177178571Y-147892857D01*
X177250000Y-147750000D01*
X177392857Y-147678571D01*
X177535714Y-147678571D01*
X178035714Y-149035714D02*
X178107142Y-149107142D01*
X178035714Y-149178571D01*
X177964285Y-149107142D01*
X178035714Y-149035714D01*
X178035714Y-149178571D01*
D10*
X111107142Y-83642857D02*
X111107142Y-82500000D01*
X111678571Y-83071428D02*
X110535714Y-83071428D01*
X111678571Y-81000000D02*
X111678571Y-81857142D01*
X111678571Y-81428571D02*
X110178571Y-81428571D01*
X110392857Y-81571428D01*
X110535714Y-81714285D01*
X110607142Y-81857142D01*
X110321428Y-80428571D02*
X110250000Y-80357142D01*
X110178571Y-80214285D01*
X110178571Y-79857142D01*
X110250000Y-79714285D01*
X110321428Y-79642857D01*
X110464285Y-79571428D01*
X110607142Y-79571428D01*
X110821428Y-79642857D01*
X111678571Y-80500000D01*
X111678571Y-79571428D01*
X110178571Y-79142857D02*
X111678571Y-78642857D01*
X110178571Y-78142857D01*
X110250000Y-88142857D02*
X110178571Y-88285714D01*
X110178571Y-88500000D01*
X110250000Y-88714285D01*
X110392857Y-88857142D01*
X110535714Y-88928571D01*
X110821428Y-89000000D01*
X111035714Y-89000000D01*
X111321428Y-88928571D01*
X111464285Y-88857142D01*
X111607142Y-88714285D01*
X111678571Y-88500000D01*
X111678571Y-88357142D01*
X111607142Y-88142857D01*
X111535714Y-88071428D01*
X111035714Y-88071428D01*
X111035714Y-88357142D01*
X111678571Y-87428571D02*
X110178571Y-87428571D01*
X111678571Y-86571428D01*
X110178571Y-86571428D01*
X111678571Y-85857142D02*
X110178571Y-85857142D01*
X110178571Y-85500000D01*
X110250000Y-85285714D01*
X110392857Y-85142857D01*
X110535714Y-85071428D01*
X110821428Y-85000000D01*
X111035714Y-85000000D01*
X111321428Y-85071428D01*
X111464285Y-85142857D01*
X111607142Y-85285714D01*
X111678571Y-85500000D01*
X111678571Y-85857142D01*
D12*
X101571428Y-96535714D02*
X101500000Y-96607142D01*
X101285714Y-96678571D01*
X101142857Y-96678571D01*
X100928571Y-96607142D01*
X100785714Y-96464285D01*
X100714285Y-96321428D01*
X100642857Y-96035714D01*
X100642857Y-95821428D01*
X100714285Y-95535714D01*
X100785714Y-95392857D01*
X100928571Y-95250000D01*
X101142857Y-95178571D01*
X101285714Y-95178571D01*
X101500000Y-95250000D01*
X101571428Y-95321428D01*
X102214285Y-96678571D02*
X102214285Y-95178571D01*
X102857142Y-96678571D02*
X102857142Y-95892857D01*
X102785714Y-95750000D01*
X102642857Y-95678571D01*
X102428571Y-95678571D01*
X102285714Y-95750000D01*
X102214285Y-95821428D01*
X104214285Y-96678571D02*
X104214285Y-95892857D01*
X104142857Y-95750000D01*
X104000000Y-95678571D01*
X103714285Y-95678571D01*
X103571428Y-95750000D01*
X104214285Y-96607142D02*
X104071428Y-96678571D01*
X103714285Y-96678571D01*
X103571428Y-96607142D01*
X103500000Y-96464285D01*
X103500000Y-96321428D01*
X103571428Y-96178571D01*
X103714285Y-96107142D01*
X104071428Y-96107142D01*
X104214285Y-96035714D01*
X105571428Y-95678571D02*
X105571428Y-96678571D01*
X104928571Y-95678571D02*
X104928571Y-96464285D01*
X105000000Y-96607142D01*
X105142857Y-96678571D01*
X105357142Y-96678571D01*
X105500000Y-96607142D01*
X105571428Y-96535714D01*
X106071428Y-95678571D02*
X106642857Y-95678571D01*
X106285714Y-96678571D02*
X106285714Y-95392857D01*
X106357142Y-95250000D01*
X106500000Y-95178571D01*
X106642857Y-95178571D01*
X106928571Y-95678571D02*
X107500000Y-95678571D01*
X107142857Y-96678571D02*
X107142857Y-95392857D01*
X107214285Y-95250000D01*
X107357142Y-95178571D01*
X107500000Y-95178571D01*
X108642857Y-96678571D02*
X108642857Y-95892857D01*
X108571428Y-95750000D01*
X108428571Y-95678571D01*
X108142857Y-95678571D01*
X108000000Y-95750000D01*
X108642857Y-96607142D02*
X108500000Y-96678571D01*
X108142857Y-96678571D01*
X108000000Y-96607142D01*
X107928571Y-96464285D01*
X107928571Y-96321428D01*
X108000000Y-96178571D01*
X108142857Y-96107142D01*
X108500000Y-96107142D01*
X108642857Y-96035714D01*
X110000000Y-95678571D02*
X110000000Y-96892857D01*
X109928571Y-97035714D01*
X109857142Y-97107142D01*
X109714285Y-97178571D01*
X109500000Y-97178571D01*
X109357142Y-97107142D01*
X110000000Y-96607142D02*
X109857142Y-96678571D01*
X109571428Y-96678571D01*
X109428571Y-96607142D01*
X109357142Y-96535714D01*
X109285714Y-96392857D01*
X109285714Y-95964285D01*
X109357142Y-95821428D01*
X109428571Y-95750000D01*
X109571428Y-95678571D01*
X109857142Y-95678571D01*
X110000000Y-95750000D01*
X111285714Y-96607142D02*
X111142857Y-96678571D01*
X110857142Y-96678571D01*
X110714285Y-96607142D01*
X110642857Y-96464285D01*
X110642857Y-95892857D01*
X110714285Y-95750000D01*
X110857142Y-95678571D01*
X111142857Y-95678571D01*
X111285714Y-95750000D01*
X111357142Y-95892857D01*
X111357142Y-96035714D01*
X110642857Y-96178571D01*
X101285714Y-116678571D02*
X101285714Y-115178571D01*
X101642857Y-115178571D01*
X101857142Y-115250000D01*
X102000000Y-115392857D01*
X102071428Y-115535714D01*
X102142857Y-115821428D01*
X102142857Y-116035714D01*
X102071428Y-116321428D01*
X102000000Y-116464285D01*
X101857142Y-116607142D01*
X101642857Y-116678571D01*
X101285714Y-116678571D01*
X103428571Y-115678571D02*
X103428571Y-116678571D01*
X102785714Y-115678571D02*
X102785714Y-116464285D01*
X102857142Y-116607142D01*
X103000000Y-116678571D01*
X103214285Y-116678571D01*
X103357142Y-116607142D01*
X103428571Y-116535714D01*
X104785714Y-116607142D02*
X104642857Y-116678571D01*
X104357142Y-116678571D01*
X104214285Y-116607142D01*
X104142857Y-116535714D01*
X104071428Y-116392857D01*
X104071428Y-115964285D01*
X104142857Y-115821428D01*
X104214285Y-115750000D01*
X104357142Y-115678571D01*
X104642857Y-115678571D01*
X104785714Y-115750000D01*
X105214285Y-115678571D02*
X105785714Y-115678571D01*
X105428571Y-115178571D02*
X105428571Y-116464285D01*
X105500000Y-116607142D01*
X105642857Y-116678571D01*
X105785714Y-116678571D01*
X107928571Y-115892857D02*
X107428571Y-115892857D01*
X107428571Y-116678571D02*
X107428571Y-115178571D01*
X108142857Y-115178571D01*
X109357142Y-116678571D02*
X109357142Y-115892857D01*
X109285714Y-115750000D01*
X109142857Y-115678571D01*
X108857142Y-115678571D01*
X108714285Y-115750000D01*
X109357142Y-116607142D02*
X109214285Y-116678571D01*
X108857142Y-116678571D01*
X108714285Y-116607142D01*
X108642857Y-116464285D01*
X108642857Y-116321428D01*
X108714285Y-116178571D01*
X108857142Y-116107142D01*
X109214285Y-116107142D01*
X109357142Y-116035714D01*
X110071428Y-115678571D02*
X110071428Y-116678571D01*
X110071428Y-115821428D02*
X110142857Y-115750000D01*
X110285714Y-115678571D01*
X110500000Y-115678571D01*
X110642857Y-115750000D01*
X110714285Y-115892857D01*
X110714285Y-116678571D01*
D13*
X128785714Y-145904761D02*
X127642857Y-145904761D01*
X128214285Y-145904761D02*
X128214285Y-143904761D01*
X128023809Y-144190476D01*
X127833333Y-144380952D01*
X127642857Y-144476190D01*
X129547619Y-144095238D02*
X129642857Y-144000000D01*
X129833333Y-143904761D01*
X130309523Y-143904761D01*
X130500000Y-144000000D01*
X130595238Y-144095238D01*
X130690476Y-144285714D01*
X130690476Y-144476190D01*
X130595238Y-144761904D01*
X129452380Y-145904761D01*
X130690476Y-145904761D01*
X131928571Y-143904761D02*
X132119047Y-143904761D01*
X132309523Y-144000000D01*
X132404761Y-144095238D01*
X132500000Y-144285714D01*
X132595238Y-144666666D01*
X132595238Y-145142857D01*
X132500000Y-145523809D01*
X132404761Y-145714285D01*
X132309523Y-145809523D01*
X132119047Y-145904761D01*
X131928571Y-145904761D01*
X131738095Y-145809523D01*
X131642857Y-145714285D01*
X131547619Y-145523809D01*
X131452380Y-145142857D01*
X131452380Y-144666666D01*
X131547619Y-144285714D01*
X131642857Y-144095238D01*
X131738095Y-144000000D01*
X131928571Y-143904761D01*
X134690476Y-143904761D02*
X135357142Y-145904761D01*
X136023809Y-143904761D01*
X137547619Y-145904761D02*
X137547619Y-144857142D01*
X137452380Y-144666666D01*
X137261904Y-144571428D01*
X136880952Y-144571428D01*
X136690476Y-144666666D01*
X137547619Y-145809523D02*
X137357142Y-145904761D01*
X136880952Y-145904761D01*
X136690476Y-145809523D01*
X136595238Y-145619047D01*
X136595238Y-145428571D01*
X136690476Y-145238095D01*
X136880952Y-145142857D01*
X137357142Y-145142857D01*
X137547619Y-145047619D01*
X139357142Y-145809523D02*
X139166666Y-145904761D01*
X138785714Y-145904761D01*
X138595238Y-145809523D01*
X138500000Y-145714285D01*
X138404761Y-145523809D01*
X138404761Y-144952380D01*
X138500000Y-144761904D01*
X138595238Y-144666666D01*
X138785714Y-144571428D01*
X139166666Y-144571428D01*
X139357142Y-144666666D01*
D14*
G04 #@! TO.C,U203*
X168851000Y-98730000D02*
X168851000Y-100240000D01*
X165150000Y-98730000D02*
X165150000Y-100240000D01*
X161880000Y-100240000D02*
X172120000Y-100240000D01*
X172120000Y-98730000D02*
X172120000Y-103371000D01*
X161880000Y-98730000D02*
X161880000Y-103371000D01*
X161880000Y-103371000D02*
X172120000Y-103371000D01*
X161880000Y-98730000D02*
X172120000Y-98730000D01*
D15*
G04 #@! TO.C,U205*
X131950001Y-108795000D02*
X131150000Y-109595000D01*
X131150000Y-109595000D02*
X113050000Y-109595000D01*
X113050000Y-109595000D02*
X113050000Y-84405000D01*
X113050000Y-84405000D02*
X131950000Y-84405000D01*
X131950000Y-84405000D02*
X131950001Y-108795000D01*
D14*
G04 #@! TO.C,C201*
X184385000Y-57775000D02*
X183135000Y-57775000D01*
X183760000Y-57150000D02*
X183760000Y-58400000D01*
X176704437Y-58640000D02*
X175640000Y-59704437D01*
X185295563Y-58640000D02*
X186360000Y-59704437D01*
X185295563Y-58640000D02*
X182510000Y-58640000D01*
X176704437Y-58640000D02*
X179490000Y-58640000D01*
X175640000Y-59704437D02*
X175640000Y-69360000D01*
X186360000Y-59704437D02*
X186360000Y-69360000D01*
X186360000Y-69360000D02*
X182510000Y-69360000D01*
X175640000Y-69360000D02*
X179490000Y-69360000D01*
G04 #@! TO.C,J201*
X159960301Y-71130000D02*
X159960301Y-72460000D01*
X157360301Y-73730000D02*
X159960301Y-73730000D01*
X158630301Y-71130000D02*
X159960301Y-71130000D01*
X157360301Y-71130000D02*
X157360301Y-73730000D01*
X159960301Y-73730000D02*
X159960301Y-76330000D01*
X157360301Y-71130000D02*
X109040301Y-71130000D01*
X109040301Y-71130000D02*
X109040301Y-76330000D01*
X159960301Y-76330000D02*
X109040301Y-76330000D01*
G04 #@! TO.C,J409*
X168460000Y-147310000D02*
X178620000Y-147310000D01*
X168460000Y-139690000D02*
X168460000Y-147310000D01*
X178620000Y-139690000D02*
X168460000Y-139690000D01*
X178620000Y-147310000D02*
X178620000Y-139690000D01*
X178620000Y-146040000D02*
X168460000Y-146040000D01*
G04 #@! TO.C,U201*
X168891000Y-74230000D02*
X168891000Y-75740000D01*
X165190000Y-74230000D02*
X165190000Y-75740000D01*
X161920000Y-75740000D02*
X172160000Y-75740000D01*
X172160000Y-74230000D02*
X172160000Y-78871000D01*
X161920000Y-74230000D02*
X161920000Y-78871000D01*
X161920000Y-78871000D02*
X172160000Y-78871000D01*
X161920000Y-74230000D02*
X172160000Y-74230000D01*
G04 #@! TO.C,U202*
X168891000Y-86730000D02*
X168891000Y-88240000D01*
X165190000Y-86730000D02*
X165190000Y-88240000D01*
X161920000Y-88240000D02*
X172160000Y-88240000D01*
X172160000Y-86730000D02*
X172160000Y-91371000D01*
X161920000Y-86730000D02*
X161920000Y-91371000D01*
X161920000Y-91371000D02*
X172160000Y-91371000D01*
X161920000Y-86730000D02*
X172160000Y-86730000D01*
G04 #@! TO.C,C202*
X175640000Y-83860000D02*
X179490000Y-83860000D01*
X186360000Y-83860000D02*
X182510000Y-83860000D01*
X186360000Y-74204437D02*
X186360000Y-83860000D01*
X175640000Y-74204437D02*
X175640000Y-83860000D01*
X176704437Y-73140000D02*
X179490000Y-73140000D01*
X185295563Y-73140000D02*
X182510000Y-73140000D01*
X185295563Y-73140000D02*
X186360000Y-74204437D01*
X176704437Y-73140000D02*
X175640000Y-74204437D01*
X183760000Y-71650000D02*
X183760000Y-72900000D01*
X184385000Y-72275000D02*
X183135000Y-72275000D01*
G04 #@! TO.C,C203*
X175640000Y-98860000D02*
X179490000Y-98860000D01*
X186360000Y-98860000D02*
X182510000Y-98860000D01*
X186360000Y-89204437D02*
X186360000Y-98860000D01*
X175640000Y-89204437D02*
X175640000Y-98860000D01*
X176704437Y-88140000D02*
X179490000Y-88140000D01*
X185295563Y-88140000D02*
X182510000Y-88140000D01*
X185295563Y-88140000D02*
X186360000Y-89204437D01*
X176704437Y-88140000D02*
X175640000Y-89204437D01*
X183760000Y-86650000D02*
X183760000Y-87900000D01*
X184385000Y-87275000D02*
X183135000Y-87275000D01*
G04 #@! TO.C,C404*
X154758578Y-110710000D02*
X154241422Y-110710000D01*
X154758578Y-109290000D02*
X154241422Y-109290000D01*
G04 #@! TO.C,J401*
X198310000Y-70540000D02*
X198310000Y-60380000D01*
X190690000Y-70540000D02*
X198310000Y-70540000D01*
X190690000Y-60380000D02*
X190690000Y-70540000D01*
X198310000Y-60380000D02*
X190690000Y-60380000D01*
X197040000Y-60380000D02*
X197040000Y-70540000D01*
G04 #@! TO.C,J402*
X197040000Y-72880000D02*
X197040000Y-83040000D01*
X198310000Y-72880000D02*
X190690000Y-72880000D01*
X190690000Y-72880000D02*
X190690000Y-83040000D01*
X190690000Y-83040000D02*
X198310000Y-83040000D01*
X198310000Y-83040000D02*
X198310000Y-72880000D01*
G04 #@! TO.C,J403*
X198310000Y-95540000D02*
X198310000Y-85380000D01*
X190690000Y-95540000D02*
X198310000Y-95540000D01*
X190690000Y-85380000D02*
X190690000Y-95540000D01*
X198310000Y-85380000D02*
X190690000Y-85380000D01*
X197040000Y-85380000D02*
X197040000Y-95540000D01*
G04 #@! TO.C,J404*
X144330000Y-110730000D02*
X141670000Y-110730000D01*
X144330000Y-110730000D02*
X144330000Y-103050000D01*
X144330000Y-103050000D02*
X141670000Y-103050000D01*
X141670000Y-110730000D02*
X141670000Y-103050000D01*
X141670000Y-113330000D02*
X141670000Y-112000000D01*
X143000000Y-113330000D02*
X141670000Y-113330000D01*
G04 #@! TO.C,J405*
X127120000Y-147540000D02*
X116960000Y-147540000D01*
X127120000Y-148810000D02*
X127120000Y-141190000D01*
X127120000Y-141190000D02*
X116960000Y-141190000D01*
X116960000Y-141190000D02*
X116960000Y-148810000D01*
X116960000Y-148810000D02*
X127120000Y-148810000D01*
G04 #@! TO.C,J406*
X103460000Y-107620000D02*
X103460000Y-97460000D01*
X102190000Y-107620000D02*
X109810000Y-107620000D01*
X109810000Y-107620000D02*
X109810000Y-97460000D01*
X109810000Y-97460000D02*
X102190000Y-97460000D01*
X102190000Y-97460000D02*
X102190000Y-107620000D01*
G04 #@! TO.C,J407*
X102190000Y-117960000D02*
X102190000Y-128120000D01*
X109810000Y-117960000D02*
X102190000Y-117960000D01*
X109810000Y-128120000D02*
X109810000Y-117960000D01*
X102190000Y-128120000D02*
X109810000Y-128120000D01*
X103460000Y-128120000D02*
X103460000Y-117960000D01*
G04 #@! TO.C,J408*
X197540000Y-125380000D02*
X197540000Y-135540000D01*
X198810000Y-125380000D02*
X191190000Y-125380000D01*
X191190000Y-125380000D02*
X191190000Y-135540000D01*
X191190000Y-135540000D02*
X198810000Y-135540000D01*
X198810000Y-135540000D02*
X198810000Y-125380000D01*
G04 #@! TO.C,J410*
X193184205Y-139907898D02*
X186000000Y-147092102D01*
X194082231Y-140805923D02*
X188694077Y-135417769D01*
X188694077Y-135417769D02*
X181509872Y-142601974D01*
X181509872Y-142601974D02*
X186898026Y-147990128D01*
X186898026Y-147990128D02*
X194082231Y-140805923D01*
G04 #@! TO.C,Q201*
X150760000Y-91080000D02*
X150760000Y-90150000D01*
X150760000Y-87920000D02*
X150760000Y-88850000D01*
X150760000Y-87920000D02*
X148600000Y-87920000D01*
X150760000Y-91080000D02*
X149300000Y-91080000D01*
G04 #@! TO.C,Q202*
X150760001Y-83580000D02*
X149300001Y-83580000D01*
X150760001Y-80420000D02*
X148600001Y-80420000D01*
X150760001Y-80420000D02*
X150760001Y-81350000D01*
X150760001Y-83580000D02*
X150760001Y-82650000D01*
G04 #@! TO.C,Q203*
X151260000Y-99580000D02*
X151260000Y-98650000D01*
X151260000Y-96420000D02*
X151260000Y-97350000D01*
X151260000Y-96420000D02*
X149100000Y-96420000D01*
X151260000Y-99580000D02*
X149800000Y-99580000D01*
G04 #@! TO.C,R201*
X147710000Y-89758578D02*
X147710000Y-89241422D01*
X146290000Y-89758578D02*
X146290000Y-89241422D01*
G04 #@! TO.C,R202*
X146290000Y-82258578D02*
X146290000Y-81741422D01*
X147710000Y-82258578D02*
X147710000Y-81741422D01*
G04 #@! TO.C,R203*
X146790000Y-98258578D02*
X146790000Y-97741422D01*
X148210000Y-98258578D02*
X148210000Y-97741422D01*
G04 #@! TO.C,R204*
X153289999Y-89758578D02*
X153289999Y-89241422D01*
X154709999Y-89758578D02*
X154709999Y-89241422D01*
G04 #@! TO.C,R205*
X153290000Y-82258578D02*
X153290000Y-81741422D01*
X154710000Y-82258578D02*
X154710000Y-81741422D01*
G04 #@! TO.C,R206*
X155210000Y-98258577D02*
X155210000Y-97741421D01*
X153790000Y-98258577D02*
X153790000Y-97741421D01*
G04 #@! TO.C,R207*
X155790000Y-81741422D02*
X155790000Y-82258578D01*
X157210000Y-81741422D02*
X157210000Y-82258578D01*
G04 #@! TO.C,R208*
X157210000Y-89241422D02*
X157210000Y-89758578D01*
X155790000Y-89241422D02*
X155790000Y-89758578D01*
G04 #@! TO.C,R209*
X157709999Y-97741422D02*
X157709999Y-98258578D01*
X156289999Y-97741422D02*
X156289999Y-98258578D01*
G04 #@! TO.C,R210*
X162210000Y-114258578D02*
X162210000Y-113741422D01*
X160790000Y-114258578D02*
X160790000Y-113741422D01*
G04 #@! TO.C,R211*
X134741422Y-99710000D02*
X135258578Y-99710000D01*
X134741422Y-98290000D02*
X135258578Y-98290000D01*
G04 #@! TO.C,R212*
X135241422Y-116210000D02*
X135758578Y-116210000D01*
X135241422Y-114790000D02*
X135758578Y-114790000D01*
G04 #@! TO.C,R213*
X169258578Y-108210000D02*
X168741422Y-108210000D01*
X169258578Y-106790000D02*
X168741422Y-106790000D01*
G04 #@! TO.C,R214*
X154210000Y-117196078D02*
X154210000Y-116678922D01*
X152790000Y-117196078D02*
X152790000Y-116678922D01*
D15*
G04 #@! TO.C,U207*
X174405000Y-104050000D02*
X198795000Y-104050000D01*
X174405000Y-122950000D02*
X174405000Y-104050000D01*
X199595000Y-122950000D02*
X174405000Y-122950000D01*
X199595000Y-104850000D02*
X199595000Y-122950000D01*
X198795000Y-104050000D02*
X199595000Y-104850000D01*
G04 #@! TO.C,U208*
X136905000Y-120550000D02*
X161295000Y-120550000D01*
X136905000Y-139450000D02*
X136905000Y-120550000D01*
X162095000Y-139450000D02*
X136905000Y-139450000D01*
X162095000Y-121350000D02*
X162095000Y-139450000D01*
X161295000Y-120550000D02*
X162095000Y-121350000D01*
D14*
G04 #@! TO.C,U401*
X154500000Y-104390000D02*
X156000000Y-104390000D01*
X153000000Y-107610000D02*
X156000000Y-107610000D01*
G04 #@! TO.C,JP201*
X174349999Y-59000000D02*
X172949999Y-59000000D01*
X172249999Y-58300000D02*
X172249999Y-57700000D01*
X172949999Y-57000000D02*
X174349999Y-57000000D01*
X175049999Y-57700000D02*
X175049999Y-58300000D01*
X175049999Y-58300000D02*
G75*
G02X174349999Y-59000000I-700000J0D01*
G01*
X174349999Y-57000000D02*
G75*
G02X175049999Y-57700000I0J-700000D01*
G01*
X172249999Y-57700000D02*
G75*
G02X172949999Y-57000000I700000J0D01*
G01*
X172949999Y-59000000D02*
G75*
G02X172249999Y-58300000I0J700000D01*
G01*
G04 #@! TO.C,JP202*
X172000000Y-94300000D02*
G75*
G02X172700000Y-93600000I700000J0D01*
G01*
X173300000Y-93600000D02*
G75*
G02X174000000Y-94300000I0J-700000D01*
G01*
X174000000Y-95700000D02*
G75*
G02X173300000Y-96400000I-700000J0D01*
G01*
X172700000Y-96400000D02*
G75*
G02X172000000Y-95700000I0J700000D01*
G01*
X173300000Y-96400000D02*
X172700000Y-96400000D01*
X174000000Y-94300000D02*
X174000000Y-95700000D01*
X172700000Y-93600000D02*
X173300000Y-93600000D01*
X172000000Y-95700000D02*
X172000000Y-94300000D01*
G04 #@! TO.C,JP203*
X174000000Y-71700000D02*
G75*
G02X173300000Y-72400000I-700000J0D01*
G01*
X172700000Y-72400000D02*
G75*
G02X172000000Y-71700000I0J700000D01*
G01*
X172000000Y-70300000D02*
G75*
G02X172700000Y-69600000I700000J0D01*
G01*
X173300000Y-69600000D02*
G75*
G02X174000000Y-70300000I0J-700000D01*
G01*
X172700000Y-69600000D02*
X173300000Y-69600000D01*
X172000000Y-71700000D02*
X172000000Y-70300000D01*
X173300000Y-72400000D02*
X172700000Y-72400000D01*
X174000000Y-70300000D02*
X174000000Y-71700000D01*
G04 #@! TO.C,J202*
X103460000Y-88620000D02*
X103460000Y-78460000D01*
X102190000Y-88620000D02*
X109810000Y-88620000D01*
X109810000Y-88620000D02*
X109810000Y-78460000D01*
X109810000Y-78460000D02*
X102190000Y-78460000D01*
X102190000Y-78460000D02*
X102190000Y-88620000D01*
G04 #@! TO.C,U203*
D15*
X165285714Y-97182380D02*
X165285714Y-97991904D01*
X165333333Y-98087142D01*
X165380952Y-98134761D01*
X165476190Y-98182380D01*
X165666666Y-98182380D01*
X165761904Y-98134761D01*
X165809523Y-98087142D01*
X165857142Y-97991904D01*
X165857142Y-97182380D01*
X166285714Y-97277619D02*
X166333333Y-97230000D01*
X166428571Y-97182380D01*
X166666666Y-97182380D01*
X166761904Y-97230000D01*
X166809523Y-97277619D01*
X166857142Y-97372857D01*
X166857142Y-97468095D01*
X166809523Y-97610952D01*
X166238095Y-98182380D01*
X166857142Y-98182380D01*
X167476190Y-97182380D02*
X167571428Y-97182380D01*
X167666666Y-97230000D01*
X167714285Y-97277619D01*
X167761904Y-97372857D01*
X167809523Y-97563333D01*
X167809523Y-97801428D01*
X167761904Y-97991904D01*
X167714285Y-98087142D01*
X167666666Y-98134761D01*
X167571428Y-98182380D01*
X167476190Y-98182380D01*
X167380952Y-98134761D01*
X167333333Y-98087142D01*
X167285714Y-97991904D01*
X167238095Y-97801428D01*
X167238095Y-97563333D01*
X167285714Y-97372857D01*
X167333333Y-97277619D01*
X167380952Y-97230000D01*
X167476190Y-97182380D01*
X168142857Y-97182380D02*
X168761904Y-97182380D01*
X168428571Y-97563333D01*
X168571428Y-97563333D01*
X168666666Y-97610952D01*
X168714285Y-97658571D01*
X168761904Y-97753809D01*
X168761904Y-97991904D01*
X168714285Y-98087142D01*
X168666666Y-98134761D01*
X168571428Y-98182380D01*
X168285714Y-98182380D01*
X168190476Y-98134761D01*
X168142857Y-98087142D01*
G04 #@! TO.C,U205*
X120432161Y-110240962D02*
X120432161Y-111050486D01*
X120479780Y-111145724D01*
X120527399Y-111193343D01*
X120622637Y-111240962D01*
X120813113Y-111240962D01*
X120908351Y-111193343D01*
X120955970Y-111145724D01*
X121003589Y-111050486D01*
X121003589Y-110240962D01*
X121432161Y-110336201D02*
X121479780Y-110288582D01*
X121575018Y-110240962D01*
X121813113Y-110240962D01*
X121908351Y-110288582D01*
X121955970Y-110336201D01*
X122003589Y-110431439D01*
X122003589Y-110526677D01*
X121955970Y-110669534D01*
X121384542Y-111240962D01*
X122003589Y-111240962D01*
X122622637Y-110240962D02*
X122717875Y-110240962D01*
X122813113Y-110288582D01*
X122860732Y-110336201D01*
X122908351Y-110431439D01*
X122955970Y-110621915D01*
X122955970Y-110860010D01*
X122908351Y-111050486D01*
X122860732Y-111145724D01*
X122813113Y-111193343D01*
X122717875Y-111240962D01*
X122622637Y-111240962D01*
X122527399Y-111193343D01*
X122479780Y-111145724D01*
X122432161Y-111050486D01*
X122384542Y-110860010D01*
X122384542Y-110621915D01*
X122432161Y-110431439D01*
X122479780Y-110336201D01*
X122527399Y-110288582D01*
X122622637Y-110240962D01*
X123860732Y-110240962D02*
X123384542Y-110240962D01*
X123336923Y-110717153D01*
X123384542Y-110669534D01*
X123479780Y-110621915D01*
X123717875Y-110621915D01*
X123813113Y-110669534D01*
X123860732Y-110717153D01*
X123908351Y-110812391D01*
X123908351Y-111050486D01*
X123860732Y-111145724D01*
X123813113Y-111193343D01*
X123717875Y-111240962D01*
X123479780Y-111240962D01*
X123384542Y-111193343D01*
X123336923Y-111145724D01*
G04 #@! TO.C,C201*
X187657142Y-65119047D02*
X187704761Y-65166666D01*
X187752380Y-65309523D01*
X187752380Y-65404761D01*
X187704761Y-65547619D01*
X187609523Y-65642857D01*
X187514285Y-65690476D01*
X187323809Y-65738095D01*
X187180952Y-65738095D01*
X186990476Y-65690476D01*
X186895238Y-65642857D01*
X186800000Y-65547619D01*
X186752380Y-65404761D01*
X186752380Y-65309523D01*
X186800000Y-65166666D01*
X186847619Y-65119047D01*
X186847619Y-64738095D02*
X186800000Y-64690476D01*
X186752380Y-64595238D01*
X186752380Y-64357142D01*
X186800000Y-64261904D01*
X186847619Y-64214285D01*
X186942857Y-64166666D01*
X187038095Y-64166666D01*
X187180952Y-64214285D01*
X187752380Y-64785714D01*
X187752380Y-64166666D01*
X186752380Y-63547619D02*
X186752380Y-63452380D01*
X186800000Y-63357142D01*
X186847619Y-63309523D01*
X186942857Y-63261904D01*
X187133333Y-63214285D01*
X187371428Y-63214285D01*
X187561904Y-63261904D01*
X187657142Y-63309523D01*
X187704761Y-63357142D01*
X187752380Y-63452380D01*
X187752380Y-63547619D01*
X187704761Y-63642857D01*
X187657142Y-63690476D01*
X187561904Y-63738095D01*
X187371428Y-63785714D01*
X187133333Y-63785714D01*
X186942857Y-63738095D01*
X186847619Y-63690476D01*
X186800000Y-63642857D01*
X186752380Y-63547619D01*
X187752380Y-62261904D02*
X187752380Y-62833333D01*
X187752380Y-62547619D02*
X186752380Y-62547619D01*
X186895238Y-62642857D01*
X186990476Y-62738095D01*
X187038095Y-62833333D01*
G04 #@! TO.C,J201*
X107122380Y-73952203D02*
X107836666Y-73952203D01*
X107979523Y-73999822D01*
X108074761Y-74095060D01*
X108122380Y-74237917D01*
X108122380Y-74333155D01*
X107217619Y-73523631D02*
X107170000Y-73476012D01*
X107122380Y-73380774D01*
X107122380Y-73142679D01*
X107170000Y-73047441D01*
X107217619Y-72999822D01*
X107312857Y-72952203D01*
X107408095Y-72952203D01*
X107550952Y-72999822D01*
X108122380Y-73571250D01*
X108122380Y-72952203D01*
X107122380Y-72333155D02*
X107122380Y-72237917D01*
X107170000Y-72142679D01*
X107217619Y-72095060D01*
X107312857Y-72047441D01*
X107503333Y-71999822D01*
X107741428Y-71999822D01*
X107931904Y-72047441D01*
X108027142Y-72095060D01*
X108074761Y-72142679D01*
X108122380Y-72237917D01*
X108122380Y-72333155D01*
X108074761Y-72428393D01*
X108027142Y-72476012D01*
X107931904Y-72523631D01*
X107741428Y-72571250D01*
X107503333Y-72571250D01*
X107312857Y-72523631D01*
X107217619Y-72476012D01*
X107170000Y-72428393D01*
X107122380Y-72333155D01*
X108122380Y-71047441D02*
X108122380Y-71618869D01*
X108122380Y-71333155D02*
X107122380Y-71333155D01*
X107265238Y-71428393D01*
X107360476Y-71523631D01*
X107408095Y-71618869D01*
G04 #@! TO.C,J409*
X172254285Y-137872380D02*
X172254285Y-138586666D01*
X172206666Y-138729523D01*
X172111428Y-138824761D01*
X171968571Y-138872380D01*
X171873333Y-138872380D01*
X173159047Y-138205714D02*
X173159047Y-138872380D01*
X172920952Y-137824761D02*
X172682857Y-138539047D01*
X173301904Y-138539047D01*
X173873333Y-137872380D02*
X173968571Y-137872380D01*
X174063809Y-137920000D01*
X174111428Y-137967619D01*
X174159047Y-138062857D01*
X174206666Y-138253333D01*
X174206666Y-138491428D01*
X174159047Y-138681904D01*
X174111428Y-138777142D01*
X174063809Y-138824761D01*
X173968571Y-138872380D01*
X173873333Y-138872380D01*
X173778095Y-138824761D01*
X173730476Y-138777142D01*
X173682857Y-138681904D01*
X173635238Y-138491428D01*
X173635238Y-138253333D01*
X173682857Y-138062857D01*
X173730476Y-137967619D01*
X173778095Y-137920000D01*
X173873333Y-137872380D01*
X174682857Y-138872380D02*
X174873333Y-138872380D01*
X174968571Y-138824761D01*
X175016190Y-138777142D01*
X175111428Y-138634285D01*
X175159047Y-138443809D01*
X175159047Y-138062857D01*
X175111428Y-137967619D01*
X175063809Y-137920000D01*
X174968571Y-137872380D01*
X174778095Y-137872380D01*
X174682857Y-137920000D01*
X174635238Y-137967619D01*
X174587619Y-138062857D01*
X174587619Y-138300952D01*
X174635238Y-138396190D01*
X174682857Y-138443809D01*
X174778095Y-138491428D01*
X174968571Y-138491428D01*
X175063809Y-138443809D01*
X175111428Y-138396190D01*
X175159047Y-138300952D01*
G04 #@! TO.C,U201*
X165325714Y-72682380D02*
X165325714Y-73491904D01*
X165373333Y-73587142D01*
X165420952Y-73634761D01*
X165516190Y-73682380D01*
X165706666Y-73682380D01*
X165801904Y-73634761D01*
X165849523Y-73587142D01*
X165897142Y-73491904D01*
X165897142Y-72682380D01*
X166325714Y-72777619D02*
X166373333Y-72730000D01*
X166468571Y-72682380D01*
X166706666Y-72682380D01*
X166801904Y-72730000D01*
X166849523Y-72777619D01*
X166897142Y-72872857D01*
X166897142Y-72968095D01*
X166849523Y-73110952D01*
X166278095Y-73682380D01*
X166897142Y-73682380D01*
X167516190Y-72682380D02*
X167611428Y-72682380D01*
X167706666Y-72730000D01*
X167754285Y-72777619D01*
X167801904Y-72872857D01*
X167849523Y-73063333D01*
X167849523Y-73301428D01*
X167801904Y-73491904D01*
X167754285Y-73587142D01*
X167706666Y-73634761D01*
X167611428Y-73682380D01*
X167516190Y-73682380D01*
X167420952Y-73634761D01*
X167373333Y-73587142D01*
X167325714Y-73491904D01*
X167278095Y-73301428D01*
X167278095Y-73063333D01*
X167325714Y-72872857D01*
X167373333Y-72777619D01*
X167420952Y-72730000D01*
X167516190Y-72682380D01*
X168801904Y-73682380D02*
X168230476Y-73682380D01*
X168516190Y-73682380D02*
X168516190Y-72682380D01*
X168420952Y-72825238D01*
X168325714Y-72920476D01*
X168230476Y-72968095D01*
G04 #@! TO.C,U202*
X165325714Y-85182380D02*
X165325714Y-85991904D01*
X165373333Y-86087142D01*
X165420952Y-86134761D01*
X165516190Y-86182380D01*
X165706666Y-86182380D01*
X165801904Y-86134761D01*
X165849523Y-86087142D01*
X165897142Y-85991904D01*
X165897142Y-85182380D01*
X166325714Y-85277619D02*
X166373333Y-85230000D01*
X166468571Y-85182380D01*
X166706666Y-85182380D01*
X166801904Y-85230000D01*
X166849523Y-85277619D01*
X166897142Y-85372857D01*
X166897142Y-85468095D01*
X166849523Y-85610952D01*
X166278095Y-86182380D01*
X166897142Y-86182380D01*
X167516190Y-85182380D02*
X167611428Y-85182380D01*
X167706666Y-85230000D01*
X167754285Y-85277619D01*
X167801904Y-85372857D01*
X167849523Y-85563333D01*
X167849523Y-85801428D01*
X167801904Y-85991904D01*
X167754285Y-86087142D01*
X167706666Y-86134761D01*
X167611428Y-86182380D01*
X167516190Y-86182380D01*
X167420952Y-86134761D01*
X167373333Y-86087142D01*
X167325714Y-85991904D01*
X167278095Y-85801428D01*
X167278095Y-85563333D01*
X167325714Y-85372857D01*
X167373333Y-85277619D01*
X167420952Y-85230000D01*
X167516190Y-85182380D01*
X168230476Y-85277619D02*
X168278095Y-85230000D01*
X168373333Y-85182380D01*
X168611428Y-85182380D01*
X168706666Y-85230000D01*
X168754285Y-85277619D01*
X168801904Y-85372857D01*
X168801904Y-85468095D01*
X168754285Y-85610952D01*
X168182857Y-86182380D01*
X168801904Y-86182380D01*
G04 #@! TO.C,C202*
X187657142Y-79619047D02*
X187704761Y-79666666D01*
X187752380Y-79809523D01*
X187752380Y-79904761D01*
X187704761Y-80047619D01*
X187609523Y-80142857D01*
X187514285Y-80190476D01*
X187323809Y-80238095D01*
X187180952Y-80238095D01*
X186990476Y-80190476D01*
X186895238Y-80142857D01*
X186800000Y-80047619D01*
X186752380Y-79904761D01*
X186752380Y-79809523D01*
X186800000Y-79666666D01*
X186847619Y-79619047D01*
X186847619Y-79238095D02*
X186800000Y-79190476D01*
X186752380Y-79095238D01*
X186752380Y-78857142D01*
X186800000Y-78761904D01*
X186847619Y-78714285D01*
X186942857Y-78666666D01*
X187038095Y-78666666D01*
X187180952Y-78714285D01*
X187752380Y-79285714D01*
X187752380Y-78666666D01*
X186752380Y-78047619D02*
X186752380Y-77952380D01*
X186800000Y-77857142D01*
X186847619Y-77809523D01*
X186942857Y-77761904D01*
X187133333Y-77714285D01*
X187371428Y-77714285D01*
X187561904Y-77761904D01*
X187657142Y-77809523D01*
X187704761Y-77857142D01*
X187752380Y-77952380D01*
X187752380Y-78047619D01*
X187704761Y-78142857D01*
X187657142Y-78190476D01*
X187561904Y-78238095D01*
X187371428Y-78285714D01*
X187133333Y-78285714D01*
X186942857Y-78238095D01*
X186847619Y-78190476D01*
X186800000Y-78142857D01*
X186752380Y-78047619D01*
X186847619Y-77333333D02*
X186800000Y-77285714D01*
X186752380Y-77190476D01*
X186752380Y-76952380D01*
X186800000Y-76857142D01*
X186847619Y-76809523D01*
X186942857Y-76761904D01*
X187038095Y-76761904D01*
X187180952Y-76809523D01*
X187752380Y-77380952D01*
X187752380Y-76761904D01*
G04 #@! TO.C,C203*
X187657142Y-94619047D02*
X187704761Y-94666666D01*
X187752380Y-94809523D01*
X187752380Y-94904761D01*
X187704761Y-95047619D01*
X187609523Y-95142857D01*
X187514285Y-95190476D01*
X187323809Y-95238095D01*
X187180952Y-95238095D01*
X186990476Y-95190476D01*
X186895238Y-95142857D01*
X186800000Y-95047619D01*
X186752380Y-94904761D01*
X186752380Y-94809523D01*
X186800000Y-94666666D01*
X186847619Y-94619047D01*
X186847619Y-94238095D02*
X186800000Y-94190476D01*
X186752380Y-94095238D01*
X186752380Y-93857142D01*
X186800000Y-93761904D01*
X186847619Y-93714285D01*
X186942857Y-93666666D01*
X187038095Y-93666666D01*
X187180952Y-93714285D01*
X187752380Y-94285714D01*
X187752380Y-93666666D01*
X186752380Y-93047619D02*
X186752380Y-92952380D01*
X186800000Y-92857142D01*
X186847619Y-92809523D01*
X186942857Y-92761904D01*
X187133333Y-92714285D01*
X187371428Y-92714285D01*
X187561904Y-92761904D01*
X187657142Y-92809523D01*
X187704761Y-92857142D01*
X187752380Y-92952380D01*
X187752380Y-93047619D01*
X187704761Y-93142857D01*
X187657142Y-93190476D01*
X187561904Y-93238095D01*
X187371428Y-93285714D01*
X187133333Y-93285714D01*
X186942857Y-93238095D01*
X186847619Y-93190476D01*
X186800000Y-93142857D01*
X186752380Y-93047619D01*
X186752380Y-92380952D02*
X186752380Y-91761904D01*
X187133333Y-92095238D01*
X187133333Y-91952380D01*
X187180952Y-91857142D01*
X187228571Y-91809523D01*
X187323809Y-91761904D01*
X187561904Y-91761904D01*
X187657142Y-91809523D01*
X187704761Y-91857142D01*
X187752380Y-91952380D01*
X187752380Y-92238095D01*
X187704761Y-92333333D01*
X187657142Y-92380952D01*
G04 #@! TO.C,C404*
X153380952Y-112007142D02*
X153333333Y-112054761D01*
X153190476Y-112102380D01*
X153095238Y-112102380D01*
X152952380Y-112054761D01*
X152857142Y-111959523D01*
X152809523Y-111864285D01*
X152761904Y-111673809D01*
X152761904Y-111530952D01*
X152809523Y-111340476D01*
X152857142Y-111245238D01*
X152952380Y-111150000D01*
X153095238Y-111102380D01*
X153190476Y-111102380D01*
X153333333Y-111150000D01*
X153380952Y-111197619D01*
X154238095Y-111435714D02*
X154238095Y-112102380D01*
X154000000Y-111054761D02*
X153761904Y-111769047D01*
X154380952Y-111769047D01*
X154952380Y-111102380D02*
X155047619Y-111102380D01*
X155142857Y-111150000D01*
X155190476Y-111197619D01*
X155238095Y-111292857D01*
X155285714Y-111483333D01*
X155285714Y-111721428D01*
X155238095Y-111911904D01*
X155190476Y-112007142D01*
X155142857Y-112054761D01*
X155047619Y-112102380D01*
X154952380Y-112102380D01*
X154857142Y-112054761D01*
X154809523Y-112007142D01*
X154761904Y-111911904D01*
X154714285Y-111721428D01*
X154714285Y-111483333D01*
X154761904Y-111292857D01*
X154809523Y-111197619D01*
X154857142Y-111150000D01*
X154952380Y-111102380D01*
X156142857Y-111435714D02*
X156142857Y-112102380D01*
X155904761Y-111054761D02*
X155666666Y-111769047D01*
X156285714Y-111769047D01*
G04 #@! TO.C,J401*
X190714285Y-70952380D02*
X190714285Y-71666666D01*
X190666666Y-71809523D01*
X190571428Y-71904761D01*
X190428571Y-71952380D01*
X190333333Y-71952380D01*
X191619047Y-71285714D02*
X191619047Y-71952380D01*
X191380952Y-70904761D02*
X191142857Y-71619047D01*
X191761904Y-71619047D01*
X192333333Y-70952380D02*
X192428571Y-70952380D01*
X192523809Y-71000000D01*
X192571428Y-71047619D01*
X192619047Y-71142857D01*
X192666666Y-71333333D01*
X192666666Y-71571428D01*
X192619047Y-71761904D01*
X192571428Y-71857142D01*
X192523809Y-71904761D01*
X192428571Y-71952380D01*
X192333333Y-71952380D01*
X192238095Y-71904761D01*
X192190476Y-71857142D01*
X192142857Y-71761904D01*
X192095238Y-71571428D01*
X192095238Y-71333333D01*
X192142857Y-71142857D01*
X192190476Y-71047619D01*
X192238095Y-71000000D01*
X192333333Y-70952380D01*
X193619047Y-71952380D02*
X193047619Y-71952380D01*
X193333333Y-71952380D02*
X193333333Y-70952380D01*
X193238095Y-71095238D01*
X193142857Y-71190476D01*
X193047619Y-71238095D01*
G04 #@! TO.C,J402*
X190714285Y-83452380D02*
X190714285Y-84166666D01*
X190666666Y-84309523D01*
X190571428Y-84404761D01*
X190428571Y-84452380D01*
X190333333Y-84452380D01*
X191619047Y-83785714D02*
X191619047Y-84452380D01*
X191380952Y-83404761D02*
X191142857Y-84119047D01*
X191761904Y-84119047D01*
X192333333Y-83452380D02*
X192428571Y-83452380D01*
X192523809Y-83500000D01*
X192571428Y-83547619D01*
X192619047Y-83642857D01*
X192666666Y-83833333D01*
X192666666Y-84071428D01*
X192619047Y-84261904D01*
X192571428Y-84357142D01*
X192523809Y-84404761D01*
X192428571Y-84452380D01*
X192333333Y-84452380D01*
X192238095Y-84404761D01*
X192190476Y-84357142D01*
X192142857Y-84261904D01*
X192095238Y-84071428D01*
X192095238Y-83833333D01*
X192142857Y-83642857D01*
X192190476Y-83547619D01*
X192238095Y-83500000D01*
X192333333Y-83452380D01*
X193047619Y-83547619D02*
X193095238Y-83500000D01*
X193190476Y-83452380D01*
X193428571Y-83452380D01*
X193523809Y-83500000D01*
X193571428Y-83547619D01*
X193619047Y-83642857D01*
X193619047Y-83738095D01*
X193571428Y-83880952D01*
X193000000Y-84452380D01*
X193619047Y-84452380D01*
G04 #@! TO.C,J403*
X190714285Y-95952380D02*
X190714285Y-96666666D01*
X190666666Y-96809523D01*
X190571428Y-96904761D01*
X190428571Y-96952380D01*
X190333333Y-96952380D01*
X191619047Y-96285714D02*
X191619047Y-96952380D01*
X191380952Y-95904761D02*
X191142857Y-96619047D01*
X191761904Y-96619047D01*
X192333333Y-95952380D02*
X192428571Y-95952380D01*
X192523809Y-96000000D01*
X192571428Y-96047619D01*
X192619047Y-96142857D01*
X192666666Y-96333333D01*
X192666666Y-96571428D01*
X192619047Y-96761904D01*
X192571428Y-96857142D01*
X192523809Y-96904761D01*
X192428571Y-96952380D01*
X192333333Y-96952380D01*
X192238095Y-96904761D01*
X192190476Y-96857142D01*
X192142857Y-96761904D01*
X192095238Y-96571428D01*
X192095238Y-96333333D01*
X192142857Y-96142857D01*
X192190476Y-96047619D01*
X192238095Y-96000000D01*
X192333333Y-95952380D01*
X193000000Y-95952380D02*
X193619047Y-95952380D01*
X193285714Y-96333333D01*
X193428571Y-96333333D01*
X193523809Y-96380952D01*
X193571428Y-96428571D01*
X193619047Y-96523809D01*
X193619047Y-96761904D01*
X193571428Y-96857142D01*
X193523809Y-96904761D01*
X193428571Y-96952380D01*
X193142857Y-96952380D01*
X193047619Y-96904761D01*
X193000000Y-96857142D01*
G04 #@! TO.C,J404*
X141714285Y-114222380D02*
X141714285Y-114936666D01*
X141666666Y-115079523D01*
X141571428Y-115174761D01*
X141428571Y-115222380D01*
X141333333Y-115222380D01*
X142619047Y-114555714D02*
X142619047Y-115222380D01*
X142380952Y-114174761D02*
X142142857Y-114889047D01*
X142761904Y-114889047D01*
X143333333Y-114222380D02*
X143428571Y-114222380D01*
X143523809Y-114270000D01*
X143571428Y-114317619D01*
X143619047Y-114412857D01*
X143666666Y-114603333D01*
X143666666Y-114841428D01*
X143619047Y-115031904D01*
X143571428Y-115127142D01*
X143523809Y-115174761D01*
X143428571Y-115222380D01*
X143333333Y-115222380D01*
X143238095Y-115174761D01*
X143190476Y-115127142D01*
X143142857Y-115031904D01*
X143095238Y-114841428D01*
X143095238Y-114603333D01*
X143142857Y-114412857D01*
X143190476Y-114317619D01*
X143238095Y-114270000D01*
X143333333Y-114222380D01*
X144523809Y-114555714D02*
X144523809Y-115222380D01*
X144285714Y-114174761D02*
X144047619Y-114889047D01*
X144666666Y-114889047D01*
G04 #@! TO.C,J405*
X127714285Y-147452380D02*
X127714285Y-148166666D01*
X127666666Y-148309523D01*
X127571428Y-148404761D01*
X127428571Y-148452380D01*
X127333333Y-148452380D01*
X128619047Y-147785714D02*
X128619047Y-148452380D01*
X128380952Y-147404761D02*
X128142857Y-148119047D01*
X128761904Y-148119047D01*
X129333333Y-147452380D02*
X129428571Y-147452380D01*
X129523809Y-147500000D01*
X129571428Y-147547619D01*
X129619047Y-147642857D01*
X129666666Y-147833333D01*
X129666666Y-148071428D01*
X129619047Y-148261904D01*
X129571428Y-148357142D01*
X129523809Y-148404761D01*
X129428571Y-148452380D01*
X129333333Y-148452380D01*
X129238095Y-148404761D01*
X129190476Y-148357142D01*
X129142857Y-148261904D01*
X129095238Y-148071428D01*
X129095238Y-147833333D01*
X129142857Y-147642857D01*
X129190476Y-147547619D01*
X129238095Y-147500000D01*
X129333333Y-147452380D01*
X130571428Y-147452380D02*
X130095238Y-147452380D01*
X130047619Y-147928571D01*
X130095238Y-147880952D01*
X130190476Y-147833333D01*
X130428571Y-147833333D01*
X130523809Y-147880952D01*
X130571428Y-147928571D01*
X130619047Y-148023809D01*
X130619047Y-148261904D01*
X130571428Y-148357142D01*
X130523809Y-148404761D01*
X130428571Y-148452380D01*
X130190476Y-148452380D01*
X130095238Y-148404761D01*
X130047619Y-148357142D01*
G04 #@! TO.C,J406*
X104714285Y-108452380D02*
X104714285Y-109166666D01*
X104666666Y-109309523D01*
X104571428Y-109404761D01*
X104428571Y-109452380D01*
X104333333Y-109452380D01*
X105619047Y-108785714D02*
X105619047Y-109452380D01*
X105380952Y-108404761D02*
X105142857Y-109119047D01*
X105761904Y-109119047D01*
X106333333Y-108452380D02*
X106428571Y-108452380D01*
X106523809Y-108500000D01*
X106571428Y-108547619D01*
X106619047Y-108642857D01*
X106666666Y-108833333D01*
X106666666Y-109071428D01*
X106619047Y-109261904D01*
X106571428Y-109357142D01*
X106523809Y-109404761D01*
X106428571Y-109452380D01*
X106333333Y-109452380D01*
X106238095Y-109404761D01*
X106190476Y-109357142D01*
X106142857Y-109261904D01*
X106095238Y-109071428D01*
X106095238Y-108833333D01*
X106142857Y-108642857D01*
X106190476Y-108547619D01*
X106238095Y-108500000D01*
X106333333Y-108452380D01*
X107523809Y-108452380D02*
X107333333Y-108452380D01*
X107238095Y-108500000D01*
X107190476Y-108547619D01*
X107095238Y-108690476D01*
X107047619Y-108880952D01*
X107047619Y-109261904D01*
X107095238Y-109357142D01*
X107142857Y-109404761D01*
X107238095Y-109452380D01*
X107428571Y-109452380D01*
X107523809Y-109404761D01*
X107571428Y-109357142D01*
X107619047Y-109261904D01*
X107619047Y-109023809D01*
X107571428Y-108928571D01*
X107523809Y-108880952D01*
X107428571Y-108833333D01*
X107238095Y-108833333D01*
X107142857Y-108880952D01*
X107095238Y-108928571D01*
X107047619Y-109023809D01*
G04 #@! TO.C,J407*
X104714285Y-128452380D02*
X104714285Y-129166666D01*
X104666666Y-129309523D01*
X104571428Y-129404761D01*
X104428571Y-129452380D01*
X104333333Y-129452380D01*
X105619047Y-128785714D02*
X105619047Y-129452380D01*
X105380952Y-128404761D02*
X105142857Y-129119047D01*
X105761904Y-129119047D01*
X106333333Y-128452380D02*
X106428571Y-128452380D01*
X106523809Y-128500000D01*
X106571428Y-128547619D01*
X106619047Y-128642857D01*
X106666666Y-128833333D01*
X106666666Y-129071428D01*
X106619047Y-129261904D01*
X106571428Y-129357142D01*
X106523809Y-129404761D01*
X106428571Y-129452380D01*
X106333333Y-129452380D01*
X106238095Y-129404761D01*
X106190476Y-129357142D01*
X106142857Y-129261904D01*
X106095238Y-129071428D01*
X106095238Y-128833333D01*
X106142857Y-128642857D01*
X106190476Y-128547619D01*
X106238095Y-128500000D01*
X106333333Y-128452380D01*
X107000000Y-128452380D02*
X107666666Y-128452380D01*
X107238095Y-129452380D01*
G04 #@! TO.C,J408*
X193964285Y-135952380D02*
X193964285Y-136666666D01*
X193916666Y-136809523D01*
X193821428Y-136904761D01*
X193678571Y-136952380D01*
X193583333Y-136952380D01*
X194869047Y-136285714D02*
X194869047Y-136952380D01*
X194630952Y-135904761D02*
X194392857Y-136619047D01*
X195011904Y-136619047D01*
X195583333Y-135952380D02*
X195678571Y-135952380D01*
X195773809Y-136000000D01*
X195821428Y-136047619D01*
X195869047Y-136142857D01*
X195916666Y-136333333D01*
X195916666Y-136571428D01*
X195869047Y-136761904D01*
X195821428Y-136857142D01*
X195773809Y-136904761D01*
X195678571Y-136952380D01*
X195583333Y-136952380D01*
X195488095Y-136904761D01*
X195440476Y-136857142D01*
X195392857Y-136761904D01*
X195345238Y-136571428D01*
X195345238Y-136333333D01*
X195392857Y-136142857D01*
X195440476Y-136047619D01*
X195488095Y-136000000D01*
X195583333Y-135952380D01*
X196488095Y-136380952D02*
X196392857Y-136333333D01*
X196345238Y-136285714D01*
X196297619Y-136190476D01*
X196297619Y-136142857D01*
X196345238Y-136047619D01*
X196392857Y-136000000D01*
X196488095Y-135952380D01*
X196678571Y-135952380D01*
X196773809Y-136000000D01*
X196821428Y-136047619D01*
X196869047Y-136142857D01*
X196869047Y-136190476D01*
X196821428Y-136285714D01*
X196773809Y-136333333D01*
X196678571Y-136380952D01*
X196488095Y-136380952D01*
X196392857Y-136428571D01*
X196345238Y-136476190D01*
X196297619Y-136571428D01*
X196297619Y-136761904D01*
X196345238Y-136857142D01*
X196392857Y-136904761D01*
X196488095Y-136952380D01*
X196678571Y-136952380D01*
X196773809Y-136904761D01*
X196821428Y-136857142D01*
X196869047Y-136761904D01*
X196869047Y-136571428D01*
X196821428Y-136476190D01*
X196773809Y-136428571D01*
X196678571Y-136380952D01*
G04 #@! TO.C,J410*
X182907586Y-138633758D02*
X183412662Y-139138834D01*
X183480006Y-139273521D01*
X183480006Y-139408208D01*
X183412662Y-139542895D01*
X183345319Y-139610238D01*
X183783052Y-138229697D02*
X184254456Y-138701101D01*
X183345319Y-138128681D02*
X183682036Y-138802116D01*
X184119769Y-138364384D01*
X184995235Y-137960323D02*
X184591174Y-138364384D01*
X184793204Y-138162353D02*
X184086097Y-137455246D01*
X184119769Y-137623605D01*
X184119769Y-137758292D01*
X184086097Y-137859307D01*
X184725861Y-136815483D02*
X184793204Y-136748140D01*
X184894219Y-136714468D01*
X184961563Y-136714468D01*
X185062578Y-136748140D01*
X185230937Y-136849155D01*
X185399296Y-137017514D01*
X185500311Y-137185872D01*
X185533983Y-137286888D01*
X185533983Y-137354231D01*
X185500311Y-137455246D01*
X185432967Y-137522590D01*
X185331952Y-137556262D01*
X185264609Y-137556262D01*
X185163593Y-137522590D01*
X184995235Y-137421575D01*
X184826876Y-137253216D01*
X184725861Y-137084857D01*
X184692189Y-136983842D01*
X184692189Y-136916498D01*
X184725861Y-136815483D01*
G04 #@! TO.C,Q201*
X148952380Y-87547619D02*
X148857142Y-87500000D01*
X148761904Y-87404761D01*
X148619047Y-87261904D01*
X148523809Y-87214285D01*
X148428571Y-87214285D01*
X148476190Y-87452380D02*
X148380952Y-87404761D01*
X148285714Y-87309523D01*
X148238095Y-87119047D01*
X148238095Y-86785714D01*
X148285714Y-86595238D01*
X148380952Y-86500000D01*
X148476190Y-86452380D01*
X148666666Y-86452380D01*
X148761904Y-86500000D01*
X148857142Y-86595238D01*
X148904761Y-86785714D01*
X148904761Y-87119047D01*
X148857142Y-87309523D01*
X148761904Y-87404761D01*
X148666666Y-87452380D01*
X148476190Y-87452380D01*
X149285714Y-86547619D02*
X149333333Y-86500000D01*
X149428571Y-86452380D01*
X149666666Y-86452380D01*
X149761904Y-86500000D01*
X149809523Y-86547619D01*
X149857142Y-86642857D01*
X149857142Y-86738095D01*
X149809523Y-86880952D01*
X149238095Y-87452380D01*
X149857142Y-87452380D01*
X150476190Y-86452380D02*
X150571428Y-86452380D01*
X150666666Y-86500000D01*
X150714285Y-86547619D01*
X150761904Y-86642857D01*
X150809523Y-86833333D01*
X150809523Y-87071428D01*
X150761904Y-87261904D01*
X150714285Y-87357142D01*
X150666666Y-87404761D01*
X150571428Y-87452380D01*
X150476190Y-87452380D01*
X150380952Y-87404761D01*
X150333333Y-87357142D01*
X150285714Y-87261904D01*
X150238095Y-87071428D01*
X150238095Y-86833333D01*
X150285714Y-86642857D01*
X150333333Y-86547619D01*
X150380952Y-86500000D01*
X150476190Y-86452380D01*
X151761904Y-87452380D02*
X151190476Y-87452380D01*
X151476190Y-87452380D02*
X151476190Y-86452380D01*
X151380952Y-86595238D01*
X151285714Y-86690476D01*
X151190476Y-86738095D01*
G04 #@! TO.C,Q202*
X148952381Y-80047619D02*
X148857143Y-80000000D01*
X148761905Y-79904761D01*
X148619048Y-79761904D01*
X148523810Y-79714285D01*
X148428572Y-79714285D01*
X148476191Y-79952380D02*
X148380953Y-79904761D01*
X148285715Y-79809523D01*
X148238096Y-79619047D01*
X148238096Y-79285714D01*
X148285715Y-79095238D01*
X148380953Y-79000000D01*
X148476191Y-78952380D01*
X148666667Y-78952380D01*
X148761905Y-79000000D01*
X148857143Y-79095238D01*
X148904762Y-79285714D01*
X148904762Y-79619047D01*
X148857143Y-79809523D01*
X148761905Y-79904761D01*
X148666667Y-79952380D01*
X148476191Y-79952380D01*
X149285715Y-79047619D02*
X149333334Y-79000000D01*
X149428572Y-78952380D01*
X149666667Y-78952380D01*
X149761905Y-79000000D01*
X149809524Y-79047619D01*
X149857143Y-79142857D01*
X149857143Y-79238095D01*
X149809524Y-79380952D01*
X149238096Y-79952380D01*
X149857143Y-79952380D01*
X150476191Y-78952380D02*
X150571429Y-78952380D01*
X150666667Y-79000000D01*
X150714286Y-79047619D01*
X150761905Y-79142857D01*
X150809524Y-79333333D01*
X150809524Y-79571428D01*
X150761905Y-79761904D01*
X150714286Y-79857142D01*
X150666667Y-79904761D01*
X150571429Y-79952380D01*
X150476191Y-79952380D01*
X150380953Y-79904761D01*
X150333334Y-79857142D01*
X150285715Y-79761904D01*
X150238096Y-79571428D01*
X150238096Y-79333333D01*
X150285715Y-79142857D01*
X150333334Y-79047619D01*
X150380953Y-79000000D01*
X150476191Y-78952380D01*
X151190477Y-79047619D02*
X151238096Y-79000000D01*
X151333334Y-78952380D01*
X151571429Y-78952380D01*
X151666667Y-79000000D01*
X151714286Y-79047619D01*
X151761905Y-79142857D01*
X151761905Y-79238095D01*
X151714286Y-79380952D01*
X151142858Y-79952380D01*
X151761905Y-79952380D01*
G04 #@! TO.C,Q203*
X149452380Y-96047619D02*
X149357142Y-96000000D01*
X149261904Y-95904761D01*
X149119047Y-95761904D01*
X149023809Y-95714285D01*
X148928571Y-95714285D01*
X148976190Y-95952380D02*
X148880952Y-95904761D01*
X148785714Y-95809523D01*
X148738095Y-95619047D01*
X148738095Y-95285714D01*
X148785714Y-95095238D01*
X148880952Y-95000000D01*
X148976190Y-94952380D01*
X149166666Y-94952380D01*
X149261904Y-95000000D01*
X149357142Y-95095238D01*
X149404761Y-95285714D01*
X149404761Y-95619047D01*
X149357142Y-95809523D01*
X149261904Y-95904761D01*
X149166666Y-95952380D01*
X148976190Y-95952380D01*
X149785714Y-95047619D02*
X149833333Y-95000000D01*
X149928571Y-94952380D01*
X150166666Y-94952380D01*
X150261904Y-95000000D01*
X150309523Y-95047619D01*
X150357142Y-95142857D01*
X150357142Y-95238095D01*
X150309523Y-95380952D01*
X149738095Y-95952380D01*
X150357142Y-95952380D01*
X150976190Y-94952380D02*
X151071428Y-94952380D01*
X151166666Y-95000000D01*
X151214285Y-95047619D01*
X151261904Y-95142857D01*
X151309523Y-95333333D01*
X151309523Y-95571428D01*
X151261904Y-95761904D01*
X151214285Y-95857142D01*
X151166666Y-95904761D01*
X151071428Y-95952380D01*
X150976190Y-95952380D01*
X150880952Y-95904761D01*
X150833333Y-95857142D01*
X150785714Y-95761904D01*
X150738095Y-95571428D01*
X150738095Y-95333333D01*
X150785714Y-95142857D01*
X150833333Y-95047619D01*
X150880952Y-95000000D01*
X150976190Y-94952380D01*
X151642857Y-94952380D02*
X152261904Y-94952380D01*
X151928571Y-95333333D01*
X152071428Y-95333333D01*
X152166666Y-95380952D01*
X152214285Y-95428571D01*
X152261904Y-95523809D01*
X152261904Y-95761904D01*
X152214285Y-95857142D01*
X152166666Y-95904761D01*
X152071428Y-95952380D01*
X151785714Y-95952380D01*
X151690476Y-95904761D01*
X151642857Y-95857142D01*
G04 #@! TO.C,R201*
X145802380Y-90619047D02*
X145326190Y-90952380D01*
X145802380Y-91190476D02*
X144802380Y-91190476D01*
X144802380Y-90809523D01*
X144850000Y-90714285D01*
X144897619Y-90666666D01*
X144992857Y-90619047D01*
X145135714Y-90619047D01*
X145230952Y-90666666D01*
X145278571Y-90714285D01*
X145326190Y-90809523D01*
X145326190Y-91190476D01*
X144897619Y-90238095D02*
X144850000Y-90190476D01*
X144802380Y-90095238D01*
X144802380Y-89857142D01*
X144850000Y-89761904D01*
X144897619Y-89714285D01*
X144992857Y-89666666D01*
X145088095Y-89666666D01*
X145230952Y-89714285D01*
X145802380Y-90285714D01*
X145802380Y-89666666D01*
X144802380Y-89047619D02*
X144802380Y-88952380D01*
X144850000Y-88857142D01*
X144897619Y-88809523D01*
X144992857Y-88761904D01*
X145183333Y-88714285D01*
X145421428Y-88714285D01*
X145611904Y-88761904D01*
X145707142Y-88809523D01*
X145754761Y-88857142D01*
X145802380Y-88952380D01*
X145802380Y-89047619D01*
X145754761Y-89142857D01*
X145707142Y-89190476D01*
X145611904Y-89238095D01*
X145421428Y-89285714D01*
X145183333Y-89285714D01*
X144992857Y-89238095D01*
X144897619Y-89190476D01*
X144850000Y-89142857D01*
X144802380Y-89047619D01*
X145802380Y-87761904D02*
X145802380Y-88333333D01*
X145802380Y-88047619D02*
X144802380Y-88047619D01*
X144945238Y-88142857D01*
X145040476Y-88238095D01*
X145088095Y-88333333D01*
G04 #@! TO.C,R202*
X145802380Y-83119047D02*
X145326190Y-83452380D01*
X145802380Y-83690476D02*
X144802380Y-83690476D01*
X144802380Y-83309523D01*
X144850000Y-83214285D01*
X144897619Y-83166666D01*
X144992857Y-83119047D01*
X145135714Y-83119047D01*
X145230952Y-83166666D01*
X145278571Y-83214285D01*
X145326190Y-83309523D01*
X145326190Y-83690476D01*
X144897619Y-82738095D02*
X144850000Y-82690476D01*
X144802380Y-82595238D01*
X144802380Y-82357142D01*
X144850000Y-82261904D01*
X144897619Y-82214285D01*
X144992857Y-82166666D01*
X145088095Y-82166666D01*
X145230952Y-82214285D01*
X145802380Y-82785714D01*
X145802380Y-82166666D01*
X144802380Y-81547619D02*
X144802380Y-81452380D01*
X144850000Y-81357142D01*
X144897619Y-81309523D01*
X144992857Y-81261904D01*
X145183333Y-81214285D01*
X145421428Y-81214285D01*
X145611904Y-81261904D01*
X145707142Y-81309523D01*
X145754761Y-81357142D01*
X145802380Y-81452380D01*
X145802380Y-81547619D01*
X145754761Y-81642857D01*
X145707142Y-81690476D01*
X145611904Y-81738095D01*
X145421428Y-81785714D01*
X145183333Y-81785714D01*
X144992857Y-81738095D01*
X144897619Y-81690476D01*
X144850000Y-81642857D01*
X144802380Y-81547619D01*
X144897619Y-80833333D02*
X144850000Y-80785714D01*
X144802380Y-80690476D01*
X144802380Y-80452380D01*
X144850000Y-80357142D01*
X144897619Y-80309523D01*
X144992857Y-80261904D01*
X145088095Y-80261904D01*
X145230952Y-80309523D01*
X145802380Y-80880952D01*
X145802380Y-80261904D01*
G04 #@! TO.C,R203*
X146302380Y-99119047D02*
X145826190Y-99452380D01*
X146302380Y-99690476D02*
X145302380Y-99690476D01*
X145302380Y-99309523D01*
X145350000Y-99214285D01*
X145397619Y-99166666D01*
X145492857Y-99119047D01*
X145635714Y-99119047D01*
X145730952Y-99166666D01*
X145778571Y-99214285D01*
X145826190Y-99309523D01*
X145826190Y-99690476D01*
X145397619Y-98738095D02*
X145350000Y-98690476D01*
X145302380Y-98595238D01*
X145302380Y-98357142D01*
X145350000Y-98261904D01*
X145397619Y-98214285D01*
X145492857Y-98166666D01*
X145588095Y-98166666D01*
X145730952Y-98214285D01*
X146302380Y-98785714D01*
X146302380Y-98166666D01*
X145302380Y-97547619D02*
X145302380Y-97452380D01*
X145350000Y-97357142D01*
X145397619Y-97309523D01*
X145492857Y-97261904D01*
X145683333Y-97214285D01*
X145921428Y-97214285D01*
X146111904Y-97261904D01*
X146207142Y-97309523D01*
X146254761Y-97357142D01*
X146302380Y-97452380D01*
X146302380Y-97547619D01*
X146254761Y-97642857D01*
X146207142Y-97690476D01*
X146111904Y-97738095D01*
X145921428Y-97785714D01*
X145683333Y-97785714D01*
X145492857Y-97738095D01*
X145397619Y-97690476D01*
X145350000Y-97642857D01*
X145302380Y-97547619D01*
X145302380Y-96880952D02*
X145302380Y-96261904D01*
X145683333Y-96595238D01*
X145683333Y-96452380D01*
X145730952Y-96357142D01*
X145778571Y-96309523D01*
X145873809Y-96261904D01*
X146111904Y-96261904D01*
X146207142Y-96309523D01*
X146254761Y-96357142D01*
X146302380Y-96452380D01*
X146302380Y-96738095D01*
X146254761Y-96833333D01*
X146207142Y-96880952D01*
G04 #@! TO.C,R204*
X152802379Y-90619047D02*
X152326189Y-90952380D01*
X152802379Y-91190476D02*
X151802379Y-91190476D01*
X151802379Y-90809523D01*
X151849999Y-90714285D01*
X151897618Y-90666666D01*
X151992856Y-90619047D01*
X152135713Y-90619047D01*
X152230951Y-90666666D01*
X152278570Y-90714285D01*
X152326189Y-90809523D01*
X152326189Y-91190476D01*
X151897618Y-90238095D02*
X151849999Y-90190476D01*
X151802379Y-90095238D01*
X151802379Y-89857142D01*
X151849999Y-89761904D01*
X151897618Y-89714285D01*
X151992856Y-89666666D01*
X152088094Y-89666666D01*
X152230951Y-89714285D01*
X152802379Y-90285714D01*
X152802379Y-89666666D01*
X151802379Y-89047619D02*
X151802379Y-88952380D01*
X151849999Y-88857142D01*
X151897618Y-88809523D01*
X151992856Y-88761904D01*
X152183332Y-88714285D01*
X152421427Y-88714285D01*
X152611903Y-88761904D01*
X152707141Y-88809523D01*
X152754760Y-88857142D01*
X152802379Y-88952380D01*
X152802379Y-89047619D01*
X152754760Y-89142857D01*
X152707141Y-89190476D01*
X152611903Y-89238095D01*
X152421427Y-89285714D01*
X152183332Y-89285714D01*
X151992856Y-89238095D01*
X151897618Y-89190476D01*
X151849999Y-89142857D01*
X151802379Y-89047619D01*
X152135713Y-87857142D02*
X152802379Y-87857142D01*
X151754760Y-88095238D02*
X152469046Y-88333333D01*
X152469046Y-87714285D01*
G04 #@! TO.C,R205*
X152802380Y-83119047D02*
X152326190Y-83452380D01*
X152802380Y-83690476D02*
X151802380Y-83690476D01*
X151802380Y-83309523D01*
X151850000Y-83214285D01*
X151897619Y-83166666D01*
X151992857Y-83119047D01*
X152135714Y-83119047D01*
X152230952Y-83166666D01*
X152278571Y-83214285D01*
X152326190Y-83309523D01*
X152326190Y-83690476D01*
X151897619Y-82738095D02*
X151850000Y-82690476D01*
X151802380Y-82595238D01*
X151802380Y-82357142D01*
X151850000Y-82261904D01*
X151897619Y-82214285D01*
X151992857Y-82166666D01*
X152088095Y-82166666D01*
X152230952Y-82214285D01*
X152802380Y-82785714D01*
X152802380Y-82166666D01*
X151802380Y-81547619D02*
X151802380Y-81452380D01*
X151850000Y-81357142D01*
X151897619Y-81309523D01*
X151992857Y-81261904D01*
X152183333Y-81214285D01*
X152421428Y-81214285D01*
X152611904Y-81261904D01*
X152707142Y-81309523D01*
X152754761Y-81357142D01*
X152802380Y-81452380D01*
X152802380Y-81547619D01*
X152754761Y-81642857D01*
X152707142Y-81690476D01*
X152611904Y-81738095D01*
X152421428Y-81785714D01*
X152183333Y-81785714D01*
X151992857Y-81738095D01*
X151897619Y-81690476D01*
X151850000Y-81642857D01*
X151802380Y-81547619D01*
X151802380Y-80309523D02*
X151802380Y-80785714D01*
X152278571Y-80833333D01*
X152230952Y-80785714D01*
X152183333Y-80690476D01*
X152183333Y-80452380D01*
X152230952Y-80357142D01*
X152278571Y-80309523D01*
X152373809Y-80261904D01*
X152611904Y-80261904D01*
X152707142Y-80309523D01*
X152754761Y-80357142D01*
X152802380Y-80452380D01*
X152802380Y-80690476D01*
X152754761Y-80785714D01*
X152707142Y-80833333D01*
G04 #@! TO.C,R206*
X153302380Y-99119046D02*
X152826190Y-99452379D01*
X153302380Y-99690475D02*
X152302380Y-99690475D01*
X152302380Y-99309522D01*
X152350000Y-99214284D01*
X152397619Y-99166665D01*
X152492857Y-99119046D01*
X152635714Y-99119046D01*
X152730952Y-99166665D01*
X152778571Y-99214284D01*
X152826190Y-99309522D01*
X152826190Y-99690475D01*
X152397619Y-98738094D02*
X152350000Y-98690475D01*
X152302380Y-98595237D01*
X152302380Y-98357141D01*
X152350000Y-98261903D01*
X152397619Y-98214284D01*
X152492857Y-98166665D01*
X152588095Y-98166665D01*
X152730952Y-98214284D01*
X153302380Y-98785713D01*
X153302380Y-98166665D01*
X152302380Y-97547618D02*
X152302380Y-97452379D01*
X152350000Y-97357141D01*
X152397619Y-97309522D01*
X152492857Y-97261903D01*
X152683333Y-97214284D01*
X152921428Y-97214284D01*
X153111904Y-97261903D01*
X153207142Y-97309522D01*
X153254761Y-97357141D01*
X153302380Y-97452379D01*
X153302380Y-97547618D01*
X153254761Y-97642856D01*
X153207142Y-97690475D01*
X153111904Y-97738094D01*
X152921428Y-97785713D01*
X152683333Y-97785713D01*
X152492857Y-97738094D01*
X152397619Y-97690475D01*
X152350000Y-97642856D01*
X152302380Y-97547618D01*
X152302380Y-96357141D02*
X152302380Y-96547618D01*
X152350000Y-96642856D01*
X152397619Y-96690475D01*
X152540476Y-96785713D01*
X152730952Y-96833332D01*
X153111904Y-96833332D01*
X153207142Y-96785713D01*
X153254761Y-96738094D01*
X153302380Y-96642856D01*
X153302380Y-96452379D01*
X153254761Y-96357141D01*
X153207142Y-96309522D01*
X153111904Y-96261903D01*
X152873809Y-96261903D01*
X152778571Y-96309522D01*
X152730952Y-96357141D01*
X152683333Y-96452379D01*
X152683333Y-96642856D01*
X152730952Y-96738094D01*
X152778571Y-96785713D01*
X152873809Y-96833332D01*
G04 #@! TO.C,R207*
X158602380Y-83119047D02*
X158126190Y-83452380D01*
X158602380Y-83690476D02*
X157602380Y-83690476D01*
X157602380Y-83309523D01*
X157650000Y-83214285D01*
X157697619Y-83166666D01*
X157792857Y-83119047D01*
X157935714Y-83119047D01*
X158030952Y-83166666D01*
X158078571Y-83214285D01*
X158126190Y-83309523D01*
X158126190Y-83690476D01*
X157697619Y-82738095D02*
X157650000Y-82690476D01*
X157602380Y-82595238D01*
X157602380Y-82357142D01*
X157650000Y-82261904D01*
X157697619Y-82214285D01*
X157792857Y-82166666D01*
X157888095Y-82166666D01*
X158030952Y-82214285D01*
X158602380Y-82785714D01*
X158602380Y-82166666D01*
X157602380Y-81547619D02*
X157602380Y-81452380D01*
X157650000Y-81357142D01*
X157697619Y-81309523D01*
X157792857Y-81261904D01*
X157983333Y-81214285D01*
X158221428Y-81214285D01*
X158411904Y-81261904D01*
X158507142Y-81309523D01*
X158554761Y-81357142D01*
X158602380Y-81452380D01*
X158602380Y-81547619D01*
X158554761Y-81642857D01*
X158507142Y-81690476D01*
X158411904Y-81738095D01*
X158221428Y-81785714D01*
X157983333Y-81785714D01*
X157792857Y-81738095D01*
X157697619Y-81690476D01*
X157650000Y-81642857D01*
X157602380Y-81547619D01*
X157602380Y-80880952D02*
X157602380Y-80214285D01*
X158602380Y-80642857D01*
G04 #@! TO.C,R208*
X158602380Y-90619047D02*
X158126190Y-90952380D01*
X158602380Y-91190476D02*
X157602380Y-91190476D01*
X157602380Y-90809523D01*
X157650000Y-90714285D01*
X157697619Y-90666666D01*
X157792857Y-90619047D01*
X157935714Y-90619047D01*
X158030952Y-90666666D01*
X158078571Y-90714285D01*
X158126190Y-90809523D01*
X158126190Y-91190476D01*
X157697619Y-90238095D02*
X157650000Y-90190476D01*
X157602380Y-90095238D01*
X157602380Y-89857142D01*
X157650000Y-89761904D01*
X157697619Y-89714285D01*
X157792857Y-89666666D01*
X157888095Y-89666666D01*
X158030952Y-89714285D01*
X158602380Y-90285714D01*
X158602380Y-89666666D01*
X157602380Y-89047619D02*
X157602380Y-88952380D01*
X157650000Y-88857142D01*
X157697619Y-88809523D01*
X157792857Y-88761904D01*
X157983333Y-88714285D01*
X158221428Y-88714285D01*
X158411904Y-88761904D01*
X158507142Y-88809523D01*
X158554761Y-88857142D01*
X158602380Y-88952380D01*
X158602380Y-89047619D01*
X158554761Y-89142857D01*
X158507142Y-89190476D01*
X158411904Y-89238095D01*
X158221428Y-89285714D01*
X157983333Y-89285714D01*
X157792857Y-89238095D01*
X157697619Y-89190476D01*
X157650000Y-89142857D01*
X157602380Y-89047619D01*
X158030952Y-88142857D02*
X157983333Y-88238095D01*
X157935714Y-88285714D01*
X157840476Y-88333333D01*
X157792857Y-88333333D01*
X157697619Y-88285714D01*
X157650000Y-88238095D01*
X157602380Y-88142857D01*
X157602380Y-87952380D01*
X157650000Y-87857142D01*
X157697619Y-87809523D01*
X157792857Y-87761904D01*
X157840476Y-87761904D01*
X157935714Y-87809523D01*
X157983333Y-87857142D01*
X158030952Y-87952380D01*
X158030952Y-88142857D01*
X158078571Y-88238095D01*
X158126190Y-88285714D01*
X158221428Y-88333333D01*
X158411904Y-88333333D01*
X158507142Y-88285714D01*
X158554761Y-88238095D01*
X158602380Y-88142857D01*
X158602380Y-87952380D01*
X158554761Y-87857142D01*
X158507142Y-87809523D01*
X158411904Y-87761904D01*
X158221428Y-87761904D01*
X158126190Y-87809523D01*
X158078571Y-87857142D01*
X158030952Y-87952380D01*
G04 #@! TO.C,R209*
X159102379Y-99119047D02*
X158626189Y-99452380D01*
X159102379Y-99690476D02*
X158102379Y-99690476D01*
X158102379Y-99309523D01*
X158149999Y-99214285D01*
X158197618Y-99166666D01*
X158292856Y-99119047D01*
X158435713Y-99119047D01*
X158530951Y-99166666D01*
X158578570Y-99214285D01*
X158626189Y-99309523D01*
X158626189Y-99690476D01*
X158197618Y-98738095D02*
X158149999Y-98690476D01*
X158102379Y-98595238D01*
X158102379Y-98357142D01*
X158149999Y-98261904D01*
X158197618Y-98214285D01*
X158292856Y-98166666D01*
X158388094Y-98166666D01*
X158530951Y-98214285D01*
X159102379Y-98785714D01*
X159102379Y-98166666D01*
X158102379Y-97547619D02*
X158102379Y-97452380D01*
X158149999Y-97357142D01*
X158197618Y-97309523D01*
X158292856Y-97261904D01*
X158483332Y-97214285D01*
X158721427Y-97214285D01*
X158911903Y-97261904D01*
X159007141Y-97309523D01*
X159054760Y-97357142D01*
X159102379Y-97452380D01*
X159102379Y-97547619D01*
X159054760Y-97642857D01*
X159007141Y-97690476D01*
X158911903Y-97738095D01*
X158721427Y-97785714D01*
X158483332Y-97785714D01*
X158292856Y-97738095D01*
X158197618Y-97690476D01*
X158149999Y-97642857D01*
X158102379Y-97547619D01*
X159102379Y-96738095D02*
X159102379Y-96547619D01*
X159054760Y-96452380D01*
X159007141Y-96404761D01*
X158864284Y-96309523D01*
X158673808Y-96261904D01*
X158292856Y-96261904D01*
X158197618Y-96309523D01*
X158149999Y-96357142D01*
X158102379Y-96452380D01*
X158102379Y-96642857D01*
X158149999Y-96738095D01*
X158197618Y-96785714D01*
X158292856Y-96833333D01*
X158530951Y-96833333D01*
X158626189Y-96785714D01*
X158673808Y-96738095D01*
X158721427Y-96642857D01*
X158721427Y-96452380D01*
X158673808Y-96357142D01*
X158626189Y-96309523D01*
X158530951Y-96261904D01*
G04 #@! TO.C,R210*
X160302380Y-115119047D02*
X159826190Y-115452380D01*
X160302380Y-115690476D02*
X159302380Y-115690476D01*
X159302380Y-115309523D01*
X159350000Y-115214285D01*
X159397619Y-115166666D01*
X159492857Y-115119047D01*
X159635714Y-115119047D01*
X159730952Y-115166666D01*
X159778571Y-115214285D01*
X159826190Y-115309523D01*
X159826190Y-115690476D01*
X159397619Y-114738095D02*
X159350000Y-114690476D01*
X159302380Y-114595238D01*
X159302380Y-114357142D01*
X159350000Y-114261904D01*
X159397619Y-114214285D01*
X159492857Y-114166666D01*
X159588095Y-114166666D01*
X159730952Y-114214285D01*
X160302380Y-114785714D01*
X160302380Y-114166666D01*
X160302380Y-113214285D02*
X160302380Y-113785714D01*
X160302380Y-113500000D02*
X159302380Y-113500000D01*
X159445238Y-113595238D01*
X159540476Y-113690476D01*
X159588095Y-113785714D01*
X159302380Y-112595238D02*
X159302380Y-112500000D01*
X159350000Y-112404761D01*
X159397619Y-112357142D01*
X159492857Y-112309523D01*
X159683333Y-112261904D01*
X159921428Y-112261904D01*
X160111904Y-112309523D01*
X160207142Y-112357142D01*
X160254761Y-112404761D01*
X160302380Y-112500000D01*
X160302380Y-112595238D01*
X160254761Y-112690476D01*
X160207142Y-112738095D01*
X160111904Y-112785714D01*
X159921428Y-112833333D01*
X159683333Y-112833333D01*
X159492857Y-112785714D01*
X159397619Y-112738095D01*
X159350000Y-112690476D01*
X159302380Y-112595238D01*
G04 #@! TO.C,R211*
X133880952Y-97802380D02*
X133547619Y-97326190D01*
X133309523Y-97802380D02*
X133309523Y-96802380D01*
X133690476Y-96802380D01*
X133785714Y-96850000D01*
X133833333Y-96897619D01*
X133880952Y-96992857D01*
X133880952Y-97135714D01*
X133833333Y-97230952D01*
X133785714Y-97278571D01*
X133690476Y-97326190D01*
X133309523Y-97326190D01*
X134261904Y-96897619D02*
X134309523Y-96850000D01*
X134404761Y-96802380D01*
X134642857Y-96802380D01*
X134738095Y-96850000D01*
X134785714Y-96897619D01*
X134833333Y-96992857D01*
X134833333Y-97088095D01*
X134785714Y-97230952D01*
X134214285Y-97802380D01*
X134833333Y-97802380D01*
X135785714Y-97802380D02*
X135214285Y-97802380D01*
X135500000Y-97802380D02*
X135500000Y-96802380D01*
X135404761Y-96945238D01*
X135309523Y-97040476D01*
X135214285Y-97088095D01*
X136738095Y-97802380D02*
X136166666Y-97802380D01*
X136452380Y-97802380D02*
X136452380Y-96802380D01*
X136357142Y-96945238D01*
X136261904Y-97040476D01*
X136166666Y-97088095D01*
G04 #@! TO.C,R212*
X134380952Y-114302380D02*
X134047619Y-113826190D01*
X133809523Y-114302380D02*
X133809523Y-113302380D01*
X134190476Y-113302380D01*
X134285714Y-113350000D01*
X134333333Y-113397619D01*
X134380952Y-113492857D01*
X134380952Y-113635714D01*
X134333333Y-113730952D01*
X134285714Y-113778571D01*
X134190476Y-113826190D01*
X133809523Y-113826190D01*
X134761904Y-113397619D02*
X134809523Y-113350000D01*
X134904761Y-113302380D01*
X135142857Y-113302380D01*
X135238095Y-113350000D01*
X135285714Y-113397619D01*
X135333333Y-113492857D01*
X135333333Y-113588095D01*
X135285714Y-113730952D01*
X134714285Y-114302380D01*
X135333333Y-114302380D01*
X136285714Y-114302380D02*
X135714285Y-114302380D01*
X136000000Y-114302380D02*
X136000000Y-113302380D01*
X135904761Y-113445238D01*
X135809523Y-113540476D01*
X135714285Y-113588095D01*
X136666666Y-113397619D02*
X136714285Y-113350000D01*
X136809523Y-113302380D01*
X137047619Y-113302380D01*
X137142857Y-113350000D01*
X137190476Y-113397619D01*
X137238095Y-113492857D01*
X137238095Y-113588095D01*
X137190476Y-113730952D01*
X136619047Y-114302380D01*
X137238095Y-114302380D01*
G04 #@! TO.C,R213*
X167880952Y-109602380D02*
X167547619Y-109126190D01*
X167309523Y-109602380D02*
X167309523Y-108602380D01*
X167690476Y-108602380D01*
X167785714Y-108650000D01*
X167833333Y-108697619D01*
X167880952Y-108792857D01*
X167880952Y-108935714D01*
X167833333Y-109030952D01*
X167785714Y-109078571D01*
X167690476Y-109126190D01*
X167309523Y-109126190D01*
X168261904Y-108697619D02*
X168309523Y-108650000D01*
X168404761Y-108602380D01*
X168642857Y-108602380D01*
X168738095Y-108650000D01*
X168785714Y-108697619D01*
X168833333Y-108792857D01*
X168833333Y-108888095D01*
X168785714Y-109030952D01*
X168214285Y-109602380D01*
X168833333Y-109602380D01*
X169785714Y-109602380D02*
X169214285Y-109602380D01*
X169500000Y-109602380D02*
X169500000Y-108602380D01*
X169404761Y-108745238D01*
X169309523Y-108840476D01*
X169214285Y-108888095D01*
X170119047Y-108602380D02*
X170738095Y-108602380D01*
X170404761Y-108983333D01*
X170547619Y-108983333D01*
X170642857Y-109030952D01*
X170690476Y-109078571D01*
X170738095Y-109173809D01*
X170738095Y-109411904D01*
X170690476Y-109507142D01*
X170642857Y-109554761D01*
X170547619Y-109602380D01*
X170261904Y-109602380D01*
X170166666Y-109554761D01*
X170119047Y-109507142D01*
G04 #@! TO.C,R214*
X152302380Y-118056547D02*
X151826190Y-118389880D01*
X152302380Y-118627976D02*
X151302380Y-118627976D01*
X151302380Y-118247023D01*
X151350000Y-118151785D01*
X151397619Y-118104166D01*
X151492857Y-118056547D01*
X151635714Y-118056547D01*
X151730952Y-118104166D01*
X151778571Y-118151785D01*
X151826190Y-118247023D01*
X151826190Y-118627976D01*
X151397619Y-117675595D02*
X151350000Y-117627976D01*
X151302380Y-117532738D01*
X151302380Y-117294642D01*
X151350000Y-117199404D01*
X151397619Y-117151785D01*
X151492857Y-117104166D01*
X151588095Y-117104166D01*
X151730952Y-117151785D01*
X152302380Y-117723214D01*
X152302380Y-117104166D01*
X152302380Y-116151785D02*
X152302380Y-116723214D01*
X152302380Y-116437500D02*
X151302380Y-116437500D01*
X151445238Y-116532738D01*
X151540476Y-116627976D01*
X151588095Y-116723214D01*
X151635714Y-115294642D02*
X152302380Y-115294642D01*
X151254761Y-115532738D02*
X151969047Y-115770833D01*
X151969047Y-115151785D01*
G04 #@! TO.C,U207*
X172952380Y-114714285D02*
X173761904Y-114714285D01*
X173857142Y-114666666D01*
X173904761Y-114619047D01*
X173952380Y-114523809D01*
X173952380Y-114333333D01*
X173904761Y-114238095D01*
X173857142Y-114190476D01*
X173761904Y-114142857D01*
X172952380Y-114142857D01*
X173047619Y-113714285D02*
X173000000Y-113666666D01*
X172952380Y-113571428D01*
X172952380Y-113333333D01*
X173000000Y-113238095D01*
X173047619Y-113190476D01*
X173142857Y-113142857D01*
X173238095Y-113142857D01*
X173380952Y-113190476D01*
X173952380Y-113761904D01*
X173952380Y-113142857D01*
X172952380Y-112523809D02*
X172952380Y-112428571D01*
X173000000Y-112333333D01*
X173047619Y-112285714D01*
X173142857Y-112238095D01*
X173333333Y-112190476D01*
X173571428Y-112190476D01*
X173761904Y-112238095D01*
X173857142Y-112285714D01*
X173904761Y-112333333D01*
X173952380Y-112428571D01*
X173952380Y-112523809D01*
X173904761Y-112619047D01*
X173857142Y-112666666D01*
X173761904Y-112714285D01*
X173571428Y-112761904D01*
X173333333Y-112761904D01*
X173142857Y-112714285D01*
X173047619Y-112666666D01*
X173000000Y-112619047D01*
X172952380Y-112523809D01*
X172952380Y-111857142D02*
X172952380Y-111190476D01*
X173952380Y-111619047D01*
G04 #@! TO.C,U208*
X162547380Y-131714285D02*
X163356904Y-131714285D01*
X163452142Y-131666666D01*
X163499761Y-131619047D01*
X163547380Y-131523809D01*
X163547380Y-131333333D01*
X163499761Y-131238095D01*
X163452142Y-131190476D01*
X163356904Y-131142857D01*
X162547380Y-131142857D01*
X162642619Y-130714285D02*
X162595000Y-130666666D01*
X162547380Y-130571428D01*
X162547380Y-130333333D01*
X162595000Y-130238095D01*
X162642619Y-130190476D01*
X162737857Y-130142857D01*
X162833095Y-130142857D01*
X162975952Y-130190476D01*
X163547380Y-130761904D01*
X163547380Y-130142857D01*
X162547380Y-129523809D02*
X162547380Y-129428571D01*
X162595000Y-129333333D01*
X162642619Y-129285714D01*
X162737857Y-129238095D01*
X162928333Y-129190476D01*
X163166428Y-129190476D01*
X163356904Y-129238095D01*
X163452142Y-129285714D01*
X163499761Y-129333333D01*
X163547380Y-129428571D01*
X163547380Y-129523809D01*
X163499761Y-129619047D01*
X163452142Y-129666666D01*
X163356904Y-129714285D01*
X163166428Y-129761904D01*
X162928333Y-129761904D01*
X162737857Y-129714285D01*
X162642619Y-129666666D01*
X162595000Y-129619047D01*
X162547380Y-129523809D01*
X162975952Y-128619047D02*
X162928333Y-128714285D01*
X162880714Y-128761904D01*
X162785476Y-128809523D01*
X162737857Y-128809523D01*
X162642619Y-128761904D01*
X162595000Y-128714285D01*
X162547380Y-128619047D01*
X162547380Y-128428571D01*
X162595000Y-128333333D01*
X162642619Y-128285714D01*
X162737857Y-128238095D01*
X162785476Y-128238095D01*
X162880714Y-128285714D01*
X162928333Y-128333333D01*
X162975952Y-128428571D01*
X162975952Y-128619047D01*
X163023571Y-128714285D01*
X163071190Y-128761904D01*
X163166428Y-128809523D01*
X163356904Y-128809523D01*
X163452142Y-128761904D01*
X163499761Y-128714285D01*
X163547380Y-128619047D01*
X163547380Y-128428571D01*
X163499761Y-128333333D01*
X163452142Y-128285714D01*
X163356904Y-128238095D01*
X163166428Y-128238095D01*
X163071190Y-128285714D01*
X163023571Y-128333333D01*
X162975952Y-128428571D01*
G04 #@! TO.C,U401*
X152785714Y-103002380D02*
X152785714Y-103811904D01*
X152833333Y-103907142D01*
X152880952Y-103954761D01*
X152976190Y-104002380D01*
X153166666Y-104002380D01*
X153261904Y-103954761D01*
X153309523Y-103907142D01*
X153357142Y-103811904D01*
X153357142Y-103002380D01*
X154261904Y-103335714D02*
X154261904Y-104002380D01*
X154023809Y-102954761D02*
X153785714Y-103669047D01*
X154404761Y-103669047D01*
X154976190Y-103002380D02*
X155071428Y-103002380D01*
X155166666Y-103050000D01*
X155214285Y-103097619D01*
X155261904Y-103192857D01*
X155309523Y-103383333D01*
X155309523Y-103621428D01*
X155261904Y-103811904D01*
X155214285Y-103907142D01*
X155166666Y-103954761D01*
X155071428Y-104002380D01*
X154976190Y-104002380D01*
X154880952Y-103954761D01*
X154833333Y-103907142D01*
X154785714Y-103811904D01*
X154738095Y-103621428D01*
X154738095Y-103383333D01*
X154785714Y-103192857D01*
X154833333Y-103097619D01*
X154880952Y-103050000D01*
X154976190Y-103002380D01*
X156261904Y-104002380D02*
X155690476Y-104002380D01*
X155976190Y-104002380D02*
X155976190Y-103002380D01*
X155880952Y-103145238D01*
X155785714Y-103240476D01*
X155690476Y-103288095D01*
G04 #@! TO.C,JP201*
X171864284Y-59252380D02*
X171864284Y-59966666D01*
X171816665Y-60109523D01*
X171721427Y-60204761D01*
X171578570Y-60252380D01*
X171483332Y-60252380D01*
X172340475Y-60252380D02*
X172340475Y-59252380D01*
X172721427Y-59252380D01*
X172816665Y-59300000D01*
X172864284Y-59347619D01*
X172911903Y-59442857D01*
X172911903Y-59585714D01*
X172864284Y-59680952D01*
X172816665Y-59728571D01*
X172721427Y-59776190D01*
X172340475Y-59776190D01*
X173292856Y-59347619D02*
X173340475Y-59300000D01*
X173435713Y-59252380D01*
X173673808Y-59252380D01*
X173769046Y-59300000D01*
X173816665Y-59347619D01*
X173864284Y-59442857D01*
X173864284Y-59538095D01*
X173816665Y-59680952D01*
X173245237Y-60252380D01*
X173864284Y-60252380D01*
X174483332Y-59252380D02*
X174578570Y-59252380D01*
X174673808Y-59300000D01*
X174721427Y-59347619D01*
X174769046Y-59442857D01*
X174816665Y-59633333D01*
X174816665Y-59871428D01*
X174769046Y-60061904D01*
X174721427Y-60157142D01*
X174673808Y-60204761D01*
X174578570Y-60252380D01*
X174483332Y-60252380D01*
X174388094Y-60204761D01*
X174340475Y-60157142D01*
X174292856Y-60061904D01*
X174245237Y-59871428D01*
X174245237Y-59633333D01*
X174292856Y-59442857D01*
X174340475Y-59347619D01*
X174388094Y-59300000D01*
X174483332Y-59252380D01*
X175769046Y-60252380D02*
X175197618Y-60252380D01*
X175483332Y-60252380D02*
X175483332Y-59252380D01*
X175388094Y-59395238D01*
X175292856Y-59490476D01*
X175197618Y-59538095D01*
G04 #@! TO.C,JP202*
X170652380Y-96785714D02*
X171366666Y-96785714D01*
X171509523Y-96833333D01*
X171604761Y-96928571D01*
X171652380Y-97071428D01*
X171652380Y-97166666D01*
X171652380Y-96309523D02*
X170652380Y-96309523D01*
X170652380Y-95928571D01*
X170700000Y-95833333D01*
X170747619Y-95785714D01*
X170842857Y-95738095D01*
X170985714Y-95738095D01*
X171080952Y-95785714D01*
X171128571Y-95833333D01*
X171176190Y-95928571D01*
X171176190Y-96309523D01*
X170747619Y-95357142D02*
X170700000Y-95309523D01*
X170652380Y-95214285D01*
X170652380Y-94976190D01*
X170700000Y-94880952D01*
X170747619Y-94833333D01*
X170842857Y-94785714D01*
X170938095Y-94785714D01*
X171080952Y-94833333D01*
X171652380Y-95404761D01*
X171652380Y-94785714D01*
X170652380Y-94166666D02*
X170652380Y-94071428D01*
X170700000Y-93976190D01*
X170747619Y-93928571D01*
X170842857Y-93880952D01*
X171033333Y-93833333D01*
X171271428Y-93833333D01*
X171461904Y-93880952D01*
X171557142Y-93928571D01*
X171604761Y-93976190D01*
X171652380Y-94071428D01*
X171652380Y-94166666D01*
X171604761Y-94261904D01*
X171557142Y-94309523D01*
X171461904Y-94357142D01*
X171271428Y-94404761D01*
X171033333Y-94404761D01*
X170842857Y-94357142D01*
X170747619Y-94309523D01*
X170700000Y-94261904D01*
X170652380Y-94166666D01*
X170747619Y-93452380D02*
X170700000Y-93404761D01*
X170652380Y-93309523D01*
X170652380Y-93071428D01*
X170700000Y-92976190D01*
X170747619Y-92928571D01*
X170842857Y-92880952D01*
X170938095Y-92880952D01*
X171080952Y-92928571D01*
X171652380Y-93500000D01*
X171652380Y-92880952D01*
G04 #@! TO.C,JP203*
X174252380Y-72785714D02*
X174966666Y-72785714D01*
X175109523Y-72833333D01*
X175204761Y-72928571D01*
X175252380Y-73071428D01*
X175252380Y-73166666D01*
X175252380Y-72309523D02*
X174252380Y-72309523D01*
X174252380Y-71928571D01*
X174300000Y-71833333D01*
X174347619Y-71785714D01*
X174442857Y-71738095D01*
X174585714Y-71738095D01*
X174680952Y-71785714D01*
X174728571Y-71833333D01*
X174776190Y-71928571D01*
X174776190Y-72309523D01*
X174347619Y-71357142D02*
X174300000Y-71309523D01*
X174252380Y-71214285D01*
X174252380Y-70976190D01*
X174300000Y-70880952D01*
X174347619Y-70833333D01*
X174442857Y-70785714D01*
X174538095Y-70785714D01*
X174680952Y-70833333D01*
X175252380Y-71404761D01*
X175252380Y-70785714D01*
X174252380Y-70166666D02*
X174252380Y-70071428D01*
X174300000Y-69976190D01*
X174347619Y-69928571D01*
X174442857Y-69880952D01*
X174633333Y-69833333D01*
X174871428Y-69833333D01*
X175061904Y-69880952D01*
X175157142Y-69928571D01*
X175204761Y-69976190D01*
X175252380Y-70071428D01*
X175252380Y-70166666D01*
X175204761Y-70261904D01*
X175157142Y-70309523D01*
X175061904Y-70357142D01*
X174871428Y-70404761D01*
X174633333Y-70404761D01*
X174442857Y-70357142D01*
X174347619Y-70309523D01*
X174300000Y-70261904D01*
X174252380Y-70166666D01*
X174252380Y-69500000D02*
X174252380Y-68880952D01*
X174633333Y-69214285D01*
X174633333Y-69071428D01*
X174680952Y-68976190D01*
X174728571Y-68928571D01*
X174823809Y-68880952D01*
X175061904Y-68880952D01*
X175157142Y-68928571D01*
X175204761Y-68976190D01*
X175252380Y-69071428D01*
X175252380Y-69357142D01*
X175204761Y-69452380D01*
X175157142Y-69500000D01*
G04 #@! TO.C,J202*
X104714285Y-89452380D02*
X104714285Y-90166666D01*
X104666666Y-90309523D01*
X104571428Y-90404761D01*
X104428571Y-90452380D01*
X104333333Y-90452380D01*
X105142857Y-89547619D02*
X105190476Y-89500000D01*
X105285714Y-89452380D01*
X105523809Y-89452380D01*
X105619047Y-89500000D01*
X105666666Y-89547619D01*
X105714285Y-89642857D01*
X105714285Y-89738095D01*
X105666666Y-89880952D01*
X105095238Y-90452380D01*
X105714285Y-90452380D01*
X106333333Y-89452380D02*
X106428571Y-89452380D01*
X106523809Y-89500000D01*
X106571428Y-89547619D01*
X106619047Y-89642857D01*
X106666666Y-89833333D01*
X106666666Y-90071428D01*
X106619047Y-90261904D01*
X106571428Y-90357142D01*
X106523809Y-90404761D01*
X106428571Y-90452380D01*
X106333333Y-90452380D01*
X106238095Y-90404761D01*
X106190476Y-90357142D01*
X106142857Y-90261904D01*
X106095238Y-90071428D01*
X106095238Y-89833333D01*
X106142857Y-89642857D01*
X106190476Y-89547619D01*
X106238095Y-89500000D01*
X106333333Y-89452380D01*
X107047619Y-89547619D02*
X107095238Y-89500000D01*
X107190476Y-89452380D01*
X107428571Y-89452380D01*
X107523809Y-89500000D01*
X107571428Y-89547619D01*
X107619047Y-89642857D01*
X107619047Y-89738095D01*
X107571428Y-89880952D01*
X107000000Y-90452380D01*
X107619047Y-90452380D01*
G04 #@! TD*
M02*
