M48
;DRILL file {KiCad (5.0.0)} date 03/23/21 16:31:53
;FORMAT={-:-/ absolute / inch / decimal}
FMAT,2
INCH,TZ
T1C0.0157
T2C0.0394
T3C0.0433
T4C0.0598
%
G90
G05
M72
T1
X4.685Y-3.3465
X4.8425Y-3.189
X4.9606Y-3.1102
X4.9606Y-3.189
X5.0394Y-5.1181
X5.0787Y-5.1575
X5.2559Y-4.4685
X5.2953Y-3.5433
X5.3543Y-4.252
X5.4331Y-3.7795
X5.4336Y-3.347
X5.6299Y-3.7008
X5.6299Y-3.937
X5.6698Y-3.8578
X5.7087Y-4.7047
X5.9055Y-3.622
X6.0827Y-4.0157
X6.122Y-3.1299
X6.122Y-3.4252
X6.122Y-3.7402
X6.2205Y-4.0354
X6.2992Y-3.8976
X6.3386Y-4.3701
X6.437Y-4.5669
X6.7323Y-2.7953
X6.752Y-2.2933
X6.811Y-3.2677
X6.811Y-3.4646
X6.8898Y-3.6614
X6.8898Y-4.2913
X6.8898Y-4.8819
X6.9291Y-4.8425
X7.0472Y-3.3465
X7.0472Y-3.4252
T2
X5.6299Y-4.1094
X5.6299Y-4.2094
X5.6299Y-4.3094
X5.6299Y-4.4094
X4.3453Y-2.8528
X4.3453Y-2.9528
X4.4453Y-2.8528
X4.4453Y-2.9528
X4.5453Y-2.8528
X4.5453Y-2.9528
X4.6453Y-2.8528
X4.6453Y-2.9528
X4.7453Y-2.8528
X4.7453Y-2.9528
X4.8453Y-2.8528
X4.8453Y-2.9528
X4.9453Y-2.8528
X4.9453Y-2.9528
X5.0453Y-2.8528
X5.0453Y-2.9528
X5.1453Y-2.8528
X5.1453Y-2.9528
X5.2453Y-2.8528
X5.2453Y-2.9528
X5.3453Y-2.8528
X5.3453Y-2.9528
X5.4453Y-2.8528
X5.4453Y-2.9528
X5.5453Y-2.8528
X5.5453Y-2.9528
X5.6453Y-2.8528
X5.6453Y-2.9528
X5.7453Y-2.8528
X5.7453Y-2.9528
X5.8453Y-2.8528
X5.8453Y-2.9528
X5.9453Y-2.8528
X5.9453Y-2.9528
X6.0453Y-2.8528
X6.0453Y-2.9528
X6.1453Y-2.8528
X6.1453Y-2.9528
X6.2453Y-2.8528
X6.2453Y-2.9528
T3
X6.4764Y-3.5433
X6.5764Y-3.5433
X6.6764Y-3.5433
X6.4748Y-4.0157
X6.5748Y-4.0157
X6.6748Y-4.0157
X6.4764Y-3.0512
X6.5764Y-3.0512
X6.6764Y-3.0512
T4
X7.6575Y-2.9693
X7.6575Y-3.1693
X7.6575Y-3.4614
X7.6575Y-3.6614
X7.6772Y-5.0362
X7.6772Y-5.2362
X7.6575Y-2.4772
X7.6575Y-2.6772
X4.1732Y-4.7441
X4.1732Y-4.9441
X4.1732Y-3.189
X4.1732Y-3.389
X4.7047Y-5.7087
X4.9047Y-5.7087
X4.1732Y-3.937
X4.1732Y-4.137
X7.3228Y-5.6496
X7.4643Y-5.5082
X6.7323Y-5.6496
X6.9323Y-5.6496
T0
M30
