G04 #@! TF.GenerationSoftware,KiCad,Pcbnew,(5.0.0)*
G04 #@! TF.CreationDate,2021-03-26T16:55:41-04:00*
G04 #@! TF.ProjectId,Projet_ControlledEnvironment,50726F6A65745F436F6E74726F6C6C65,2.0*
G04 #@! TF.SameCoordinates,Original*
G04 #@! TF.FileFunction,Legend,Top*
G04 #@! TF.FilePolarity,Positive*
%FSLAX46Y46*%
G04 Gerber Fmt 4.6, Leading zero omitted, Abs format (unit mm)*
G04 Created by KiCad (PCBNEW (5.0.0)) date 03/26/21 16:55:41*
%MOMM*%
%LPD*%
G01*
G04 APERTURE LIST*
%ADD10C,0.250000*%
%ADD11C,0.200000*%
%ADD12C,0.450000*%
%ADD13C,0.500000*%
%ADD14C,0.300000*%
%ADD15C,0.400000*%
%ADD16C,0.375000*%
%ADD17C,0.120000*%
%ADD18C,0.150000*%
G04 APERTURE END LIST*
D10*
X138076190Y-70452380D02*
X138409523Y-71452380D01*
X138742857Y-70452380D01*
X139028571Y-70547619D02*
X139076190Y-70500000D01*
X139171428Y-70452380D01*
X139409523Y-70452380D01*
X139504761Y-70500000D01*
X139552380Y-70547619D01*
X139600000Y-70642857D01*
X139600000Y-70738095D01*
X139552380Y-70880952D01*
X138980952Y-71452380D01*
X139600000Y-71452380D01*
X140028571Y-71357142D02*
X140076190Y-71404761D01*
X140028571Y-71452380D01*
X139980952Y-71404761D01*
X140028571Y-71357142D01*
X140028571Y-71452380D01*
X140695238Y-70452380D02*
X140790476Y-70452380D01*
X140885714Y-70500000D01*
X140933333Y-70547619D01*
X140980952Y-70642857D01*
X141028571Y-70833333D01*
X141028571Y-71071428D01*
X140980952Y-71261904D01*
X140933333Y-71357142D01*
X140885714Y-71404761D01*
X140790476Y-71452380D01*
X140695238Y-71452380D01*
X140600000Y-71404761D01*
X140552380Y-71357142D01*
X140504761Y-71261904D01*
X140457142Y-71071428D01*
X140457142Y-70833333D01*
X140504761Y-70642857D01*
X140552380Y-70547619D01*
X140600000Y-70500000D01*
X140695238Y-70452380D01*
D11*
X107000000Y-79600000D02*
X107000000Y-66400000D01*
X136000000Y-79600000D02*
X107000000Y-79600000D01*
X141600000Y-72200000D02*
X136000000Y-79600000D01*
X141600000Y-66400000D02*
X141600000Y-72200000D01*
X107000000Y-66400000D02*
X141600000Y-66400000D01*
D12*
X116942857Y-100614285D02*
X116942857Y-98814285D01*
X117371428Y-98814285D01*
X117628571Y-98900000D01*
X117800000Y-99071428D01*
X117885714Y-99242857D01*
X117971428Y-99585714D01*
X117971428Y-99842857D01*
X117885714Y-100185714D01*
X117800000Y-100357142D01*
X117628571Y-100528571D01*
X117371428Y-100614285D01*
X116942857Y-100614285D01*
X119428571Y-100528571D02*
X119257142Y-100614285D01*
X118914285Y-100614285D01*
X118742857Y-100528571D01*
X118657142Y-100357142D01*
X118657142Y-99671428D01*
X118742857Y-99500000D01*
X118914285Y-99414285D01*
X119257142Y-99414285D01*
X119428571Y-99500000D01*
X119514285Y-99671428D01*
X119514285Y-99842857D01*
X118657142Y-100014285D01*
X119257142Y-98728571D02*
X119000000Y-98985714D01*
X120200000Y-100528571D02*
X120371428Y-100614285D01*
X120714285Y-100614285D01*
X120885714Y-100528571D01*
X120971428Y-100357142D01*
X120971428Y-100271428D01*
X120885714Y-100100000D01*
X120714285Y-100014285D01*
X120457142Y-100014285D01*
X120285714Y-99928571D01*
X120200000Y-99757142D01*
X120200000Y-99671428D01*
X120285714Y-99500000D01*
X120457142Y-99414285D01*
X120714285Y-99414285D01*
X120885714Y-99500000D01*
X121742857Y-100614285D02*
X121742857Y-98814285D01*
X122514285Y-100614285D02*
X122514285Y-99671428D01*
X122428571Y-99500000D01*
X122257142Y-99414285D01*
X122000000Y-99414285D01*
X121828571Y-99500000D01*
X121742857Y-99585714D01*
X124142857Y-99414285D02*
X124142857Y-100614285D01*
X123371428Y-99414285D02*
X123371428Y-100357142D01*
X123457142Y-100528571D01*
X123628571Y-100614285D01*
X123885714Y-100614285D01*
X124057142Y-100528571D01*
X124142857Y-100442857D01*
X125000000Y-100614285D02*
X125000000Y-99414285D01*
X125000000Y-99585714D02*
X125085714Y-99500000D01*
X125257142Y-99414285D01*
X125514285Y-99414285D01*
X125685714Y-99500000D01*
X125771428Y-99671428D01*
X125771428Y-100614285D01*
X125771428Y-99671428D02*
X125857142Y-99500000D01*
X126028571Y-99414285D01*
X126285714Y-99414285D01*
X126457142Y-99500000D01*
X126542857Y-99671428D01*
X126542857Y-100614285D01*
X127400000Y-100614285D02*
X127400000Y-99414285D01*
X127400000Y-98814285D02*
X127314285Y-98900000D01*
X127400000Y-98985714D01*
X127485714Y-98900000D01*
X127400000Y-98814285D01*
X127400000Y-98985714D01*
X129028571Y-100614285D02*
X129028571Y-98814285D01*
X129028571Y-100528571D02*
X128857142Y-100614285D01*
X128514285Y-100614285D01*
X128342857Y-100528571D01*
X128257142Y-100442857D01*
X128171428Y-100271428D01*
X128171428Y-99757142D01*
X128257142Y-99585714D01*
X128342857Y-99500000D01*
X128514285Y-99414285D01*
X128857142Y-99414285D01*
X129028571Y-99500000D01*
X129885714Y-100614285D02*
X129885714Y-99414285D01*
X129885714Y-98814285D02*
X129800000Y-98900000D01*
X129885714Y-98985714D01*
X129971428Y-98900000D01*
X129885714Y-98814285D01*
X129885714Y-98985714D01*
X130485714Y-99414285D02*
X131171428Y-99414285D01*
X130742857Y-100614285D02*
X130742857Y-99071428D01*
X130828571Y-98900000D01*
X131000000Y-98814285D01*
X131171428Y-98814285D01*
X131771428Y-100614285D02*
X131771428Y-99414285D01*
X131771428Y-98814285D02*
X131685714Y-98900000D01*
X131771428Y-98985714D01*
X131857142Y-98900000D01*
X131771428Y-98814285D01*
X131771428Y-98985714D01*
X133400000Y-100528571D02*
X133228571Y-100614285D01*
X132885714Y-100614285D01*
X132714285Y-100528571D01*
X132628571Y-100442857D01*
X132542857Y-100271428D01*
X132542857Y-99757142D01*
X132628571Y-99585714D01*
X132714285Y-99500000D01*
X132885714Y-99414285D01*
X133228571Y-99414285D01*
X133400000Y-99500000D01*
X134942857Y-100614285D02*
X134942857Y-99671428D01*
X134857142Y-99500000D01*
X134685714Y-99414285D01*
X134342857Y-99414285D01*
X134171428Y-99500000D01*
X134942857Y-100528571D02*
X134771428Y-100614285D01*
X134342857Y-100614285D01*
X134171428Y-100528571D01*
X134085714Y-100357142D01*
X134085714Y-100185714D01*
X134171428Y-100014285D01*
X134342857Y-99928571D01*
X134771428Y-99928571D01*
X134942857Y-99842857D01*
X135542857Y-99414285D02*
X136228571Y-99414285D01*
X135800000Y-98814285D02*
X135800000Y-100357142D01*
X135885714Y-100528571D01*
X136057142Y-100614285D01*
X136228571Y-100614285D01*
X137514285Y-100528571D02*
X137342857Y-100614285D01*
X137000000Y-100614285D01*
X136828571Y-100528571D01*
X136742857Y-100357142D01*
X136742857Y-99671428D01*
X136828571Y-99500000D01*
X137000000Y-99414285D01*
X137342857Y-99414285D01*
X137514285Y-99500000D01*
X137600000Y-99671428D01*
X137600000Y-99842857D01*
X136742857Y-100014285D01*
X139142857Y-99414285D02*
X139142857Y-100614285D01*
X138371428Y-99414285D02*
X138371428Y-100357142D01*
X138457142Y-100528571D01*
X138628571Y-100614285D01*
X138885714Y-100614285D01*
X139057142Y-100528571D01*
X139142857Y-100442857D01*
X140000000Y-100614285D02*
X140000000Y-99414285D01*
X140000000Y-99757142D02*
X140085714Y-99585714D01*
X140171428Y-99500000D01*
X140342857Y-99414285D01*
X140514285Y-99414285D01*
D13*
X147085714Y-97285714D02*
X148085714Y-97285714D01*
X148514285Y-98857142D02*
X147085714Y-98857142D01*
X147085714Y-95857142D01*
X148514285Y-95857142D01*
X148085714Y-94714285D02*
X147657142Y-95142857D01*
X151085714Y-98714285D02*
X150800000Y-98857142D01*
X150228571Y-98857142D01*
X149942857Y-98714285D01*
X149800000Y-98571428D01*
X149657142Y-98285714D01*
X149657142Y-97428571D01*
X149800000Y-97142857D01*
X149942857Y-97000000D01*
X150228571Y-96857142D01*
X150800000Y-96857142D01*
X151085714Y-97000000D01*
X152800000Y-98857142D02*
X152514285Y-98714285D01*
X152371428Y-98428571D01*
X152371428Y-95857142D01*
X155228571Y-98857142D02*
X155228571Y-97285714D01*
X155085714Y-97000000D01*
X154800000Y-96857142D01*
X154228571Y-96857142D01*
X153942857Y-97000000D01*
X155228571Y-98714285D02*
X154942857Y-98857142D01*
X154228571Y-98857142D01*
X153942857Y-98714285D01*
X153800000Y-98428571D01*
X153800000Y-98142857D01*
X153942857Y-97857142D01*
X154228571Y-97714285D01*
X154942857Y-97714285D01*
X155228571Y-97571428D01*
X156657142Y-98857142D02*
X156657142Y-96857142D01*
X156657142Y-95857142D02*
X156514285Y-96000000D01*
X156657142Y-96142857D01*
X156800000Y-96000000D01*
X156657142Y-95857142D01*
X156657142Y-96142857D01*
X158085714Y-98857142D02*
X158085714Y-96857142D01*
X158085714Y-97428571D02*
X158228571Y-97142857D01*
X158371428Y-97000000D01*
X158657142Y-96857142D01*
X158942857Y-96857142D01*
X161228571Y-98857142D02*
X161228571Y-97285714D01*
X161085714Y-97000000D01*
X160800000Y-96857142D01*
X160228571Y-96857142D01*
X159942857Y-97000000D01*
X161228571Y-98714285D02*
X160942857Y-98857142D01*
X160228571Y-98857142D01*
X159942857Y-98714285D01*
X159800000Y-98428571D01*
X159800000Y-98142857D01*
X159942857Y-97857142D01*
X160228571Y-97714285D01*
X160942857Y-97714285D01*
X161228571Y-97571428D01*
X163942857Y-96857142D02*
X163942857Y-99285714D01*
X163800000Y-99571428D01*
X163657142Y-99714285D01*
X163371428Y-99857142D01*
X162942857Y-99857142D01*
X162657142Y-99714285D01*
X163942857Y-98714285D02*
X163657142Y-98857142D01*
X163085714Y-98857142D01*
X162800000Y-98714285D01*
X162657142Y-98571428D01*
X162514285Y-98285714D01*
X162514285Y-97428571D01*
X162657142Y-97142857D01*
X162800000Y-97000000D01*
X163085714Y-96857142D01*
X163657142Y-96857142D01*
X163942857Y-97000000D01*
X166514285Y-98714285D02*
X166228571Y-98857142D01*
X165657142Y-98857142D01*
X165371428Y-98714285D01*
X165228571Y-98428571D01*
X165228571Y-97285714D01*
X165371428Y-97000000D01*
X165657142Y-96857142D01*
X166228571Y-96857142D01*
X166514285Y-97000000D01*
X166657142Y-97285714D01*
X166657142Y-97571428D01*
X165228571Y-97857142D01*
X150442857Y-103714285D02*
X150157142Y-103857142D01*
X149585714Y-103857142D01*
X149300000Y-103714285D01*
X149157142Y-103428571D01*
X149157142Y-102285714D01*
X149300000Y-102000000D01*
X149585714Y-101857142D01*
X150157142Y-101857142D01*
X150442857Y-102000000D01*
X150585714Y-102285714D01*
X150585714Y-102571428D01*
X149157142Y-102857142D01*
X151585714Y-103857142D02*
X153157142Y-101857142D01*
X151585714Y-101857142D02*
X153157142Y-103857142D01*
X153871428Y-101857142D02*
X155014285Y-101857142D01*
X154300000Y-100857142D02*
X154300000Y-103428571D01*
X154442857Y-103714285D01*
X154728571Y-103857142D01*
X155014285Y-103857142D01*
X157157142Y-103714285D02*
X156871428Y-103857142D01*
X156300000Y-103857142D01*
X156014285Y-103714285D01*
X155871428Y-103428571D01*
X155871428Y-102285714D01*
X156014285Y-102000000D01*
X156300000Y-101857142D01*
X156871428Y-101857142D01*
X157157142Y-102000000D01*
X157300000Y-102285714D01*
X157300000Y-102571428D01*
X155871428Y-102857142D01*
X158585714Y-103857142D02*
X158585714Y-101857142D01*
X158585714Y-102428571D02*
X158728571Y-102142857D01*
X158871428Y-102000000D01*
X159157142Y-101857142D01*
X159442857Y-101857142D01*
X160442857Y-101857142D02*
X160442857Y-103857142D01*
X160442857Y-102142857D02*
X160585714Y-102000000D01*
X160871428Y-101857142D01*
X161300000Y-101857142D01*
X161585714Y-102000000D01*
X161728571Y-102285714D01*
X161728571Y-103857142D01*
X164300000Y-103714285D02*
X164014285Y-103857142D01*
X163442857Y-103857142D01*
X163157142Y-103714285D01*
X163014285Y-103428571D01*
X163014285Y-102285714D01*
X163157142Y-102000000D01*
X163442857Y-101857142D01*
X164014285Y-101857142D01*
X164300000Y-102000000D01*
X164442857Y-102285714D01*
X164442857Y-102571428D01*
X163014285Y-102857142D01*
X173728571Y-101395238D02*
X173728571Y-99195238D01*
X173728571Y-100242857D02*
X174985714Y-100242857D01*
X174985714Y-101395238D02*
X174985714Y-99195238D01*
X176976190Y-99928571D02*
X176976190Y-101395238D01*
X176033333Y-99928571D02*
X176033333Y-101080952D01*
X176138095Y-101290476D01*
X176347619Y-101395238D01*
X176661904Y-101395238D01*
X176871428Y-101290476D01*
X176976190Y-101185714D01*
X178023809Y-101395238D02*
X178023809Y-99928571D01*
X178023809Y-100138095D02*
X178128571Y-100033333D01*
X178338095Y-99928571D01*
X178652380Y-99928571D01*
X178861904Y-100033333D01*
X178966666Y-100242857D01*
X178966666Y-101395238D01*
X178966666Y-100242857D02*
X179071428Y-100033333D01*
X179280952Y-99928571D01*
X179595238Y-99928571D01*
X179804761Y-100033333D01*
X179909523Y-100242857D01*
X179909523Y-101395238D01*
X180957142Y-101395238D02*
X180957142Y-99928571D01*
X180957142Y-99195238D02*
X180852380Y-99300000D01*
X180957142Y-99404761D01*
X181061904Y-99300000D01*
X180957142Y-99195238D01*
X180957142Y-99404761D01*
X182947619Y-101395238D02*
X182947619Y-99195238D01*
X182947619Y-101290476D02*
X182738095Y-101395238D01*
X182319047Y-101395238D01*
X182109523Y-101290476D01*
X182004761Y-101185714D01*
X181900000Y-100976190D01*
X181900000Y-100347619D01*
X182004761Y-100138095D01*
X182109523Y-100033333D01*
X182319047Y-99928571D01*
X182738095Y-99928571D01*
X182947619Y-100033333D01*
X183995238Y-101395238D02*
X183995238Y-99928571D01*
X183995238Y-99195238D02*
X183890476Y-99300000D01*
X183995238Y-99404761D01*
X184100000Y-99300000D01*
X183995238Y-99195238D01*
X183995238Y-99404761D01*
X184728571Y-99928571D02*
X185566666Y-99928571D01*
X185042857Y-101395238D02*
X185042857Y-99509523D01*
X185147619Y-99300000D01*
X185357142Y-99195238D01*
X185566666Y-99195238D01*
X186300000Y-101395238D02*
X186300000Y-99928571D01*
X186300000Y-99195238D02*
X186195238Y-99300000D01*
X186300000Y-99404761D01*
X186404761Y-99300000D01*
X186300000Y-99195238D01*
X186300000Y-99404761D01*
X188290476Y-101290476D02*
X188080952Y-101395238D01*
X187661904Y-101395238D01*
X187452380Y-101290476D01*
X187347619Y-101185714D01*
X187242857Y-100976190D01*
X187242857Y-100347619D01*
X187347619Y-100138095D01*
X187452380Y-100033333D01*
X187661904Y-99928571D01*
X188080952Y-99928571D01*
X188290476Y-100033333D01*
X190176190Y-101395238D02*
X190176190Y-100242857D01*
X190071428Y-100033333D01*
X189861904Y-99928571D01*
X189442857Y-99928571D01*
X189233333Y-100033333D01*
X190176190Y-101290476D02*
X189966666Y-101395238D01*
X189442857Y-101395238D01*
X189233333Y-101290476D01*
X189128571Y-101080952D01*
X189128571Y-100871428D01*
X189233333Y-100661904D01*
X189442857Y-100557142D01*
X189966666Y-100557142D01*
X190176190Y-100452380D01*
X190909523Y-99928571D02*
X191747619Y-99928571D01*
X191223809Y-99195238D02*
X191223809Y-101080952D01*
X191328571Y-101290476D01*
X191538095Y-101395238D01*
X191747619Y-101395238D01*
X193319047Y-101290476D02*
X193109523Y-101395238D01*
X192690476Y-101395238D01*
X192480952Y-101290476D01*
X192376190Y-101080952D01*
X192376190Y-100242857D01*
X192480952Y-100033333D01*
X192690476Y-99928571D01*
X193109523Y-99928571D01*
X193319047Y-100033333D01*
X193423809Y-100242857D01*
X193423809Y-100452380D01*
X192376190Y-100661904D01*
X195309523Y-99928571D02*
X195309523Y-101395238D01*
X194366666Y-99928571D02*
X194366666Y-101080952D01*
X194471428Y-101290476D01*
X194680952Y-101395238D01*
X194995238Y-101395238D01*
X195204761Y-101290476D01*
X195309523Y-101185714D01*
X196357142Y-101395238D02*
X196357142Y-99928571D01*
X196357142Y-100347619D02*
X196461904Y-100138095D01*
X196566666Y-100033333D01*
X196776190Y-99928571D01*
X196985714Y-99928571D01*
X93928571Y-97085714D02*
X92928571Y-97085714D01*
X92928571Y-98657142D02*
X92928571Y-95657142D01*
X94357142Y-95657142D01*
X96785714Y-98657142D02*
X96785714Y-97085714D01*
X96642857Y-96800000D01*
X96357142Y-96657142D01*
X95785714Y-96657142D01*
X95500000Y-96800000D01*
X96785714Y-98514285D02*
X96500000Y-98657142D01*
X95785714Y-98657142D01*
X95500000Y-98514285D01*
X95357142Y-98228571D01*
X95357142Y-97942857D01*
X95500000Y-97657142D01*
X95785714Y-97514285D01*
X96500000Y-97514285D01*
X96785714Y-97371428D01*
X98214285Y-96657142D02*
X98214285Y-98657142D01*
X98214285Y-96942857D02*
X98357142Y-96800000D01*
X98642857Y-96657142D01*
X99071428Y-96657142D01*
X99357142Y-96800000D01*
X99500000Y-97085714D01*
X99500000Y-98657142D01*
X104500000Y-98657142D02*
X104500000Y-95657142D01*
X104500000Y-98514285D02*
X104214285Y-98657142D01*
X103642857Y-98657142D01*
X103357142Y-98514285D01*
X103214285Y-98371428D01*
X103071428Y-98085714D01*
X103071428Y-97228571D01*
X103214285Y-96942857D01*
X103357142Y-96800000D01*
X103642857Y-96657142D01*
X104214285Y-96657142D01*
X104500000Y-96800000D01*
X107071428Y-98514285D02*
X106785714Y-98657142D01*
X106214285Y-98657142D01*
X105928571Y-98514285D01*
X105785714Y-98228571D01*
X105785714Y-97085714D01*
X105928571Y-96800000D01*
X106214285Y-96657142D01*
X106785714Y-96657142D01*
X107071428Y-96800000D01*
X107214285Y-97085714D01*
X107214285Y-97371428D01*
X105785714Y-97657142D01*
X92500000Y-103514285D02*
X92214285Y-103657142D01*
X91642857Y-103657142D01*
X91357142Y-103514285D01*
X91214285Y-103371428D01*
X91071428Y-103085714D01*
X91071428Y-102228571D01*
X91214285Y-101942857D01*
X91357142Y-101800000D01*
X91642857Y-101657142D01*
X92214285Y-101657142D01*
X92500000Y-101800000D01*
X94214285Y-103657142D02*
X93928571Y-103514285D01*
X93785714Y-103371428D01*
X93642857Y-103085714D01*
X93642857Y-102228571D01*
X93785714Y-101942857D01*
X93928571Y-101800000D01*
X94214285Y-101657142D01*
X94642857Y-101657142D01*
X94928571Y-101800000D01*
X95071428Y-101942857D01*
X95214285Y-102228571D01*
X95214285Y-103085714D01*
X95071428Y-103371428D01*
X94928571Y-103514285D01*
X94642857Y-103657142D01*
X94214285Y-103657142D01*
X96500000Y-101657142D02*
X96500000Y-103657142D01*
X96500000Y-101942857D02*
X96642857Y-101800000D01*
X96928571Y-101657142D01*
X97357142Y-101657142D01*
X97642857Y-101800000D01*
X97785714Y-102085714D01*
X97785714Y-103657142D01*
X100500000Y-103657142D02*
X100500000Y-100657142D01*
X100500000Y-103514285D02*
X100214285Y-103657142D01*
X99642857Y-103657142D01*
X99357142Y-103514285D01*
X99214285Y-103371428D01*
X99071428Y-103085714D01*
X99071428Y-102228571D01*
X99214285Y-101942857D01*
X99357142Y-101800000D01*
X99642857Y-101657142D01*
X100214285Y-101657142D01*
X100500000Y-101800000D01*
X103214285Y-101657142D02*
X103214285Y-103657142D01*
X101928571Y-101657142D02*
X101928571Y-103228571D01*
X102071428Y-103514285D01*
X102357142Y-103657142D01*
X102785714Y-103657142D01*
X103071428Y-103514285D01*
X103214285Y-103371428D01*
X104642857Y-103657142D02*
X104642857Y-101657142D01*
X104642857Y-100657142D02*
X104500000Y-100800000D01*
X104642857Y-100942857D01*
X104785714Y-100800000D01*
X104642857Y-100657142D01*
X104642857Y-100942857D01*
X105642857Y-101657142D02*
X106785714Y-101657142D01*
X106071428Y-100657142D02*
X106071428Y-103228571D01*
X106214285Y-103514285D01*
X106500000Y-103657142D01*
X106785714Y-103657142D01*
X107642857Y-103514285D02*
X107928571Y-103657142D01*
X108500000Y-103657142D01*
X108785714Y-103514285D01*
X108928571Y-103228571D01*
X108928571Y-103085714D01*
X108785714Y-102800000D01*
X108500000Y-102657142D01*
X108071428Y-102657142D01*
X107785714Y-102514285D01*
X107642857Y-102228571D01*
X107642857Y-102085714D01*
X107785714Y-101800000D01*
X108071428Y-101657142D01*
X108500000Y-101657142D01*
X108785714Y-101800000D01*
X63342857Y-100471428D02*
X63200000Y-100614285D01*
X62771428Y-100757142D01*
X62485714Y-100757142D01*
X62057142Y-100614285D01*
X61771428Y-100328571D01*
X61628571Y-100042857D01*
X61485714Y-99471428D01*
X61485714Y-99042857D01*
X61628571Y-98471428D01*
X61771428Y-98185714D01*
X62057142Y-97900000D01*
X62485714Y-97757142D01*
X62771428Y-97757142D01*
X63200000Y-97900000D01*
X63342857Y-98042857D01*
X64628571Y-100757142D02*
X64628571Y-97757142D01*
X65914285Y-100757142D02*
X65914285Y-99185714D01*
X65771428Y-98900000D01*
X65485714Y-98757142D01*
X65057142Y-98757142D01*
X64771428Y-98900000D01*
X64628571Y-99042857D01*
X68628571Y-100757142D02*
X68628571Y-99185714D01*
X68485714Y-98900000D01*
X68200000Y-98757142D01*
X67628571Y-98757142D01*
X67342857Y-98900000D01*
X68628571Y-100614285D02*
X68342857Y-100757142D01*
X67628571Y-100757142D01*
X67342857Y-100614285D01*
X67200000Y-100328571D01*
X67200000Y-100042857D01*
X67342857Y-99757142D01*
X67628571Y-99614285D01*
X68342857Y-99614285D01*
X68628571Y-99471428D01*
X71342857Y-98757142D02*
X71342857Y-100757142D01*
X70057142Y-98757142D02*
X70057142Y-100328571D01*
X70200000Y-100614285D01*
X70485714Y-100757142D01*
X70914285Y-100757142D01*
X71200000Y-100614285D01*
X71342857Y-100471428D01*
X72342857Y-98757142D02*
X73485714Y-98757142D01*
X72771428Y-100757142D02*
X72771428Y-98185714D01*
X72914285Y-97900000D01*
X73200000Y-97757142D01*
X73485714Y-97757142D01*
X74057142Y-98757142D02*
X75200000Y-98757142D01*
X74485714Y-100757142D02*
X74485714Y-98185714D01*
X74628571Y-97900000D01*
X74914285Y-97757142D01*
X75200000Y-97757142D01*
X77485714Y-100757142D02*
X77485714Y-99185714D01*
X77342857Y-98900000D01*
X77057142Y-98757142D01*
X76485714Y-98757142D01*
X76200000Y-98900000D01*
X77485714Y-100614285D02*
X77200000Y-100757142D01*
X76485714Y-100757142D01*
X76200000Y-100614285D01*
X76057142Y-100328571D01*
X76057142Y-100042857D01*
X76200000Y-99757142D01*
X76485714Y-99614285D01*
X77200000Y-99614285D01*
X77485714Y-99471428D01*
X80200000Y-98757142D02*
X80200000Y-101185714D01*
X80057142Y-101471428D01*
X79914285Y-101614285D01*
X79628571Y-101757142D01*
X79200000Y-101757142D01*
X78914285Y-101614285D01*
X80200000Y-100614285D02*
X79914285Y-100757142D01*
X79342857Y-100757142D01*
X79057142Y-100614285D01*
X78914285Y-100471428D01*
X78771428Y-100185714D01*
X78771428Y-99328571D01*
X78914285Y-99042857D01*
X79057142Y-98900000D01*
X79342857Y-98757142D01*
X79914285Y-98757142D01*
X80200000Y-98900000D01*
X82771428Y-100614285D02*
X82485714Y-100757142D01*
X81914285Y-100757142D01*
X81628571Y-100614285D01*
X81485714Y-100328571D01*
X81485714Y-99185714D01*
X81628571Y-98900000D01*
X81914285Y-98757142D01*
X82485714Y-98757142D01*
X82771428Y-98900000D01*
X82914285Y-99185714D01*
X82914285Y-99471428D01*
X81485714Y-99757142D01*
D14*
X194300000Y-56378571D02*
X194585714Y-56378571D01*
X194728571Y-56450000D01*
X194871428Y-56592857D01*
X194942857Y-56878571D01*
X194942857Y-57378571D01*
X194871428Y-57664285D01*
X194728571Y-57807142D01*
X194585714Y-57878571D01*
X194300000Y-57878571D01*
X194157142Y-57807142D01*
X194014285Y-57664285D01*
X193942857Y-57378571D01*
X193942857Y-56878571D01*
X194014285Y-56592857D01*
X194157142Y-56450000D01*
X194300000Y-56378571D01*
X195585714Y-56378571D02*
X195585714Y-57592857D01*
X195657142Y-57735714D01*
X195728571Y-57807142D01*
X195871428Y-57878571D01*
X196157142Y-57878571D01*
X196300000Y-57807142D01*
X196371428Y-57735714D01*
X196442857Y-57592857D01*
X196442857Y-56378571D01*
X196942857Y-56378571D02*
X197800000Y-56378571D01*
X197371428Y-57878571D02*
X197371428Y-56378571D01*
X194500000Y-68978571D02*
X194785714Y-68978571D01*
X194928571Y-69050000D01*
X195071428Y-69192857D01*
X195142857Y-69478571D01*
X195142857Y-69978571D01*
X195071428Y-70264285D01*
X194928571Y-70407142D01*
X194785714Y-70478571D01*
X194500000Y-70478571D01*
X194357142Y-70407142D01*
X194214285Y-70264285D01*
X194142857Y-69978571D01*
X194142857Y-69478571D01*
X194214285Y-69192857D01*
X194357142Y-69050000D01*
X194500000Y-68978571D01*
X195785714Y-68978571D02*
X195785714Y-70192857D01*
X195857142Y-70335714D01*
X195928571Y-70407142D01*
X196071428Y-70478571D01*
X196357142Y-70478571D01*
X196500000Y-70407142D01*
X196571428Y-70335714D01*
X196642857Y-70192857D01*
X196642857Y-68978571D01*
X197142857Y-68978571D02*
X198000000Y-68978571D01*
X197571428Y-70478571D02*
X197571428Y-68978571D01*
X194300000Y-81778571D02*
X194585714Y-81778571D01*
X194728571Y-81850000D01*
X194871428Y-81992857D01*
X194942857Y-82278571D01*
X194942857Y-82778571D01*
X194871428Y-83064285D01*
X194728571Y-83207142D01*
X194585714Y-83278571D01*
X194300000Y-83278571D01*
X194157142Y-83207142D01*
X194014285Y-83064285D01*
X193942857Y-82778571D01*
X193942857Y-82278571D01*
X194014285Y-81992857D01*
X194157142Y-81850000D01*
X194300000Y-81778571D01*
X195585714Y-81778571D02*
X195585714Y-82992857D01*
X195657142Y-83135714D01*
X195728571Y-83207142D01*
X195871428Y-83278571D01*
X196157142Y-83278571D01*
X196300000Y-83207142D01*
X196371428Y-83135714D01*
X196442857Y-82992857D01*
X196442857Y-81778571D01*
X196942857Y-81778571D02*
X197800000Y-81778571D01*
X197371428Y-83278571D02*
X197371428Y-81778571D01*
X133578571Y-121300000D02*
X133578571Y-121014285D01*
X133650000Y-120871428D01*
X133792857Y-120728571D01*
X134078571Y-120657142D01*
X134578571Y-120657142D01*
X134864285Y-120728571D01*
X135007142Y-120871428D01*
X135078571Y-121014285D01*
X135078571Y-121300000D01*
X135007142Y-121442857D01*
X134864285Y-121585714D01*
X134578571Y-121657142D01*
X134078571Y-121657142D01*
X133792857Y-121585714D01*
X133650000Y-121442857D01*
X133578571Y-121300000D01*
X133578571Y-120014285D02*
X134792857Y-120014285D01*
X134935714Y-119942857D01*
X135007142Y-119871428D01*
X135078571Y-119728571D01*
X135078571Y-119442857D01*
X135007142Y-119300000D01*
X134935714Y-119228571D01*
X134792857Y-119157142D01*
X133578571Y-119157142D01*
X133578571Y-118657142D02*
X133578571Y-117800000D01*
X135078571Y-118228571D02*
X133578571Y-118228571D01*
X155378571Y-121300000D02*
X155378571Y-121014285D01*
X155450000Y-120871428D01*
X155592857Y-120728571D01*
X155878571Y-120657142D01*
X156378571Y-120657142D01*
X156664285Y-120728571D01*
X156807142Y-120871428D01*
X156878571Y-121014285D01*
X156878571Y-121300000D01*
X156807142Y-121442857D01*
X156664285Y-121585714D01*
X156378571Y-121657142D01*
X155878571Y-121657142D01*
X155592857Y-121585714D01*
X155450000Y-121442857D01*
X155378571Y-121300000D01*
X155378571Y-120014285D02*
X156592857Y-120014285D01*
X156735714Y-119942857D01*
X156807142Y-119871428D01*
X156878571Y-119728571D01*
X156878571Y-119442857D01*
X156807142Y-119300000D01*
X156735714Y-119228571D01*
X156592857Y-119157142D01*
X155378571Y-119157142D01*
X155378571Y-118657142D02*
X155378571Y-117800000D01*
X156878571Y-118228571D02*
X155378571Y-118228571D01*
X67135714Y-112678571D02*
X67135714Y-111178571D01*
X67850000Y-111678571D02*
X67850000Y-112678571D01*
X67850000Y-111821428D02*
X67921428Y-111750000D01*
X68064285Y-111678571D01*
X68278571Y-111678571D01*
X68421428Y-111750000D01*
X68492857Y-111892857D01*
X68492857Y-112678571D01*
X69207142Y-111678571D02*
X69207142Y-113178571D01*
X69207142Y-111750000D02*
X69350000Y-111678571D01*
X69635714Y-111678571D01*
X69778571Y-111750000D01*
X69850000Y-111821428D01*
X69921428Y-111964285D01*
X69921428Y-112392857D01*
X69850000Y-112535714D01*
X69778571Y-112607142D01*
X69635714Y-112678571D01*
X69350000Y-112678571D01*
X69207142Y-112607142D01*
X71207142Y-111678571D02*
X71207142Y-112678571D01*
X70564285Y-111678571D02*
X70564285Y-112464285D01*
X70635714Y-112607142D01*
X70778571Y-112678571D01*
X70992857Y-112678571D01*
X71135714Y-112607142D01*
X71207142Y-112535714D01*
X71707142Y-111678571D02*
X72278571Y-111678571D01*
X71921428Y-111178571D02*
X71921428Y-112464285D01*
X71992857Y-112607142D01*
X72135714Y-112678571D01*
X72278571Y-112678571D01*
D15*
X77414285Y-120100000D02*
X79214285Y-119500000D01*
X77414285Y-118900000D01*
X79214285Y-117528571D02*
X78271428Y-117528571D01*
X78100000Y-117614285D01*
X78014285Y-117785714D01*
X78014285Y-118128571D01*
X78100000Y-118300000D01*
X79128571Y-117528571D02*
X79214285Y-117700000D01*
X79214285Y-118128571D01*
X79128571Y-118300000D01*
X78957142Y-118385714D01*
X78785714Y-118385714D01*
X78614285Y-118300000D01*
X78528571Y-118128571D01*
X78528571Y-117700000D01*
X78442857Y-117528571D01*
X79128571Y-115900000D02*
X79214285Y-116071428D01*
X79214285Y-116414285D01*
X79128571Y-116585714D01*
X79042857Y-116671428D01*
X78871428Y-116757142D01*
X78357142Y-116757142D01*
X78185714Y-116671428D01*
X78100000Y-116585714D01*
X78014285Y-116414285D01*
X78014285Y-116071428D01*
X78100000Y-115900000D01*
X78528571Y-115128571D02*
X78528571Y-113757142D01*
D14*
X164535714Y-113278571D02*
X164535714Y-111778571D01*
X165250000Y-112278571D02*
X165250000Y-113278571D01*
X165250000Y-112421428D02*
X165321428Y-112350000D01*
X165464285Y-112278571D01*
X165678571Y-112278571D01*
X165821428Y-112350000D01*
X165892857Y-112492857D01*
X165892857Y-113278571D01*
X166607142Y-112278571D02*
X166607142Y-113778571D01*
X166607142Y-112350000D02*
X166750000Y-112278571D01*
X167035714Y-112278571D01*
X167178571Y-112350000D01*
X167250000Y-112421428D01*
X167321428Y-112564285D01*
X167321428Y-112992857D01*
X167250000Y-113135714D01*
X167178571Y-113207142D01*
X167035714Y-113278571D01*
X166750000Y-113278571D01*
X166607142Y-113207142D01*
X168607142Y-112278571D02*
X168607142Y-113278571D01*
X167964285Y-112278571D02*
X167964285Y-113064285D01*
X168035714Y-113207142D01*
X168178571Y-113278571D01*
X168392857Y-113278571D01*
X168535714Y-113207142D01*
X168607142Y-113135714D01*
X169107142Y-112278571D02*
X169678571Y-112278571D01*
X169321428Y-111778571D02*
X169321428Y-113064285D01*
X169392857Y-113207142D01*
X169535714Y-113278571D01*
X169678571Y-113278571D01*
X190578571Y-122100000D02*
X190578571Y-121814285D01*
X190650000Y-121671428D01*
X190792857Y-121528571D01*
X191078571Y-121457142D01*
X191578571Y-121457142D01*
X191864285Y-121528571D01*
X192007142Y-121671428D01*
X192078571Y-121814285D01*
X192078571Y-122100000D01*
X192007142Y-122242857D01*
X191864285Y-122385714D01*
X191578571Y-122457142D01*
X191078571Y-122457142D01*
X190792857Y-122385714D01*
X190650000Y-122242857D01*
X190578571Y-122100000D01*
X190578571Y-120814285D02*
X191792857Y-120814285D01*
X191935714Y-120742857D01*
X192007142Y-120671428D01*
X192078571Y-120528571D01*
X192078571Y-120242857D01*
X192007142Y-120100000D01*
X191935714Y-120028571D01*
X191792857Y-119957142D01*
X190578571Y-119957142D01*
X190578571Y-119457142D02*
X190578571Y-118600000D01*
X192078571Y-119028571D02*
X190578571Y-119028571D01*
X112178571Y-120500000D02*
X112178571Y-120214285D01*
X112250000Y-120071428D01*
X112392857Y-119928571D01*
X112678571Y-119857142D01*
X113178571Y-119857142D01*
X113464285Y-119928571D01*
X113607142Y-120071428D01*
X113678571Y-120214285D01*
X113678571Y-120500000D01*
X113607142Y-120642857D01*
X113464285Y-120785714D01*
X113178571Y-120857142D01*
X112678571Y-120857142D01*
X112392857Y-120785714D01*
X112250000Y-120642857D01*
X112178571Y-120500000D01*
X112178571Y-119214285D02*
X113392857Y-119214285D01*
X113535714Y-119142857D01*
X113607142Y-119071428D01*
X113678571Y-118928571D01*
X113678571Y-118642857D01*
X113607142Y-118500000D01*
X113535714Y-118428571D01*
X113392857Y-118357142D01*
X112178571Y-118357142D01*
X112178571Y-117857142D02*
X112178571Y-117000000D01*
X113678571Y-117428571D02*
X112178571Y-117428571D01*
X95178571Y-121500000D02*
X95178571Y-121214285D01*
X95250000Y-121071428D01*
X95392857Y-120928571D01*
X95678571Y-120857142D01*
X96178571Y-120857142D01*
X96464285Y-120928571D01*
X96607142Y-121071428D01*
X96678571Y-121214285D01*
X96678571Y-121500000D01*
X96607142Y-121642857D01*
X96464285Y-121785714D01*
X96178571Y-121857142D01*
X95678571Y-121857142D01*
X95392857Y-121785714D01*
X95250000Y-121642857D01*
X95178571Y-121500000D01*
X95178571Y-120214285D02*
X96392857Y-120214285D01*
X96535714Y-120142857D01*
X96607142Y-120071428D01*
X96678571Y-119928571D01*
X96678571Y-119642857D01*
X96607142Y-119500000D01*
X96535714Y-119428571D01*
X96392857Y-119357142D01*
X95178571Y-119357142D01*
X95178571Y-118857142D02*
X95178571Y-118000000D01*
X96678571Y-118428571D02*
X95178571Y-118428571D01*
X60678571Y-87392857D02*
X59178571Y-87392857D01*
X59678571Y-86678571D02*
X60678571Y-86678571D01*
X59821428Y-86678571D02*
X59750000Y-86607142D01*
X59678571Y-86464285D01*
X59678571Y-86250000D01*
X59750000Y-86107142D01*
X59892857Y-86035714D01*
X60678571Y-86035714D01*
X59678571Y-85321428D02*
X61178571Y-85321428D01*
X59750000Y-85321428D02*
X59678571Y-85178571D01*
X59678571Y-84892857D01*
X59750000Y-84750000D01*
X59821428Y-84678571D01*
X59964285Y-84607142D01*
X60392857Y-84607142D01*
X60535714Y-84678571D01*
X60607142Y-84750000D01*
X60678571Y-84892857D01*
X60678571Y-85178571D01*
X60607142Y-85321428D01*
X59678571Y-83321428D02*
X60678571Y-83321428D01*
X59678571Y-83964285D02*
X60464285Y-83964285D01*
X60607142Y-83892857D01*
X60678571Y-83750000D01*
X60678571Y-83535714D01*
X60607142Y-83392857D01*
X60535714Y-83321428D01*
X59678571Y-82821428D02*
X59678571Y-82250000D01*
X59178571Y-82607142D02*
X60464285Y-82607142D01*
X60607142Y-82535714D01*
X60678571Y-82392857D01*
X60678571Y-82250000D01*
X59178571Y-80821428D02*
X60678571Y-80321428D01*
X59178571Y-79821428D01*
X60678571Y-79107142D02*
X60607142Y-79250000D01*
X60464285Y-79321428D01*
X59178571Y-79321428D01*
X60607142Y-77964285D02*
X60678571Y-78107142D01*
X60678571Y-78392857D01*
X60607142Y-78535714D01*
X60464285Y-78607142D01*
X59892857Y-78607142D01*
X59750000Y-78535714D01*
X59678571Y-78392857D01*
X59678571Y-78107142D01*
X59750000Y-77964285D01*
X59892857Y-77892857D01*
X60035714Y-77892857D01*
X60178571Y-78607142D01*
X60678571Y-76607142D02*
X59178571Y-76607142D01*
X60607142Y-76607142D02*
X60678571Y-76750000D01*
X60678571Y-77035714D01*
X60607142Y-77178571D01*
X60535714Y-77250000D01*
X60392857Y-77321428D01*
X59964285Y-77321428D01*
X59821428Y-77250000D01*
X59750000Y-77178571D01*
X59678571Y-77035714D01*
X59678571Y-76750000D01*
X59750000Y-76607142D01*
X60878571Y-74678571D02*
X60878571Y-75392857D01*
X59378571Y-75392857D01*
X60092857Y-74178571D02*
X60092857Y-73678571D01*
X60878571Y-73464285D02*
X60878571Y-74178571D01*
X59378571Y-74178571D01*
X59378571Y-73464285D01*
X60878571Y-72821428D02*
X59378571Y-72821428D01*
X59378571Y-72464285D01*
X59450000Y-72250000D01*
X59592857Y-72107142D01*
X59735714Y-72035714D01*
X60021428Y-71964285D01*
X60235714Y-71964285D01*
X60521428Y-72035714D01*
X60664285Y-72107142D01*
X60807142Y-72250000D01*
X60878571Y-72464285D01*
X60878571Y-72821428D01*
X59378571Y-69892857D02*
X59378571Y-69607142D01*
X59450000Y-69464285D01*
X59592857Y-69321428D01*
X59878571Y-69250000D01*
X60378571Y-69250000D01*
X60664285Y-69321428D01*
X60807142Y-69464285D01*
X60878571Y-69607142D01*
X60878571Y-69892857D01*
X60807142Y-70035714D01*
X60664285Y-70178571D01*
X60378571Y-70250000D01*
X59878571Y-70250000D01*
X59592857Y-70178571D01*
X59450000Y-70035714D01*
X59378571Y-69892857D01*
X59378571Y-68607142D02*
X60592857Y-68607142D01*
X60735714Y-68535714D01*
X60807142Y-68464285D01*
X60878571Y-68321428D01*
X60878571Y-68035714D01*
X60807142Y-67892857D01*
X60735714Y-67821428D01*
X60592857Y-67750000D01*
X59378571Y-67750000D01*
X59378571Y-67250000D02*
X59378571Y-66392857D01*
X60878571Y-66821428D02*
X59378571Y-66821428D01*
X100864285Y-74407142D02*
X101078571Y-74478571D01*
X101435714Y-74478571D01*
X101578571Y-74407142D01*
X101650000Y-74335714D01*
X101721428Y-74192857D01*
X101721428Y-74050000D01*
X101650000Y-73907142D01*
X101578571Y-73835714D01*
X101435714Y-73764285D01*
X101150000Y-73692857D01*
X101007142Y-73621428D01*
X100935714Y-73550000D01*
X100864285Y-73407142D01*
X100864285Y-73264285D01*
X100935714Y-73121428D01*
X101007142Y-73050000D01*
X101150000Y-72978571D01*
X101507142Y-72978571D01*
X101721428Y-73050000D01*
X102364285Y-74478571D02*
X102364285Y-72978571D01*
X103864285Y-73050000D02*
X103721428Y-72978571D01*
X103507142Y-72978571D01*
X103292857Y-73050000D01*
X103150000Y-73192857D01*
X103078571Y-73335714D01*
X103007142Y-73621428D01*
X103007142Y-73835714D01*
X103078571Y-74121428D01*
X103150000Y-74264285D01*
X103292857Y-74407142D01*
X103507142Y-74478571D01*
X103650000Y-74478571D01*
X103864285Y-74407142D01*
X103935714Y-74335714D01*
X103935714Y-73835714D01*
X103650000Y-73835714D01*
X101457142Y-77850000D02*
X101314285Y-77778571D01*
X101100000Y-77778571D01*
X100885714Y-77850000D01*
X100742857Y-77992857D01*
X100671428Y-78135714D01*
X100600000Y-78421428D01*
X100600000Y-78635714D01*
X100671428Y-78921428D01*
X100742857Y-79064285D01*
X100885714Y-79207142D01*
X101100000Y-79278571D01*
X101242857Y-79278571D01*
X101457142Y-79207142D01*
X101528571Y-79135714D01*
X101528571Y-78635714D01*
X101242857Y-78635714D01*
X102171428Y-79278571D02*
X102171428Y-77778571D01*
X103028571Y-79278571D01*
X103028571Y-77778571D01*
X103742857Y-79278571D02*
X103742857Y-77778571D01*
X104100000Y-77778571D01*
X104314285Y-77850000D01*
X104457142Y-77992857D01*
X104528571Y-78135714D01*
X104600000Y-78421428D01*
X104600000Y-78635714D01*
X104528571Y-78921428D01*
X104457142Y-79064285D01*
X104314285Y-79207142D01*
X104100000Y-79278571D01*
X103742857Y-79278571D01*
X145207142Y-58350000D02*
X145278571Y-58135714D01*
X145278571Y-57778571D01*
X145207142Y-57635714D01*
X145135714Y-57564285D01*
X144992857Y-57492857D01*
X144850000Y-57492857D01*
X144707142Y-57564285D01*
X144635714Y-57635714D01*
X144564285Y-57778571D01*
X144492857Y-58064285D01*
X144421428Y-58207142D01*
X144350000Y-58278571D01*
X144207142Y-58350000D01*
X144064285Y-58350000D01*
X143921428Y-58278571D01*
X143850000Y-58207142D01*
X143778571Y-58064285D01*
X143778571Y-57707142D01*
X143850000Y-57492857D01*
X144492857Y-56850000D02*
X144492857Y-56350000D01*
X145278571Y-56135714D02*
X145278571Y-56850000D01*
X143778571Y-56850000D01*
X143778571Y-56135714D01*
X145278571Y-55492857D02*
X143778571Y-55492857D01*
X145278571Y-54635714D01*
X143778571Y-54635714D01*
X143778571Y-53635714D02*
X143778571Y-53492857D01*
X143850000Y-53350000D01*
X143921428Y-53278571D01*
X144064285Y-53207142D01*
X144350000Y-53135714D01*
X144707142Y-53135714D01*
X144992857Y-53207142D01*
X145135714Y-53278571D01*
X145207142Y-53350000D01*
X145278571Y-53492857D01*
X145278571Y-53635714D01*
X145207142Y-53778571D01*
X145135714Y-53850000D01*
X144992857Y-53921428D01*
X144707142Y-53992857D01*
X144350000Y-53992857D01*
X144064285Y-53921428D01*
X143921428Y-53850000D01*
X143850000Y-53778571D01*
X143778571Y-53635714D01*
X143921428Y-52564285D02*
X143850000Y-52492857D01*
X143778571Y-52350000D01*
X143778571Y-51992857D01*
X143850000Y-51850000D01*
X143921428Y-51778571D01*
X144064285Y-51707142D01*
X144207142Y-51707142D01*
X144421428Y-51778571D01*
X145278571Y-52635714D01*
X145278571Y-51707142D01*
X143921428Y-51135714D02*
X143850000Y-51064285D01*
X143778571Y-50921428D01*
X143778571Y-50564285D01*
X143850000Y-50421428D01*
X143921428Y-50350000D01*
X144064285Y-50278571D01*
X144207142Y-50278571D01*
X144421428Y-50350000D01*
X145278571Y-51207142D01*
X145278571Y-50278571D01*
X143778571Y-49778571D02*
X143778571Y-48778571D01*
X145278571Y-49421428D01*
X92078571Y-84264285D02*
X90578571Y-84264285D01*
X92078571Y-83550000D02*
X90578571Y-83550000D01*
X92078571Y-82692857D01*
X90578571Y-82692857D01*
X92078571Y-81978571D02*
X90578571Y-81978571D01*
X90578571Y-81407142D01*
X90650000Y-81264285D01*
X90721428Y-81192857D01*
X90864285Y-81121428D01*
X91078571Y-81121428D01*
X91221428Y-81192857D01*
X91292857Y-81264285D01*
X91364285Y-81407142D01*
X91364285Y-81978571D01*
X90578571Y-80478571D02*
X91792857Y-80478571D01*
X91935714Y-80407142D01*
X92007142Y-80335714D01*
X92078571Y-80192857D01*
X92078571Y-79907142D01*
X92007142Y-79764285D01*
X91935714Y-79692857D01*
X91792857Y-79621428D01*
X90578571Y-79621428D01*
X90578571Y-79121428D02*
X90578571Y-78264285D01*
X92078571Y-78692857D02*
X90578571Y-78692857D01*
X92007142Y-76692857D02*
X92078571Y-76478571D01*
X92078571Y-76121428D01*
X92007142Y-75978571D01*
X91935714Y-75907142D01*
X91792857Y-75835714D01*
X91650000Y-75835714D01*
X91507142Y-75907142D01*
X91435714Y-75978571D01*
X91364285Y-76121428D01*
X91292857Y-76407142D01*
X91221428Y-76550000D01*
X91150000Y-76621428D01*
X91007142Y-76692857D01*
X90864285Y-76692857D01*
X90721428Y-76621428D01*
X90650000Y-76550000D01*
X90578571Y-76407142D01*
X90578571Y-76050000D01*
X90650000Y-75835714D01*
X92078571Y-75192857D02*
X90578571Y-75192857D01*
X90650000Y-73692857D02*
X90578571Y-73835714D01*
X90578571Y-74050000D01*
X90650000Y-74264285D01*
X90792857Y-74407142D01*
X90935714Y-74478571D01*
X91221428Y-74550000D01*
X91435714Y-74550000D01*
X91721428Y-74478571D01*
X91864285Y-74407142D01*
X92007142Y-74264285D01*
X92078571Y-74050000D01*
X92078571Y-73907142D01*
X92007142Y-73692857D01*
X91935714Y-73621428D01*
X91435714Y-73621428D01*
X91435714Y-73907142D01*
X92078571Y-72978571D02*
X90578571Y-72978571D01*
X90578571Y-72407142D01*
X90650000Y-72264285D01*
X90721428Y-72192857D01*
X90864285Y-72121428D01*
X91078571Y-72121428D01*
X91221428Y-72192857D01*
X91292857Y-72264285D01*
X91364285Y-72407142D01*
X91364285Y-72978571D01*
X92078571Y-70764285D02*
X92078571Y-71478571D01*
X90578571Y-71478571D01*
X91292857Y-70264285D02*
X91292857Y-69764285D01*
X92078571Y-69550000D02*
X92078571Y-70264285D01*
X90578571Y-70264285D01*
X90578571Y-69550000D01*
X92078571Y-68907142D02*
X90578571Y-68907142D01*
X92078571Y-68192857D02*
X90578571Y-68192857D01*
X92078571Y-67335714D01*
X90578571Y-67335714D01*
X140264285Y-76878571D02*
X140264285Y-75378571D01*
X140978571Y-76878571D02*
X140978571Y-75378571D01*
X141835714Y-76878571D01*
X141835714Y-75378571D01*
X142550000Y-76878571D02*
X142550000Y-75378571D01*
X143121428Y-75378571D01*
X143264285Y-75450000D01*
X143335714Y-75521428D01*
X143407142Y-75664285D01*
X143407142Y-75878571D01*
X143335714Y-76021428D01*
X143264285Y-76092857D01*
X143121428Y-76164285D01*
X142550000Y-76164285D01*
X144050000Y-75378571D02*
X144050000Y-76592857D01*
X144121428Y-76735714D01*
X144192857Y-76807142D01*
X144335714Y-76878571D01*
X144621428Y-76878571D01*
X144764285Y-76807142D01*
X144835714Y-76735714D01*
X144907142Y-76592857D01*
X144907142Y-75378571D01*
X145407142Y-75378571D02*
X146264285Y-75378571D01*
X145835714Y-76878571D02*
X145835714Y-75378571D01*
X148692857Y-76878571D02*
X147835714Y-76878571D01*
X148264285Y-76878571D02*
X148264285Y-75378571D01*
X148121428Y-75592857D01*
X147978571Y-75735714D01*
X147835714Y-75807142D01*
X149264285Y-75521428D02*
X149335714Y-75450000D01*
X149478571Y-75378571D01*
X149835714Y-75378571D01*
X149978571Y-75450000D01*
X150050000Y-75521428D01*
X150121428Y-75664285D01*
X150121428Y-75807142D01*
X150050000Y-76021428D01*
X149192857Y-76878571D01*
X150121428Y-76878571D01*
X150550000Y-75378571D02*
X151050000Y-76878571D01*
X151550000Y-75378571D01*
X70307142Y-68878571D02*
X69592857Y-68878571D01*
X69592857Y-67378571D01*
X70807142Y-68092857D02*
X71307142Y-68092857D01*
X71521428Y-68878571D02*
X70807142Y-68878571D01*
X70807142Y-67378571D01*
X71521428Y-67378571D01*
X72164285Y-68878571D02*
X72164285Y-67378571D01*
X72521428Y-67378571D01*
X72735714Y-67450000D01*
X72878571Y-67592857D01*
X72950000Y-67735714D01*
X73021428Y-68021428D01*
X73021428Y-68235714D01*
X72950000Y-68521428D01*
X72878571Y-68664285D01*
X72735714Y-68807142D01*
X72521428Y-68878571D01*
X72164285Y-68878571D01*
X73664285Y-68307142D02*
X74807142Y-68307142D01*
X70307142Y-73678571D02*
X69592857Y-73678571D01*
X69592857Y-72178571D01*
X70807142Y-72892857D02*
X71307142Y-72892857D01*
X71521428Y-73678571D02*
X70807142Y-73678571D01*
X70807142Y-72178571D01*
X71521428Y-72178571D01*
X72164285Y-73678571D02*
X72164285Y-72178571D01*
X72521428Y-72178571D01*
X72735714Y-72250000D01*
X72878571Y-72392857D01*
X72950000Y-72535714D01*
X73021428Y-72821428D01*
X73021428Y-73035714D01*
X72950000Y-73321428D01*
X72878571Y-73464285D01*
X72735714Y-73607142D01*
X72521428Y-73678571D01*
X72164285Y-73678571D01*
X73664285Y-73107142D02*
X74807142Y-73107142D01*
X74235714Y-73678571D02*
X74235714Y-72535714D01*
X70657142Y-84450000D02*
X70514285Y-84378571D01*
X70300000Y-84378571D01*
X70085714Y-84450000D01*
X69942857Y-84592857D01*
X69871428Y-84735714D01*
X69800000Y-85021428D01*
X69800000Y-85235714D01*
X69871428Y-85521428D01*
X69942857Y-85664285D01*
X70085714Y-85807142D01*
X70300000Y-85878571D01*
X70442857Y-85878571D01*
X70657142Y-85807142D01*
X70728571Y-85735714D01*
X70728571Y-85235714D01*
X70442857Y-85235714D01*
X71371428Y-85878571D02*
X71371428Y-84378571D01*
X72228571Y-85878571D01*
X72228571Y-84378571D01*
X72942857Y-85878571D02*
X72942857Y-84378571D01*
X73300000Y-84378571D01*
X73514285Y-84450000D01*
X73657142Y-84592857D01*
X73728571Y-84735714D01*
X73800000Y-85021428D01*
X73800000Y-85235714D01*
X73728571Y-85521428D01*
X73657142Y-85664285D01*
X73514285Y-85807142D01*
X73300000Y-85878571D01*
X72942857Y-85878571D01*
X69271428Y-80107142D02*
X70414285Y-80107142D01*
X69842857Y-80678571D02*
X69842857Y-79535714D01*
X70914285Y-79178571D02*
X71414285Y-80678571D01*
X71914285Y-79178571D01*
X72628571Y-80678571D02*
X72485714Y-80607142D01*
X72414285Y-80464285D01*
X72414285Y-79178571D01*
X73771428Y-80607142D02*
X73628571Y-80678571D01*
X73342857Y-80678571D01*
X73200000Y-80607142D01*
X73128571Y-80464285D01*
X73128571Y-79892857D01*
X73200000Y-79750000D01*
X73342857Y-79678571D01*
X73628571Y-79678571D01*
X73771428Y-79750000D01*
X73842857Y-79892857D01*
X73842857Y-80035714D01*
X73128571Y-80178571D01*
X75128571Y-80678571D02*
X75128571Y-79178571D01*
X75128571Y-80607142D02*
X74985714Y-80678571D01*
X74700000Y-80678571D01*
X74557142Y-80607142D01*
X74485714Y-80535714D01*
X74414285Y-80392857D01*
X74414285Y-79964285D01*
X74485714Y-79821428D01*
X74557142Y-79750000D01*
X74700000Y-79678571D01*
X74985714Y-79678571D01*
X75128571Y-79750000D01*
X101128571Y-111907142D02*
X102271428Y-111907142D01*
X106128571Y-111907142D02*
X107271428Y-111907142D01*
X106700000Y-112478571D02*
X106700000Y-111335714D01*
X83878571Y-112157142D02*
X85021428Y-112157142D01*
X89378571Y-112157142D02*
X90521428Y-112157142D01*
X89950000Y-112728571D02*
X89950000Y-111585714D01*
X179228571Y-113407142D02*
X180371428Y-113407142D01*
X184228571Y-112907142D02*
X185371428Y-112907142D01*
X184800000Y-113478571D02*
X184800000Y-112335714D01*
X146889231Y-112493181D02*
X148032088Y-112493181D01*
X151889231Y-112493181D02*
X153032088Y-112493181D01*
X152460660Y-113064610D02*
X152460660Y-111921753D01*
X122028571Y-111957142D02*
X123171428Y-111957142D01*
X128028571Y-111957142D02*
X129171428Y-111957142D01*
X128600000Y-112528571D02*
X128600000Y-111385714D01*
D16*
X173871428Y-121035714D02*
X173800000Y-120964285D01*
X173728571Y-120821428D01*
X173728571Y-120464285D01*
X173800000Y-120321428D01*
X173871428Y-120250000D01*
X174014285Y-120178571D01*
X174157142Y-120178571D01*
X174371428Y-120250000D01*
X175228571Y-121107142D01*
X175228571Y-120178571D01*
X174228571Y-118892857D02*
X175228571Y-118892857D01*
X173657142Y-119250000D02*
X174728571Y-119607142D01*
X174728571Y-118678571D01*
X173728571Y-118321428D02*
X175228571Y-117821428D01*
X173728571Y-117321428D01*
X175228571Y-116178571D02*
X174442857Y-116178571D01*
X174300000Y-116250000D01*
X174228571Y-116392857D01*
X174228571Y-116678571D01*
X174300000Y-116821428D01*
X175157142Y-116178571D02*
X175228571Y-116321428D01*
X175228571Y-116678571D01*
X175157142Y-116821428D01*
X175014285Y-116892857D01*
X174871428Y-116892857D01*
X174728571Y-116821428D01*
X174657142Y-116678571D01*
X174657142Y-116321428D01*
X174585714Y-116178571D01*
X175157142Y-114821428D02*
X175228571Y-114964285D01*
X175228571Y-115250000D01*
X175157142Y-115392857D01*
X175085714Y-115464285D01*
X174942857Y-115535714D01*
X174514285Y-115535714D01*
X174371428Y-115464285D01*
X174300000Y-115392857D01*
X174228571Y-115250000D01*
X174228571Y-114964285D01*
X174300000Y-114821428D01*
X174657142Y-114178571D02*
X174657142Y-113035714D01*
X161321428Y-121235714D02*
X161250000Y-121164285D01*
X161178571Y-121021428D01*
X161178571Y-120664285D01*
X161250000Y-120521428D01*
X161321428Y-120450000D01*
X161464285Y-120378571D01*
X161607142Y-120378571D01*
X161821428Y-120450000D01*
X162678571Y-121307142D01*
X162678571Y-120378571D01*
X161678571Y-119092857D02*
X162678571Y-119092857D01*
X161107142Y-119450000D02*
X162178571Y-119807142D01*
X162178571Y-118878571D01*
X161178571Y-118521428D02*
X162678571Y-118021428D01*
X161178571Y-117521428D01*
X162678571Y-116378571D02*
X161892857Y-116378571D01*
X161750000Y-116450000D01*
X161678571Y-116592857D01*
X161678571Y-116878571D01*
X161750000Y-117021428D01*
X162607142Y-116378571D02*
X162678571Y-116521428D01*
X162678571Y-116878571D01*
X162607142Y-117021428D01*
X162464285Y-117092857D01*
X162321428Y-117092857D01*
X162178571Y-117021428D01*
X162107142Y-116878571D01*
X162107142Y-116521428D01*
X162035714Y-116378571D01*
X162607142Y-115021428D02*
X162678571Y-115164285D01*
X162678571Y-115450000D01*
X162607142Y-115592857D01*
X162535714Y-115664285D01*
X162392857Y-115735714D01*
X161964285Y-115735714D01*
X161821428Y-115664285D01*
X161750000Y-115592857D01*
X161678571Y-115450000D01*
X161678571Y-115164285D01*
X161750000Y-115021428D01*
X162107142Y-114378571D02*
X162107142Y-113235714D01*
X162678571Y-113807142D02*
X161535714Y-113807142D01*
D14*
X197607142Y-74321428D02*
X197607142Y-73178571D01*
X198178571Y-73750000D02*
X197035714Y-73750000D01*
X197607142Y-79321428D02*
X197607142Y-78178571D01*
X197607142Y-61571428D02*
X197607142Y-60428571D01*
X198178571Y-61000000D02*
X197035714Y-61000000D01*
X197607142Y-66571428D02*
X197607142Y-65428571D01*
X197607142Y-54071428D02*
X197607142Y-52928571D01*
X197607142Y-49071428D02*
X197607142Y-47928571D01*
X198178571Y-48500000D02*
X197035714Y-48500000D01*
D11*
X149209523Y-50504761D02*
X149352380Y-50552380D01*
X149590476Y-50552380D01*
X149685714Y-50504761D01*
X149733333Y-50457142D01*
X149780952Y-50361904D01*
X149780952Y-50266666D01*
X149733333Y-50171428D01*
X149685714Y-50123809D01*
X149590476Y-50076190D01*
X149400000Y-50028571D01*
X149304761Y-49980952D01*
X149257142Y-49933333D01*
X149209523Y-49838095D01*
X149209523Y-49742857D01*
X149257142Y-49647619D01*
X149304761Y-49600000D01*
X149400000Y-49552380D01*
X149638095Y-49552380D01*
X149780952Y-49600000D01*
X150780952Y-50457142D02*
X150733333Y-50504761D01*
X150590476Y-50552380D01*
X150495238Y-50552380D01*
X150352380Y-50504761D01*
X150257142Y-50409523D01*
X150209523Y-50314285D01*
X150161904Y-50123809D01*
X150161904Y-49980952D01*
X150209523Y-49790476D01*
X150257142Y-49695238D01*
X150352380Y-49600000D01*
X150495238Y-49552380D01*
X150590476Y-49552380D01*
X150733333Y-49600000D01*
X150780952Y-49647619D01*
X151685714Y-50552380D02*
X151209523Y-50552380D01*
X151209523Y-49552380D01*
X149185714Y-53004761D02*
X149328571Y-53052380D01*
X149566666Y-53052380D01*
X149661904Y-53004761D01*
X149709523Y-52957142D01*
X149757142Y-52861904D01*
X149757142Y-52766666D01*
X149709523Y-52671428D01*
X149661904Y-52623809D01*
X149566666Y-52576190D01*
X149376190Y-52528571D01*
X149280952Y-52480952D01*
X149233333Y-52433333D01*
X149185714Y-52338095D01*
X149185714Y-52242857D01*
X149233333Y-52147619D01*
X149280952Y-52100000D01*
X149376190Y-52052380D01*
X149614285Y-52052380D01*
X149757142Y-52100000D01*
X150185714Y-53052380D02*
X150185714Y-52052380D01*
X150423809Y-52052380D01*
X150566666Y-52100000D01*
X150661904Y-52195238D01*
X150709523Y-52290476D01*
X150757142Y-52480952D01*
X150757142Y-52623809D01*
X150709523Y-52814285D01*
X150661904Y-52909523D01*
X150566666Y-53004761D01*
X150423809Y-53052380D01*
X150185714Y-53052380D01*
X151138095Y-52766666D02*
X151614285Y-52766666D01*
X151042857Y-53052380D02*
X151376190Y-52052380D01*
X151709523Y-53052380D01*
X149638095Y-54600000D02*
X149542857Y-54552380D01*
X149400000Y-54552380D01*
X149257142Y-54600000D01*
X149161904Y-54695238D01*
X149114285Y-54790476D01*
X149066666Y-54980952D01*
X149066666Y-55123809D01*
X149114285Y-55314285D01*
X149161904Y-55409523D01*
X149257142Y-55504761D01*
X149400000Y-55552380D01*
X149495238Y-55552380D01*
X149638095Y-55504761D01*
X149685714Y-55457142D01*
X149685714Y-55123809D01*
X149495238Y-55123809D01*
X150114285Y-55552380D02*
X150114285Y-54552380D01*
X150685714Y-55552380D01*
X150685714Y-54552380D01*
X151161904Y-55552380D02*
X151161904Y-54552380D01*
X151400000Y-54552380D01*
X151542857Y-54600000D01*
X151638095Y-54695238D01*
X151685714Y-54790476D01*
X151733333Y-54980952D01*
X151733333Y-55123809D01*
X151685714Y-55314285D01*
X151638095Y-55409523D01*
X151542857Y-55504761D01*
X151400000Y-55552380D01*
X151161904Y-55552380D01*
X149161904Y-57052380D02*
X149780952Y-57052380D01*
X149447619Y-57433333D01*
X149590476Y-57433333D01*
X149685714Y-57480952D01*
X149733333Y-57528571D01*
X149780952Y-57623809D01*
X149780952Y-57861904D01*
X149733333Y-57957142D01*
X149685714Y-58004761D01*
X149590476Y-58052380D01*
X149304761Y-58052380D01*
X149209523Y-58004761D01*
X149161904Y-57957142D01*
X150066666Y-57052380D02*
X150400000Y-58052380D01*
X150733333Y-57052380D01*
X150971428Y-57052380D02*
X151590476Y-57052380D01*
X151257142Y-57433333D01*
X151400000Y-57433333D01*
X151495238Y-57480952D01*
X151542857Y-57528571D01*
X151590476Y-57623809D01*
X151590476Y-57861904D01*
X151542857Y-57957142D01*
X151495238Y-58004761D01*
X151400000Y-58052380D01*
X151114285Y-58052380D01*
X151019047Y-58004761D01*
X150971428Y-57957142D01*
D14*
X108399999Y-68635714D02*
X108328571Y-68707142D01*
X108114285Y-68778571D01*
X107971428Y-68778571D01*
X107757142Y-68707142D01*
X107614285Y-68564285D01*
X107542857Y-68421428D01*
X107471428Y-68135714D01*
X107471428Y-67921428D01*
X107542857Y-67635714D01*
X107614285Y-67492857D01*
X107757142Y-67350000D01*
X107971428Y-67278571D01*
X108114285Y-67278571D01*
X108328571Y-67350000D01*
X108399999Y-67421428D01*
X109042857Y-68778571D02*
X109042857Y-67778571D01*
X109042857Y-67278571D02*
X108971428Y-67350000D01*
X109042857Y-67421428D01*
X109114285Y-67350000D01*
X109042857Y-67278571D01*
X109042857Y-67421428D01*
X109757142Y-68778571D02*
X109757142Y-67778571D01*
X109757142Y-68064285D02*
X109828571Y-67921428D01*
X109899999Y-67850000D01*
X110042857Y-67778571D01*
X110185714Y-67778571D01*
X111328571Y-68707142D02*
X111185714Y-68778571D01*
X110899999Y-68778571D01*
X110757142Y-68707142D01*
X110685714Y-68635714D01*
X110614285Y-68492857D01*
X110614285Y-68064285D01*
X110685714Y-67921428D01*
X110757142Y-67850000D01*
X110899999Y-67778571D01*
X111185714Y-67778571D01*
X111328571Y-67850000D01*
X112614285Y-67778571D02*
X112614285Y-68778571D01*
X111971428Y-67778571D02*
X111971428Y-68564285D01*
X112042857Y-68707142D01*
X112185714Y-68778571D01*
X112399999Y-68778571D01*
X112542857Y-68707142D01*
X112614285Y-68635714D01*
X113328571Y-68778571D02*
X113328571Y-67778571D01*
X113328571Y-67278571D02*
X113257142Y-67350000D01*
X113328571Y-67421428D01*
X113399999Y-67350000D01*
X113328571Y-67278571D01*
X113328571Y-67421428D01*
X113828571Y-67778571D02*
X114399999Y-67778571D01*
X114042857Y-67278571D02*
X114042857Y-68564285D01*
X114114285Y-68707142D01*
X114257142Y-68778571D01*
X114399999Y-68778571D01*
X116685714Y-68778571D02*
X116685714Y-67278571D01*
X116685714Y-68707142D02*
X116542857Y-68778571D01*
X116257142Y-68778571D01*
X116114285Y-68707142D01*
X116042857Y-68635714D01*
X115971428Y-68492857D01*
X115971428Y-68064285D01*
X116042857Y-67921428D01*
X116114285Y-67850000D01*
X116257142Y-67778571D01*
X116542857Y-67778571D01*
X116685714Y-67850000D01*
X117971428Y-68707142D02*
X117828571Y-68778571D01*
X117542857Y-68778571D01*
X117399999Y-68707142D01*
X117328571Y-68564285D01*
X117328571Y-67992857D01*
X117399999Y-67850000D01*
X117542857Y-67778571D01*
X117828571Y-67778571D01*
X117971428Y-67850000D01*
X118042857Y-67992857D01*
X118042857Y-68135714D01*
X117328571Y-68278571D01*
X120471428Y-68707142D02*
X120328571Y-68778571D01*
X120042857Y-68778571D01*
X119899999Y-68707142D01*
X119828571Y-68635714D01*
X119757142Y-68492857D01*
X119757142Y-68064285D01*
X119828571Y-67921428D01*
X119899999Y-67850000D01*
X120042857Y-67778571D01*
X120328571Y-67778571D01*
X120471428Y-67850000D01*
X121328571Y-68778571D02*
X121185714Y-68707142D01*
X121114285Y-68635714D01*
X121042857Y-68492857D01*
X121042857Y-68064285D01*
X121114285Y-67921428D01*
X121185714Y-67850000D01*
X121328571Y-67778571D01*
X121542857Y-67778571D01*
X121685714Y-67850000D01*
X121757142Y-67921428D01*
X121828571Y-68064285D01*
X121828571Y-68492857D01*
X121757142Y-68635714D01*
X121685714Y-68707142D01*
X121542857Y-68778571D01*
X121328571Y-68778571D01*
X122471428Y-67778571D02*
X122471428Y-68778571D01*
X122471428Y-67921428D02*
X122542857Y-67850000D01*
X122685714Y-67778571D01*
X122899999Y-67778571D01*
X123042857Y-67850000D01*
X123114285Y-67992857D01*
X123114285Y-68778571D01*
X123614285Y-67778571D02*
X124185714Y-67778571D01*
X123828571Y-67278571D02*
X123828571Y-68564285D01*
X123899999Y-68707142D01*
X124042857Y-68778571D01*
X124185714Y-68778571D01*
X124685714Y-68778571D02*
X124685714Y-67778571D01*
X124685714Y-68064285D02*
X124757142Y-67921428D01*
X124828571Y-67850000D01*
X124971428Y-67778571D01*
X125114285Y-67778571D01*
X125828571Y-68778571D02*
X125685714Y-68707142D01*
X125614285Y-68635714D01*
X125542857Y-68492857D01*
X125542857Y-68064285D01*
X125614285Y-67921428D01*
X125685714Y-67850000D01*
X125828571Y-67778571D01*
X126042857Y-67778571D01*
X126185714Y-67850000D01*
X126257142Y-67921428D01*
X126328571Y-68064285D01*
X126328571Y-68492857D01*
X126257142Y-68635714D01*
X126185714Y-68707142D01*
X126042857Y-68778571D01*
X125828571Y-68778571D01*
X125685714Y-67421428D02*
X125971428Y-67207142D01*
X126257142Y-67421428D01*
X127185714Y-68778571D02*
X127042857Y-68707142D01*
X126971428Y-68564285D01*
X126971428Y-67278571D01*
X128328571Y-68707142D02*
X128185714Y-68778571D01*
X127900000Y-68778571D01*
X127757142Y-68707142D01*
X127685714Y-68564285D01*
X127685714Y-67992857D01*
X127757142Y-67850000D01*
X127900000Y-67778571D01*
X128185714Y-67778571D01*
X128328571Y-67850000D01*
X128400000Y-67992857D01*
X128400000Y-68135714D01*
X127685714Y-68278571D01*
X130828571Y-68778571D02*
X130828571Y-67278571D01*
X130828571Y-68707142D02*
X130685714Y-68778571D01*
X130400000Y-68778571D01*
X130257142Y-68707142D01*
X130185714Y-68635714D01*
X130114285Y-68492857D01*
X130114285Y-68064285D01*
X130185714Y-67921428D01*
X130257142Y-67850000D01*
X130400000Y-67778571D01*
X130685714Y-67778571D01*
X130828571Y-67850000D01*
X132185714Y-67778571D02*
X132185714Y-68778571D01*
X131542857Y-67778571D02*
X131542857Y-68564285D01*
X131614285Y-68707142D01*
X131757142Y-68778571D01*
X131971428Y-68778571D01*
X132114285Y-68707142D01*
X132185714Y-68635714D01*
X134042857Y-67778571D02*
X134042857Y-69278571D01*
X134042857Y-67850000D02*
X134185714Y-67778571D01*
X134471428Y-67778571D01*
X134614285Y-67850000D01*
X134685714Y-67921428D01*
X134757142Y-68064285D01*
X134757142Y-68492857D01*
X134685714Y-68635714D01*
X134614285Y-68707142D01*
X134471428Y-68778571D01*
X134185714Y-68778571D01*
X134042857Y-68707142D01*
X135400000Y-68778571D02*
X135400000Y-67778571D01*
X135400000Y-68064285D02*
X135471428Y-67921428D01*
X135542857Y-67850000D01*
X135685714Y-67778571D01*
X135828571Y-67778571D01*
X136542857Y-68778571D02*
X136400000Y-68707142D01*
X136328571Y-68635714D01*
X136257142Y-68492857D01*
X136257142Y-68064285D01*
X136328571Y-67921428D01*
X136400000Y-67850000D01*
X136542857Y-67778571D01*
X136757142Y-67778571D01*
X136900000Y-67850000D01*
X136971428Y-67921428D01*
X137042857Y-68064285D01*
X137042857Y-68492857D01*
X136971428Y-68635714D01*
X136900000Y-68707142D01*
X136757142Y-68778571D01*
X136542857Y-68778571D01*
X137685714Y-67778571D02*
X137685714Y-69064285D01*
X137614285Y-69207142D01*
X137471428Y-69278571D01*
X137400000Y-69278571D01*
X137685714Y-67278571D02*
X137614285Y-67350000D01*
X137685714Y-67421428D01*
X137757142Y-67350000D01*
X137685714Y-67278571D01*
X137685714Y-67421428D01*
X138971428Y-68707142D02*
X138828571Y-68778571D01*
X138542857Y-68778571D01*
X138400000Y-68707142D01*
X138328571Y-68564285D01*
X138328571Y-67992857D01*
X138400000Y-67850000D01*
X138542857Y-67778571D01*
X138828571Y-67778571D01*
X138971428Y-67850000D01*
X139042857Y-67992857D01*
X139042857Y-68135714D01*
X138328571Y-68278571D01*
X139471428Y-67778571D02*
X140042857Y-67778571D01*
X139685714Y-67278571D02*
X139685714Y-68564285D01*
X139757142Y-68707142D01*
X139900000Y-68778571D01*
X140042857Y-68778571D01*
X107721428Y-70542857D02*
X108221428Y-70542857D01*
X108435714Y-71328571D02*
X107721428Y-71328571D01*
X107721428Y-69828571D01*
X108435714Y-69828571D01*
X109078571Y-70328571D02*
X109078571Y-71328571D01*
X109078571Y-70471428D02*
X109150000Y-70400000D01*
X109292857Y-70328571D01*
X109507142Y-70328571D01*
X109650000Y-70400000D01*
X109721428Y-70542857D01*
X109721428Y-71328571D01*
X110292857Y-70328571D02*
X110650000Y-71328571D01*
X111007142Y-70328571D01*
X111578571Y-71328571D02*
X111578571Y-70328571D01*
X111578571Y-69828571D02*
X111507142Y-69900000D01*
X111578571Y-69971428D01*
X111650000Y-69900000D01*
X111578571Y-69828571D01*
X111578571Y-69971428D01*
X112292857Y-71328571D02*
X112292857Y-70328571D01*
X112292857Y-70614285D02*
X112364285Y-70471428D01*
X112435714Y-70400000D01*
X112578571Y-70328571D01*
X112721428Y-70328571D01*
X113435714Y-71328571D02*
X113292857Y-71257142D01*
X113221428Y-71185714D01*
X113150000Y-71042857D01*
X113150000Y-70614285D01*
X113221428Y-70471428D01*
X113292857Y-70400000D01*
X113435714Y-70328571D01*
X113650000Y-70328571D01*
X113792857Y-70400000D01*
X113864285Y-70471428D01*
X113935714Y-70614285D01*
X113935714Y-71042857D01*
X113864285Y-71185714D01*
X113792857Y-71257142D01*
X113650000Y-71328571D01*
X113435714Y-71328571D01*
X114578571Y-70328571D02*
X114578571Y-71328571D01*
X114578571Y-70471428D02*
X114650000Y-70400000D01*
X114792857Y-70328571D01*
X115007142Y-70328571D01*
X115150000Y-70400000D01*
X115221428Y-70542857D01*
X115221428Y-71328571D01*
X115935714Y-70328571D02*
X115935714Y-71328571D01*
X115935714Y-70471428D02*
X116007142Y-70400000D01*
X116149999Y-70328571D01*
X116364285Y-70328571D01*
X116507142Y-70400000D01*
X116578571Y-70542857D01*
X116578571Y-71328571D01*
X117864285Y-71257142D02*
X117721428Y-71328571D01*
X117435714Y-71328571D01*
X117292857Y-71257142D01*
X117221428Y-71114285D01*
X117221428Y-70542857D01*
X117292857Y-70400000D01*
X117435714Y-70328571D01*
X117721428Y-70328571D01*
X117864285Y-70400000D01*
X117935714Y-70542857D01*
X117935714Y-70685714D01*
X117221428Y-70828571D01*
X118578571Y-71328571D02*
X118578571Y-70328571D01*
X118578571Y-70471428D02*
X118650000Y-70400000D01*
X118792857Y-70328571D01*
X119007142Y-70328571D01*
X119150000Y-70400000D01*
X119221428Y-70542857D01*
X119221428Y-71328571D01*
X119221428Y-70542857D02*
X119292857Y-70400000D01*
X119435714Y-70328571D01*
X119650000Y-70328571D01*
X119792857Y-70400000D01*
X119864285Y-70542857D01*
X119864285Y-71328571D01*
X121150000Y-71257142D02*
X121007142Y-71328571D01*
X120721428Y-71328571D01*
X120578571Y-71257142D01*
X120507142Y-71114285D01*
X120507142Y-70542857D01*
X120578571Y-70400000D01*
X120721428Y-70328571D01*
X121007142Y-70328571D01*
X121150000Y-70400000D01*
X121221428Y-70542857D01*
X121221428Y-70685714D01*
X120507142Y-70828571D01*
X121864285Y-70328571D02*
X121864285Y-71328571D01*
X121864285Y-70471428D02*
X121935714Y-70400000D01*
X122078571Y-70328571D01*
X122292857Y-70328571D01*
X122435714Y-70400000D01*
X122507142Y-70542857D01*
X122507142Y-71328571D01*
X123007142Y-70328571D02*
X123578571Y-70328571D01*
X123221428Y-69828571D02*
X123221428Y-71114285D01*
X123292857Y-71257142D01*
X123435714Y-71328571D01*
X123578571Y-71328571D01*
X126078571Y-71185714D02*
X126007142Y-71257142D01*
X125792857Y-71328571D01*
X125650000Y-71328571D01*
X125435714Y-71257142D01*
X125292857Y-71114285D01*
X125221428Y-70971428D01*
X125150000Y-70685714D01*
X125150000Y-70471428D01*
X125221428Y-70185714D01*
X125292857Y-70042857D01*
X125435714Y-69900000D01*
X125650000Y-69828571D01*
X125792857Y-69828571D01*
X126007142Y-69900000D01*
X126078571Y-69971428D01*
X126935714Y-71328571D02*
X126792857Y-71257142D01*
X126721428Y-71185714D01*
X126650000Y-71042857D01*
X126650000Y-70614285D01*
X126721428Y-70471428D01*
X126792857Y-70400000D01*
X126935714Y-70328571D01*
X127150000Y-70328571D01*
X127292857Y-70400000D01*
X127364285Y-70471428D01*
X127435714Y-70614285D01*
X127435714Y-71042857D01*
X127364285Y-71185714D01*
X127292857Y-71257142D01*
X127150000Y-71328571D01*
X126935714Y-71328571D01*
X128078571Y-70328571D02*
X128078571Y-71328571D01*
X128078571Y-70471428D02*
X128150000Y-70400000D01*
X128292857Y-70328571D01*
X128507142Y-70328571D01*
X128650000Y-70400000D01*
X128721428Y-70542857D01*
X128721428Y-71328571D01*
X129221428Y-70328571D02*
X129792857Y-70328571D01*
X129435714Y-69828571D02*
X129435714Y-71114285D01*
X129507142Y-71257142D01*
X129650000Y-71328571D01*
X129792857Y-71328571D01*
X130292857Y-71328571D02*
X130292857Y-70328571D01*
X130292857Y-70614285D02*
X130364285Y-70471428D01*
X130435714Y-70400000D01*
X130578571Y-70328571D01*
X130721428Y-70328571D01*
X131435714Y-71328571D02*
X131292857Y-71257142D01*
X131221428Y-71185714D01*
X131150000Y-71042857D01*
X131150000Y-70614285D01*
X131221428Y-70471428D01*
X131292857Y-70400000D01*
X131435714Y-70328571D01*
X131650000Y-70328571D01*
X131792857Y-70400000D01*
X131864285Y-70471428D01*
X131935714Y-70614285D01*
X131935714Y-71042857D01*
X131864285Y-71185714D01*
X131792857Y-71257142D01*
X131650000Y-71328571D01*
X131435714Y-71328571D01*
X132792857Y-71328571D02*
X132650000Y-71257142D01*
X132578571Y-71114285D01*
X132578571Y-69828571D01*
X133935714Y-71257142D02*
X133792857Y-71328571D01*
X133507142Y-71328571D01*
X133364285Y-71257142D01*
X133292857Y-71114285D01*
X133292857Y-70542857D01*
X133364285Y-70400000D01*
X133507142Y-70328571D01*
X133792857Y-70328571D01*
X133935714Y-70400000D01*
X134007142Y-70542857D01*
X134007142Y-70685714D01*
X133292857Y-70828571D01*
X133792857Y-69757142D02*
X133578571Y-69971428D01*
X107650000Y-73807142D02*
X107864285Y-73878571D01*
X108221428Y-73878571D01*
X108364285Y-73807142D01*
X108435714Y-73735714D01*
X108507142Y-73592857D01*
X108507142Y-73450000D01*
X108435714Y-73307142D01*
X108364285Y-73235714D01*
X108221428Y-73164285D01*
X107935714Y-73092857D01*
X107792857Y-73021428D01*
X107721428Y-72950000D01*
X107650000Y-72807142D01*
X107650000Y-72664285D01*
X107721428Y-72521428D01*
X107792857Y-72450000D01*
X107935714Y-72378571D01*
X108292857Y-72378571D01*
X108507142Y-72450000D01*
X109150000Y-73878571D02*
X109150000Y-72878571D01*
X109150000Y-72378571D02*
X109078571Y-72450000D01*
X109150000Y-72521428D01*
X109221428Y-72450000D01*
X109150000Y-72378571D01*
X109150000Y-72521428D01*
X109864285Y-73878571D02*
X109864285Y-72878571D01*
X109864285Y-73021428D02*
X109935714Y-72950000D01*
X110078571Y-72878571D01*
X110292857Y-72878571D01*
X110435714Y-72950000D01*
X110507142Y-73092857D01*
X110507142Y-73878571D01*
X110507142Y-73092857D02*
X110578571Y-72950000D01*
X110721428Y-72878571D01*
X110935714Y-72878571D01*
X111078571Y-72950000D01*
X111150000Y-73092857D01*
X111150000Y-73878571D01*
X112078571Y-73878571D02*
X111935714Y-73807142D01*
X111864285Y-73735714D01*
X111792857Y-73592857D01*
X111792857Y-73164285D01*
X111864285Y-73021428D01*
X111935714Y-72950000D01*
X112078571Y-72878571D01*
X112292857Y-72878571D01*
X112435714Y-72950000D01*
X112507142Y-73021428D01*
X112578571Y-73164285D01*
X112578571Y-73592857D01*
X112507142Y-73735714D01*
X112435714Y-73807142D01*
X112292857Y-73878571D01*
X112078571Y-73878571D01*
X113221428Y-72878571D02*
X113221428Y-73878571D01*
X113221428Y-73021428D02*
X113292857Y-72950000D01*
X113435714Y-72878571D01*
X113650000Y-72878571D01*
X113792857Y-72950000D01*
X113864285Y-73092857D01*
X113864285Y-73878571D01*
X116150000Y-72378571D02*
X116150000Y-73450000D01*
X116078571Y-73664285D01*
X115935714Y-73807142D01*
X115721428Y-73878571D01*
X115578571Y-73878571D01*
X117078571Y-73878571D02*
X116935714Y-73807142D01*
X116864285Y-73735714D01*
X116792857Y-73592857D01*
X116792857Y-73164285D01*
X116864285Y-73021428D01*
X116935714Y-72950000D01*
X117078571Y-72878571D01*
X117292857Y-72878571D01*
X117435714Y-72950000D01*
X117507142Y-73021428D01*
X117578571Y-73164285D01*
X117578571Y-73592857D01*
X117507142Y-73735714D01*
X117435714Y-73807142D01*
X117292857Y-73878571D01*
X117078571Y-73878571D01*
X118864285Y-72878571D02*
X118864285Y-73878571D01*
X118221428Y-72878571D02*
X118221428Y-73664285D01*
X118292857Y-73807142D01*
X118435714Y-73878571D01*
X118650000Y-73878571D01*
X118792857Y-73807142D01*
X118864285Y-73735714D01*
X119578571Y-73878571D02*
X119578571Y-72878571D01*
X119578571Y-73164285D02*
X119650000Y-73021428D01*
X119721428Y-72950000D01*
X119864285Y-72878571D01*
X120007142Y-72878571D01*
X121150000Y-73878571D02*
X121150000Y-72378571D01*
X121150000Y-73807142D02*
X121007142Y-73878571D01*
X120721428Y-73878571D01*
X120578571Y-73807142D01*
X120507142Y-73735714D01*
X120435714Y-73592857D01*
X120435714Y-73164285D01*
X120507142Y-73021428D01*
X120578571Y-72950000D01*
X120721428Y-72878571D01*
X121007142Y-72878571D01*
X121150000Y-72950000D01*
X122435714Y-73807142D02*
X122292857Y-73878571D01*
X122007142Y-73878571D01*
X121864285Y-73807142D01*
X121792857Y-73664285D01*
X121792857Y-73092857D01*
X121864285Y-72950000D01*
X122007142Y-72878571D01*
X122292857Y-72878571D01*
X122435714Y-72950000D01*
X122507142Y-73092857D01*
X122507142Y-73235714D01*
X121792857Y-73378571D01*
X123150000Y-72878571D02*
X123150000Y-73878571D01*
X123150000Y-73021428D02*
X123221428Y-72950000D01*
X123364285Y-72878571D01*
X123578571Y-72878571D01*
X123721428Y-72950000D01*
X123792857Y-73092857D01*
X123792857Y-73878571D01*
X125150000Y-73878571D02*
X125150000Y-73092857D01*
X125078571Y-72950000D01*
X124935714Y-72878571D01*
X124650000Y-72878571D01*
X124507142Y-72950000D01*
X125150000Y-73807142D02*
X125007142Y-73878571D01*
X124650000Y-73878571D01*
X124507142Y-73807142D01*
X124435714Y-73664285D01*
X124435714Y-73521428D01*
X124507142Y-73378571D01*
X124650000Y-73307142D01*
X125007142Y-73307142D01*
X125150000Y-73235714D01*
X125864285Y-73878571D02*
X125864285Y-72878571D01*
X125864285Y-72378571D02*
X125792857Y-72450000D01*
X125864285Y-72521428D01*
X125935714Y-72450000D01*
X125864285Y-72378571D01*
X125864285Y-72521428D01*
X126507142Y-73807142D02*
X126650000Y-73878571D01*
X126935714Y-73878571D01*
X127078571Y-73807142D01*
X127150000Y-73664285D01*
X127150000Y-73592857D01*
X127078571Y-73450000D01*
X126935714Y-73378571D01*
X126721428Y-73378571D01*
X126578571Y-73307142D01*
X126507142Y-73164285D01*
X126507142Y-73092857D01*
X126578571Y-72950000D01*
X126721428Y-72878571D01*
X126935714Y-72878571D01*
X127078571Y-72950000D01*
X107757142Y-74928571D02*
X108114285Y-76428571D01*
X108399999Y-75357142D01*
X108685714Y-76428571D01*
X109042857Y-74928571D01*
X109614285Y-76428571D02*
X109614285Y-75428571D01*
X109614285Y-74928571D02*
X109542857Y-75000000D01*
X109614285Y-75071428D01*
X109685714Y-75000000D01*
X109614285Y-74928571D01*
X109614285Y-75071428D01*
X110542857Y-76428571D02*
X110399999Y-76357142D01*
X110328571Y-76214285D01*
X110328571Y-74928571D01*
X111328571Y-76428571D02*
X111185714Y-76357142D01*
X111114285Y-76214285D01*
X111114285Y-74928571D01*
X111899999Y-76428571D02*
X111899999Y-75428571D01*
X111899999Y-74928571D02*
X111828571Y-75000000D01*
X111899999Y-75071428D01*
X111971428Y-75000000D01*
X111899999Y-74928571D01*
X111899999Y-75071428D01*
X113257142Y-76428571D02*
X113257142Y-75642857D01*
X113185714Y-75500000D01*
X113042857Y-75428571D01*
X112757142Y-75428571D01*
X112614285Y-75500000D01*
X113257142Y-76357142D02*
X113114285Y-76428571D01*
X112757142Y-76428571D01*
X112614285Y-76357142D01*
X112542857Y-76214285D01*
X112542857Y-76071428D01*
X112614285Y-75928571D01*
X112757142Y-75857142D01*
X113114285Y-75857142D01*
X113257142Y-75785714D01*
X113971428Y-76428571D02*
X113971428Y-75428571D01*
X113971428Y-75571428D02*
X114042857Y-75500000D01*
X114185714Y-75428571D01*
X114399999Y-75428571D01*
X114542857Y-75500000D01*
X114614285Y-75642857D01*
X114614285Y-76428571D01*
X114614285Y-75642857D02*
X114685714Y-75500000D01*
X114828571Y-75428571D01*
X115042857Y-75428571D01*
X115185714Y-75500000D01*
X115257142Y-75642857D01*
X115257142Y-76428571D01*
X117614285Y-75642857D02*
X117828571Y-75714285D01*
X117899999Y-75785714D01*
X117971428Y-75928571D01*
X117971428Y-76142857D01*
X117899999Y-76285714D01*
X117828571Y-76357142D01*
X117685714Y-76428571D01*
X117114285Y-76428571D01*
X117114285Y-74928571D01*
X117614285Y-74928571D01*
X117757142Y-75000000D01*
X117828571Y-75071428D01*
X117899999Y-75214285D01*
X117899999Y-75357142D01*
X117828571Y-75500000D01*
X117757142Y-75571428D01*
X117614285Y-75642857D01*
X117114285Y-75642857D01*
X118828571Y-76428571D02*
X118685714Y-76357142D01*
X118614285Y-76285714D01*
X118542857Y-76142857D01*
X118542857Y-75714285D01*
X118614285Y-75571428D01*
X118685714Y-75500000D01*
X118828571Y-75428571D01*
X119042857Y-75428571D01*
X119185714Y-75500000D01*
X119257142Y-75571428D01*
X119328571Y-75714285D01*
X119328571Y-76142857D01*
X119257142Y-76285714D01*
X119185714Y-76357142D01*
X119042857Y-76428571D01*
X118828571Y-76428571D01*
X120614285Y-75428571D02*
X120614285Y-76428571D01*
X119971428Y-75428571D02*
X119971428Y-76214285D01*
X120042857Y-76357142D01*
X120185714Y-76428571D01*
X120399999Y-76428571D01*
X120542857Y-76357142D01*
X120614285Y-76285714D01*
X121971428Y-76357142D02*
X121828571Y-76428571D01*
X121542857Y-76428571D01*
X121399999Y-76357142D01*
X121328571Y-76285714D01*
X121257142Y-76142857D01*
X121257142Y-75714285D01*
X121328571Y-75571428D01*
X121399999Y-75500000D01*
X121542857Y-75428571D01*
X121828571Y-75428571D01*
X121971428Y-75500000D01*
X122614285Y-76428571D02*
X122614285Y-74928571D01*
X123257142Y-76428571D02*
X123257142Y-75642857D01*
X123185714Y-75500000D01*
X123042857Y-75428571D01*
X122828571Y-75428571D01*
X122685714Y-75500000D01*
X122614285Y-75571428D01*
X124614285Y-76428571D02*
X124614285Y-75642857D01*
X124542857Y-75500000D01*
X124399999Y-75428571D01*
X124114285Y-75428571D01*
X123971428Y-75500000D01*
X124614285Y-76357142D02*
X124471428Y-76428571D01*
X124114285Y-76428571D01*
X123971428Y-76357142D01*
X123899999Y-76214285D01*
X123899999Y-76071428D01*
X123971428Y-75928571D01*
X124114285Y-75857142D01*
X124471428Y-75857142D01*
X124614285Y-75785714D01*
X125328571Y-76428571D02*
X125328571Y-75428571D01*
X125328571Y-75714285D02*
X125399999Y-75571428D01*
X125471428Y-75500000D01*
X125614285Y-75428571D01*
X125757142Y-75428571D01*
X126899999Y-76428571D02*
X126899999Y-74928571D01*
X126899999Y-76357142D02*
X126757142Y-76428571D01*
X126471428Y-76428571D01*
X126328571Y-76357142D01*
X126257142Y-76285714D01*
X126185714Y-76142857D01*
X126185714Y-75714285D01*
X126257142Y-75571428D01*
X126328571Y-75500000D01*
X126471428Y-75428571D01*
X126757142Y-75428571D01*
X126899999Y-75500000D01*
X108078571Y-78978571D02*
X108078571Y-77478571D01*
X108650000Y-77478571D01*
X108792857Y-77550000D01*
X108864285Y-77621428D01*
X108935714Y-77764285D01*
X108935714Y-77978571D01*
X108864285Y-78121428D01*
X108792857Y-78192857D01*
X108650000Y-78264285D01*
X108078571Y-78264285D01*
X109578571Y-78978571D02*
X109578571Y-77978571D01*
X109578571Y-78264285D02*
X109650000Y-78121428D01*
X109721428Y-78050000D01*
X109864285Y-77978571D01*
X110007142Y-77978571D01*
X110721428Y-78978571D02*
X110578571Y-78907142D01*
X110507142Y-78835714D01*
X110435714Y-78692857D01*
X110435714Y-78264285D01*
X110507142Y-78121428D01*
X110578571Y-78050000D01*
X110721428Y-77978571D01*
X110935714Y-77978571D01*
X111078571Y-78050000D01*
X111150000Y-78121428D01*
X111221428Y-78264285D01*
X111221428Y-78692857D01*
X111150000Y-78835714D01*
X111078571Y-78907142D01*
X110935714Y-78978571D01*
X110721428Y-78978571D01*
X111864285Y-77978571D02*
X111864285Y-79264285D01*
X111792857Y-79407142D01*
X111650000Y-79478571D01*
X111578571Y-79478571D01*
X111864285Y-77478571D02*
X111792857Y-77550000D01*
X111864285Y-77621428D01*
X111935714Y-77550000D01*
X111864285Y-77478571D01*
X111864285Y-77621428D01*
X113150000Y-78907142D02*
X113007142Y-78978571D01*
X112721428Y-78978571D01*
X112578571Y-78907142D01*
X112507142Y-78764285D01*
X112507142Y-78192857D01*
X112578571Y-78050000D01*
X112721428Y-77978571D01*
X113007142Y-77978571D01*
X113150000Y-78050000D01*
X113221428Y-78192857D01*
X113221428Y-78335714D01*
X112507142Y-78478571D01*
X113650000Y-77978571D02*
X114221428Y-77978571D01*
X113864285Y-77478571D02*
X113864285Y-78764285D01*
X113935714Y-78907142D01*
X114078571Y-78978571D01*
X114221428Y-78978571D01*
X116507142Y-78978571D02*
X116507142Y-77478571D01*
X116507142Y-78907142D02*
X116364285Y-78978571D01*
X116078571Y-78978571D01*
X115935714Y-78907142D01*
X115864285Y-78835714D01*
X115792857Y-78692857D01*
X115792857Y-78264285D01*
X115864285Y-78121428D01*
X115935714Y-78050000D01*
X116078571Y-77978571D01*
X116364285Y-77978571D01*
X116507142Y-78050000D01*
X117792857Y-78907142D02*
X117649999Y-78978571D01*
X117364285Y-78978571D01*
X117221428Y-78907142D01*
X117149999Y-78764285D01*
X117149999Y-78192857D01*
X117221428Y-78050000D01*
X117364285Y-77978571D01*
X117649999Y-77978571D01*
X117792857Y-78050000D01*
X117864285Y-78192857D01*
X117864285Y-78335714D01*
X117149999Y-78478571D01*
X119435714Y-77978571D02*
X120007142Y-77978571D01*
X119649999Y-78978571D02*
X119649999Y-77692857D01*
X119721428Y-77550000D01*
X119864285Y-77478571D01*
X120007142Y-77478571D01*
X120507142Y-78978571D02*
X120507142Y-77978571D01*
X120507142Y-77478571D02*
X120435714Y-77550000D01*
X120507142Y-77621428D01*
X120578571Y-77550000D01*
X120507142Y-77478571D01*
X120507142Y-77621428D01*
X121221428Y-77978571D02*
X121221428Y-78978571D01*
X121221428Y-78121428D02*
X121292857Y-78050000D01*
X121435714Y-77978571D01*
X121649999Y-77978571D01*
X121792857Y-78050000D01*
X121864285Y-78192857D01*
X121864285Y-78978571D01*
X124364285Y-78978571D02*
X124364285Y-77478571D01*
X124364285Y-78907142D02*
X124221428Y-78978571D01*
X123935714Y-78978571D01*
X123792857Y-78907142D01*
X123721428Y-78835714D01*
X123649999Y-78692857D01*
X123649999Y-78264285D01*
X123721428Y-78121428D01*
X123792857Y-78050000D01*
X123935714Y-77978571D01*
X124221428Y-77978571D01*
X124364285Y-78050000D01*
X125149999Y-77478571D02*
X125007142Y-77764285D01*
X126364285Y-78907142D02*
X126221428Y-78978571D01*
X125935714Y-78978571D01*
X125792857Y-78907142D01*
X125721428Y-78764285D01*
X125721428Y-78192857D01*
X125792857Y-78050000D01*
X125935714Y-77978571D01*
X126221428Y-77978571D01*
X126364285Y-78050000D01*
X126435714Y-78192857D01*
X126435714Y-78335714D01*
X125721428Y-78478571D01*
X126221428Y-77407142D02*
X126007142Y-77621428D01*
X126864285Y-77978571D02*
X127435714Y-77978571D01*
X127078571Y-77478571D02*
X127078571Y-78764285D01*
X127149999Y-78907142D01*
X127292857Y-78978571D01*
X127435714Y-78978571D01*
X128578571Y-77978571D02*
X128578571Y-78978571D01*
X127935714Y-77978571D02*
X127935714Y-78764285D01*
X128007142Y-78907142D01*
X128149999Y-78978571D01*
X128364285Y-78978571D01*
X128507142Y-78907142D01*
X128578571Y-78835714D01*
X129935714Y-78978571D02*
X129935714Y-77478571D01*
X129935714Y-78907142D02*
X129792857Y-78978571D01*
X129507142Y-78978571D01*
X129364285Y-78907142D01*
X129292857Y-78835714D01*
X129221428Y-78692857D01*
X129221428Y-78264285D01*
X129292857Y-78121428D01*
X129364285Y-78050000D01*
X129507142Y-77978571D01*
X129792857Y-77978571D01*
X129935714Y-78050000D01*
X131221428Y-78907142D02*
X131078571Y-78978571D01*
X130792857Y-78978571D01*
X130650000Y-78907142D01*
X130578571Y-78764285D01*
X130578571Y-78192857D01*
X130650000Y-78050000D01*
X130792857Y-77978571D01*
X131078571Y-77978571D01*
X131221428Y-78050000D01*
X131292857Y-78192857D01*
X131292857Y-78335714D01*
X130578571Y-78478571D01*
X131864285Y-78907142D02*
X132007142Y-78978571D01*
X132292857Y-78978571D01*
X132435714Y-78907142D01*
X132507142Y-78764285D01*
X132507142Y-78692857D01*
X132435714Y-78550000D01*
X132292857Y-78478571D01*
X132078571Y-78478571D01*
X131935714Y-78407142D01*
X131864285Y-78264285D01*
X131864285Y-78192857D01*
X131935714Y-78050000D01*
X132078571Y-77978571D01*
X132292857Y-77978571D01*
X132435714Y-78050000D01*
X187642857Y-54250000D02*
X187642857Y-54750000D01*
X188428571Y-54750000D02*
X186928571Y-54750000D01*
X186928571Y-54035714D01*
X188428571Y-52821428D02*
X187642857Y-52821428D01*
X187500000Y-52892857D01*
X187428571Y-53035714D01*
X187428571Y-53321428D01*
X187500000Y-53464285D01*
X188357142Y-52821428D02*
X188428571Y-52964285D01*
X188428571Y-53321428D01*
X188357142Y-53464285D01*
X188214285Y-53535714D01*
X188071428Y-53535714D01*
X187928571Y-53464285D01*
X187857142Y-53321428D01*
X187857142Y-52964285D01*
X187785714Y-52821428D01*
X187428571Y-52107142D02*
X188428571Y-52107142D01*
X187571428Y-52107142D02*
X187500000Y-52035714D01*
X187428571Y-51892857D01*
X187428571Y-51678571D01*
X187500000Y-51535714D01*
X187642857Y-51464285D01*
X188428571Y-51464285D01*
X188428571Y-49607142D02*
X186928571Y-49607142D01*
X186928571Y-49250000D01*
X187000000Y-49035714D01*
X187142857Y-48892857D01*
X187285714Y-48821428D01*
X187571428Y-48750000D01*
X187785714Y-48750000D01*
X188071428Y-48821428D01*
X188214285Y-48892857D01*
X188357142Y-49035714D01*
X188428571Y-49250000D01*
X188428571Y-49607142D01*
X187642857Y-48107142D02*
X187642857Y-47607142D01*
X188428571Y-47392857D02*
X188428571Y-48107142D01*
X186928571Y-48107142D01*
X186928571Y-47392857D01*
X188428571Y-46035714D02*
X188428571Y-46750000D01*
X186928571Y-46750000D01*
X187642857Y-69392857D02*
X187642857Y-69892857D01*
X188428571Y-69892857D02*
X186928571Y-69892857D01*
X186928571Y-69178571D01*
X188428571Y-67964285D02*
X187642857Y-67964285D01*
X187500000Y-68035714D01*
X187428571Y-68178571D01*
X187428571Y-68464285D01*
X187500000Y-68607142D01*
X188357142Y-67964285D02*
X188428571Y-68107142D01*
X188428571Y-68464285D01*
X188357142Y-68607142D01*
X188214285Y-68678571D01*
X188071428Y-68678571D01*
X187928571Y-68607142D01*
X187857142Y-68464285D01*
X187857142Y-68107142D01*
X187785714Y-67964285D01*
X187428571Y-67250000D02*
X188428571Y-67250000D01*
X187571428Y-67250000D02*
X187500000Y-67178571D01*
X187428571Y-67035714D01*
X187428571Y-66821428D01*
X187500000Y-66678571D01*
X187642857Y-66607142D01*
X188428571Y-66607142D01*
X187642857Y-64250000D02*
X187714285Y-64035714D01*
X187785714Y-63964285D01*
X187928571Y-63892857D01*
X188142857Y-63892857D01*
X188285714Y-63964285D01*
X188357142Y-64035714D01*
X188428571Y-64178571D01*
X188428571Y-64750000D01*
X186928571Y-64750000D01*
X186928571Y-64250000D01*
X187000000Y-64107142D01*
X187071428Y-64035714D01*
X187214285Y-63964285D01*
X187357142Y-63964285D01*
X187500000Y-64035714D01*
X187571428Y-64107142D01*
X187642857Y-64250000D01*
X187642857Y-64750000D01*
X188428571Y-63035714D02*
X188357142Y-63178571D01*
X188285714Y-63250000D01*
X188142857Y-63321428D01*
X187714285Y-63321428D01*
X187571428Y-63250000D01*
X187500000Y-63178571D01*
X187428571Y-63035714D01*
X187428571Y-62821428D01*
X187500000Y-62678571D01*
X187571428Y-62607142D01*
X187714285Y-62535714D01*
X188142857Y-62535714D01*
X188285714Y-62607142D01*
X188357142Y-62678571D01*
X188428571Y-62821428D01*
X188428571Y-63035714D01*
X188428571Y-61892857D02*
X187428571Y-61892857D01*
X186928571Y-61892857D02*
X187000000Y-61964285D01*
X187071428Y-61892857D01*
X187000000Y-61821428D01*
X186928571Y-61892857D01*
X187071428Y-61892857D01*
X187428571Y-61392857D02*
X187428571Y-60821428D01*
X186928571Y-61178571D02*
X188214285Y-61178571D01*
X188357142Y-61107142D01*
X188428571Y-60964285D01*
X188428571Y-60821428D01*
X188428571Y-60321428D02*
X187428571Y-60321428D01*
X186928571Y-60321428D02*
X187000000Y-60392857D01*
X187071428Y-60321428D01*
X187000000Y-60250000D01*
X186928571Y-60321428D01*
X187071428Y-60321428D01*
X188357142Y-59035714D02*
X188428571Y-59178571D01*
X188428571Y-59464285D01*
X188357142Y-59607142D01*
X188214285Y-59678571D01*
X187642857Y-59678571D01*
X187500000Y-59607142D01*
X187428571Y-59464285D01*
X187428571Y-59178571D01*
X187500000Y-59035714D01*
X187642857Y-58964285D01*
X187785714Y-58964285D01*
X187928571Y-59678571D01*
X188428571Y-58321428D02*
X187428571Y-58321428D01*
X187714285Y-58321428D02*
X187571428Y-58250000D01*
X187500000Y-58178571D01*
X187428571Y-58035714D01*
X187428571Y-57892857D01*
X187642857Y-79785714D02*
X187642857Y-80285714D01*
X188428571Y-80285714D02*
X186928571Y-80285714D01*
X186928571Y-79571428D01*
X188428571Y-78357142D02*
X187642857Y-78357142D01*
X187500000Y-78428571D01*
X187428571Y-78571428D01*
X187428571Y-78857142D01*
X187500000Y-79000000D01*
X188357142Y-78357142D02*
X188428571Y-78500000D01*
X188428571Y-78857142D01*
X188357142Y-79000000D01*
X188214285Y-79071428D01*
X188071428Y-79071428D01*
X187928571Y-79000000D01*
X187857142Y-78857142D01*
X187857142Y-78500000D01*
X187785714Y-78357142D01*
X187428571Y-77642857D02*
X188428571Y-77642857D01*
X187571428Y-77642857D02*
X187500000Y-77571428D01*
X187428571Y-77428571D01*
X187428571Y-77214285D01*
X187500000Y-77071428D01*
X187642857Y-77000000D01*
X188428571Y-77000000D01*
X187642857Y-75142857D02*
X187642857Y-74642857D01*
X188428571Y-74428571D02*
X188428571Y-75142857D01*
X186928571Y-75142857D01*
X186928571Y-74428571D01*
X188428571Y-73928571D02*
X187428571Y-73142857D01*
X187428571Y-73928571D02*
X188428571Y-73142857D01*
X187428571Y-72785714D02*
X187428571Y-72214285D01*
X186928571Y-72571428D02*
X188214285Y-72571428D01*
X188357142Y-72500000D01*
X188428571Y-72357142D01*
X188428571Y-72214285D01*
X188285714Y-71714285D02*
X188357142Y-71642857D01*
X188428571Y-71714285D01*
X188357142Y-71785714D01*
X188285714Y-71714285D01*
X188428571Y-71714285D01*
D16*
X132778571Y-121921428D02*
X131278571Y-121921428D01*
X131278571Y-121564285D01*
X131350000Y-121350000D01*
X131492857Y-121207142D01*
X131635714Y-121135714D01*
X131921428Y-121064285D01*
X132135714Y-121064285D01*
X132421428Y-121135714D01*
X132564285Y-121207142D01*
X132707142Y-121350000D01*
X132778571Y-121564285D01*
X132778571Y-121921428D01*
X132707142Y-119850000D02*
X132778571Y-119992857D01*
X132778571Y-120278571D01*
X132707142Y-120421428D01*
X132564285Y-120492857D01*
X131992857Y-120492857D01*
X131850000Y-120421428D01*
X131778571Y-120278571D01*
X131778571Y-119992857D01*
X131850000Y-119850000D01*
X131992857Y-119778571D01*
X132135714Y-119778571D01*
X132278571Y-120492857D01*
X132778571Y-119135714D02*
X131278571Y-119135714D01*
X132778571Y-118492857D02*
X131992857Y-118492857D01*
X131850000Y-118564285D01*
X131778571Y-118707142D01*
X131778571Y-118921428D01*
X131850000Y-119064285D01*
X131921428Y-119135714D01*
X131778571Y-117135714D02*
X132778571Y-117135714D01*
X131778571Y-117778571D02*
X132564285Y-117778571D01*
X132707142Y-117707142D01*
X132778571Y-117564285D01*
X132778571Y-117350000D01*
X132707142Y-117207142D01*
X132635714Y-117135714D01*
X132778571Y-116421428D02*
X131778571Y-116421428D01*
X131921428Y-116421428D02*
X131850000Y-116350000D01*
X131778571Y-116207142D01*
X131778571Y-115992857D01*
X131850000Y-115850000D01*
X131992857Y-115778571D01*
X132778571Y-115778571D01*
X131992857Y-115778571D02*
X131850000Y-115707142D01*
X131778571Y-115564285D01*
X131778571Y-115350000D01*
X131850000Y-115207142D01*
X131992857Y-115135714D01*
X132778571Y-115135714D01*
X132778571Y-114421428D02*
X131778571Y-114421428D01*
X131278571Y-114421428D02*
X131350000Y-114492857D01*
X131421428Y-114421428D01*
X131350000Y-114350000D01*
X131278571Y-114421428D01*
X131421428Y-114421428D01*
X132778571Y-113064285D02*
X131278571Y-113064285D01*
X132707142Y-113064285D02*
X132778571Y-113207142D01*
X132778571Y-113492857D01*
X132707142Y-113635714D01*
X132635714Y-113707142D01*
X132492857Y-113778571D01*
X132064285Y-113778571D01*
X131921428Y-113707142D01*
X131850000Y-113635714D01*
X131778571Y-113492857D01*
X131778571Y-113207142D01*
X131850000Y-113064285D01*
X132778571Y-112350000D02*
X131778571Y-112350000D01*
X131278571Y-112350000D02*
X131350000Y-112421428D01*
X131421428Y-112350000D01*
X131350000Y-112278571D01*
X131278571Y-112350000D01*
X131421428Y-112350000D01*
X131778571Y-111850000D02*
X131778571Y-111278571D01*
X132778571Y-111635714D02*
X131492857Y-111635714D01*
X131350000Y-111564285D01*
X131278571Y-111421428D01*
X131278571Y-111278571D01*
X132635714Y-110778571D02*
X132707142Y-110707142D01*
X132778571Y-110778571D01*
X132707142Y-110850000D01*
X132635714Y-110778571D01*
X132778571Y-110778571D01*
X143492857Y-121557142D02*
X143492857Y-121057142D01*
X144278571Y-120842857D02*
X144278571Y-121557142D01*
X142778571Y-121557142D01*
X142778571Y-120842857D01*
X142207142Y-121057142D02*
X142421428Y-121271428D01*
X144207142Y-119557142D02*
X144278571Y-119700000D01*
X144278571Y-119985714D01*
X144207142Y-120128571D01*
X144135714Y-120200000D01*
X143992857Y-120271428D01*
X143564285Y-120271428D01*
X143421428Y-120200000D01*
X143350000Y-120128571D01*
X143278571Y-119985714D01*
X143278571Y-119700000D01*
X143350000Y-119557142D01*
X144278571Y-118700000D02*
X144207142Y-118842857D01*
X144064285Y-118914285D01*
X142778571Y-118914285D01*
X144135714Y-118128571D02*
X144207142Y-118057142D01*
X144278571Y-118128571D01*
X144207142Y-118200000D01*
X144135714Y-118128571D01*
X144278571Y-118128571D01*
X143492857Y-116271428D02*
X143492857Y-115771428D01*
X144278571Y-115557142D02*
X144278571Y-116271428D01*
X142778571Y-116271428D01*
X142778571Y-115557142D01*
X144278571Y-115057142D02*
X143278571Y-114271428D01*
X143278571Y-115057142D02*
X144278571Y-114271428D01*
X143278571Y-113914285D02*
X143278571Y-113342857D01*
X142778571Y-113700000D02*
X144064285Y-113700000D01*
X144207142Y-113628571D01*
X144278571Y-113485714D01*
X144278571Y-113342857D01*
X144135714Y-112842857D02*
X144207142Y-112771428D01*
X144278571Y-112842857D01*
X144207142Y-112914285D01*
X144135714Y-112842857D01*
X144278571Y-112842857D01*
X189978571Y-122585714D02*
X188478571Y-122585714D01*
X189192857Y-122585714D02*
X189192857Y-121728571D01*
X189978571Y-121728571D02*
X188478571Y-121728571D01*
X188978571Y-120371428D02*
X189978571Y-120371428D01*
X188978571Y-121014285D02*
X189764285Y-121014285D01*
X189907142Y-120942857D01*
X189978571Y-120800000D01*
X189978571Y-120585714D01*
X189907142Y-120442857D01*
X189835714Y-120371428D01*
X189978571Y-119657142D02*
X188978571Y-119657142D01*
X189121428Y-119657142D02*
X189050000Y-119585714D01*
X188978571Y-119442857D01*
X188978571Y-119228571D01*
X189050000Y-119085714D01*
X189192857Y-119014285D01*
X189978571Y-119014285D01*
X189192857Y-119014285D02*
X189050000Y-118942857D01*
X188978571Y-118800000D01*
X188978571Y-118585714D01*
X189050000Y-118442857D01*
X189192857Y-118371428D01*
X189978571Y-118371428D01*
X189978571Y-117657142D02*
X188978571Y-117657142D01*
X188478571Y-117657142D02*
X188550000Y-117728571D01*
X188621428Y-117657142D01*
X188550000Y-117585714D01*
X188478571Y-117657142D01*
X188621428Y-117657142D01*
X189978571Y-116300000D02*
X188478571Y-116300000D01*
X189907142Y-116300000D02*
X189978571Y-116442857D01*
X189978571Y-116728571D01*
X189907142Y-116871428D01*
X189835714Y-116942857D01*
X189692857Y-117014285D01*
X189264285Y-117014285D01*
X189121428Y-116942857D01*
X189050000Y-116871428D01*
X188978571Y-116728571D01*
X188978571Y-116442857D01*
X189050000Y-116300000D01*
X189978571Y-115585714D02*
X188978571Y-115585714D01*
X188478571Y-115585714D02*
X188550000Y-115657142D01*
X188621428Y-115585714D01*
X188550000Y-115514285D01*
X188478571Y-115585714D01*
X188621428Y-115585714D01*
X188978571Y-115085714D02*
X188978571Y-114514285D01*
X189978571Y-114871428D02*
X188692857Y-114871428D01*
X188550000Y-114800000D01*
X188478571Y-114657142D01*
X188478571Y-114514285D01*
X189835714Y-114014285D02*
X189907142Y-113942857D01*
X189978571Y-114014285D01*
X189907142Y-114085714D01*
X189835714Y-114014285D01*
X189978571Y-114014285D01*
D14*
X146157142Y-86707142D02*
X147300000Y-86707142D01*
X146728571Y-87278571D02*
X146728571Y-86135714D01*
X148800000Y-87278571D02*
X147942857Y-87278571D01*
X148371428Y-87278571D02*
X148371428Y-85778571D01*
X148228571Y-85992857D01*
X148085714Y-86135714D01*
X147942857Y-86207142D01*
X149371428Y-85921428D02*
X149442857Y-85850000D01*
X149585714Y-85778571D01*
X149942857Y-85778571D01*
X150085714Y-85850000D01*
X150157142Y-85921428D01*
X150228571Y-86064285D01*
X150228571Y-86207142D01*
X150157142Y-86421428D01*
X149300000Y-87278571D01*
X150228571Y-87278571D01*
X150657142Y-85778571D02*
X151157142Y-87278571D01*
X151657142Y-85778571D01*
X141457142Y-86050000D02*
X141314285Y-85978571D01*
X141100000Y-85978571D01*
X140885714Y-86050000D01*
X140742857Y-86192857D01*
X140671428Y-86335714D01*
X140600000Y-86621428D01*
X140600000Y-86835714D01*
X140671428Y-87121428D01*
X140742857Y-87264285D01*
X140885714Y-87407142D01*
X141100000Y-87478571D01*
X141242857Y-87478571D01*
X141457142Y-87407142D01*
X141528571Y-87335714D01*
X141528571Y-86835714D01*
X141242857Y-86835714D01*
X142171428Y-87478571D02*
X142171428Y-85978571D01*
X143028571Y-87478571D01*
X143028571Y-85978571D01*
X143742857Y-87478571D02*
X143742857Y-85978571D01*
X144100000Y-85978571D01*
X144314285Y-86050000D01*
X144457142Y-86192857D01*
X144528571Y-86335714D01*
X144600000Y-86621428D01*
X144600000Y-86835714D01*
X144528571Y-87121428D01*
X144457142Y-87264285D01*
X144314285Y-87407142D01*
X144100000Y-87478571D01*
X143742857Y-87478571D01*
D16*
X94235714Y-120978571D02*
X94307142Y-121049999D01*
X94378571Y-121264285D01*
X94378571Y-121407142D01*
X94307142Y-121621428D01*
X94164285Y-121764285D01*
X94021428Y-121835714D01*
X93735714Y-121907142D01*
X93521428Y-121907142D01*
X93235714Y-121835714D01*
X93092857Y-121764285D01*
X92950000Y-121621428D01*
X92878571Y-121407142D01*
X92878571Y-121264285D01*
X92950000Y-121049999D01*
X93021428Y-120978571D01*
X94378571Y-120335714D02*
X92878571Y-120335714D01*
X94378571Y-119692857D02*
X93592857Y-119692857D01*
X93450000Y-119764285D01*
X93378571Y-119907142D01*
X93378571Y-120121428D01*
X93450000Y-120264285D01*
X93521428Y-120335714D01*
X94378571Y-118335714D02*
X93592857Y-118335714D01*
X93450000Y-118407142D01*
X93378571Y-118549999D01*
X93378571Y-118835714D01*
X93450000Y-118978571D01*
X94307142Y-118335714D02*
X94378571Y-118478571D01*
X94378571Y-118835714D01*
X94307142Y-118978571D01*
X94164285Y-119049999D01*
X94021428Y-119049999D01*
X93878571Y-118978571D01*
X93807142Y-118835714D01*
X93807142Y-118478571D01*
X93735714Y-118335714D01*
X93378571Y-116978571D02*
X94378571Y-116978571D01*
X93378571Y-117621428D02*
X94164285Y-117621428D01*
X94307142Y-117549999D01*
X94378571Y-117407142D01*
X94378571Y-117192857D01*
X94307142Y-117049999D01*
X94235714Y-116978571D01*
X93378571Y-116478571D02*
X93378571Y-115907142D01*
X94378571Y-116264285D02*
X93092857Y-116264285D01*
X92950000Y-116192857D01*
X92878571Y-116049999D01*
X92878571Y-115907142D01*
X93378571Y-115621428D02*
X93378571Y-115049999D01*
X94378571Y-115407142D02*
X93092857Y-115407142D01*
X92950000Y-115335714D01*
X92878571Y-115192857D01*
X92878571Y-115049999D01*
X94378571Y-113907142D02*
X93592857Y-113907142D01*
X93450000Y-113978571D01*
X93378571Y-114121428D01*
X93378571Y-114407142D01*
X93450000Y-114549999D01*
X94307142Y-113907142D02*
X94378571Y-114049999D01*
X94378571Y-114407142D01*
X94307142Y-114549999D01*
X94164285Y-114621428D01*
X94021428Y-114621428D01*
X93878571Y-114549999D01*
X93807142Y-114407142D01*
X93807142Y-114049999D01*
X93735714Y-113907142D01*
X93378571Y-112549999D02*
X94592857Y-112549999D01*
X94735714Y-112621428D01*
X94807142Y-112692857D01*
X94878571Y-112835714D01*
X94878571Y-113049999D01*
X94807142Y-113192857D01*
X94307142Y-112549999D02*
X94378571Y-112692857D01*
X94378571Y-112978571D01*
X94307142Y-113121428D01*
X94235714Y-113192857D01*
X94092857Y-113264285D01*
X93664285Y-113264285D01*
X93521428Y-113192857D01*
X93450000Y-113121428D01*
X93378571Y-112978571D01*
X93378571Y-112692857D01*
X93450000Y-112549999D01*
X94307142Y-111264285D02*
X94378571Y-111407142D01*
X94378571Y-111692857D01*
X94307142Y-111835714D01*
X94164285Y-111907142D01*
X93592857Y-111907142D01*
X93450000Y-111835714D01*
X93378571Y-111692857D01*
X93378571Y-111407142D01*
X93450000Y-111264285D01*
X93592857Y-111192857D01*
X93735714Y-111192857D01*
X93878571Y-111907142D01*
X111378571Y-121014285D02*
X109878571Y-121014285D01*
X109878571Y-120657142D01*
X109950000Y-120442857D01*
X110092857Y-120300000D01*
X110235714Y-120228571D01*
X110521428Y-120157142D01*
X110735714Y-120157142D01*
X111021428Y-120228571D01*
X111164285Y-120300000D01*
X111307142Y-120442857D01*
X111378571Y-120657142D01*
X111378571Y-121014285D01*
X110378571Y-118871428D02*
X111378571Y-118871428D01*
X110378571Y-119514285D02*
X111164285Y-119514285D01*
X111307142Y-119442857D01*
X111378571Y-119300000D01*
X111378571Y-119085714D01*
X111307142Y-118942857D01*
X111235714Y-118871428D01*
X111307142Y-117514285D02*
X111378571Y-117657142D01*
X111378571Y-117942857D01*
X111307142Y-118085714D01*
X111235714Y-118157142D01*
X111092857Y-118228571D01*
X110664285Y-118228571D01*
X110521428Y-118157142D01*
X110450000Y-118085714D01*
X110378571Y-117942857D01*
X110378571Y-117657142D01*
X110450000Y-117514285D01*
X110378571Y-117085714D02*
X110378571Y-116514285D01*
X109878571Y-116871428D02*
X111164285Y-116871428D01*
X111307142Y-116800000D01*
X111378571Y-116657142D01*
X111378571Y-116514285D01*
X110592857Y-114371428D02*
X110592857Y-114871428D01*
X111378571Y-114871428D02*
X109878571Y-114871428D01*
X109878571Y-114157142D01*
X111378571Y-112942857D02*
X110592857Y-112942857D01*
X110450000Y-113014285D01*
X110378571Y-113157142D01*
X110378571Y-113442857D01*
X110450000Y-113585714D01*
X111307142Y-112942857D02*
X111378571Y-113085714D01*
X111378571Y-113442857D01*
X111307142Y-113585714D01*
X111164285Y-113657142D01*
X111021428Y-113657142D01*
X110878571Y-113585714D01*
X110807142Y-113442857D01*
X110807142Y-113085714D01*
X110735714Y-112942857D01*
X110378571Y-112228571D02*
X111378571Y-112228571D01*
X110521428Y-112228571D02*
X110450000Y-112157142D01*
X110378571Y-112014285D01*
X110378571Y-111800000D01*
X110450000Y-111657142D01*
X110592857Y-111585714D01*
X111378571Y-111585714D01*
D15*
X60100000Y-113614285D02*
X60700000Y-115414285D01*
X61300000Y-113614285D01*
X62671428Y-115414285D02*
X62671428Y-114471428D01*
X62585714Y-114300000D01*
X62414285Y-114214285D01*
X62071428Y-114214285D01*
X61900000Y-114300000D01*
X62671428Y-115328571D02*
X62500000Y-115414285D01*
X62071428Y-115414285D01*
X61900000Y-115328571D01*
X61814285Y-115157142D01*
X61814285Y-114985714D01*
X61900000Y-114814285D01*
X62071428Y-114728571D01*
X62500000Y-114728571D01*
X62671428Y-114642857D01*
X64300000Y-115328571D02*
X64128571Y-115414285D01*
X63785714Y-115414285D01*
X63614285Y-115328571D01*
X63528571Y-115242857D01*
X63442857Y-115071428D01*
X63442857Y-114557142D01*
X63528571Y-114385714D01*
X63614285Y-114300000D01*
X63785714Y-114214285D01*
X64128571Y-114214285D01*
X64300000Y-114300000D01*
X65071428Y-114728571D02*
X66442857Y-114728571D01*
X65757142Y-115414285D02*
X65757142Y-114042857D01*
D17*
G04 #@! TO.C,U209*
X80670000Y-77791000D02*
X79160000Y-77791000D01*
X80670000Y-74090000D02*
X79160000Y-74090000D01*
X79160000Y-70820000D02*
X79160000Y-81060000D01*
X80670000Y-81060000D02*
X76029000Y-81060000D01*
X80670000Y-70820000D02*
X76029000Y-70820000D01*
X76029000Y-70820000D02*
X76029000Y-81060000D01*
X80670000Y-70820000D02*
X80670000Y-81060000D01*
G04 #@! TO.C,C203*
X174140000Y-84360000D02*
X177990000Y-84360000D01*
X184860000Y-84360000D02*
X181010000Y-84360000D01*
X184860000Y-74704437D02*
X184860000Y-84360000D01*
X174140000Y-74704437D02*
X174140000Y-84360000D01*
X175204437Y-73640000D02*
X177990000Y-73640000D01*
X183795563Y-73640000D02*
X181010000Y-73640000D01*
X183795563Y-73640000D02*
X184860000Y-74704437D01*
X175204437Y-73640000D02*
X174140000Y-74704437D01*
X182260000Y-72150000D02*
X182260000Y-73400000D01*
X182885000Y-72775000D02*
X181635000Y-72775000D01*
G04 #@! TO.C,C201*
X182885000Y-43275000D02*
X181635000Y-43275000D01*
X182260000Y-42650000D02*
X182260000Y-43900000D01*
X175204437Y-44140000D02*
X174140000Y-45204437D01*
X183795563Y-44140000D02*
X184860000Y-45204437D01*
X183795563Y-44140000D02*
X181010000Y-44140000D01*
X175204437Y-44140000D02*
X177990000Y-44140000D01*
X174140000Y-45204437D02*
X174140000Y-54860000D01*
X184860000Y-45204437D02*
X184860000Y-54860000D01*
X184860000Y-54860000D02*
X181010000Y-54860000D01*
X174140000Y-54860000D02*
X177990000Y-54860000D01*
G04 #@! TO.C,C202*
X174140000Y-69360000D02*
X177990000Y-69360000D01*
X184860000Y-69360000D02*
X181010000Y-69360000D01*
X184860000Y-59704437D02*
X184860000Y-69360000D01*
X174140000Y-59704437D02*
X174140000Y-69360000D01*
X175204437Y-58640000D02*
X177990000Y-58640000D01*
X183795563Y-58640000D02*
X181010000Y-58640000D01*
X183795563Y-58640000D02*
X184860000Y-59704437D01*
X175204437Y-58640000D02*
X174140000Y-59704437D01*
X182260000Y-57150000D02*
X182260000Y-58400000D01*
X182885000Y-57775000D02*
X181635000Y-57775000D01*
G04 #@! TO.C,U203*
X165770000Y-80891000D02*
X164260000Y-80891000D01*
X165770000Y-77190000D02*
X164260000Y-77190000D01*
X164260000Y-73920000D02*
X164260000Y-84160000D01*
X165770000Y-84160000D02*
X161129000Y-84160000D01*
X165770000Y-73920000D02*
X161129000Y-73920000D01*
X161129000Y-73920000D02*
X161129000Y-84160000D01*
X165770000Y-73920000D02*
X165770000Y-84160000D01*
D18*
G04 #@! TO.C,U205*
X84245000Y-90599999D02*
X85045000Y-91400000D01*
X85045000Y-91400000D02*
X85045000Y-109500000D01*
X85045000Y-109500000D02*
X59855000Y-109500000D01*
X59855000Y-109500000D02*
X59855000Y-90600000D01*
X59855000Y-90600000D02*
X84245000Y-90599999D01*
D17*
G04 #@! TO.C,J201*
X118960301Y-59130000D02*
X118960301Y-60460000D01*
X116360301Y-61730000D02*
X118960301Y-61730000D01*
X117630301Y-59130000D02*
X118960301Y-59130000D01*
X116360301Y-59130000D02*
X116360301Y-61730000D01*
X118960301Y-61730000D02*
X118960301Y-64330000D01*
X116360301Y-59130000D02*
X68040301Y-59130000D01*
X68040301Y-59130000D02*
X68040301Y-64330000D01*
X118960301Y-64330000D02*
X68040301Y-64330000D01*
G04 #@! TO.C,J409*
X177260000Y-121860000D02*
X187420000Y-121860000D01*
X177260000Y-114240000D02*
X177260000Y-121860000D01*
X187420000Y-114240000D02*
X177260000Y-114240000D01*
X187420000Y-121860000D02*
X187420000Y-114240000D01*
X187420000Y-120590000D02*
X177260000Y-120590000D01*
G04 #@! TO.C,U201*
X165770000Y-51391000D02*
X164260000Y-51391000D01*
X165770000Y-47690000D02*
X164260000Y-47690000D01*
X164260000Y-44420000D02*
X164260000Y-54660000D01*
X165770000Y-54660000D02*
X161129000Y-54660000D01*
X165770000Y-44420000D02*
X161129000Y-44420000D01*
X161129000Y-44420000D02*
X161129000Y-54660000D01*
X165770000Y-44420000D02*
X165770000Y-54660000D01*
G04 #@! TO.C,U202*
X165770000Y-66141000D02*
X164260000Y-66141000D01*
X165770000Y-62440000D02*
X164260000Y-62440000D01*
X164260000Y-59170000D02*
X164260000Y-69410000D01*
X165770000Y-69410000D02*
X161129000Y-69410000D01*
X165770000Y-59170000D02*
X161129000Y-59170000D01*
X161129000Y-59170000D02*
X161129000Y-69410000D01*
X165770000Y-59170000D02*
X165770000Y-69410000D01*
G04 #@! TO.C,C404*
X134803921Y-63290000D02*
X135321077Y-63290000D01*
X134803921Y-64710000D02*
X135321077Y-64710000D01*
G04 #@! TO.C,J401*
X196810000Y-56040000D02*
X196810000Y-45880000D01*
X189190000Y-56040000D02*
X196810000Y-56040000D01*
X189190000Y-45880000D02*
X189190000Y-56040000D01*
X196810000Y-45880000D02*
X189190000Y-45880000D01*
X195540000Y-45880000D02*
X195540000Y-56040000D01*
G04 #@! TO.C,J402*
X195540000Y-58380000D02*
X195540000Y-68540000D01*
X196810000Y-58380000D02*
X189190000Y-58380000D01*
X189190000Y-58380000D02*
X189190000Y-68540000D01*
X189190000Y-68540000D02*
X196810000Y-68540000D01*
X196810000Y-68540000D02*
X196810000Y-58380000D01*
G04 #@! TO.C,J403*
X196810000Y-81040000D02*
X196810000Y-70880000D01*
X189190000Y-81040000D02*
X196810000Y-81040000D01*
X189190000Y-70880000D02*
X189190000Y-81040000D01*
X196810000Y-70880000D02*
X189190000Y-70880000D01*
X195540000Y-70880000D02*
X195540000Y-81040000D01*
G04 #@! TO.C,J404*
X148730000Y-56330000D02*
X146070000Y-56330000D01*
X148730000Y-56330000D02*
X148730000Y-48650000D01*
X148730000Y-48650000D02*
X146070000Y-48650000D01*
X146070000Y-56330000D02*
X146070000Y-48650000D01*
X146070000Y-58930000D02*
X146070000Y-57600000D01*
X147400000Y-58930000D02*
X146070000Y-58930000D01*
G04 #@! TO.C,J405*
X77070000Y-119840000D02*
X66910000Y-119840000D01*
X77070000Y-121110000D02*
X77070000Y-113490000D01*
X77070000Y-113490000D02*
X66910000Y-113490000D01*
X66910000Y-113490000D02*
X66910000Y-121110000D01*
X66910000Y-121110000D02*
X77070000Y-121110000D01*
G04 #@! TO.C,J406*
X92070000Y-119590000D02*
X81910000Y-119590000D01*
X92070000Y-120860000D02*
X92070000Y-113240000D01*
X92070000Y-113240000D02*
X81910000Y-113240000D01*
X81910000Y-113240000D02*
X81910000Y-120860000D01*
X81910000Y-120860000D02*
X92070000Y-120860000D01*
G04 #@! TO.C,J407*
X98910000Y-120610000D02*
X109070000Y-120610000D01*
X98910000Y-112990000D02*
X98910000Y-120610000D01*
X109070000Y-112990000D02*
X98910000Y-112990000D01*
X109070000Y-120610000D02*
X109070000Y-112990000D01*
X109070000Y-119340000D02*
X98910000Y-119340000D01*
G04 #@! TO.C,J408*
X130470000Y-119390000D02*
X120310000Y-119390000D01*
X130470000Y-120660000D02*
X130470000Y-113040000D01*
X130470000Y-113040000D02*
X120310000Y-113040000D01*
X120310000Y-113040000D02*
X120310000Y-120660000D01*
X120310000Y-120660000D02*
X130470000Y-120660000D01*
G04 #@! TO.C,J410*
X154954136Y-119790000D02*
X144794136Y-119790000D01*
X154954136Y-121060000D02*
X154954136Y-113440000D01*
X154954136Y-113440000D02*
X144794136Y-113440000D01*
X144794136Y-113440000D02*
X144794136Y-121060000D01*
X144794136Y-121060000D02*
X154954136Y-121060000D01*
G04 #@! TO.C,R207*
X157510000Y-50858578D02*
X157510000Y-50341422D01*
X156090000Y-50858578D02*
X156090000Y-50341422D01*
G04 #@! TO.C,R208*
X157890000Y-65596079D02*
X157890000Y-65078923D01*
X159310000Y-65596079D02*
X159310000Y-65078923D01*
G04 #@! TO.C,R209*
X158290000Y-80458578D02*
X158290000Y-79941422D01*
X159710000Y-80458578D02*
X159710000Y-79941422D01*
G04 #@! TO.C,R210*
X128210000Y-86058578D02*
X128210000Y-85541422D01*
X126790000Y-86058578D02*
X126790000Y-85541422D01*
G04 #@! TO.C,R211*
X108210000Y-86058578D02*
X108210000Y-85541422D01*
X106790000Y-86058578D02*
X106790000Y-85541422D01*
G04 #@! TO.C,R212*
X115710000Y-86058578D02*
X115710000Y-85541422D01*
X114290000Y-86058578D02*
X114290000Y-85541422D01*
G04 #@! TO.C,R213*
X120690000Y-86058578D02*
X120690000Y-85541422D01*
X122110000Y-86058578D02*
X122110000Y-85541422D01*
G04 #@! TO.C,R214*
X134310000Y-86058578D02*
X134310000Y-85541422D01*
X132890000Y-86058578D02*
X132890000Y-85541422D01*
D18*
G04 #@! TO.C,U204*
X168745000Y-91350000D02*
X169545000Y-92150000D01*
X169545000Y-92150000D02*
X169545000Y-110250000D01*
X169545000Y-110250000D02*
X144355000Y-110250000D01*
X144355000Y-110250000D02*
X144355000Y-91350000D01*
X144355000Y-91350000D02*
X168745000Y-91350000D01*
G04 #@! TO.C,U206*
X87855000Y-91100000D02*
X112245000Y-91100000D01*
X87855000Y-110000000D02*
X87855000Y-91100000D01*
X113045000Y-110000000D02*
X87855000Y-110000000D01*
X113045000Y-91900000D02*
X113045000Y-110000000D01*
X112245000Y-91100000D02*
X113045000Y-91900000D01*
G04 #@! TO.C,U207*
X116005000Y-91150000D02*
X140395000Y-91150000D01*
X116005000Y-110050000D02*
X116005000Y-91150000D01*
X141195000Y-110050000D02*
X116005000Y-110050000D01*
X141195000Y-91950000D02*
X141195000Y-110050000D01*
X140395000Y-91150000D02*
X141195000Y-91950000D01*
G04 #@! TO.C,U208*
X172055000Y-91300000D02*
X196445000Y-91300000D01*
X172055000Y-110200000D02*
X172055000Y-91300000D01*
X197245000Y-110200000D02*
X172055000Y-110200000D01*
X197245000Y-92100000D02*
X197245000Y-110200000D01*
X196445000Y-91300000D02*
X197245000Y-92100000D01*
D17*
G04 #@! TO.C,U401*
X136610000Y-53800000D02*
X136610000Y-55300000D01*
X133390000Y-52300000D02*
X133390000Y-55300000D01*
G04 #@! TO.C,JP201*
X170900000Y-47200000D02*
X169500000Y-47200000D01*
X168800000Y-46500000D02*
X168800000Y-45900000D01*
X169500000Y-45200000D02*
X170900000Y-45200000D01*
X171600000Y-45900000D02*
X171600000Y-46500000D01*
X171600000Y-46500000D02*
G75*
G02X170900000Y-47200000I-700000J0D01*
G01*
X170900000Y-45200000D02*
G75*
G02X171600000Y-45900000I0J-700000D01*
G01*
X168800000Y-45900000D02*
G75*
G02X169500000Y-45200000I700000J0D01*
G01*
X169500000Y-47200000D02*
G75*
G02X168800000Y-46500000I0J700000D01*
G01*
G04 #@! TO.C,JP202*
X169700000Y-77600000D02*
G75*
G02X169000000Y-76900000I0J700000D01*
G01*
X169000000Y-76300000D02*
G75*
G02X169700000Y-75600000I700000J0D01*
G01*
X171100000Y-75600000D02*
G75*
G02X171800000Y-76300000I0J-700000D01*
G01*
X171800000Y-76900000D02*
G75*
G02X171100000Y-77600000I-700000J0D01*
G01*
X171800000Y-76300000D02*
X171800000Y-76900000D01*
X169700000Y-75600000D02*
X171100000Y-75600000D01*
X169000000Y-76900000D02*
X169000000Y-76300000D01*
X171100000Y-77600000D02*
X169700000Y-77600000D01*
G04 #@! TO.C,JP203*
X169500000Y-61249999D02*
G75*
G02X168800000Y-60549999I0J700000D01*
G01*
X168800000Y-59949999D02*
G75*
G02X169500000Y-59249999I700000J0D01*
G01*
X170900000Y-59249999D02*
G75*
G02X171600000Y-59949999I0J-700000D01*
G01*
X171600000Y-60549999D02*
G75*
G02X170900000Y-61249999I-700000J0D01*
G01*
X171600000Y-59949999D02*
X171600000Y-60549999D01*
X169500000Y-59249999D02*
X170900000Y-59249999D01*
X168800000Y-60549999D02*
X168800000Y-59949999D01*
X170900000Y-61249999D02*
X169500000Y-61249999D01*
G04 #@! TO.C,J411*
X62660000Y-75420000D02*
X62660000Y-65260000D01*
X61390000Y-75420000D02*
X69010000Y-75420000D01*
X69010000Y-75420000D02*
X69010000Y-65260000D01*
X69010000Y-65260000D02*
X61390000Y-65260000D01*
X61390000Y-65260000D02*
X61390000Y-75420000D01*
G04 #@! TO.C,J412*
X150940000Y-77590000D02*
X140780000Y-77590000D01*
X150940000Y-85210000D02*
X150940000Y-77590000D01*
X140780000Y-85210000D02*
X150940000Y-85210000D01*
X140780000Y-77590000D02*
X140780000Y-85210000D01*
X140780000Y-78860000D02*
X150940000Y-78860000D01*
G04 #@! TO.C,J413*
X173420000Y-120340000D02*
X163260000Y-120340000D01*
X173420000Y-121610000D02*
X173420000Y-113990000D01*
X173420000Y-113990000D02*
X163260000Y-113990000D01*
X163260000Y-113990000D02*
X163260000Y-121610000D01*
X163260000Y-121610000D02*
X173420000Y-121610000D01*
G04 #@! TO.C,J414*
X61190000Y-77260000D02*
X61190000Y-87420000D01*
X68810000Y-77260000D02*
X61190000Y-77260000D01*
X68810000Y-87420000D02*
X68810000Y-77260000D01*
X61190000Y-87420000D02*
X68810000Y-87420000D01*
X62460000Y-87420000D02*
X62460000Y-77260000D01*
G04 #@! TO.C,J416*
X100210000Y-80940001D02*
X100210000Y-70780001D01*
X92590000Y-80940001D02*
X100210000Y-80940001D01*
X92590000Y-70780001D02*
X92590000Y-80940001D01*
X100210000Y-70780001D02*
X92590000Y-70780001D01*
X98940000Y-70780001D02*
X98940000Y-80940001D01*
G04 #@! TO.C,R217*
X82710000Y-71341422D02*
X82710000Y-71858578D01*
X81290000Y-71341422D02*
X81290000Y-71858578D01*
G04 #@! TO.C,U209*
D18*
X81122380Y-77654285D02*
X81931904Y-77654285D01*
X82027142Y-77606666D01*
X82074761Y-77559047D01*
X82122380Y-77463809D01*
X82122380Y-77273333D01*
X82074761Y-77178095D01*
X82027142Y-77130476D01*
X81931904Y-77082857D01*
X81122380Y-77082857D01*
X81217619Y-76654285D02*
X81170000Y-76606666D01*
X81122380Y-76511428D01*
X81122380Y-76273333D01*
X81170000Y-76178095D01*
X81217619Y-76130476D01*
X81312857Y-76082857D01*
X81408095Y-76082857D01*
X81550952Y-76130476D01*
X82122380Y-76701904D01*
X82122380Y-76082857D01*
X81122380Y-75463809D02*
X81122380Y-75368571D01*
X81170000Y-75273333D01*
X81217619Y-75225714D01*
X81312857Y-75178095D01*
X81503333Y-75130476D01*
X81741428Y-75130476D01*
X81931904Y-75178095D01*
X82027142Y-75225714D01*
X82074761Y-75273333D01*
X82122380Y-75368571D01*
X82122380Y-75463809D01*
X82074761Y-75559047D01*
X82027142Y-75606666D01*
X81931904Y-75654285D01*
X81741428Y-75701904D01*
X81503333Y-75701904D01*
X81312857Y-75654285D01*
X81217619Y-75606666D01*
X81170000Y-75559047D01*
X81122380Y-75463809D01*
X82122380Y-74654285D02*
X82122380Y-74463809D01*
X82074761Y-74368571D01*
X82027142Y-74320952D01*
X81884285Y-74225714D01*
X81693809Y-74178095D01*
X81312857Y-74178095D01*
X81217619Y-74225714D01*
X81170000Y-74273333D01*
X81122380Y-74368571D01*
X81122380Y-74559047D01*
X81170000Y-74654285D01*
X81217619Y-74701904D01*
X81312857Y-74749523D01*
X81550952Y-74749523D01*
X81646190Y-74701904D01*
X81693809Y-74654285D01*
X81741428Y-74559047D01*
X81741428Y-74368571D01*
X81693809Y-74273333D01*
X81646190Y-74225714D01*
X81550952Y-74178095D01*
G04 #@! TO.C,C203*
X186157142Y-80119047D02*
X186204761Y-80166666D01*
X186252380Y-80309523D01*
X186252380Y-80404761D01*
X186204761Y-80547619D01*
X186109523Y-80642857D01*
X186014285Y-80690476D01*
X185823809Y-80738095D01*
X185680952Y-80738095D01*
X185490476Y-80690476D01*
X185395238Y-80642857D01*
X185300000Y-80547619D01*
X185252380Y-80404761D01*
X185252380Y-80309523D01*
X185300000Y-80166666D01*
X185347619Y-80119047D01*
X185347619Y-79738095D02*
X185300000Y-79690476D01*
X185252380Y-79595238D01*
X185252380Y-79357142D01*
X185300000Y-79261904D01*
X185347619Y-79214285D01*
X185442857Y-79166666D01*
X185538095Y-79166666D01*
X185680952Y-79214285D01*
X186252380Y-79785714D01*
X186252380Y-79166666D01*
X185252380Y-78547619D02*
X185252380Y-78452380D01*
X185300000Y-78357142D01*
X185347619Y-78309523D01*
X185442857Y-78261904D01*
X185633333Y-78214285D01*
X185871428Y-78214285D01*
X186061904Y-78261904D01*
X186157142Y-78309523D01*
X186204761Y-78357142D01*
X186252380Y-78452380D01*
X186252380Y-78547619D01*
X186204761Y-78642857D01*
X186157142Y-78690476D01*
X186061904Y-78738095D01*
X185871428Y-78785714D01*
X185633333Y-78785714D01*
X185442857Y-78738095D01*
X185347619Y-78690476D01*
X185300000Y-78642857D01*
X185252380Y-78547619D01*
X185252380Y-77880952D02*
X185252380Y-77261904D01*
X185633333Y-77595238D01*
X185633333Y-77452380D01*
X185680952Y-77357142D01*
X185728571Y-77309523D01*
X185823809Y-77261904D01*
X186061904Y-77261904D01*
X186157142Y-77309523D01*
X186204761Y-77357142D01*
X186252380Y-77452380D01*
X186252380Y-77738095D01*
X186204761Y-77833333D01*
X186157142Y-77880952D01*
G04 #@! TO.C,C201*
X186157142Y-50619047D02*
X186204761Y-50666666D01*
X186252380Y-50809523D01*
X186252380Y-50904761D01*
X186204761Y-51047619D01*
X186109523Y-51142857D01*
X186014285Y-51190476D01*
X185823809Y-51238095D01*
X185680952Y-51238095D01*
X185490476Y-51190476D01*
X185395238Y-51142857D01*
X185300000Y-51047619D01*
X185252380Y-50904761D01*
X185252380Y-50809523D01*
X185300000Y-50666666D01*
X185347619Y-50619047D01*
X185347619Y-50238095D02*
X185300000Y-50190476D01*
X185252380Y-50095238D01*
X185252380Y-49857142D01*
X185300000Y-49761904D01*
X185347619Y-49714285D01*
X185442857Y-49666666D01*
X185538095Y-49666666D01*
X185680952Y-49714285D01*
X186252380Y-50285714D01*
X186252380Y-49666666D01*
X185252380Y-49047619D02*
X185252380Y-48952380D01*
X185300000Y-48857142D01*
X185347619Y-48809523D01*
X185442857Y-48761904D01*
X185633333Y-48714285D01*
X185871428Y-48714285D01*
X186061904Y-48761904D01*
X186157142Y-48809523D01*
X186204761Y-48857142D01*
X186252380Y-48952380D01*
X186252380Y-49047619D01*
X186204761Y-49142857D01*
X186157142Y-49190476D01*
X186061904Y-49238095D01*
X185871428Y-49285714D01*
X185633333Y-49285714D01*
X185442857Y-49238095D01*
X185347619Y-49190476D01*
X185300000Y-49142857D01*
X185252380Y-49047619D01*
X186252380Y-47761904D02*
X186252380Y-48333333D01*
X186252380Y-48047619D02*
X185252380Y-48047619D01*
X185395238Y-48142857D01*
X185490476Y-48238095D01*
X185538095Y-48333333D01*
G04 #@! TO.C,C202*
X186157142Y-65119047D02*
X186204761Y-65166666D01*
X186252380Y-65309523D01*
X186252380Y-65404761D01*
X186204761Y-65547619D01*
X186109523Y-65642857D01*
X186014285Y-65690476D01*
X185823809Y-65738095D01*
X185680952Y-65738095D01*
X185490476Y-65690476D01*
X185395238Y-65642857D01*
X185300000Y-65547619D01*
X185252380Y-65404761D01*
X185252380Y-65309523D01*
X185300000Y-65166666D01*
X185347619Y-65119047D01*
X185347619Y-64738095D02*
X185300000Y-64690476D01*
X185252380Y-64595238D01*
X185252380Y-64357142D01*
X185300000Y-64261904D01*
X185347619Y-64214285D01*
X185442857Y-64166666D01*
X185538095Y-64166666D01*
X185680952Y-64214285D01*
X186252380Y-64785714D01*
X186252380Y-64166666D01*
X185252380Y-63547619D02*
X185252380Y-63452380D01*
X185300000Y-63357142D01*
X185347619Y-63309523D01*
X185442857Y-63261904D01*
X185633333Y-63214285D01*
X185871428Y-63214285D01*
X186061904Y-63261904D01*
X186157142Y-63309523D01*
X186204761Y-63357142D01*
X186252380Y-63452380D01*
X186252380Y-63547619D01*
X186204761Y-63642857D01*
X186157142Y-63690476D01*
X186061904Y-63738095D01*
X185871428Y-63785714D01*
X185633333Y-63785714D01*
X185442857Y-63738095D01*
X185347619Y-63690476D01*
X185300000Y-63642857D01*
X185252380Y-63547619D01*
X185347619Y-62833333D02*
X185300000Y-62785714D01*
X185252380Y-62690476D01*
X185252380Y-62452380D01*
X185300000Y-62357142D01*
X185347619Y-62309523D01*
X185442857Y-62261904D01*
X185538095Y-62261904D01*
X185680952Y-62309523D01*
X186252380Y-62880952D01*
X186252380Y-62261904D01*
G04 #@! TO.C,U203*
X166222380Y-80754285D02*
X167031904Y-80754285D01*
X167127142Y-80706666D01*
X167174761Y-80659047D01*
X167222380Y-80563809D01*
X167222380Y-80373333D01*
X167174761Y-80278095D01*
X167127142Y-80230476D01*
X167031904Y-80182857D01*
X166222380Y-80182857D01*
X166317619Y-79754285D02*
X166270000Y-79706666D01*
X166222380Y-79611428D01*
X166222380Y-79373333D01*
X166270000Y-79278095D01*
X166317619Y-79230476D01*
X166412857Y-79182857D01*
X166508095Y-79182857D01*
X166650952Y-79230476D01*
X167222380Y-79801904D01*
X167222380Y-79182857D01*
X166222380Y-78563809D02*
X166222380Y-78468571D01*
X166270000Y-78373333D01*
X166317619Y-78325714D01*
X166412857Y-78278095D01*
X166603333Y-78230476D01*
X166841428Y-78230476D01*
X167031904Y-78278095D01*
X167127142Y-78325714D01*
X167174761Y-78373333D01*
X167222380Y-78468571D01*
X167222380Y-78563809D01*
X167174761Y-78659047D01*
X167127142Y-78706666D01*
X167031904Y-78754285D01*
X166841428Y-78801904D01*
X166603333Y-78801904D01*
X166412857Y-78754285D01*
X166317619Y-78706666D01*
X166270000Y-78659047D01*
X166222380Y-78563809D01*
X166222380Y-77897142D02*
X166222380Y-77278095D01*
X166603333Y-77611428D01*
X166603333Y-77468571D01*
X166650952Y-77373333D01*
X166698571Y-77325714D01*
X166793809Y-77278095D01*
X167031904Y-77278095D01*
X167127142Y-77325714D01*
X167174761Y-77373333D01*
X167222380Y-77468571D01*
X167222380Y-77754285D01*
X167174761Y-77849523D01*
X167127142Y-77897142D01*
G04 #@! TO.C,U205*
X70735714Y-89002380D02*
X70735714Y-89811904D01*
X70783333Y-89907142D01*
X70830952Y-89954761D01*
X70926190Y-90002380D01*
X71116666Y-90002380D01*
X71211904Y-89954761D01*
X71259523Y-89907142D01*
X71307142Y-89811904D01*
X71307142Y-89002380D01*
X71735714Y-89097619D02*
X71783333Y-89050000D01*
X71878571Y-89002380D01*
X72116666Y-89002380D01*
X72211904Y-89050000D01*
X72259523Y-89097619D01*
X72307142Y-89192857D01*
X72307142Y-89288095D01*
X72259523Y-89430952D01*
X71688095Y-90002380D01*
X72307142Y-90002380D01*
X72926190Y-89002380D02*
X73021428Y-89002380D01*
X73116666Y-89050000D01*
X73164285Y-89097619D01*
X73211904Y-89192857D01*
X73259523Y-89383333D01*
X73259523Y-89621428D01*
X73211904Y-89811904D01*
X73164285Y-89907142D01*
X73116666Y-89954761D01*
X73021428Y-90002380D01*
X72926190Y-90002380D01*
X72830952Y-89954761D01*
X72783333Y-89907142D01*
X72735714Y-89811904D01*
X72688095Y-89621428D01*
X72688095Y-89383333D01*
X72735714Y-89192857D01*
X72783333Y-89097619D01*
X72830952Y-89050000D01*
X72926190Y-89002380D01*
X74164285Y-89002380D02*
X73688095Y-89002380D01*
X73640476Y-89478571D01*
X73688095Y-89430952D01*
X73783333Y-89383333D01*
X74021428Y-89383333D01*
X74116666Y-89430952D01*
X74164285Y-89478571D01*
X74211904Y-89573809D01*
X74211904Y-89811904D01*
X74164285Y-89907142D01*
X74116666Y-89954761D01*
X74021428Y-90002380D01*
X73783333Y-90002380D01*
X73688095Y-89954761D01*
X73640476Y-89907142D01*
G04 #@! TO.C,J201*
X66122380Y-61952203D02*
X66836666Y-61952203D01*
X66979523Y-61999822D01*
X67074761Y-62095060D01*
X67122380Y-62237917D01*
X67122380Y-62333155D01*
X66217619Y-61523631D02*
X66170000Y-61476012D01*
X66122380Y-61380774D01*
X66122380Y-61142679D01*
X66170000Y-61047441D01*
X66217619Y-60999822D01*
X66312857Y-60952203D01*
X66408095Y-60952203D01*
X66550952Y-60999822D01*
X67122380Y-61571250D01*
X67122380Y-60952203D01*
X66122380Y-60333155D02*
X66122380Y-60237917D01*
X66170000Y-60142679D01*
X66217619Y-60095060D01*
X66312857Y-60047441D01*
X66503333Y-59999822D01*
X66741428Y-59999822D01*
X66931904Y-60047441D01*
X67027142Y-60095060D01*
X67074761Y-60142679D01*
X67122380Y-60237917D01*
X67122380Y-60333155D01*
X67074761Y-60428393D01*
X67027142Y-60476012D01*
X66931904Y-60523631D01*
X66741428Y-60571250D01*
X66503333Y-60571250D01*
X66312857Y-60523631D01*
X66217619Y-60476012D01*
X66170000Y-60428393D01*
X66122380Y-60333155D01*
X67122380Y-59047441D02*
X67122380Y-59618869D01*
X67122380Y-59333155D02*
X66122380Y-59333155D01*
X66265238Y-59428393D01*
X66360476Y-59523631D01*
X66408095Y-59618869D01*
G04 #@! TO.C,J409*
X175852380Y-119085714D02*
X176566666Y-119085714D01*
X176709523Y-119133333D01*
X176804761Y-119228571D01*
X176852380Y-119371428D01*
X176852380Y-119466666D01*
X176185714Y-118180952D02*
X176852380Y-118180952D01*
X175804761Y-118419047D02*
X176519047Y-118657142D01*
X176519047Y-118038095D01*
X175852380Y-117466666D02*
X175852380Y-117371428D01*
X175900000Y-117276190D01*
X175947619Y-117228571D01*
X176042857Y-117180952D01*
X176233333Y-117133333D01*
X176471428Y-117133333D01*
X176661904Y-117180952D01*
X176757142Y-117228571D01*
X176804761Y-117276190D01*
X176852380Y-117371428D01*
X176852380Y-117466666D01*
X176804761Y-117561904D01*
X176757142Y-117609523D01*
X176661904Y-117657142D01*
X176471428Y-117704761D01*
X176233333Y-117704761D01*
X176042857Y-117657142D01*
X175947619Y-117609523D01*
X175900000Y-117561904D01*
X175852380Y-117466666D01*
X176852380Y-116657142D02*
X176852380Y-116466666D01*
X176804761Y-116371428D01*
X176757142Y-116323809D01*
X176614285Y-116228571D01*
X176423809Y-116180952D01*
X176042857Y-116180952D01*
X175947619Y-116228571D01*
X175900000Y-116276190D01*
X175852380Y-116371428D01*
X175852380Y-116561904D01*
X175900000Y-116657142D01*
X175947619Y-116704761D01*
X176042857Y-116752380D01*
X176280952Y-116752380D01*
X176376190Y-116704761D01*
X176423809Y-116657142D01*
X176471428Y-116561904D01*
X176471428Y-116371428D01*
X176423809Y-116276190D01*
X176376190Y-116228571D01*
X176280952Y-116180952D01*
G04 #@! TO.C,U201*
X166222380Y-51254285D02*
X167031904Y-51254285D01*
X167127142Y-51206666D01*
X167174761Y-51159047D01*
X167222380Y-51063809D01*
X167222380Y-50873333D01*
X167174761Y-50778095D01*
X167127142Y-50730476D01*
X167031904Y-50682857D01*
X166222380Y-50682857D01*
X166317619Y-50254285D02*
X166270000Y-50206666D01*
X166222380Y-50111428D01*
X166222380Y-49873333D01*
X166270000Y-49778095D01*
X166317619Y-49730476D01*
X166412857Y-49682857D01*
X166508095Y-49682857D01*
X166650952Y-49730476D01*
X167222380Y-50301904D01*
X167222380Y-49682857D01*
X166222380Y-49063809D02*
X166222380Y-48968571D01*
X166270000Y-48873333D01*
X166317619Y-48825714D01*
X166412857Y-48778095D01*
X166603333Y-48730476D01*
X166841428Y-48730476D01*
X167031904Y-48778095D01*
X167127142Y-48825714D01*
X167174761Y-48873333D01*
X167222380Y-48968571D01*
X167222380Y-49063809D01*
X167174761Y-49159047D01*
X167127142Y-49206666D01*
X167031904Y-49254285D01*
X166841428Y-49301904D01*
X166603333Y-49301904D01*
X166412857Y-49254285D01*
X166317619Y-49206666D01*
X166270000Y-49159047D01*
X166222380Y-49063809D01*
X167222380Y-47778095D02*
X167222380Y-48349523D01*
X167222380Y-48063809D02*
X166222380Y-48063809D01*
X166365238Y-48159047D01*
X166460476Y-48254285D01*
X166508095Y-48349523D01*
G04 #@! TO.C,U202*
X166222380Y-66004285D02*
X167031904Y-66004285D01*
X167127142Y-65956666D01*
X167174761Y-65909047D01*
X167222380Y-65813809D01*
X167222380Y-65623333D01*
X167174761Y-65528095D01*
X167127142Y-65480476D01*
X167031904Y-65432857D01*
X166222380Y-65432857D01*
X166317619Y-65004285D02*
X166270000Y-64956666D01*
X166222380Y-64861428D01*
X166222380Y-64623333D01*
X166270000Y-64528095D01*
X166317619Y-64480476D01*
X166412857Y-64432857D01*
X166508095Y-64432857D01*
X166650952Y-64480476D01*
X167222380Y-65051904D01*
X167222380Y-64432857D01*
X166222380Y-63813809D02*
X166222380Y-63718571D01*
X166270000Y-63623333D01*
X166317619Y-63575714D01*
X166412857Y-63528095D01*
X166603333Y-63480476D01*
X166841428Y-63480476D01*
X167031904Y-63528095D01*
X167127142Y-63575714D01*
X167174761Y-63623333D01*
X167222380Y-63718571D01*
X167222380Y-63813809D01*
X167174761Y-63909047D01*
X167127142Y-63956666D01*
X167031904Y-64004285D01*
X166841428Y-64051904D01*
X166603333Y-64051904D01*
X166412857Y-64004285D01*
X166317619Y-63956666D01*
X166270000Y-63909047D01*
X166222380Y-63813809D01*
X166317619Y-63099523D02*
X166270000Y-63051904D01*
X166222380Y-62956666D01*
X166222380Y-62718571D01*
X166270000Y-62623333D01*
X166317619Y-62575714D01*
X166412857Y-62528095D01*
X166508095Y-62528095D01*
X166650952Y-62575714D01*
X167222380Y-63147142D01*
X167222380Y-62528095D01*
G04 #@! TO.C,C404*
X133943451Y-62707142D02*
X133895832Y-62754761D01*
X133752975Y-62802380D01*
X133657737Y-62802380D01*
X133514879Y-62754761D01*
X133419641Y-62659523D01*
X133372022Y-62564285D01*
X133324403Y-62373809D01*
X133324403Y-62230952D01*
X133372022Y-62040476D01*
X133419641Y-61945238D01*
X133514879Y-61850000D01*
X133657737Y-61802380D01*
X133752975Y-61802380D01*
X133895832Y-61850000D01*
X133943451Y-61897619D01*
X134800594Y-62135714D02*
X134800594Y-62802380D01*
X134562499Y-61754761D02*
X134324403Y-62469047D01*
X134943451Y-62469047D01*
X135514879Y-61802380D02*
X135610118Y-61802380D01*
X135705356Y-61850000D01*
X135752975Y-61897619D01*
X135800594Y-61992857D01*
X135848213Y-62183333D01*
X135848213Y-62421428D01*
X135800594Y-62611904D01*
X135752975Y-62707142D01*
X135705356Y-62754761D01*
X135610118Y-62802380D01*
X135514879Y-62802380D01*
X135419641Y-62754761D01*
X135372022Y-62707142D01*
X135324403Y-62611904D01*
X135276784Y-62421428D01*
X135276784Y-62183333D01*
X135324403Y-61992857D01*
X135372022Y-61897619D01*
X135419641Y-61850000D01*
X135514879Y-61802380D01*
X136705356Y-62135714D02*
X136705356Y-62802380D01*
X136467260Y-61754761D02*
X136229165Y-62469047D01*
X136848213Y-62469047D01*
G04 #@! TO.C,J401*
X189214285Y-56452380D02*
X189214285Y-57166666D01*
X189166666Y-57309523D01*
X189071428Y-57404761D01*
X188928571Y-57452380D01*
X188833333Y-57452380D01*
X190119047Y-56785714D02*
X190119047Y-57452380D01*
X189880952Y-56404761D02*
X189642857Y-57119047D01*
X190261904Y-57119047D01*
X190833333Y-56452380D02*
X190928571Y-56452380D01*
X191023809Y-56500000D01*
X191071428Y-56547619D01*
X191119047Y-56642857D01*
X191166666Y-56833333D01*
X191166666Y-57071428D01*
X191119047Y-57261904D01*
X191071428Y-57357142D01*
X191023809Y-57404761D01*
X190928571Y-57452380D01*
X190833333Y-57452380D01*
X190738095Y-57404761D01*
X190690476Y-57357142D01*
X190642857Y-57261904D01*
X190595238Y-57071428D01*
X190595238Y-56833333D01*
X190642857Y-56642857D01*
X190690476Y-56547619D01*
X190738095Y-56500000D01*
X190833333Y-56452380D01*
X192119047Y-57452380D02*
X191547619Y-57452380D01*
X191833333Y-57452380D02*
X191833333Y-56452380D01*
X191738095Y-56595238D01*
X191642857Y-56690476D01*
X191547619Y-56738095D01*
G04 #@! TO.C,J402*
X189214285Y-68952380D02*
X189214285Y-69666666D01*
X189166666Y-69809523D01*
X189071428Y-69904761D01*
X188928571Y-69952380D01*
X188833333Y-69952380D01*
X190119047Y-69285714D02*
X190119047Y-69952380D01*
X189880952Y-68904761D02*
X189642857Y-69619047D01*
X190261904Y-69619047D01*
X190833333Y-68952380D02*
X190928571Y-68952380D01*
X191023809Y-69000000D01*
X191071428Y-69047619D01*
X191119047Y-69142857D01*
X191166666Y-69333333D01*
X191166666Y-69571428D01*
X191119047Y-69761904D01*
X191071428Y-69857142D01*
X191023809Y-69904761D01*
X190928571Y-69952380D01*
X190833333Y-69952380D01*
X190738095Y-69904761D01*
X190690476Y-69857142D01*
X190642857Y-69761904D01*
X190595238Y-69571428D01*
X190595238Y-69333333D01*
X190642857Y-69142857D01*
X190690476Y-69047619D01*
X190738095Y-69000000D01*
X190833333Y-68952380D01*
X191547619Y-69047619D02*
X191595238Y-69000000D01*
X191690476Y-68952380D01*
X191928571Y-68952380D01*
X192023809Y-69000000D01*
X192071428Y-69047619D01*
X192119047Y-69142857D01*
X192119047Y-69238095D01*
X192071428Y-69380952D01*
X191500000Y-69952380D01*
X192119047Y-69952380D01*
G04 #@! TO.C,J403*
X189214285Y-81452380D02*
X189214285Y-82166666D01*
X189166666Y-82309523D01*
X189071428Y-82404761D01*
X188928571Y-82452380D01*
X188833333Y-82452380D01*
X190119047Y-81785714D02*
X190119047Y-82452380D01*
X189880952Y-81404761D02*
X189642857Y-82119047D01*
X190261904Y-82119047D01*
X190833333Y-81452380D02*
X190928571Y-81452380D01*
X191023809Y-81500000D01*
X191071428Y-81547619D01*
X191119047Y-81642857D01*
X191166666Y-81833333D01*
X191166666Y-82071428D01*
X191119047Y-82261904D01*
X191071428Y-82357142D01*
X191023809Y-82404761D01*
X190928571Y-82452380D01*
X190833333Y-82452380D01*
X190738095Y-82404761D01*
X190690476Y-82357142D01*
X190642857Y-82261904D01*
X190595238Y-82071428D01*
X190595238Y-81833333D01*
X190642857Y-81642857D01*
X190690476Y-81547619D01*
X190738095Y-81500000D01*
X190833333Y-81452380D01*
X191500000Y-81452380D02*
X192119047Y-81452380D01*
X191785714Y-81833333D01*
X191928571Y-81833333D01*
X192023809Y-81880952D01*
X192071428Y-81928571D01*
X192119047Y-82023809D01*
X192119047Y-82261904D01*
X192071428Y-82357142D01*
X192023809Y-82404761D01*
X191928571Y-82452380D01*
X191642857Y-82452380D01*
X191547619Y-82404761D01*
X191500000Y-82357142D01*
G04 #@! TO.C,J404*
X146114285Y-59822380D02*
X146114285Y-60536666D01*
X146066666Y-60679523D01*
X145971428Y-60774761D01*
X145828571Y-60822380D01*
X145733333Y-60822380D01*
X147019047Y-60155714D02*
X147019047Y-60822380D01*
X146780952Y-59774761D02*
X146542857Y-60489047D01*
X147161904Y-60489047D01*
X147733333Y-59822380D02*
X147828571Y-59822380D01*
X147923809Y-59870000D01*
X147971428Y-59917619D01*
X148019047Y-60012857D01*
X148066666Y-60203333D01*
X148066666Y-60441428D01*
X148019047Y-60631904D01*
X147971428Y-60727142D01*
X147923809Y-60774761D01*
X147828571Y-60822380D01*
X147733333Y-60822380D01*
X147638095Y-60774761D01*
X147590476Y-60727142D01*
X147542857Y-60631904D01*
X147495238Y-60441428D01*
X147495238Y-60203333D01*
X147542857Y-60012857D01*
X147590476Y-59917619D01*
X147638095Y-59870000D01*
X147733333Y-59822380D01*
X148923809Y-60155714D02*
X148923809Y-60822380D01*
X148685714Y-59774761D02*
X148447619Y-60489047D01*
X149066666Y-60489047D01*
G04 #@! TO.C,J405*
X65452380Y-119885714D02*
X66166666Y-119885714D01*
X66309523Y-119933333D01*
X66404761Y-120028571D01*
X66452380Y-120171428D01*
X66452380Y-120266666D01*
X65785714Y-118980952D02*
X66452380Y-118980952D01*
X65404761Y-119219047D02*
X66119047Y-119457142D01*
X66119047Y-118838095D01*
X65452380Y-118266666D02*
X65452380Y-118171428D01*
X65500000Y-118076190D01*
X65547619Y-118028571D01*
X65642857Y-117980952D01*
X65833333Y-117933333D01*
X66071428Y-117933333D01*
X66261904Y-117980952D01*
X66357142Y-118028571D01*
X66404761Y-118076190D01*
X66452380Y-118171428D01*
X66452380Y-118266666D01*
X66404761Y-118361904D01*
X66357142Y-118409523D01*
X66261904Y-118457142D01*
X66071428Y-118504761D01*
X65833333Y-118504761D01*
X65642857Y-118457142D01*
X65547619Y-118409523D01*
X65500000Y-118361904D01*
X65452380Y-118266666D01*
X65452380Y-117028571D02*
X65452380Y-117504761D01*
X65928571Y-117552380D01*
X65880952Y-117504761D01*
X65833333Y-117409523D01*
X65833333Y-117171428D01*
X65880952Y-117076190D01*
X65928571Y-117028571D01*
X66023809Y-116980952D01*
X66261904Y-116980952D01*
X66357142Y-117028571D01*
X66404761Y-117076190D01*
X66452380Y-117171428D01*
X66452380Y-117409523D01*
X66404761Y-117504761D01*
X66357142Y-117552380D01*
G04 #@! TO.C,J406*
X80452380Y-116285714D02*
X81166666Y-116285714D01*
X81309523Y-116333333D01*
X81404761Y-116428571D01*
X81452380Y-116571428D01*
X81452380Y-116666666D01*
X80785714Y-115380952D02*
X81452380Y-115380952D01*
X80404761Y-115619047D02*
X81119047Y-115857142D01*
X81119047Y-115238095D01*
X80452380Y-114666666D02*
X80452380Y-114571428D01*
X80500000Y-114476190D01*
X80547619Y-114428571D01*
X80642857Y-114380952D01*
X80833333Y-114333333D01*
X81071428Y-114333333D01*
X81261904Y-114380952D01*
X81357142Y-114428571D01*
X81404761Y-114476190D01*
X81452380Y-114571428D01*
X81452380Y-114666666D01*
X81404761Y-114761904D01*
X81357142Y-114809523D01*
X81261904Y-114857142D01*
X81071428Y-114904761D01*
X80833333Y-114904761D01*
X80642857Y-114857142D01*
X80547619Y-114809523D01*
X80500000Y-114761904D01*
X80452380Y-114666666D01*
X80452380Y-113476190D02*
X80452380Y-113666666D01*
X80500000Y-113761904D01*
X80547619Y-113809523D01*
X80690476Y-113904761D01*
X80880952Y-113952380D01*
X81261904Y-113952380D01*
X81357142Y-113904761D01*
X81404761Y-113857142D01*
X81452380Y-113761904D01*
X81452380Y-113571428D01*
X81404761Y-113476190D01*
X81357142Y-113428571D01*
X81261904Y-113380952D01*
X81023809Y-113380952D01*
X80928571Y-113428571D01*
X80880952Y-113476190D01*
X80833333Y-113571428D01*
X80833333Y-113761904D01*
X80880952Y-113857142D01*
X80928571Y-113904761D01*
X81023809Y-113952380D01*
G04 #@! TO.C,J407*
X97452380Y-115885714D02*
X98166666Y-115885714D01*
X98309523Y-115933333D01*
X98404761Y-116028571D01*
X98452380Y-116171428D01*
X98452380Y-116266666D01*
X97785714Y-114980952D02*
X98452380Y-114980952D01*
X97404761Y-115219047D02*
X98119047Y-115457142D01*
X98119047Y-114838095D01*
X97452380Y-114266666D02*
X97452380Y-114171428D01*
X97500000Y-114076190D01*
X97547619Y-114028571D01*
X97642857Y-113980952D01*
X97833333Y-113933333D01*
X98071428Y-113933333D01*
X98261904Y-113980952D01*
X98357142Y-114028571D01*
X98404761Y-114076190D01*
X98452380Y-114171428D01*
X98452380Y-114266666D01*
X98404761Y-114361904D01*
X98357142Y-114409523D01*
X98261904Y-114457142D01*
X98071428Y-114504761D01*
X97833333Y-114504761D01*
X97642857Y-114457142D01*
X97547619Y-114409523D01*
X97500000Y-114361904D01*
X97452380Y-114266666D01*
X97452380Y-113600000D02*
X97452380Y-112933333D01*
X98452380Y-113361904D01*
G04 #@! TO.C,J408*
X118802380Y-118385714D02*
X119516666Y-118385714D01*
X119659523Y-118433333D01*
X119754761Y-118528571D01*
X119802380Y-118671428D01*
X119802380Y-118766666D01*
X119135714Y-117480952D02*
X119802380Y-117480952D01*
X118754761Y-117719047D02*
X119469047Y-117957142D01*
X119469047Y-117338095D01*
X118802380Y-116766666D02*
X118802380Y-116671428D01*
X118850000Y-116576190D01*
X118897619Y-116528571D01*
X118992857Y-116480952D01*
X119183333Y-116433333D01*
X119421428Y-116433333D01*
X119611904Y-116480952D01*
X119707142Y-116528571D01*
X119754761Y-116576190D01*
X119802380Y-116671428D01*
X119802380Y-116766666D01*
X119754761Y-116861904D01*
X119707142Y-116909523D01*
X119611904Y-116957142D01*
X119421428Y-117004761D01*
X119183333Y-117004761D01*
X118992857Y-116957142D01*
X118897619Y-116909523D01*
X118850000Y-116861904D01*
X118802380Y-116766666D01*
X119230952Y-115861904D02*
X119183333Y-115957142D01*
X119135714Y-116004761D01*
X119040476Y-116052380D01*
X118992857Y-116052380D01*
X118897619Y-116004761D01*
X118850000Y-115957142D01*
X118802380Y-115861904D01*
X118802380Y-115671428D01*
X118850000Y-115576190D01*
X118897619Y-115528571D01*
X118992857Y-115480952D01*
X119040476Y-115480952D01*
X119135714Y-115528571D01*
X119183333Y-115576190D01*
X119230952Y-115671428D01*
X119230952Y-115861904D01*
X119278571Y-115957142D01*
X119326190Y-116004761D01*
X119421428Y-116052380D01*
X119611904Y-116052380D01*
X119707142Y-116004761D01*
X119754761Y-115957142D01*
X119802380Y-115861904D01*
X119802380Y-115671428D01*
X119754761Y-115576190D01*
X119707142Y-115528571D01*
X119611904Y-115480952D01*
X119421428Y-115480952D01*
X119326190Y-115528571D01*
X119278571Y-115576190D01*
X119230952Y-115671428D01*
G04 #@! TO.C,J410*
X155452380Y-116485714D02*
X156166666Y-116485714D01*
X156309523Y-116533333D01*
X156404761Y-116628571D01*
X156452380Y-116771428D01*
X156452380Y-116866666D01*
X155785714Y-115580952D02*
X156452380Y-115580952D01*
X155404761Y-115819047D02*
X156119047Y-116057142D01*
X156119047Y-115438095D01*
X156452380Y-114533333D02*
X156452380Y-115104761D01*
X156452380Y-114819047D02*
X155452380Y-114819047D01*
X155595238Y-114914285D01*
X155690476Y-115009523D01*
X155738095Y-115104761D01*
X155452380Y-113914285D02*
X155452380Y-113819047D01*
X155500000Y-113723809D01*
X155547619Y-113676190D01*
X155642857Y-113628571D01*
X155833333Y-113580952D01*
X156071428Y-113580952D01*
X156261904Y-113628571D01*
X156357142Y-113676190D01*
X156404761Y-113723809D01*
X156452380Y-113819047D01*
X156452380Y-113914285D01*
X156404761Y-114009523D01*
X156357142Y-114057142D01*
X156261904Y-114104761D01*
X156071428Y-114152380D01*
X155833333Y-114152380D01*
X155642857Y-114104761D01*
X155547619Y-114057142D01*
X155500000Y-114009523D01*
X155452380Y-113914285D01*
G04 #@! TO.C,R207*
X155602380Y-51719047D02*
X155126190Y-52052380D01*
X155602380Y-52290476D02*
X154602380Y-52290476D01*
X154602380Y-51909523D01*
X154650000Y-51814285D01*
X154697619Y-51766666D01*
X154792857Y-51719047D01*
X154935714Y-51719047D01*
X155030952Y-51766666D01*
X155078571Y-51814285D01*
X155126190Y-51909523D01*
X155126190Y-52290476D01*
X154697619Y-51338095D02*
X154650000Y-51290476D01*
X154602380Y-51195238D01*
X154602380Y-50957142D01*
X154650000Y-50861904D01*
X154697619Y-50814285D01*
X154792857Y-50766666D01*
X154888095Y-50766666D01*
X155030952Y-50814285D01*
X155602380Y-51385714D01*
X155602380Y-50766666D01*
X154602380Y-50147619D02*
X154602380Y-50052380D01*
X154650000Y-49957142D01*
X154697619Y-49909523D01*
X154792857Y-49861904D01*
X154983333Y-49814285D01*
X155221428Y-49814285D01*
X155411904Y-49861904D01*
X155507142Y-49909523D01*
X155554761Y-49957142D01*
X155602380Y-50052380D01*
X155602380Y-50147619D01*
X155554761Y-50242857D01*
X155507142Y-50290476D01*
X155411904Y-50338095D01*
X155221428Y-50385714D01*
X154983333Y-50385714D01*
X154792857Y-50338095D01*
X154697619Y-50290476D01*
X154650000Y-50242857D01*
X154602380Y-50147619D01*
X154602380Y-49480952D02*
X154602380Y-48814285D01*
X155602380Y-49242857D01*
G04 #@! TO.C,R208*
X157402380Y-66456548D02*
X156926190Y-66789881D01*
X157402380Y-67027977D02*
X156402380Y-67027977D01*
X156402380Y-66647024D01*
X156450000Y-66551786D01*
X156497619Y-66504167D01*
X156592857Y-66456548D01*
X156735714Y-66456548D01*
X156830952Y-66504167D01*
X156878571Y-66551786D01*
X156926190Y-66647024D01*
X156926190Y-67027977D01*
X156497619Y-66075596D02*
X156450000Y-66027977D01*
X156402380Y-65932739D01*
X156402380Y-65694643D01*
X156450000Y-65599405D01*
X156497619Y-65551786D01*
X156592857Y-65504167D01*
X156688095Y-65504167D01*
X156830952Y-65551786D01*
X157402380Y-66123215D01*
X157402380Y-65504167D01*
X156402380Y-64885120D02*
X156402380Y-64789881D01*
X156450000Y-64694643D01*
X156497619Y-64647024D01*
X156592857Y-64599405D01*
X156783333Y-64551786D01*
X157021428Y-64551786D01*
X157211904Y-64599405D01*
X157307142Y-64647024D01*
X157354761Y-64694643D01*
X157402380Y-64789881D01*
X157402380Y-64885120D01*
X157354761Y-64980358D01*
X157307142Y-65027977D01*
X157211904Y-65075596D01*
X157021428Y-65123215D01*
X156783333Y-65123215D01*
X156592857Y-65075596D01*
X156497619Y-65027977D01*
X156450000Y-64980358D01*
X156402380Y-64885120D01*
X156830952Y-63980358D02*
X156783333Y-64075596D01*
X156735714Y-64123215D01*
X156640476Y-64170834D01*
X156592857Y-64170834D01*
X156497619Y-64123215D01*
X156450000Y-64075596D01*
X156402380Y-63980358D01*
X156402380Y-63789881D01*
X156450000Y-63694643D01*
X156497619Y-63647024D01*
X156592857Y-63599405D01*
X156640476Y-63599405D01*
X156735714Y-63647024D01*
X156783333Y-63694643D01*
X156830952Y-63789881D01*
X156830952Y-63980358D01*
X156878571Y-64075596D01*
X156926190Y-64123215D01*
X157021428Y-64170834D01*
X157211904Y-64170834D01*
X157307142Y-64123215D01*
X157354761Y-64075596D01*
X157402380Y-63980358D01*
X157402380Y-63789881D01*
X157354761Y-63694643D01*
X157307142Y-63647024D01*
X157211904Y-63599405D01*
X157021428Y-63599405D01*
X156926190Y-63647024D01*
X156878571Y-63694643D01*
X156830952Y-63789881D01*
G04 #@! TO.C,R209*
X157802380Y-81319047D02*
X157326190Y-81652380D01*
X157802380Y-81890476D02*
X156802380Y-81890476D01*
X156802380Y-81509523D01*
X156850000Y-81414285D01*
X156897619Y-81366666D01*
X156992857Y-81319047D01*
X157135714Y-81319047D01*
X157230952Y-81366666D01*
X157278571Y-81414285D01*
X157326190Y-81509523D01*
X157326190Y-81890476D01*
X156897619Y-80938095D02*
X156850000Y-80890476D01*
X156802380Y-80795238D01*
X156802380Y-80557142D01*
X156850000Y-80461904D01*
X156897619Y-80414285D01*
X156992857Y-80366666D01*
X157088095Y-80366666D01*
X157230952Y-80414285D01*
X157802380Y-80985714D01*
X157802380Y-80366666D01*
X156802380Y-79747619D02*
X156802380Y-79652380D01*
X156850000Y-79557142D01*
X156897619Y-79509523D01*
X156992857Y-79461904D01*
X157183333Y-79414285D01*
X157421428Y-79414285D01*
X157611904Y-79461904D01*
X157707142Y-79509523D01*
X157754761Y-79557142D01*
X157802380Y-79652380D01*
X157802380Y-79747619D01*
X157754761Y-79842857D01*
X157707142Y-79890476D01*
X157611904Y-79938095D01*
X157421428Y-79985714D01*
X157183333Y-79985714D01*
X156992857Y-79938095D01*
X156897619Y-79890476D01*
X156850000Y-79842857D01*
X156802380Y-79747619D01*
X157802380Y-78938095D02*
X157802380Y-78747619D01*
X157754761Y-78652380D01*
X157707142Y-78604761D01*
X157564285Y-78509523D01*
X157373809Y-78461904D01*
X156992857Y-78461904D01*
X156897619Y-78509523D01*
X156850000Y-78557142D01*
X156802380Y-78652380D01*
X156802380Y-78842857D01*
X156850000Y-78938095D01*
X156897619Y-78985714D01*
X156992857Y-79033333D01*
X157230952Y-79033333D01*
X157326190Y-78985714D01*
X157373809Y-78938095D01*
X157421428Y-78842857D01*
X157421428Y-78652380D01*
X157373809Y-78557142D01*
X157326190Y-78509523D01*
X157230952Y-78461904D01*
G04 #@! TO.C,R210*
X126302380Y-86919047D02*
X125826190Y-87252380D01*
X126302380Y-87490476D02*
X125302380Y-87490476D01*
X125302380Y-87109523D01*
X125350000Y-87014285D01*
X125397619Y-86966666D01*
X125492857Y-86919047D01*
X125635714Y-86919047D01*
X125730952Y-86966666D01*
X125778571Y-87014285D01*
X125826190Y-87109523D01*
X125826190Y-87490476D01*
X125397619Y-86538095D02*
X125350000Y-86490476D01*
X125302380Y-86395238D01*
X125302380Y-86157142D01*
X125350000Y-86061904D01*
X125397619Y-86014285D01*
X125492857Y-85966666D01*
X125588095Y-85966666D01*
X125730952Y-86014285D01*
X126302380Y-86585714D01*
X126302380Y-85966666D01*
X126302380Y-85014285D02*
X126302380Y-85585714D01*
X126302380Y-85300000D02*
X125302380Y-85300000D01*
X125445238Y-85395238D01*
X125540476Y-85490476D01*
X125588095Y-85585714D01*
X125302380Y-84395238D02*
X125302380Y-84300000D01*
X125350000Y-84204761D01*
X125397619Y-84157142D01*
X125492857Y-84109523D01*
X125683333Y-84061904D01*
X125921428Y-84061904D01*
X126111904Y-84109523D01*
X126207142Y-84157142D01*
X126254761Y-84204761D01*
X126302380Y-84300000D01*
X126302380Y-84395238D01*
X126254761Y-84490476D01*
X126207142Y-84538095D01*
X126111904Y-84585714D01*
X125921428Y-84633333D01*
X125683333Y-84633333D01*
X125492857Y-84585714D01*
X125397619Y-84538095D01*
X125350000Y-84490476D01*
X125302380Y-84395238D01*
G04 #@! TO.C,R211*
X109952380Y-86919047D02*
X109476190Y-87252380D01*
X109952380Y-87490476D02*
X108952380Y-87490476D01*
X108952380Y-87109523D01*
X109000000Y-87014285D01*
X109047619Y-86966666D01*
X109142857Y-86919047D01*
X109285714Y-86919047D01*
X109380952Y-86966666D01*
X109428571Y-87014285D01*
X109476190Y-87109523D01*
X109476190Y-87490476D01*
X109047619Y-86538095D02*
X109000000Y-86490476D01*
X108952380Y-86395238D01*
X108952380Y-86157142D01*
X109000000Y-86061904D01*
X109047619Y-86014285D01*
X109142857Y-85966666D01*
X109238095Y-85966666D01*
X109380952Y-86014285D01*
X109952380Y-86585714D01*
X109952380Y-85966666D01*
X109952380Y-85014285D02*
X109952380Y-85585714D01*
X109952380Y-85300000D02*
X108952380Y-85300000D01*
X109095238Y-85395238D01*
X109190476Y-85490476D01*
X109238095Y-85585714D01*
X109952380Y-84061904D02*
X109952380Y-84633333D01*
X109952380Y-84347619D02*
X108952380Y-84347619D01*
X109095238Y-84442857D01*
X109190476Y-84538095D01*
X109238095Y-84633333D01*
G04 #@! TO.C,R212*
X113802380Y-86919047D02*
X113326190Y-87252380D01*
X113802380Y-87490476D02*
X112802380Y-87490476D01*
X112802380Y-87109523D01*
X112850000Y-87014285D01*
X112897619Y-86966666D01*
X112992857Y-86919047D01*
X113135714Y-86919047D01*
X113230952Y-86966666D01*
X113278571Y-87014285D01*
X113326190Y-87109523D01*
X113326190Y-87490476D01*
X112897619Y-86538095D02*
X112850000Y-86490476D01*
X112802380Y-86395238D01*
X112802380Y-86157142D01*
X112850000Y-86061904D01*
X112897619Y-86014285D01*
X112992857Y-85966666D01*
X113088095Y-85966666D01*
X113230952Y-86014285D01*
X113802380Y-86585714D01*
X113802380Y-85966666D01*
X113802380Y-85014285D02*
X113802380Y-85585714D01*
X113802380Y-85300000D02*
X112802380Y-85300000D01*
X112945238Y-85395238D01*
X113040476Y-85490476D01*
X113088095Y-85585714D01*
X112897619Y-84633333D02*
X112850000Y-84585714D01*
X112802380Y-84490476D01*
X112802380Y-84252380D01*
X112850000Y-84157142D01*
X112897619Y-84109523D01*
X112992857Y-84061904D01*
X113088095Y-84061904D01*
X113230952Y-84109523D01*
X113802380Y-84680952D01*
X113802380Y-84061904D01*
G04 #@! TO.C,R213*
X120202380Y-86919047D02*
X119726190Y-87252380D01*
X120202380Y-87490476D02*
X119202380Y-87490476D01*
X119202380Y-87109523D01*
X119250000Y-87014285D01*
X119297619Y-86966666D01*
X119392857Y-86919047D01*
X119535714Y-86919047D01*
X119630952Y-86966666D01*
X119678571Y-87014285D01*
X119726190Y-87109523D01*
X119726190Y-87490476D01*
X119297619Y-86538095D02*
X119250000Y-86490476D01*
X119202380Y-86395238D01*
X119202380Y-86157142D01*
X119250000Y-86061904D01*
X119297619Y-86014285D01*
X119392857Y-85966666D01*
X119488095Y-85966666D01*
X119630952Y-86014285D01*
X120202380Y-86585714D01*
X120202380Y-85966666D01*
X120202380Y-85014285D02*
X120202380Y-85585714D01*
X120202380Y-85300000D02*
X119202380Y-85300000D01*
X119345238Y-85395238D01*
X119440476Y-85490476D01*
X119488095Y-85585714D01*
X119202380Y-84680952D02*
X119202380Y-84061904D01*
X119583333Y-84395238D01*
X119583333Y-84252380D01*
X119630952Y-84157142D01*
X119678571Y-84109523D01*
X119773809Y-84061904D01*
X120011904Y-84061904D01*
X120107142Y-84109523D01*
X120154761Y-84157142D01*
X120202380Y-84252380D01*
X120202380Y-84538095D01*
X120154761Y-84633333D01*
X120107142Y-84680952D01*
G04 #@! TO.C,R214*
X132402380Y-86919047D02*
X131926190Y-87252380D01*
X132402380Y-87490476D02*
X131402380Y-87490476D01*
X131402380Y-87109523D01*
X131450000Y-87014285D01*
X131497619Y-86966666D01*
X131592857Y-86919047D01*
X131735714Y-86919047D01*
X131830952Y-86966666D01*
X131878571Y-87014285D01*
X131926190Y-87109523D01*
X131926190Y-87490476D01*
X131497619Y-86538095D02*
X131450000Y-86490476D01*
X131402380Y-86395238D01*
X131402380Y-86157142D01*
X131450000Y-86061904D01*
X131497619Y-86014285D01*
X131592857Y-85966666D01*
X131688095Y-85966666D01*
X131830952Y-86014285D01*
X132402380Y-86585714D01*
X132402380Y-85966666D01*
X132402380Y-85014285D02*
X132402380Y-85585714D01*
X132402380Y-85300000D02*
X131402380Y-85300000D01*
X131545238Y-85395238D01*
X131640476Y-85490476D01*
X131688095Y-85585714D01*
X131735714Y-84157142D02*
X132402380Y-84157142D01*
X131354761Y-84395238D02*
X132069047Y-84633333D01*
X132069047Y-84014285D01*
G04 #@! TO.C,U204*
X155235714Y-89752380D02*
X155235714Y-90561904D01*
X155283333Y-90657142D01*
X155330952Y-90704761D01*
X155426190Y-90752380D01*
X155616666Y-90752380D01*
X155711904Y-90704761D01*
X155759523Y-90657142D01*
X155807142Y-90561904D01*
X155807142Y-89752380D01*
X156235714Y-89847619D02*
X156283333Y-89800000D01*
X156378571Y-89752380D01*
X156616666Y-89752380D01*
X156711904Y-89800000D01*
X156759523Y-89847619D01*
X156807142Y-89942857D01*
X156807142Y-90038095D01*
X156759523Y-90180952D01*
X156188095Y-90752380D01*
X156807142Y-90752380D01*
X157426190Y-89752380D02*
X157521428Y-89752380D01*
X157616666Y-89800000D01*
X157664285Y-89847619D01*
X157711904Y-89942857D01*
X157759523Y-90133333D01*
X157759523Y-90371428D01*
X157711904Y-90561904D01*
X157664285Y-90657142D01*
X157616666Y-90704761D01*
X157521428Y-90752380D01*
X157426190Y-90752380D01*
X157330952Y-90704761D01*
X157283333Y-90657142D01*
X157235714Y-90561904D01*
X157188095Y-90371428D01*
X157188095Y-90133333D01*
X157235714Y-89942857D01*
X157283333Y-89847619D01*
X157330952Y-89800000D01*
X157426190Y-89752380D01*
X158616666Y-90085714D02*
X158616666Y-90752380D01*
X158378571Y-89704761D02*
X158140476Y-90419047D01*
X158759523Y-90419047D01*
G04 #@! TO.C,U206*
X98485714Y-89502380D02*
X98485714Y-90311904D01*
X98533333Y-90407142D01*
X98580952Y-90454761D01*
X98676190Y-90502380D01*
X98866666Y-90502380D01*
X98961904Y-90454761D01*
X99009523Y-90407142D01*
X99057142Y-90311904D01*
X99057142Y-89502380D01*
X99485714Y-89597619D02*
X99533333Y-89550000D01*
X99628571Y-89502380D01*
X99866666Y-89502380D01*
X99961904Y-89550000D01*
X100009523Y-89597619D01*
X100057142Y-89692857D01*
X100057142Y-89788095D01*
X100009523Y-89930952D01*
X99438095Y-90502380D01*
X100057142Y-90502380D01*
X100676190Y-89502380D02*
X100771428Y-89502380D01*
X100866666Y-89550000D01*
X100914285Y-89597619D01*
X100961904Y-89692857D01*
X101009523Y-89883333D01*
X101009523Y-90121428D01*
X100961904Y-90311904D01*
X100914285Y-90407142D01*
X100866666Y-90454761D01*
X100771428Y-90502380D01*
X100676190Y-90502380D01*
X100580952Y-90454761D01*
X100533333Y-90407142D01*
X100485714Y-90311904D01*
X100438095Y-90121428D01*
X100438095Y-89883333D01*
X100485714Y-89692857D01*
X100533333Y-89597619D01*
X100580952Y-89550000D01*
X100676190Y-89502380D01*
X101866666Y-89502380D02*
X101676190Y-89502380D01*
X101580952Y-89550000D01*
X101533333Y-89597619D01*
X101438095Y-89740476D01*
X101390476Y-89930952D01*
X101390476Y-90311904D01*
X101438095Y-90407142D01*
X101485714Y-90454761D01*
X101580952Y-90502380D01*
X101771428Y-90502380D01*
X101866666Y-90454761D01*
X101914285Y-90407142D01*
X101961904Y-90311904D01*
X101961904Y-90073809D01*
X101914285Y-89978571D01*
X101866666Y-89930952D01*
X101771428Y-89883333D01*
X101580952Y-89883333D01*
X101485714Y-89930952D01*
X101438095Y-89978571D01*
X101390476Y-90073809D01*
G04 #@! TO.C,U207*
X126885714Y-89552380D02*
X126885714Y-90361904D01*
X126933333Y-90457142D01*
X126980952Y-90504761D01*
X127076190Y-90552380D01*
X127266666Y-90552380D01*
X127361904Y-90504761D01*
X127409523Y-90457142D01*
X127457142Y-90361904D01*
X127457142Y-89552380D01*
X127885714Y-89647619D02*
X127933333Y-89600000D01*
X128028571Y-89552380D01*
X128266666Y-89552380D01*
X128361904Y-89600000D01*
X128409523Y-89647619D01*
X128457142Y-89742857D01*
X128457142Y-89838095D01*
X128409523Y-89980952D01*
X127838095Y-90552380D01*
X128457142Y-90552380D01*
X129076190Y-89552380D02*
X129171428Y-89552380D01*
X129266666Y-89600000D01*
X129314285Y-89647619D01*
X129361904Y-89742857D01*
X129409523Y-89933333D01*
X129409523Y-90171428D01*
X129361904Y-90361904D01*
X129314285Y-90457142D01*
X129266666Y-90504761D01*
X129171428Y-90552380D01*
X129076190Y-90552380D01*
X128980952Y-90504761D01*
X128933333Y-90457142D01*
X128885714Y-90361904D01*
X128838095Y-90171428D01*
X128838095Y-89933333D01*
X128885714Y-89742857D01*
X128933333Y-89647619D01*
X128980952Y-89600000D01*
X129076190Y-89552380D01*
X129742857Y-89552380D02*
X130409523Y-89552380D01*
X129980952Y-90552380D01*
G04 #@! TO.C,U208*
X183185714Y-89702380D02*
X183185714Y-90511904D01*
X183233333Y-90607142D01*
X183280952Y-90654761D01*
X183376190Y-90702380D01*
X183566666Y-90702380D01*
X183661904Y-90654761D01*
X183709523Y-90607142D01*
X183757142Y-90511904D01*
X183757142Y-89702380D01*
X184185714Y-89797619D02*
X184233333Y-89750000D01*
X184328571Y-89702380D01*
X184566666Y-89702380D01*
X184661904Y-89750000D01*
X184709523Y-89797619D01*
X184757142Y-89892857D01*
X184757142Y-89988095D01*
X184709523Y-90130952D01*
X184138095Y-90702380D01*
X184757142Y-90702380D01*
X185376190Y-89702380D02*
X185471428Y-89702380D01*
X185566666Y-89750000D01*
X185614285Y-89797619D01*
X185661904Y-89892857D01*
X185709523Y-90083333D01*
X185709523Y-90321428D01*
X185661904Y-90511904D01*
X185614285Y-90607142D01*
X185566666Y-90654761D01*
X185471428Y-90702380D01*
X185376190Y-90702380D01*
X185280952Y-90654761D01*
X185233333Y-90607142D01*
X185185714Y-90511904D01*
X185138095Y-90321428D01*
X185138095Y-90083333D01*
X185185714Y-89892857D01*
X185233333Y-89797619D01*
X185280952Y-89750000D01*
X185376190Y-89702380D01*
X186280952Y-90130952D02*
X186185714Y-90083333D01*
X186138095Y-90035714D01*
X186090476Y-89940476D01*
X186090476Y-89892857D01*
X186138095Y-89797619D01*
X186185714Y-89750000D01*
X186280952Y-89702380D01*
X186471428Y-89702380D01*
X186566666Y-89750000D01*
X186614285Y-89797619D01*
X186661904Y-89892857D01*
X186661904Y-89940476D01*
X186614285Y-90035714D01*
X186566666Y-90083333D01*
X186471428Y-90130952D01*
X186280952Y-90130952D01*
X186185714Y-90178571D01*
X186138095Y-90226190D01*
X186090476Y-90321428D01*
X186090476Y-90511904D01*
X186138095Y-90607142D01*
X186185714Y-90654761D01*
X186280952Y-90702380D01*
X186471428Y-90702380D01*
X186566666Y-90654761D01*
X186614285Y-90607142D01*
X186661904Y-90511904D01*
X186661904Y-90321428D01*
X186614285Y-90226190D01*
X186566666Y-90178571D01*
X186471428Y-90130952D01*
G04 #@! TO.C,U401*
X133535714Y-56252380D02*
X133535714Y-57061904D01*
X133583333Y-57157142D01*
X133630952Y-57204761D01*
X133726190Y-57252380D01*
X133916666Y-57252380D01*
X134011904Y-57204761D01*
X134059523Y-57157142D01*
X134107142Y-57061904D01*
X134107142Y-56252380D01*
X135011904Y-56585714D02*
X135011904Y-57252380D01*
X134773809Y-56204761D02*
X134535714Y-56919047D01*
X135154761Y-56919047D01*
X135726190Y-56252380D02*
X135821428Y-56252380D01*
X135916666Y-56300000D01*
X135964285Y-56347619D01*
X136011904Y-56442857D01*
X136059523Y-56633333D01*
X136059523Y-56871428D01*
X136011904Y-57061904D01*
X135964285Y-57157142D01*
X135916666Y-57204761D01*
X135821428Y-57252380D01*
X135726190Y-57252380D01*
X135630952Y-57204761D01*
X135583333Y-57157142D01*
X135535714Y-57061904D01*
X135488095Y-56871428D01*
X135488095Y-56633333D01*
X135535714Y-56442857D01*
X135583333Y-56347619D01*
X135630952Y-56300000D01*
X135726190Y-56252380D01*
X137011904Y-57252380D02*
X136440476Y-57252380D01*
X136726190Y-57252380D02*
X136726190Y-56252380D01*
X136630952Y-56395238D01*
X136535714Y-56490476D01*
X136440476Y-56538095D01*
G04 #@! TO.C,JP201*
X168414285Y-47452380D02*
X168414285Y-48166666D01*
X168366666Y-48309523D01*
X168271428Y-48404761D01*
X168128571Y-48452380D01*
X168033333Y-48452380D01*
X168890476Y-48452380D02*
X168890476Y-47452380D01*
X169271428Y-47452380D01*
X169366666Y-47500000D01*
X169414285Y-47547619D01*
X169461904Y-47642857D01*
X169461904Y-47785714D01*
X169414285Y-47880952D01*
X169366666Y-47928571D01*
X169271428Y-47976190D01*
X168890476Y-47976190D01*
X169842857Y-47547619D02*
X169890476Y-47500000D01*
X169985714Y-47452380D01*
X170223809Y-47452380D01*
X170319047Y-47500000D01*
X170366666Y-47547619D01*
X170414285Y-47642857D01*
X170414285Y-47738095D01*
X170366666Y-47880952D01*
X169795238Y-48452380D01*
X170414285Y-48452380D01*
X171033333Y-47452380D02*
X171128571Y-47452380D01*
X171223809Y-47500000D01*
X171271428Y-47547619D01*
X171319047Y-47642857D01*
X171366666Y-47833333D01*
X171366666Y-48071428D01*
X171319047Y-48261904D01*
X171271428Y-48357142D01*
X171223809Y-48404761D01*
X171128571Y-48452380D01*
X171033333Y-48452380D01*
X170938095Y-48404761D01*
X170890476Y-48357142D01*
X170842857Y-48261904D01*
X170795238Y-48071428D01*
X170795238Y-47833333D01*
X170842857Y-47642857D01*
X170890476Y-47547619D01*
X170938095Y-47500000D01*
X171033333Y-47452380D01*
X172319047Y-48452380D02*
X171747619Y-48452380D01*
X172033333Y-48452380D02*
X172033333Y-47452380D01*
X171938095Y-47595238D01*
X171842857Y-47690476D01*
X171747619Y-47738095D01*
G04 #@! TO.C,JP202*
X168614285Y-77852380D02*
X168614285Y-78566666D01*
X168566666Y-78709523D01*
X168471428Y-78804761D01*
X168328571Y-78852380D01*
X168233333Y-78852380D01*
X169090476Y-78852380D02*
X169090476Y-77852380D01*
X169471428Y-77852380D01*
X169566666Y-77900000D01*
X169614285Y-77947619D01*
X169661904Y-78042857D01*
X169661904Y-78185714D01*
X169614285Y-78280952D01*
X169566666Y-78328571D01*
X169471428Y-78376190D01*
X169090476Y-78376190D01*
X170042857Y-77947619D02*
X170090476Y-77900000D01*
X170185714Y-77852380D01*
X170423809Y-77852380D01*
X170519047Y-77900000D01*
X170566666Y-77947619D01*
X170614285Y-78042857D01*
X170614285Y-78138095D01*
X170566666Y-78280952D01*
X169995238Y-78852380D01*
X170614285Y-78852380D01*
X171233333Y-77852380D02*
X171328571Y-77852380D01*
X171423809Y-77900000D01*
X171471428Y-77947619D01*
X171519047Y-78042857D01*
X171566666Y-78233333D01*
X171566666Y-78471428D01*
X171519047Y-78661904D01*
X171471428Y-78757142D01*
X171423809Y-78804761D01*
X171328571Y-78852380D01*
X171233333Y-78852380D01*
X171138095Y-78804761D01*
X171090476Y-78757142D01*
X171042857Y-78661904D01*
X170995238Y-78471428D01*
X170995238Y-78233333D01*
X171042857Y-78042857D01*
X171090476Y-77947619D01*
X171138095Y-77900000D01*
X171233333Y-77852380D01*
X171947619Y-77947619D02*
X171995238Y-77900000D01*
X172090476Y-77852380D01*
X172328571Y-77852380D01*
X172423809Y-77900000D01*
X172471428Y-77947619D01*
X172519047Y-78042857D01*
X172519047Y-78138095D01*
X172471428Y-78280952D01*
X171900000Y-78852380D01*
X172519047Y-78852380D01*
G04 #@! TO.C,JP203*
X168614285Y-61852380D02*
X168614285Y-62566666D01*
X168566666Y-62709523D01*
X168471428Y-62804761D01*
X168328571Y-62852380D01*
X168233333Y-62852380D01*
X169090476Y-62852380D02*
X169090476Y-61852380D01*
X169471428Y-61852380D01*
X169566666Y-61900000D01*
X169614285Y-61947619D01*
X169661904Y-62042857D01*
X169661904Y-62185714D01*
X169614285Y-62280952D01*
X169566666Y-62328571D01*
X169471428Y-62376190D01*
X169090476Y-62376190D01*
X170042857Y-61947619D02*
X170090476Y-61900000D01*
X170185714Y-61852380D01*
X170423809Y-61852380D01*
X170519047Y-61900000D01*
X170566666Y-61947619D01*
X170614285Y-62042857D01*
X170614285Y-62138095D01*
X170566666Y-62280952D01*
X169995238Y-62852380D01*
X170614285Y-62852380D01*
X171233333Y-61852380D02*
X171328571Y-61852380D01*
X171423809Y-61900000D01*
X171471428Y-61947619D01*
X171519047Y-62042857D01*
X171566666Y-62233333D01*
X171566666Y-62471428D01*
X171519047Y-62661904D01*
X171471428Y-62757142D01*
X171423809Y-62804761D01*
X171328571Y-62852380D01*
X171233333Y-62852380D01*
X171138095Y-62804761D01*
X171090476Y-62757142D01*
X171042857Y-62661904D01*
X170995238Y-62471428D01*
X170995238Y-62233333D01*
X171042857Y-62042857D01*
X171090476Y-61947619D01*
X171138095Y-61900000D01*
X171233333Y-61852380D01*
X171900000Y-61852380D02*
X172519047Y-61852380D01*
X172185714Y-62233333D01*
X172328571Y-62233333D01*
X172423809Y-62280952D01*
X172471428Y-62328571D01*
X172519047Y-62423809D01*
X172519047Y-62661904D01*
X172471428Y-62757142D01*
X172423809Y-62804761D01*
X172328571Y-62852380D01*
X172042857Y-62852380D01*
X171947619Y-62804761D01*
X171900000Y-62757142D01*
G04 #@! TO.C,J411*
X61514285Y-75852380D02*
X61514285Y-76566666D01*
X61466666Y-76709523D01*
X61371428Y-76804761D01*
X61228571Y-76852380D01*
X61133333Y-76852380D01*
X62419047Y-76185714D02*
X62419047Y-76852380D01*
X62180952Y-75804761D02*
X61942857Y-76519047D01*
X62561904Y-76519047D01*
X63466666Y-76852380D02*
X62895238Y-76852380D01*
X63180952Y-76852380D02*
X63180952Y-75852380D01*
X63085714Y-75995238D01*
X62990476Y-76090476D01*
X62895238Y-76138095D01*
X64419047Y-76852380D02*
X63847619Y-76852380D01*
X64133333Y-76852380D02*
X64133333Y-75852380D01*
X64038095Y-75995238D01*
X63942857Y-76090476D01*
X63847619Y-76138095D01*
G04 #@! TO.C,J412*
X151452380Y-83685714D02*
X152166666Y-83685714D01*
X152309523Y-83733333D01*
X152404761Y-83828571D01*
X152452380Y-83971428D01*
X152452380Y-84066666D01*
X151785714Y-82780952D02*
X152452380Y-82780952D01*
X151404761Y-83019047D02*
X152119047Y-83257142D01*
X152119047Y-82638095D01*
X152452380Y-81733333D02*
X152452380Y-82304761D01*
X152452380Y-82019047D02*
X151452380Y-82019047D01*
X151595238Y-82114285D01*
X151690476Y-82209523D01*
X151738095Y-82304761D01*
X151547619Y-81352380D02*
X151500000Y-81304761D01*
X151452380Y-81209523D01*
X151452380Y-80971428D01*
X151500000Y-80876190D01*
X151547619Y-80828571D01*
X151642857Y-80780952D01*
X151738095Y-80780952D01*
X151880952Y-80828571D01*
X152452380Y-81400000D01*
X152452380Y-80780952D01*
G04 #@! TO.C,J413*
X169914285Y-112652380D02*
X169914285Y-113366666D01*
X169866666Y-113509523D01*
X169771428Y-113604761D01*
X169628571Y-113652380D01*
X169533333Y-113652380D01*
X170819047Y-112985714D02*
X170819047Y-113652380D01*
X170580952Y-112604761D02*
X170342857Y-113319047D01*
X170961904Y-113319047D01*
X171866666Y-113652380D02*
X171295238Y-113652380D01*
X171580952Y-113652380D02*
X171580952Y-112652380D01*
X171485714Y-112795238D01*
X171390476Y-112890476D01*
X171295238Y-112938095D01*
X172200000Y-112652380D02*
X172819047Y-112652380D01*
X172485714Y-113033333D01*
X172628571Y-113033333D01*
X172723809Y-113080952D01*
X172771428Y-113128571D01*
X172819047Y-113223809D01*
X172819047Y-113461904D01*
X172771428Y-113557142D01*
X172723809Y-113604761D01*
X172628571Y-113652380D01*
X172342857Y-113652380D01*
X172247619Y-113604761D01*
X172200000Y-113557142D01*
G04 #@! TO.C,J414*
X61314285Y-87852380D02*
X61314285Y-88566666D01*
X61266666Y-88709523D01*
X61171428Y-88804761D01*
X61028571Y-88852380D01*
X60933333Y-88852380D01*
X62219047Y-88185714D02*
X62219047Y-88852380D01*
X61980952Y-87804761D02*
X61742857Y-88519047D01*
X62361904Y-88519047D01*
X63266666Y-88852380D02*
X62695238Y-88852380D01*
X62980952Y-88852380D02*
X62980952Y-87852380D01*
X62885714Y-87995238D01*
X62790476Y-88090476D01*
X62695238Y-88138095D01*
X64123809Y-88185714D02*
X64123809Y-88852380D01*
X63885714Y-87804761D02*
X63647619Y-88519047D01*
X64266666Y-88519047D01*
G04 #@! TO.C,J416*
X97514285Y-69452381D02*
X97514285Y-70166667D01*
X97466666Y-70309524D01*
X97371428Y-70404762D01*
X97228571Y-70452381D01*
X97133333Y-70452381D01*
X98419047Y-69785715D02*
X98419047Y-70452381D01*
X98180952Y-69404762D02*
X97942857Y-70119048D01*
X98561904Y-70119048D01*
X99466666Y-70452381D02*
X98895238Y-70452381D01*
X99180952Y-70452381D02*
X99180952Y-69452381D01*
X99085714Y-69595239D01*
X98990476Y-69690477D01*
X98895238Y-69738096D01*
X100323809Y-69452381D02*
X100133333Y-69452381D01*
X100038095Y-69500001D01*
X99990476Y-69547620D01*
X99895238Y-69690477D01*
X99847619Y-69880953D01*
X99847619Y-70261905D01*
X99895238Y-70357143D01*
X99942857Y-70404762D01*
X100038095Y-70452381D01*
X100228571Y-70452381D01*
X100323809Y-70404762D01*
X100371428Y-70357143D01*
X100419047Y-70261905D01*
X100419047Y-70023810D01*
X100371428Y-69928572D01*
X100323809Y-69880953D01*
X100228571Y-69833334D01*
X100038095Y-69833334D01*
X99942857Y-69880953D01*
X99895238Y-69928572D01*
X99847619Y-70023810D01*
G04 #@! TO.C,R217*
X84102380Y-72719047D02*
X83626190Y-73052380D01*
X84102380Y-73290476D02*
X83102380Y-73290476D01*
X83102380Y-72909523D01*
X83150000Y-72814285D01*
X83197619Y-72766666D01*
X83292857Y-72719047D01*
X83435714Y-72719047D01*
X83530952Y-72766666D01*
X83578571Y-72814285D01*
X83626190Y-72909523D01*
X83626190Y-73290476D01*
X83197619Y-72338095D02*
X83150000Y-72290476D01*
X83102380Y-72195238D01*
X83102380Y-71957142D01*
X83150000Y-71861904D01*
X83197619Y-71814285D01*
X83292857Y-71766666D01*
X83388095Y-71766666D01*
X83530952Y-71814285D01*
X84102380Y-72385714D01*
X84102380Y-71766666D01*
X84102380Y-70814285D02*
X84102380Y-71385714D01*
X84102380Y-71100000D02*
X83102380Y-71100000D01*
X83245238Y-71195238D01*
X83340476Y-71290476D01*
X83388095Y-71385714D01*
X83102380Y-70480952D02*
X83102380Y-69814285D01*
X84102380Y-70242857D01*
G04 #@! TD*
M02*
