M48
;DRILL file {KiCad (5.0.0)} date 03/26/21 16:55:44
;FORMAT={-:-/ absolute / inch / decimal}
FMAT,2
INCH,TZ
T1C0.0157
T2C0.0394
T3C0.0433
T4C0.0598
%
G90
G05
M72
T1
X3.1024Y-3.0945
X3.2283Y-2.3228
X3.4016Y-3.4488
X3.8031Y-3.4567
X3.874Y-2.6299
X4.1339Y-2.5669
X4.315Y-3.1732
X4.4409Y-2.5669
X4.6693Y-3.4488
X5.2047Y-2.4567
X5.252Y-2.
X5.5591Y-2.378
X5.5906Y-2.4567
X5.622Y-2.6063
X6.0315Y-3.5512
X7.0472Y-3.4653
T2
X5.8031Y-1.9677
X5.8031Y-2.0677
X5.8031Y-2.1677
X5.8031Y-2.2677
X2.7311Y-2.3803
X2.7311Y-2.4803
X2.8311Y-2.3803
X2.8311Y-2.4803
X2.9311Y-2.3803
X2.9311Y-2.4803
X3.0311Y-2.3803
X3.0311Y-2.4803
X3.1311Y-2.3803
X3.1311Y-2.4803
X3.2311Y-2.3803
X3.2311Y-2.4803
X3.3311Y-2.3803
X3.3311Y-2.4803
X3.4311Y-2.3803
X3.4311Y-2.4803
X3.5311Y-2.3803
X3.5311Y-2.4803
X3.6311Y-2.3803
X3.6311Y-2.4803
X3.7311Y-2.3803
X3.7311Y-2.4803
X3.8311Y-2.3803
X3.8311Y-2.4803
X3.9311Y-2.3803
X3.9311Y-2.4803
X4.0311Y-2.3803
X4.0311Y-2.4803
X4.1311Y-2.3803
X4.1311Y-2.4803
X4.2311Y-2.3803
X4.2311Y-2.4803
X4.3311Y-2.3803
X4.3311Y-2.4803
X4.4311Y-2.3803
X4.4311Y-2.4803
X4.5311Y-2.3803
X4.5311Y-2.4803
X4.6311Y-2.3803
X4.6311Y-2.4803
T3
X6.3976Y-3.0118
X6.3976Y-3.1118
X6.3976Y-3.2118
X3.0472Y-2.8898
X3.0472Y-2.9898
X3.0472Y-3.0898
X6.3976Y-1.8504
X6.3976Y-1.9504
X6.3976Y-2.0504
X6.3976Y-2.4311
X6.3976Y-2.5311
X6.3976Y-2.6311
T4
X5.6425Y-3.2047
X5.8425Y-3.2047
X3.9941Y-4.5984
X4.1941Y-4.5984
X2.5591Y-3.1417
X2.5591Y-3.3417
X7.5984Y-1.9063
X7.5984Y-2.1063
X2.5669Y-2.6693
X2.5669Y-2.8693
X5.8006Y-4.6161
X6.0006Y-4.6161
X7.0787Y-4.6476
X7.2787Y-4.6476
X7.5984Y-2.8906
X7.5984Y-3.0906
X6.5276Y-4.6378
X6.7276Y-4.6378
X3.3248Y-4.6083
X3.5248Y-4.6083
X3.7953Y-2.8866
X3.7953Y-3.0866
X2.7343Y-4.6181
X2.9343Y-4.6181
X4.8366Y-4.6004
X5.0366Y-4.6004
X7.5984Y-2.3984
X7.5984Y-2.5984
T0
M30
