G04 #@! TF.GenerationSoftware,KiCad,Pcbnew,(5.0.0)*
G04 #@! TF.CreationDate,2021-03-26T16:55:41-04:00*
G04 #@! TF.ProjectId,Projet_ControlledEnvironment,50726F6A65745F436F6E74726F6C6C65,2.0*
G04 #@! TF.SameCoordinates,Original*
G04 #@! TF.FileFunction,Soldermask,Bot*
G04 #@! TF.FilePolarity,Negative*
%FSLAX46Y46*%
G04 Gerber Fmt 4.6, Leading zero omitted, Abs format (unit mm)*
G04 Created by KiCad (PCBNEW (5.0.0)) date 03/26/21 16:55:41*
%MOMM*%
%LPD*%
G01*
G04 APERTURE LIST*
%ADD10O,2.400000X2.305000*%
%ADD11R,2.400000X2.305000*%
%ADD12O,2.100000X2.100000*%
%ADD13R,2.100000X2.100000*%
%ADD14C,3.400000*%
%ADD15R,3.400000X3.400000*%
G04 APERTURE END LIST*
D10*
G04 #@! TO.C,U209*
X77400000Y-78480000D03*
X77400000Y-75940000D03*
D11*
X77400000Y-73400000D03*
G04 #@! TD*
D10*
G04 #@! TO.C,U203*
X162500000Y-81580000D03*
X162500000Y-79040000D03*
D11*
X162500000Y-76500000D03*
G04 #@! TD*
D12*
G04 #@! TO.C,J201*
X84610301Y-60460000D03*
X92230301Y-63000000D03*
X112550301Y-63000000D03*
X94770301Y-60460000D03*
X97310301Y-60460000D03*
X102390301Y-60460000D03*
X107470301Y-63000000D03*
X112550301Y-60460000D03*
X82070301Y-63000000D03*
X92230301Y-60460000D03*
X79530301Y-63000000D03*
X107470301Y-60460000D03*
X71910301Y-63000000D03*
X84610301Y-63000000D03*
X71910301Y-60460000D03*
X74450301Y-60460000D03*
X115090301Y-63000000D03*
X79530301Y-60460000D03*
X94770301Y-63000000D03*
X115090301Y-60460000D03*
X76990301Y-63000000D03*
X87150301Y-63000000D03*
X69370301Y-63000000D03*
X104930301Y-63000000D03*
X89690301Y-63000000D03*
X97310301Y-63000000D03*
X69370301Y-60460000D03*
X76990301Y-60460000D03*
X74450301Y-63000000D03*
X99850301Y-63000000D03*
X117630301Y-63000000D03*
X110010301Y-60460000D03*
X89690301Y-60460000D03*
X102390301Y-63000000D03*
X104930301Y-60460000D03*
D13*
X117630301Y-60460000D03*
D12*
X87150301Y-60460000D03*
X99850301Y-60460000D03*
X110010301Y-63000000D03*
X82070301Y-60460000D03*
G04 #@! TD*
D14*
G04 #@! TO.C,J409*
X184880000Y-118050000D03*
D15*
X179800000Y-118050000D03*
G04 #@! TD*
D10*
G04 #@! TO.C,U201*
X162500000Y-52080000D03*
X162500000Y-49540000D03*
D11*
X162500000Y-47000000D03*
G04 #@! TD*
D10*
G04 #@! TO.C,U202*
X162500000Y-66830000D03*
X162500000Y-64290000D03*
D11*
X162500000Y-61750000D03*
G04 #@! TD*
D14*
G04 #@! TO.C,J401*
X193000000Y-48420000D03*
D15*
X193000000Y-53500000D03*
G04 #@! TD*
G04 #@! TO.C,J402*
X193000000Y-66000000D03*
D14*
X193000000Y-60920000D03*
G04 #@! TD*
G04 #@! TO.C,J403*
X193000000Y-73420000D03*
D15*
X193000000Y-78500000D03*
G04 #@! TD*
D13*
G04 #@! TO.C,J404*
X147400000Y-57600000D03*
D12*
X147400000Y-55060000D03*
X147400000Y-52520000D03*
X147400000Y-49980000D03*
G04 #@! TD*
D15*
G04 #@! TO.C,J405*
X69450000Y-117300000D03*
D14*
X74530000Y-117300000D03*
G04 #@! TD*
D15*
G04 #@! TO.C,J406*
X84450000Y-117050000D03*
D14*
X89530000Y-117050000D03*
G04 #@! TD*
G04 #@! TO.C,J407*
X106530000Y-116800000D03*
D15*
X101450000Y-116800000D03*
G04 #@! TD*
G04 #@! TO.C,J408*
X122850000Y-116850000D03*
D14*
X127930000Y-116850000D03*
G04 #@! TD*
D15*
G04 #@! TO.C,J410*
X147334136Y-117250000D03*
D14*
X152414135Y-117250000D03*
G04 #@! TD*
D15*
G04 #@! TO.C,J411*
X65200000Y-67800000D03*
D14*
X65200000Y-72880000D03*
G04 #@! TD*
G04 #@! TO.C,J412*
X143320000Y-81400000D03*
D15*
X148400000Y-81400000D03*
G04 #@! TD*
G04 #@! TO.C,J413*
X165800000Y-117800000D03*
D14*
X170880000Y-117800000D03*
G04 #@! TD*
G04 #@! TO.C,J414*
X65000000Y-84880000D03*
D15*
X65000000Y-79800000D03*
G04 #@! TD*
D14*
G04 #@! TO.C,J416*
X96400000Y-73320001D03*
D15*
X96400000Y-78400001D03*
G04 #@! TD*
M02*
