G04 #@! TF.GenerationSoftware,KiCad,Pcbnew,(5.0.0)*
G04 #@! TF.CreationDate,2021-03-26T16:55:41-04:00*
G04 #@! TF.ProjectId,Projet_ControlledEnvironment,50726F6A65745F436F6E74726F6C6C65,2.0*
G04 #@! TF.SameCoordinates,Original*
G04 #@! TF.FileFunction,Profile,NP*
%FSLAX46Y46*%
G04 Gerber Fmt 4.6, Leading zero omitted, Abs format (unit mm)*
G04 Created by KiCad (PCBNEW (5.0.0)) date 03/26/21 16:55:41*
%MOMM*%
%LPD*%
G01*
G04 APERTURE LIST*
%ADD10C,0.200000*%
G04 APERTURE END LIST*
D10*
X138358182Y-59344837D02*
X136608181Y-59344838D01*
X136608181Y-49044837D02*
X138358181Y-49044837D01*
X136608182Y-48044838D02*
X136608181Y-49044837D01*
X136608181Y-59344838D02*
X136608182Y-60344837D01*
X138358182Y-59344837D02*
X138358181Y-49044837D01*
X136608182Y-60344837D02*
X139358181Y-60344837D01*
X139358181Y-48044837D02*
X136608182Y-48044838D01*
X139358181Y-48044837D02*
X139358182Y-60344837D01*
X130500000Y-42000000D02*
G75*
G03X130500000Y-42000000I-2500000J0D01*
G01*
X130600000Y-60350000D02*
X133350000Y-60350000D01*
X133350000Y-48050000D02*
X130600000Y-48050001D01*
X131600000Y-49050000D02*
X131600000Y-59350000D01*
X133350001Y-49050000D02*
X133350000Y-48050000D01*
X133350000Y-60350000D02*
X133350000Y-59350000D01*
X131600000Y-49050000D02*
X133350001Y-49050000D01*
X133350000Y-59350000D02*
X131600000Y-59350000D01*
X130600000Y-60350000D02*
X130600000Y-48050000D01*
X197400000Y-42000000D02*
G75*
G03X197400000Y-42000000I-2500000J0D01*
G01*
X197700000Y-119000000D02*
G75*
G03X197700000Y-119000000I-2500000J0D01*
G01*
X65100000Y-119000000D02*
G75*
G03X65100000Y-119000000I-2500000J0D01*
G01*
X124000000Y-58000000D02*
X124000000Y-38000000D01*
X124000000Y-58000000D02*
X59000000Y-58000000D01*
X65500000Y-62000000D02*
G75*
G03X65500000Y-62000000I-2500000J0D01*
G01*
X124000000Y-38000000D02*
X199000000Y-38000000D01*
X59000000Y-123000000D02*
X59000000Y-58000000D01*
X199000000Y-123000000D02*
X59000000Y-123000000D01*
X199000000Y-38000000D02*
X199000000Y-123000000D01*
M02*
