M48
;DRILL file {KiCad (5.0.0)} date 03/27/21 00:22:32
;FORMAT={-:-/ absolute / inch / decimal}
FMAT,2
INCH,TZ
T1C0.0157
T2C0.0295
T3C0.0394
T4C0.0472
T5C0.0394
%
G90
G05
M72
T1
X5.3307Y-3.0157
X5.3465Y-3.3071
X5.3622Y-3.7402
X5.372Y-4.4862
X5.374Y-3.6757
X5.3858Y-3.311
X5.4114Y-4.4291
X5.4173Y-3.0709
X5.4234Y-2.7492
X5.4271Y-2.6595
X5.4286Y-3.7042
X5.4331Y-2.9252
X5.4396Y-2.843
X5.4606Y-3.311
X5.4764Y-3.5472
X5.4764Y-3.7079
X5.4803Y-2.8465
X5.4882Y-3.4813
X5.4921Y-3.0177
X5.4961Y-3.3386
X5.5079Y-2.5866
X5.5256Y-4.3858
X5.5453Y-3.0906
X5.5512Y-3.3031
X5.5551Y-2.5787
X5.5754Y-3.5453
X5.5879Y-4.6652
X5.6043Y-2.6063
X5.6063Y-2.752
X5.6063Y-3.4656
X5.6102Y-4.5763
X5.6142Y-2.5148
X5.6319Y-4.2402
X5.6348Y-2.8465
X5.6452Y-2.8863
X5.6535Y-3.1772
X5.6718Y-3.4045
X5.685Y-2.6063
X5.7073Y-4.2579
X5.7087Y-2.5315
X5.7224Y-4.1929
X5.7248Y-2.8283
X5.7314Y-2.4279
X5.7549Y-2.5906
X5.7638Y-2.3387
X5.7638Y-2.8031
X5.7648Y-2.7323
X5.7677Y-4.6929
X5.7717Y-3.2095
X5.7874Y-2.4213
X5.7913Y-2.7717
X5.7994Y-3.274
X5.8012Y-4.5906
X5.8111Y-3.1959
X5.815Y-3.1339
X5.8228Y-2.874
X5.8353Y-2.7648
X5.8383Y-2.4338
X5.8385Y-3.2786
X5.8526Y-2.8216
X5.8622Y-3.5709
X5.8622Y-4.0807
X5.87Y-3.1684
X5.876Y-3.0788
X5.8898Y-2.6299
X5.8929Y-3.2591
X5.9055Y-3.437
X5.907Y-3.1245
X5.9134Y-2.5679
X5.9134Y-2.4181
X5.9137Y-3.3972
X5.9139Y-3.2165
X5.9331Y-4.4921
X5.9412Y-3.4656
X5.9424Y-3.1599
X5.9547Y-4.0866
X5.9626Y-4.6713
X5.9646Y-3.9331
X5.9882Y-2.4961
X5.9921Y-3.2746
X6.0039Y-2.7992
X6.0045Y-3.1415
X6.0059Y-4.6594
X6.0079Y-3.5197
X6.0118Y-3.4469
X6.0192Y-2.4571
X6.0512Y-2.4961
X6.0551Y-2.4409
X6.063Y-4.4862
X6.0748Y-2.6417
X6.0866Y-4.3524
X6.0955Y-3.376
X6.1024Y-3.9862
X6.1102Y-3.0512
X6.1102Y-3.1496
X6.1117Y-3.3135
X6.1146Y-3.1105
X6.1457Y-3.0748
X6.1476Y-4.4094
X6.1535Y-4.3642
X6.1535Y-4.6673
X6.1575Y-2.4961
X6.1831Y-4.2992
X6.1929Y-3.0719
X6.2205Y-2.8346
X6.2231Y-2.8809
X6.2283Y-3.3898
X6.2323Y-2.6417
X6.2485Y-2.7121
X6.2756Y-2.8937
X6.2756Y-3.3327
X6.283Y-3.1895
X6.2835Y-3.1496
X6.2835Y-3.6181
X6.2974Y-4.452
X6.3071Y-4.5709
X6.3228Y-2.874
X6.3268Y-3.3386
X6.3476Y-3.0539
X6.3652Y-2.7795
X6.3836Y-3.3562
X6.3839Y-3.685
X6.3989Y-3.0245
X6.4277Y-2.9977
X6.4409Y-3.4567
X6.4449Y-2.8661
X6.4961Y-4.0236
X6.5148Y-3.9055
X6.6102Y-3.8937
X6.626Y-3.9724
X6.6811Y-3.9173
X6.689Y-3.8661
X6.7323Y-3.8189
T2
X5.8504Y-4.1614
X5.9004Y-4.1614
X5.9504Y-4.1614
T3
X6.3937Y-3.8961
X6.3937Y-3.9961
X6.3937Y-4.0961
X6.3937Y-4.1961
X6.3937Y-4.2961
X6.3937Y-4.3961
X6.3937Y-4.4961
X6.252Y-4.0614
X6.252Y-4.1614
X6.252Y-4.2614
X6.252Y-4.3614
X5.7165Y-4.9331
X5.8165Y-4.9331
X5.9165Y-4.9331
X6.0165Y-4.9331
X6.2874Y-3.0433
X6.5433Y-4.189
X6.614Y-4.1183
X6.6847Y-4.0476
X5.8079Y-4.3189
X5.9079Y-4.3189
X6.0079Y-4.3189
X5.3787Y-4.1083
X5.4787Y-4.1083
X5.5787Y-4.1083
X5.6787Y-4.1083
X5.4535Y-2.3701
X5.4535Y-2.4701
X5.5535Y-2.3701
X5.5535Y-2.4701
X5.6535Y-2.3701
X5.6535Y-2.4701
X6.3661Y-3.7559
X6.4661Y-3.7559
X6.5661Y-3.7559
X6.6661Y-3.7559
X5.378Y-4.3268
X5.478Y-4.3268
X5.578Y-4.3268
X5.678Y-4.3268
X6.5177Y-4.6063
X6.5884Y-4.5356
X6.6591Y-4.4649
X5.3268Y-2.3685
X5.3268Y-2.4685
T4
X5.6535Y-3.6988
X5.6535Y-3.8957
X6.1457Y-3.6988
X6.1457Y-3.8957
T5
X5.9331Y-2.4567
X6.1063Y-2.4567
T0
M30
