G04 #@! TF.GenerationSoftware,KiCad,Pcbnew,(5.0.0)*
G04 #@! TF.CreationDate,2021-03-27T00:22:30-04:00*
G04 #@! TF.ProjectId,Section_SensorBlock,53656374696F6E5F53656E736F72426C,1.0*
G04 #@! TF.SameCoordinates,Original*
G04 #@! TF.FileFunction,Soldermask,Top*
G04 #@! TF.FilePolarity,Negative*
%FSLAX46Y46*%
G04 Gerber Fmt 4.6, Leading zero omitted, Abs format (unit mm)*
G04 Created by KiCad (PCBNEW (5.0.0)) date 03/27/21 00:22:30*
%MOMM*%
%LPD*%
G01*
G04 APERTURE LIST*
%ADD10R,2.100000X2.100000*%
%ADD11O,2.100000X2.100000*%
%ADD12C,2.100000*%
%ADD13C,0.100000*%
%ADD14C,2.100000*%
%ADD15C,1.375000*%
%ADD16R,0.900000X2.400000*%
%ADD17R,2.400000X2.100000*%
%ADD18C,1.400000*%
%ADD19C,1.275000*%
%ADD20O,3.400000X2.900000*%
%ADD21R,2.000000X0.950000*%
%ADD22R,0.950000X2.000000*%
%ADD23C,0.700000*%
%ADD24R,0.700000X1.400000*%
%ADD25R,2.600000X1.700000*%
%ADD26R,0.800000X1.000000*%
%ADD27O,1.450000X1.900000*%
%ADD28R,1.450000X1.900000*%
%ADD29R,1.100000X0.800000*%
%ADD30R,1.630000X2.100000*%
%ADD31R,2.800000X2.400000*%
%ADD32R,1.900000X1.900000*%
%ADD33C,1.900000*%
%ADD34C,0.800000*%
G04 APERTURE END LIST*
D10*
G04 #@! TO.C,J304*
X162400000Y-114200000D03*
D11*
X162400000Y-111660000D03*
X162400000Y-109120000D03*
X162400000Y-106580000D03*
X162400000Y-104040000D03*
X162400000Y-101500000D03*
X162400000Y-98960000D03*
G04 #@! TD*
D12*
G04 #@! TO.C,JP201*
X165550000Y-117000000D03*
D13*
G36*
X167034924Y-117000000D02*
X165550000Y-118484924D01*
X164065076Y-117000000D01*
X165550000Y-115515076D01*
X167034924Y-117000000D01*
X167034924Y-117000000D01*
G37*
D12*
X167346051Y-115203949D03*
D14*
X167346051Y-115203949D02*
X167346051Y-115203949D01*
D12*
X169142102Y-113407898D03*
D14*
X169142102Y-113407898D02*
X169142102Y-113407898D01*
G04 #@! TD*
D12*
G04 #@! TO.C,JP203*
X169792102Y-102807898D03*
D14*
X169792102Y-102807898D02*
X169792102Y-102807898D01*
D12*
X167996051Y-104603949D03*
D14*
X167996051Y-104603949D02*
X167996051Y-104603949D01*
D12*
X166200000Y-106400000D03*
D13*
G36*
X167684924Y-106400000D02*
X166200000Y-107884924D01*
X164715076Y-106400000D01*
X166200000Y-104915076D01*
X167684924Y-106400000D01*
X167684924Y-106400000D01*
G37*
G04 #@! TD*
G04 #@! TO.C,C205*
G36*
X146914943Y-71701655D02*
X146948312Y-71706605D01*
X146981035Y-71714802D01*
X147012797Y-71726166D01*
X147043293Y-71740590D01*
X147072227Y-71757932D01*
X147099323Y-71778028D01*
X147124318Y-71800682D01*
X147146972Y-71825677D01*
X147167068Y-71852773D01*
X147184410Y-71881707D01*
X147198834Y-71912203D01*
X147210198Y-71943965D01*
X147218395Y-71976688D01*
X147223345Y-72010057D01*
X147225000Y-72043750D01*
X147225000Y-73156250D01*
X147223345Y-73189943D01*
X147218395Y-73223312D01*
X147210198Y-73256035D01*
X147198834Y-73287797D01*
X147184410Y-73318293D01*
X147167068Y-73347227D01*
X147146972Y-73374323D01*
X147124318Y-73399318D01*
X147099323Y-73421972D01*
X147072227Y-73442068D01*
X147043293Y-73459410D01*
X147012797Y-73473834D01*
X146981035Y-73485198D01*
X146948312Y-73493395D01*
X146914943Y-73498345D01*
X146881250Y-73500000D01*
X146193750Y-73500000D01*
X146160057Y-73498345D01*
X146126688Y-73493395D01*
X146093965Y-73485198D01*
X146062203Y-73473834D01*
X146031707Y-73459410D01*
X146002773Y-73442068D01*
X145975677Y-73421972D01*
X145950682Y-73399318D01*
X145928028Y-73374323D01*
X145907932Y-73347227D01*
X145890590Y-73318293D01*
X145876166Y-73287797D01*
X145864802Y-73256035D01*
X145856605Y-73223312D01*
X145851655Y-73189943D01*
X145850000Y-73156250D01*
X145850000Y-72043750D01*
X145851655Y-72010057D01*
X145856605Y-71976688D01*
X145864802Y-71943965D01*
X145876166Y-71912203D01*
X145890590Y-71881707D01*
X145907932Y-71852773D01*
X145928028Y-71825677D01*
X145950682Y-71800682D01*
X145975677Y-71778028D01*
X146002773Y-71757932D01*
X146031707Y-71740590D01*
X146062203Y-71726166D01*
X146093965Y-71714802D01*
X146126688Y-71706605D01*
X146160057Y-71701655D01*
X146193750Y-71700000D01*
X146881250Y-71700000D01*
X146914943Y-71701655D01*
X146914943Y-71701655D01*
G37*
D15*
X146537500Y-72600000D03*
D13*
G36*
X145039943Y-71701655D02*
X145073312Y-71706605D01*
X145106035Y-71714802D01*
X145137797Y-71726166D01*
X145168293Y-71740590D01*
X145197227Y-71757932D01*
X145224323Y-71778028D01*
X145249318Y-71800682D01*
X145271972Y-71825677D01*
X145292068Y-71852773D01*
X145309410Y-71881707D01*
X145323834Y-71912203D01*
X145335198Y-71943965D01*
X145343395Y-71976688D01*
X145348345Y-72010057D01*
X145350000Y-72043750D01*
X145350000Y-73156250D01*
X145348345Y-73189943D01*
X145343395Y-73223312D01*
X145335198Y-73256035D01*
X145323834Y-73287797D01*
X145309410Y-73318293D01*
X145292068Y-73347227D01*
X145271972Y-73374323D01*
X145249318Y-73399318D01*
X145224323Y-73421972D01*
X145197227Y-73442068D01*
X145168293Y-73459410D01*
X145137797Y-73473834D01*
X145106035Y-73485198D01*
X145073312Y-73493395D01*
X145039943Y-73498345D01*
X145006250Y-73500000D01*
X144318750Y-73500000D01*
X144285057Y-73498345D01*
X144251688Y-73493395D01*
X144218965Y-73485198D01*
X144187203Y-73473834D01*
X144156707Y-73459410D01*
X144127773Y-73442068D01*
X144100677Y-73421972D01*
X144075682Y-73399318D01*
X144053028Y-73374323D01*
X144032932Y-73347227D01*
X144015590Y-73318293D01*
X144001166Y-73287797D01*
X143989802Y-73256035D01*
X143981605Y-73223312D01*
X143976655Y-73189943D01*
X143975000Y-73156250D01*
X143975000Y-72043750D01*
X143976655Y-72010057D01*
X143981605Y-71976688D01*
X143989802Y-71943965D01*
X144001166Y-71912203D01*
X144015590Y-71881707D01*
X144032932Y-71852773D01*
X144053028Y-71825677D01*
X144075682Y-71800682D01*
X144100677Y-71778028D01*
X144127773Y-71757932D01*
X144156707Y-71740590D01*
X144187203Y-71726166D01*
X144218965Y-71714802D01*
X144251688Y-71706605D01*
X144285057Y-71701655D01*
X144318750Y-71700000D01*
X145006250Y-71700000D01*
X145039943Y-71701655D01*
X145039943Y-71701655D01*
G37*
D15*
X144662500Y-72600000D03*
G04 #@! TD*
D13*
G04 #@! TO.C,C301*
G36*
X141689943Y-96651655D02*
X141723312Y-96656605D01*
X141756035Y-96664802D01*
X141787797Y-96676166D01*
X141818293Y-96690590D01*
X141847227Y-96707932D01*
X141874323Y-96728028D01*
X141899318Y-96750682D01*
X141921972Y-96775677D01*
X141942068Y-96802773D01*
X141959410Y-96831707D01*
X141973834Y-96862203D01*
X141985198Y-96893965D01*
X141993395Y-96926688D01*
X141998345Y-96960057D01*
X142000000Y-96993750D01*
X142000000Y-97681250D01*
X141998345Y-97714943D01*
X141993395Y-97748312D01*
X141985198Y-97781035D01*
X141973834Y-97812797D01*
X141959410Y-97843293D01*
X141942068Y-97872227D01*
X141921972Y-97899323D01*
X141899318Y-97924318D01*
X141874323Y-97946972D01*
X141847227Y-97967068D01*
X141818293Y-97984410D01*
X141787797Y-97998834D01*
X141756035Y-98010198D01*
X141723312Y-98018395D01*
X141689943Y-98023345D01*
X141656250Y-98025000D01*
X140543750Y-98025000D01*
X140510057Y-98023345D01*
X140476688Y-98018395D01*
X140443965Y-98010198D01*
X140412203Y-97998834D01*
X140381707Y-97984410D01*
X140352773Y-97967068D01*
X140325677Y-97946972D01*
X140300682Y-97924318D01*
X140278028Y-97899323D01*
X140257932Y-97872227D01*
X140240590Y-97843293D01*
X140226166Y-97812797D01*
X140214802Y-97781035D01*
X140206605Y-97748312D01*
X140201655Y-97714943D01*
X140200000Y-97681250D01*
X140200000Y-96993750D01*
X140201655Y-96960057D01*
X140206605Y-96926688D01*
X140214802Y-96893965D01*
X140226166Y-96862203D01*
X140240590Y-96831707D01*
X140257932Y-96802773D01*
X140278028Y-96775677D01*
X140300682Y-96750682D01*
X140325677Y-96728028D01*
X140352773Y-96707932D01*
X140381707Y-96690590D01*
X140412203Y-96676166D01*
X140443965Y-96664802D01*
X140476688Y-96656605D01*
X140510057Y-96651655D01*
X140543750Y-96650000D01*
X141656250Y-96650000D01*
X141689943Y-96651655D01*
X141689943Y-96651655D01*
G37*
D15*
X141100000Y-97337500D03*
D13*
G36*
X141689943Y-94776655D02*
X141723312Y-94781605D01*
X141756035Y-94789802D01*
X141787797Y-94801166D01*
X141818293Y-94815590D01*
X141847227Y-94832932D01*
X141874323Y-94853028D01*
X141899318Y-94875682D01*
X141921972Y-94900677D01*
X141942068Y-94927773D01*
X141959410Y-94956707D01*
X141973834Y-94987203D01*
X141985198Y-95018965D01*
X141993395Y-95051688D01*
X141998345Y-95085057D01*
X142000000Y-95118750D01*
X142000000Y-95806250D01*
X141998345Y-95839943D01*
X141993395Y-95873312D01*
X141985198Y-95906035D01*
X141973834Y-95937797D01*
X141959410Y-95968293D01*
X141942068Y-95997227D01*
X141921972Y-96024323D01*
X141899318Y-96049318D01*
X141874323Y-96071972D01*
X141847227Y-96092068D01*
X141818293Y-96109410D01*
X141787797Y-96123834D01*
X141756035Y-96135198D01*
X141723312Y-96143395D01*
X141689943Y-96148345D01*
X141656250Y-96150000D01*
X140543750Y-96150000D01*
X140510057Y-96148345D01*
X140476688Y-96143395D01*
X140443965Y-96135198D01*
X140412203Y-96123834D01*
X140381707Y-96109410D01*
X140352773Y-96092068D01*
X140325677Y-96071972D01*
X140300682Y-96049318D01*
X140278028Y-96024323D01*
X140257932Y-95997227D01*
X140240590Y-95968293D01*
X140226166Y-95937797D01*
X140214802Y-95906035D01*
X140206605Y-95873312D01*
X140201655Y-95839943D01*
X140200000Y-95806250D01*
X140200000Y-95118750D01*
X140201655Y-95085057D01*
X140206605Y-95051688D01*
X140214802Y-95018965D01*
X140226166Y-94987203D01*
X140240590Y-94956707D01*
X140257932Y-94927773D01*
X140278028Y-94900677D01*
X140300682Y-94875682D01*
X140325677Y-94853028D01*
X140352773Y-94832932D01*
X140381707Y-94815590D01*
X140412203Y-94801166D01*
X140443965Y-94789802D01*
X140476688Y-94781605D01*
X140510057Y-94776655D01*
X140543750Y-94775000D01*
X141656250Y-94775000D01*
X141689943Y-94776655D01*
X141689943Y-94776655D01*
G37*
D15*
X141100000Y-95462500D03*
G04 #@! TD*
D13*
G04 #@! TO.C,C302*
G36*
X144789944Y-112376655D02*
X144823313Y-112381605D01*
X144856036Y-112389802D01*
X144887798Y-112401166D01*
X144918294Y-112415590D01*
X144947228Y-112432932D01*
X144974324Y-112453028D01*
X144999319Y-112475682D01*
X145021973Y-112500677D01*
X145042069Y-112527773D01*
X145059411Y-112556707D01*
X145073835Y-112587203D01*
X145085199Y-112618965D01*
X145093396Y-112651688D01*
X145098346Y-112685057D01*
X145100001Y-112718750D01*
X145100001Y-113406250D01*
X145098346Y-113439943D01*
X145093396Y-113473312D01*
X145085199Y-113506035D01*
X145073835Y-113537797D01*
X145059411Y-113568293D01*
X145042069Y-113597227D01*
X145021973Y-113624323D01*
X144999319Y-113649318D01*
X144974324Y-113671972D01*
X144947228Y-113692068D01*
X144918294Y-113709410D01*
X144887798Y-113723834D01*
X144856036Y-113735198D01*
X144823313Y-113743395D01*
X144789944Y-113748345D01*
X144756251Y-113750000D01*
X143643751Y-113750000D01*
X143610058Y-113748345D01*
X143576689Y-113743395D01*
X143543966Y-113735198D01*
X143512204Y-113723834D01*
X143481708Y-113709410D01*
X143452774Y-113692068D01*
X143425678Y-113671972D01*
X143400683Y-113649318D01*
X143378029Y-113624323D01*
X143357933Y-113597227D01*
X143340591Y-113568293D01*
X143326167Y-113537797D01*
X143314803Y-113506035D01*
X143306606Y-113473312D01*
X143301656Y-113439943D01*
X143300001Y-113406250D01*
X143300001Y-112718750D01*
X143301656Y-112685057D01*
X143306606Y-112651688D01*
X143314803Y-112618965D01*
X143326167Y-112587203D01*
X143340591Y-112556707D01*
X143357933Y-112527773D01*
X143378029Y-112500677D01*
X143400683Y-112475682D01*
X143425678Y-112453028D01*
X143452774Y-112432932D01*
X143481708Y-112415590D01*
X143512204Y-112401166D01*
X143543966Y-112389802D01*
X143576689Y-112381605D01*
X143610058Y-112376655D01*
X143643751Y-112375000D01*
X144756251Y-112375000D01*
X144789944Y-112376655D01*
X144789944Y-112376655D01*
G37*
D15*
X144200001Y-113062500D03*
D13*
G36*
X144789944Y-114251655D02*
X144823313Y-114256605D01*
X144856036Y-114264802D01*
X144887798Y-114276166D01*
X144918294Y-114290590D01*
X144947228Y-114307932D01*
X144974324Y-114328028D01*
X144999319Y-114350682D01*
X145021973Y-114375677D01*
X145042069Y-114402773D01*
X145059411Y-114431707D01*
X145073835Y-114462203D01*
X145085199Y-114493965D01*
X145093396Y-114526688D01*
X145098346Y-114560057D01*
X145100001Y-114593750D01*
X145100001Y-115281250D01*
X145098346Y-115314943D01*
X145093396Y-115348312D01*
X145085199Y-115381035D01*
X145073835Y-115412797D01*
X145059411Y-115443293D01*
X145042069Y-115472227D01*
X145021973Y-115499323D01*
X144999319Y-115524318D01*
X144974324Y-115546972D01*
X144947228Y-115567068D01*
X144918294Y-115584410D01*
X144887798Y-115598834D01*
X144856036Y-115610198D01*
X144823313Y-115618395D01*
X144789944Y-115623345D01*
X144756251Y-115625000D01*
X143643751Y-115625000D01*
X143610058Y-115623345D01*
X143576689Y-115618395D01*
X143543966Y-115610198D01*
X143512204Y-115598834D01*
X143481708Y-115584410D01*
X143452774Y-115567068D01*
X143425678Y-115546972D01*
X143400683Y-115524318D01*
X143378029Y-115499323D01*
X143357933Y-115472227D01*
X143340591Y-115443293D01*
X143326167Y-115412797D01*
X143314803Y-115381035D01*
X143306606Y-115348312D01*
X143301656Y-115314943D01*
X143300001Y-115281250D01*
X143300001Y-114593750D01*
X143301656Y-114560057D01*
X143306606Y-114526688D01*
X143314803Y-114493965D01*
X143326167Y-114462203D01*
X143340591Y-114431707D01*
X143357933Y-114402773D01*
X143378029Y-114375677D01*
X143400683Y-114350682D01*
X143425678Y-114328028D01*
X143452774Y-114307932D01*
X143481708Y-114290590D01*
X143512204Y-114276166D01*
X143543966Y-114264802D01*
X143576689Y-114256605D01*
X143610058Y-114251655D01*
X143643751Y-114250000D01*
X144756251Y-114250000D01*
X144789944Y-114251655D01*
X144789944Y-114251655D01*
G37*
D15*
X144200001Y-114937500D03*
G04 #@! TD*
D13*
G04 #@! TO.C,D201*
G36*
X152439943Y-71201655D02*
X152473312Y-71206605D01*
X152506035Y-71214802D01*
X152537797Y-71226166D01*
X152568293Y-71240590D01*
X152597227Y-71257932D01*
X152624323Y-71278028D01*
X152649318Y-71300682D01*
X152671972Y-71325677D01*
X152692068Y-71352773D01*
X152709410Y-71381707D01*
X152723834Y-71412203D01*
X152735198Y-71443965D01*
X152743395Y-71476688D01*
X152748345Y-71510057D01*
X152750000Y-71543750D01*
X152750000Y-72231250D01*
X152748345Y-72264943D01*
X152743395Y-72298312D01*
X152735198Y-72331035D01*
X152723834Y-72362797D01*
X152709410Y-72393293D01*
X152692068Y-72422227D01*
X152671972Y-72449323D01*
X152649318Y-72474318D01*
X152624323Y-72496972D01*
X152597227Y-72517068D01*
X152568293Y-72534410D01*
X152537797Y-72548834D01*
X152506035Y-72560198D01*
X152473312Y-72568395D01*
X152439943Y-72573345D01*
X152406250Y-72575000D01*
X151293750Y-72575000D01*
X151260057Y-72573345D01*
X151226688Y-72568395D01*
X151193965Y-72560198D01*
X151162203Y-72548834D01*
X151131707Y-72534410D01*
X151102773Y-72517068D01*
X151075677Y-72496972D01*
X151050682Y-72474318D01*
X151028028Y-72449323D01*
X151007932Y-72422227D01*
X150990590Y-72393293D01*
X150976166Y-72362797D01*
X150964802Y-72331035D01*
X150956605Y-72298312D01*
X150951655Y-72264943D01*
X150950000Y-72231250D01*
X150950000Y-71543750D01*
X150951655Y-71510057D01*
X150956605Y-71476688D01*
X150964802Y-71443965D01*
X150976166Y-71412203D01*
X150990590Y-71381707D01*
X151007932Y-71352773D01*
X151028028Y-71325677D01*
X151050682Y-71300682D01*
X151075677Y-71278028D01*
X151102773Y-71257932D01*
X151131707Y-71240590D01*
X151162203Y-71226166D01*
X151193965Y-71214802D01*
X151226688Y-71206605D01*
X151260057Y-71201655D01*
X151293750Y-71200000D01*
X152406250Y-71200000D01*
X152439943Y-71201655D01*
X152439943Y-71201655D01*
G37*
D15*
X151850000Y-71887500D03*
D13*
G36*
X152439943Y-69326655D02*
X152473312Y-69331605D01*
X152506035Y-69339802D01*
X152537797Y-69351166D01*
X152568293Y-69365590D01*
X152597227Y-69382932D01*
X152624323Y-69403028D01*
X152649318Y-69425682D01*
X152671972Y-69450677D01*
X152692068Y-69477773D01*
X152709410Y-69506707D01*
X152723834Y-69537203D01*
X152735198Y-69568965D01*
X152743395Y-69601688D01*
X152748345Y-69635057D01*
X152750000Y-69668750D01*
X152750000Y-70356250D01*
X152748345Y-70389943D01*
X152743395Y-70423312D01*
X152735198Y-70456035D01*
X152723834Y-70487797D01*
X152709410Y-70518293D01*
X152692068Y-70547227D01*
X152671972Y-70574323D01*
X152649318Y-70599318D01*
X152624323Y-70621972D01*
X152597227Y-70642068D01*
X152568293Y-70659410D01*
X152537797Y-70673834D01*
X152506035Y-70685198D01*
X152473312Y-70693395D01*
X152439943Y-70698345D01*
X152406250Y-70700000D01*
X151293750Y-70700000D01*
X151260057Y-70698345D01*
X151226688Y-70693395D01*
X151193965Y-70685198D01*
X151162203Y-70673834D01*
X151131707Y-70659410D01*
X151102773Y-70642068D01*
X151075677Y-70621972D01*
X151050682Y-70599318D01*
X151028028Y-70574323D01*
X151007932Y-70547227D01*
X150990590Y-70518293D01*
X150976166Y-70487797D01*
X150964802Y-70456035D01*
X150956605Y-70423312D01*
X150951655Y-70389943D01*
X150950000Y-70356250D01*
X150950000Y-69668750D01*
X150951655Y-69635057D01*
X150956605Y-69601688D01*
X150964802Y-69568965D01*
X150976166Y-69537203D01*
X150990590Y-69506707D01*
X151007932Y-69477773D01*
X151028028Y-69450677D01*
X151050682Y-69425682D01*
X151075677Y-69403028D01*
X151102773Y-69382932D01*
X151131707Y-69365590D01*
X151162203Y-69351166D01*
X151193965Y-69339802D01*
X151226688Y-69331605D01*
X151260057Y-69326655D01*
X151293750Y-69325000D01*
X152406250Y-69325000D01*
X152439943Y-69326655D01*
X152439943Y-69326655D01*
G37*
D15*
X151850000Y-70012500D03*
G04 #@! TD*
D13*
G04 #@! TO.C,D202*
G36*
X144039943Y-68201655D02*
X144073312Y-68206605D01*
X144106035Y-68214802D01*
X144137797Y-68226166D01*
X144168293Y-68240590D01*
X144197227Y-68257932D01*
X144224323Y-68278028D01*
X144249318Y-68300682D01*
X144271972Y-68325677D01*
X144292068Y-68352773D01*
X144309410Y-68381707D01*
X144323834Y-68412203D01*
X144335198Y-68443965D01*
X144343395Y-68476688D01*
X144348345Y-68510057D01*
X144350000Y-68543750D01*
X144350000Y-69656250D01*
X144348345Y-69689943D01*
X144343395Y-69723312D01*
X144335198Y-69756035D01*
X144323834Y-69787797D01*
X144309410Y-69818293D01*
X144292068Y-69847227D01*
X144271972Y-69874323D01*
X144249318Y-69899318D01*
X144224323Y-69921972D01*
X144197227Y-69942068D01*
X144168293Y-69959410D01*
X144137797Y-69973834D01*
X144106035Y-69985198D01*
X144073312Y-69993395D01*
X144039943Y-69998345D01*
X144006250Y-70000000D01*
X143318750Y-70000000D01*
X143285057Y-69998345D01*
X143251688Y-69993395D01*
X143218965Y-69985198D01*
X143187203Y-69973834D01*
X143156707Y-69959410D01*
X143127773Y-69942068D01*
X143100677Y-69921972D01*
X143075682Y-69899318D01*
X143053028Y-69874323D01*
X143032932Y-69847227D01*
X143015590Y-69818293D01*
X143001166Y-69787797D01*
X142989802Y-69756035D01*
X142981605Y-69723312D01*
X142976655Y-69689943D01*
X142975000Y-69656250D01*
X142975000Y-68543750D01*
X142976655Y-68510057D01*
X142981605Y-68476688D01*
X142989802Y-68443965D01*
X143001166Y-68412203D01*
X143015590Y-68381707D01*
X143032932Y-68352773D01*
X143053028Y-68325677D01*
X143075682Y-68300682D01*
X143100677Y-68278028D01*
X143127773Y-68257932D01*
X143156707Y-68240590D01*
X143187203Y-68226166D01*
X143218965Y-68214802D01*
X143251688Y-68206605D01*
X143285057Y-68201655D01*
X143318750Y-68200000D01*
X144006250Y-68200000D01*
X144039943Y-68201655D01*
X144039943Y-68201655D01*
G37*
D15*
X143662500Y-69100000D03*
D13*
G36*
X145914943Y-68201655D02*
X145948312Y-68206605D01*
X145981035Y-68214802D01*
X146012797Y-68226166D01*
X146043293Y-68240590D01*
X146072227Y-68257932D01*
X146099323Y-68278028D01*
X146124318Y-68300682D01*
X146146972Y-68325677D01*
X146167068Y-68352773D01*
X146184410Y-68381707D01*
X146198834Y-68412203D01*
X146210198Y-68443965D01*
X146218395Y-68476688D01*
X146223345Y-68510057D01*
X146225000Y-68543750D01*
X146225000Y-69656250D01*
X146223345Y-69689943D01*
X146218395Y-69723312D01*
X146210198Y-69756035D01*
X146198834Y-69787797D01*
X146184410Y-69818293D01*
X146167068Y-69847227D01*
X146146972Y-69874323D01*
X146124318Y-69899318D01*
X146099323Y-69921972D01*
X146072227Y-69942068D01*
X146043293Y-69959410D01*
X146012797Y-69973834D01*
X145981035Y-69985198D01*
X145948312Y-69993395D01*
X145914943Y-69998345D01*
X145881250Y-70000000D01*
X145193750Y-70000000D01*
X145160057Y-69998345D01*
X145126688Y-69993395D01*
X145093965Y-69985198D01*
X145062203Y-69973834D01*
X145031707Y-69959410D01*
X145002773Y-69942068D01*
X144975677Y-69921972D01*
X144950682Y-69899318D01*
X144928028Y-69874323D01*
X144907932Y-69847227D01*
X144890590Y-69818293D01*
X144876166Y-69787797D01*
X144864802Y-69756035D01*
X144856605Y-69723312D01*
X144851655Y-69689943D01*
X144850000Y-69656250D01*
X144850000Y-68543750D01*
X144851655Y-68510057D01*
X144856605Y-68476688D01*
X144864802Y-68443965D01*
X144876166Y-68412203D01*
X144890590Y-68381707D01*
X144907932Y-68352773D01*
X144928028Y-68325677D01*
X144950682Y-68300682D01*
X144975677Y-68278028D01*
X145002773Y-68257932D01*
X145031707Y-68240590D01*
X145062203Y-68226166D01*
X145093965Y-68214802D01*
X145126688Y-68206605D01*
X145160057Y-68201655D01*
X145193750Y-68200000D01*
X145881250Y-68200000D01*
X145914943Y-68201655D01*
X145914943Y-68201655D01*
G37*
D15*
X145537500Y-69100000D03*
G04 #@! TD*
D13*
G04 #@! TO.C,D203*
G36*
X145914943Y-66001655D02*
X145948312Y-66006605D01*
X145981035Y-66014802D01*
X146012797Y-66026166D01*
X146043293Y-66040590D01*
X146072227Y-66057932D01*
X146099323Y-66078028D01*
X146124318Y-66100682D01*
X146146972Y-66125677D01*
X146167068Y-66152773D01*
X146184410Y-66181707D01*
X146198834Y-66212203D01*
X146210198Y-66243965D01*
X146218395Y-66276688D01*
X146223345Y-66310057D01*
X146225000Y-66343750D01*
X146225000Y-67456250D01*
X146223345Y-67489943D01*
X146218395Y-67523312D01*
X146210198Y-67556035D01*
X146198834Y-67587797D01*
X146184410Y-67618293D01*
X146167068Y-67647227D01*
X146146972Y-67674323D01*
X146124318Y-67699318D01*
X146099323Y-67721972D01*
X146072227Y-67742068D01*
X146043293Y-67759410D01*
X146012797Y-67773834D01*
X145981035Y-67785198D01*
X145948312Y-67793395D01*
X145914943Y-67798345D01*
X145881250Y-67800000D01*
X145193750Y-67800000D01*
X145160057Y-67798345D01*
X145126688Y-67793395D01*
X145093965Y-67785198D01*
X145062203Y-67773834D01*
X145031707Y-67759410D01*
X145002773Y-67742068D01*
X144975677Y-67721972D01*
X144950682Y-67699318D01*
X144928028Y-67674323D01*
X144907932Y-67647227D01*
X144890590Y-67618293D01*
X144876166Y-67587797D01*
X144864802Y-67556035D01*
X144856605Y-67523312D01*
X144851655Y-67489943D01*
X144850000Y-67456250D01*
X144850000Y-66343750D01*
X144851655Y-66310057D01*
X144856605Y-66276688D01*
X144864802Y-66243965D01*
X144876166Y-66212203D01*
X144890590Y-66181707D01*
X144907932Y-66152773D01*
X144928028Y-66125677D01*
X144950682Y-66100682D01*
X144975677Y-66078028D01*
X145002773Y-66057932D01*
X145031707Y-66040590D01*
X145062203Y-66026166D01*
X145093965Y-66014802D01*
X145126688Y-66006605D01*
X145160057Y-66001655D01*
X145193750Y-66000000D01*
X145881250Y-66000000D01*
X145914943Y-66001655D01*
X145914943Y-66001655D01*
G37*
D15*
X145537500Y-66900000D03*
D13*
G36*
X144039943Y-66001655D02*
X144073312Y-66006605D01*
X144106035Y-66014802D01*
X144137797Y-66026166D01*
X144168293Y-66040590D01*
X144197227Y-66057932D01*
X144224323Y-66078028D01*
X144249318Y-66100682D01*
X144271972Y-66125677D01*
X144292068Y-66152773D01*
X144309410Y-66181707D01*
X144323834Y-66212203D01*
X144335198Y-66243965D01*
X144343395Y-66276688D01*
X144348345Y-66310057D01*
X144350000Y-66343750D01*
X144350000Y-67456250D01*
X144348345Y-67489943D01*
X144343395Y-67523312D01*
X144335198Y-67556035D01*
X144323834Y-67587797D01*
X144309410Y-67618293D01*
X144292068Y-67647227D01*
X144271972Y-67674323D01*
X144249318Y-67699318D01*
X144224323Y-67721972D01*
X144197227Y-67742068D01*
X144168293Y-67759410D01*
X144137797Y-67773834D01*
X144106035Y-67785198D01*
X144073312Y-67793395D01*
X144039943Y-67798345D01*
X144006250Y-67800000D01*
X143318750Y-67800000D01*
X143285057Y-67798345D01*
X143251688Y-67793395D01*
X143218965Y-67785198D01*
X143187203Y-67773834D01*
X143156707Y-67759410D01*
X143127773Y-67742068D01*
X143100677Y-67721972D01*
X143075682Y-67699318D01*
X143053028Y-67674323D01*
X143032932Y-67647227D01*
X143015590Y-67618293D01*
X143001166Y-67587797D01*
X142989802Y-67556035D01*
X142981605Y-67523312D01*
X142976655Y-67489943D01*
X142975000Y-67456250D01*
X142975000Y-66343750D01*
X142976655Y-66310057D01*
X142981605Y-66276688D01*
X142989802Y-66243965D01*
X143001166Y-66212203D01*
X143015590Y-66181707D01*
X143032932Y-66152773D01*
X143053028Y-66125677D01*
X143075682Y-66100682D01*
X143100677Y-66078028D01*
X143127773Y-66057932D01*
X143156707Y-66040590D01*
X143187203Y-66026166D01*
X143218965Y-66014802D01*
X143251688Y-66006605D01*
X143285057Y-66001655D01*
X143318750Y-66000000D01*
X144006250Y-66000000D01*
X144039943Y-66001655D01*
X144039943Y-66001655D01*
G37*
D15*
X143662500Y-66900000D03*
G04 #@! TD*
D13*
G04 #@! TO.C,D205*
G36*
X156802442Y-82651655D02*
X156835811Y-82656605D01*
X156868534Y-82664802D01*
X156900296Y-82676166D01*
X156930792Y-82690590D01*
X156959726Y-82707932D01*
X156986822Y-82728028D01*
X157011817Y-82750682D01*
X157034471Y-82775677D01*
X157054567Y-82802773D01*
X157071909Y-82831707D01*
X157086333Y-82862203D01*
X157097697Y-82893965D01*
X157105894Y-82926688D01*
X157110844Y-82960057D01*
X157112499Y-82993750D01*
X157112499Y-84106250D01*
X157110844Y-84139943D01*
X157105894Y-84173312D01*
X157097697Y-84206035D01*
X157086333Y-84237797D01*
X157071909Y-84268293D01*
X157054567Y-84297227D01*
X157034471Y-84324323D01*
X157011817Y-84349318D01*
X156986822Y-84371972D01*
X156959726Y-84392068D01*
X156930792Y-84409410D01*
X156900296Y-84423834D01*
X156868534Y-84435198D01*
X156835811Y-84443395D01*
X156802442Y-84448345D01*
X156768749Y-84450000D01*
X156081249Y-84450000D01*
X156047556Y-84448345D01*
X156014187Y-84443395D01*
X155981464Y-84435198D01*
X155949702Y-84423834D01*
X155919206Y-84409410D01*
X155890272Y-84392068D01*
X155863176Y-84371972D01*
X155838181Y-84349318D01*
X155815527Y-84324323D01*
X155795431Y-84297227D01*
X155778089Y-84268293D01*
X155763665Y-84237797D01*
X155752301Y-84206035D01*
X155744104Y-84173312D01*
X155739154Y-84139943D01*
X155737499Y-84106250D01*
X155737499Y-82993750D01*
X155739154Y-82960057D01*
X155744104Y-82926688D01*
X155752301Y-82893965D01*
X155763665Y-82862203D01*
X155778089Y-82831707D01*
X155795431Y-82802773D01*
X155815527Y-82775677D01*
X155838181Y-82750682D01*
X155863176Y-82728028D01*
X155890272Y-82707932D01*
X155919206Y-82690590D01*
X155949702Y-82676166D01*
X155981464Y-82664802D01*
X156014187Y-82656605D01*
X156047556Y-82651655D01*
X156081249Y-82650000D01*
X156768749Y-82650000D01*
X156802442Y-82651655D01*
X156802442Y-82651655D01*
G37*
D15*
X156424999Y-83550000D03*
D13*
G36*
X158677442Y-82651655D02*
X158710811Y-82656605D01*
X158743534Y-82664802D01*
X158775296Y-82676166D01*
X158805792Y-82690590D01*
X158834726Y-82707932D01*
X158861822Y-82728028D01*
X158886817Y-82750682D01*
X158909471Y-82775677D01*
X158929567Y-82802773D01*
X158946909Y-82831707D01*
X158961333Y-82862203D01*
X158972697Y-82893965D01*
X158980894Y-82926688D01*
X158985844Y-82960057D01*
X158987499Y-82993750D01*
X158987499Y-84106250D01*
X158985844Y-84139943D01*
X158980894Y-84173312D01*
X158972697Y-84206035D01*
X158961333Y-84237797D01*
X158946909Y-84268293D01*
X158929567Y-84297227D01*
X158909471Y-84324323D01*
X158886817Y-84349318D01*
X158861822Y-84371972D01*
X158834726Y-84392068D01*
X158805792Y-84409410D01*
X158775296Y-84423834D01*
X158743534Y-84435198D01*
X158710811Y-84443395D01*
X158677442Y-84448345D01*
X158643749Y-84450000D01*
X157956249Y-84450000D01*
X157922556Y-84448345D01*
X157889187Y-84443395D01*
X157856464Y-84435198D01*
X157824702Y-84423834D01*
X157794206Y-84409410D01*
X157765272Y-84392068D01*
X157738176Y-84371972D01*
X157713181Y-84349318D01*
X157690527Y-84324323D01*
X157670431Y-84297227D01*
X157653089Y-84268293D01*
X157638665Y-84237797D01*
X157627301Y-84206035D01*
X157619104Y-84173312D01*
X157614154Y-84139943D01*
X157612499Y-84106250D01*
X157612499Y-82993750D01*
X157614154Y-82960057D01*
X157619104Y-82926688D01*
X157627301Y-82893965D01*
X157638665Y-82862203D01*
X157653089Y-82831707D01*
X157670431Y-82802773D01*
X157690527Y-82775677D01*
X157713181Y-82750682D01*
X157738176Y-82728028D01*
X157765272Y-82707932D01*
X157794206Y-82690590D01*
X157824702Y-82676166D01*
X157856464Y-82664802D01*
X157889187Y-82656605D01*
X157922556Y-82651655D01*
X157956249Y-82650000D01*
X158643749Y-82650000D01*
X158677442Y-82651655D01*
X158677442Y-82651655D01*
G37*
D15*
X158299999Y-83550000D03*
G04 #@! TD*
D13*
G04 #@! TO.C,D206*
G36*
X136864943Y-65701654D02*
X136898312Y-65706604D01*
X136931035Y-65714801D01*
X136962797Y-65726165D01*
X136993293Y-65740589D01*
X137022227Y-65757931D01*
X137049323Y-65778027D01*
X137074318Y-65800681D01*
X137096972Y-65825676D01*
X137117068Y-65852772D01*
X137134410Y-65881706D01*
X137148834Y-65912202D01*
X137160198Y-65943964D01*
X137168395Y-65976687D01*
X137173345Y-66010056D01*
X137175000Y-66043749D01*
X137175000Y-67156249D01*
X137173345Y-67189942D01*
X137168395Y-67223311D01*
X137160198Y-67256034D01*
X137148834Y-67287796D01*
X137134410Y-67318292D01*
X137117068Y-67347226D01*
X137096972Y-67374322D01*
X137074318Y-67399317D01*
X137049323Y-67421971D01*
X137022227Y-67442067D01*
X136993293Y-67459409D01*
X136962797Y-67473833D01*
X136931035Y-67485197D01*
X136898312Y-67493394D01*
X136864943Y-67498344D01*
X136831250Y-67499999D01*
X136143750Y-67499999D01*
X136110057Y-67498344D01*
X136076688Y-67493394D01*
X136043965Y-67485197D01*
X136012203Y-67473833D01*
X135981707Y-67459409D01*
X135952773Y-67442067D01*
X135925677Y-67421971D01*
X135900682Y-67399317D01*
X135878028Y-67374322D01*
X135857932Y-67347226D01*
X135840590Y-67318292D01*
X135826166Y-67287796D01*
X135814802Y-67256034D01*
X135806605Y-67223311D01*
X135801655Y-67189942D01*
X135800000Y-67156249D01*
X135800000Y-66043749D01*
X135801655Y-66010056D01*
X135806605Y-65976687D01*
X135814802Y-65943964D01*
X135826166Y-65912202D01*
X135840590Y-65881706D01*
X135857932Y-65852772D01*
X135878028Y-65825676D01*
X135900682Y-65800681D01*
X135925677Y-65778027D01*
X135952773Y-65757931D01*
X135981707Y-65740589D01*
X136012203Y-65726165D01*
X136043965Y-65714801D01*
X136076688Y-65706604D01*
X136110057Y-65701654D01*
X136143750Y-65699999D01*
X136831250Y-65699999D01*
X136864943Y-65701654D01*
X136864943Y-65701654D01*
G37*
D15*
X136487500Y-66599999D03*
D13*
G36*
X134989943Y-65701654D02*
X135023312Y-65706604D01*
X135056035Y-65714801D01*
X135087797Y-65726165D01*
X135118293Y-65740589D01*
X135147227Y-65757931D01*
X135174323Y-65778027D01*
X135199318Y-65800681D01*
X135221972Y-65825676D01*
X135242068Y-65852772D01*
X135259410Y-65881706D01*
X135273834Y-65912202D01*
X135285198Y-65943964D01*
X135293395Y-65976687D01*
X135298345Y-66010056D01*
X135300000Y-66043749D01*
X135300000Y-67156249D01*
X135298345Y-67189942D01*
X135293395Y-67223311D01*
X135285198Y-67256034D01*
X135273834Y-67287796D01*
X135259410Y-67318292D01*
X135242068Y-67347226D01*
X135221972Y-67374322D01*
X135199318Y-67399317D01*
X135174323Y-67421971D01*
X135147227Y-67442067D01*
X135118293Y-67459409D01*
X135087797Y-67473833D01*
X135056035Y-67485197D01*
X135023312Y-67493394D01*
X134989943Y-67498344D01*
X134956250Y-67499999D01*
X134268750Y-67499999D01*
X134235057Y-67498344D01*
X134201688Y-67493394D01*
X134168965Y-67485197D01*
X134137203Y-67473833D01*
X134106707Y-67459409D01*
X134077773Y-67442067D01*
X134050677Y-67421971D01*
X134025682Y-67399317D01*
X134003028Y-67374322D01*
X133982932Y-67347226D01*
X133965590Y-67318292D01*
X133951166Y-67287796D01*
X133939802Y-67256034D01*
X133931605Y-67223311D01*
X133926655Y-67189942D01*
X133925000Y-67156249D01*
X133925000Y-66043749D01*
X133926655Y-66010056D01*
X133931605Y-65976687D01*
X133939802Y-65943964D01*
X133951166Y-65912202D01*
X133965590Y-65881706D01*
X133982932Y-65852772D01*
X134003028Y-65825676D01*
X134025682Y-65800681D01*
X134050677Y-65778027D01*
X134077773Y-65757931D01*
X134106707Y-65740589D01*
X134137203Y-65726165D01*
X134168965Y-65714801D01*
X134201688Y-65706604D01*
X134235057Y-65701654D01*
X134268750Y-65699999D01*
X134956250Y-65699999D01*
X134989943Y-65701654D01*
X134989943Y-65701654D01*
G37*
D15*
X134612500Y-66599999D03*
G04 #@! TD*
D13*
G04 #@! TO.C,D207*
G36*
X134989943Y-67951655D02*
X135023312Y-67956605D01*
X135056035Y-67964802D01*
X135087797Y-67976166D01*
X135118293Y-67990590D01*
X135147227Y-68007932D01*
X135174323Y-68028028D01*
X135199318Y-68050682D01*
X135221972Y-68075677D01*
X135242068Y-68102773D01*
X135259410Y-68131707D01*
X135273834Y-68162203D01*
X135285198Y-68193965D01*
X135293395Y-68226688D01*
X135298345Y-68260057D01*
X135300000Y-68293750D01*
X135300000Y-69406250D01*
X135298345Y-69439943D01*
X135293395Y-69473312D01*
X135285198Y-69506035D01*
X135273834Y-69537797D01*
X135259410Y-69568293D01*
X135242068Y-69597227D01*
X135221972Y-69624323D01*
X135199318Y-69649318D01*
X135174323Y-69671972D01*
X135147227Y-69692068D01*
X135118293Y-69709410D01*
X135087797Y-69723834D01*
X135056035Y-69735198D01*
X135023312Y-69743395D01*
X134989943Y-69748345D01*
X134956250Y-69750000D01*
X134268750Y-69750000D01*
X134235057Y-69748345D01*
X134201688Y-69743395D01*
X134168965Y-69735198D01*
X134137203Y-69723834D01*
X134106707Y-69709410D01*
X134077773Y-69692068D01*
X134050677Y-69671972D01*
X134025682Y-69649318D01*
X134003028Y-69624323D01*
X133982932Y-69597227D01*
X133965590Y-69568293D01*
X133951166Y-69537797D01*
X133939802Y-69506035D01*
X133931605Y-69473312D01*
X133926655Y-69439943D01*
X133925000Y-69406250D01*
X133925000Y-68293750D01*
X133926655Y-68260057D01*
X133931605Y-68226688D01*
X133939802Y-68193965D01*
X133951166Y-68162203D01*
X133965590Y-68131707D01*
X133982932Y-68102773D01*
X134003028Y-68075677D01*
X134025682Y-68050682D01*
X134050677Y-68028028D01*
X134077773Y-68007932D01*
X134106707Y-67990590D01*
X134137203Y-67976166D01*
X134168965Y-67964802D01*
X134201688Y-67956605D01*
X134235057Y-67951655D01*
X134268750Y-67950000D01*
X134956250Y-67950000D01*
X134989943Y-67951655D01*
X134989943Y-67951655D01*
G37*
D15*
X134612500Y-68850000D03*
D13*
G36*
X136864943Y-67951655D02*
X136898312Y-67956605D01*
X136931035Y-67964802D01*
X136962797Y-67976166D01*
X136993293Y-67990590D01*
X137022227Y-68007932D01*
X137049323Y-68028028D01*
X137074318Y-68050682D01*
X137096972Y-68075677D01*
X137117068Y-68102773D01*
X137134410Y-68131707D01*
X137148834Y-68162203D01*
X137160198Y-68193965D01*
X137168395Y-68226688D01*
X137173345Y-68260057D01*
X137175000Y-68293750D01*
X137175000Y-69406250D01*
X137173345Y-69439943D01*
X137168395Y-69473312D01*
X137160198Y-69506035D01*
X137148834Y-69537797D01*
X137134410Y-69568293D01*
X137117068Y-69597227D01*
X137096972Y-69624323D01*
X137074318Y-69649318D01*
X137049323Y-69671972D01*
X137022227Y-69692068D01*
X136993293Y-69709410D01*
X136962797Y-69723834D01*
X136931035Y-69735198D01*
X136898312Y-69743395D01*
X136864943Y-69748345D01*
X136831250Y-69750000D01*
X136143750Y-69750000D01*
X136110057Y-69748345D01*
X136076688Y-69743395D01*
X136043965Y-69735198D01*
X136012203Y-69723834D01*
X135981707Y-69709410D01*
X135952773Y-69692068D01*
X135925677Y-69671972D01*
X135900682Y-69649318D01*
X135878028Y-69624323D01*
X135857932Y-69597227D01*
X135840590Y-69568293D01*
X135826166Y-69537797D01*
X135814802Y-69506035D01*
X135806605Y-69473312D01*
X135801655Y-69439943D01*
X135800000Y-69406250D01*
X135800000Y-68293750D01*
X135801655Y-68260057D01*
X135806605Y-68226688D01*
X135814802Y-68193965D01*
X135826166Y-68162203D01*
X135840590Y-68131707D01*
X135857932Y-68102773D01*
X135878028Y-68075677D01*
X135900682Y-68050682D01*
X135925677Y-68028028D01*
X135952773Y-68007932D01*
X135981707Y-67990590D01*
X136012203Y-67976166D01*
X136043965Y-67964802D01*
X136076688Y-67956605D01*
X136110057Y-67951655D01*
X136143750Y-67950000D01*
X136831250Y-67950000D01*
X136864943Y-67951655D01*
X136864943Y-67951655D01*
G37*
D15*
X136487500Y-68850000D03*
G04 #@! TD*
D13*
G04 #@! TO.C,D208*
G36*
X136819943Y-70181654D02*
X136853312Y-70186604D01*
X136886035Y-70194801D01*
X136917797Y-70206165D01*
X136948293Y-70220589D01*
X136977227Y-70237931D01*
X137004323Y-70258027D01*
X137029318Y-70280681D01*
X137051972Y-70305676D01*
X137072068Y-70332772D01*
X137089410Y-70361706D01*
X137103834Y-70392202D01*
X137115198Y-70423964D01*
X137123395Y-70456687D01*
X137128345Y-70490056D01*
X137130000Y-70523749D01*
X137130000Y-71636249D01*
X137128345Y-71669942D01*
X137123395Y-71703311D01*
X137115198Y-71736034D01*
X137103834Y-71767796D01*
X137089410Y-71798292D01*
X137072068Y-71827226D01*
X137051972Y-71854322D01*
X137029318Y-71879317D01*
X137004323Y-71901971D01*
X136977227Y-71922067D01*
X136948293Y-71939409D01*
X136917797Y-71953833D01*
X136886035Y-71965197D01*
X136853312Y-71973394D01*
X136819943Y-71978344D01*
X136786250Y-71979999D01*
X136098750Y-71979999D01*
X136065057Y-71978344D01*
X136031688Y-71973394D01*
X135998965Y-71965197D01*
X135967203Y-71953833D01*
X135936707Y-71939409D01*
X135907773Y-71922067D01*
X135880677Y-71901971D01*
X135855682Y-71879317D01*
X135833028Y-71854322D01*
X135812932Y-71827226D01*
X135795590Y-71798292D01*
X135781166Y-71767796D01*
X135769802Y-71736034D01*
X135761605Y-71703311D01*
X135756655Y-71669942D01*
X135755000Y-71636249D01*
X135755000Y-70523749D01*
X135756655Y-70490056D01*
X135761605Y-70456687D01*
X135769802Y-70423964D01*
X135781166Y-70392202D01*
X135795590Y-70361706D01*
X135812932Y-70332772D01*
X135833028Y-70305676D01*
X135855682Y-70280681D01*
X135880677Y-70258027D01*
X135907773Y-70237931D01*
X135936707Y-70220589D01*
X135967203Y-70206165D01*
X135998965Y-70194801D01*
X136031688Y-70186604D01*
X136065057Y-70181654D01*
X136098750Y-70179999D01*
X136786250Y-70179999D01*
X136819943Y-70181654D01*
X136819943Y-70181654D01*
G37*
D15*
X136442500Y-71079999D03*
D13*
G36*
X134944943Y-70181654D02*
X134978312Y-70186604D01*
X135011035Y-70194801D01*
X135042797Y-70206165D01*
X135073293Y-70220589D01*
X135102227Y-70237931D01*
X135129323Y-70258027D01*
X135154318Y-70280681D01*
X135176972Y-70305676D01*
X135197068Y-70332772D01*
X135214410Y-70361706D01*
X135228834Y-70392202D01*
X135240198Y-70423964D01*
X135248395Y-70456687D01*
X135253345Y-70490056D01*
X135255000Y-70523749D01*
X135255000Y-71636249D01*
X135253345Y-71669942D01*
X135248395Y-71703311D01*
X135240198Y-71736034D01*
X135228834Y-71767796D01*
X135214410Y-71798292D01*
X135197068Y-71827226D01*
X135176972Y-71854322D01*
X135154318Y-71879317D01*
X135129323Y-71901971D01*
X135102227Y-71922067D01*
X135073293Y-71939409D01*
X135042797Y-71953833D01*
X135011035Y-71965197D01*
X134978312Y-71973394D01*
X134944943Y-71978344D01*
X134911250Y-71979999D01*
X134223750Y-71979999D01*
X134190057Y-71978344D01*
X134156688Y-71973394D01*
X134123965Y-71965197D01*
X134092203Y-71953833D01*
X134061707Y-71939409D01*
X134032773Y-71922067D01*
X134005677Y-71901971D01*
X133980682Y-71879317D01*
X133958028Y-71854322D01*
X133937932Y-71827226D01*
X133920590Y-71798292D01*
X133906166Y-71767796D01*
X133894802Y-71736034D01*
X133886605Y-71703311D01*
X133881655Y-71669942D01*
X133880000Y-71636249D01*
X133880000Y-70523749D01*
X133881655Y-70490056D01*
X133886605Y-70456687D01*
X133894802Y-70423964D01*
X133906166Y-70392202D01*
X133920590Y-70361706D01*
X133937932Y-70332772D01*
X133958028Y-70305676D01*
X133980682Y-70280681D01*
X134005677Y-70258027D01*
X134032773Y-70237931D01*
X134061707Y-70220589D01*
X134092203Y-70206165D01*
X134123965Y-70194801D01*
X134156688Y-70186604D01*
X134190057Y-70181654D01*
X134223750Y-70179999D01*
X134911250Y-70179999D01*
X134944943Y-70181654D01*
X134944943Y-70181654D01*
G37*
D15*
X134567500Y-71079999D03*
G04 #@! TD*
D13*
G04 #@! TO.C,D209*
G36*
X134989944Y-72301655D02*
X135023313Y-72306605D01*
X135056036Y-72314802D01*
X135087798Y-72326166D01*
X135118294Y-72340590D01*
X135147228Y-72357932D01*
X135174324Y-72378028D01*
X135199319Y-72400682D01*
X135221973Y-72425677D01*
X135242069Y-72452773D01*
X135259411Y-72481707D01*
X135273835Y-72512203D01*
X135285199Y-72543965D01*
X135293396Y-72576688D01*
X135298346Y-72610057D01*
X135300001Y-72643750D01*
X135300001Y-73756250D01*
X135298346Y-73789943D01*
X135293396Y-73823312D01*
X135285199Y-73856035D01*
X135273835Y-73887797D01*
X135259411Y-73918293D01*
X135242069Y-73947227D01*
X135221973Y-73974323D01*
X135199319Y-73999318D01*
X135174324Y-74021972D01*
X135147228Y-74042068D01*
X135118294Y-74059410D01*
X135087798Y-74073834D01*
X135056036Y-74085198D01*
X135023313Y-74093395D01*
X134989944Y-74098345D01*
X134956251Y-74100000D01*
X134268751Y-74100000D01*
X134235058Y-74098345D01*
X134201689Y-74093395D01*
X134168966Y-74085198D01*
X134137204Y-74073834D01*
X134106708Y-74059410D01*
X134077774Y-74042068D01*
X134050678Y-74021972D01*
X134025683Y-73999318D01*
X134003029Y-73974323D01*
X133982933Y-73947227D01*
X133965591Y-73918293D01*
X133951167Y-73887797D01*
X133939803Y-73856035D01*
X133931606Y-73823312D01*
X133926656Y-73789943D01*
X133925001Y-73756250D01*
X133925001Y-72643750D01*
X133926656Y-72610057D01*
X133931606Y-72576688D01*
X133939803Y-72543965D01*
X133951167Y-72512203D01*
X133965591Y-72481707D01*
X133982933Y-72452773D01*
X134003029Y-72425677D01*
X134025683Y-72400682D01*
X134050678Y-72378028D01*
X134077774Y-72357932D01*
X134106708Y-72340590D01*
X134137204Y-72326166D01*
X134168966Y-72314802D01*
X134201689Y-72306605D01*
X134235058Y-72301655D01*
X134268751Y-72300000D01*
X134956251Y-72300000D01*
X134989944Y-72301655D01*
X134989944Y-72301655D01*
G37*
D15*
X134612501Y-73200000D03*
D13*
G36*
X136864944Y-72301655D02*
X136898313Y-72306605D01*
X136931036Y-72314802D01*
X136962798Y-72326166D01*
X136993294Y-72340590D01*
X137022228Y-72357932D01*
X137049324Y-72378028D01*
X137074319Y-72400682D01*
X137096973Y-72425677D01*
X137117069Y-72452773D01*
X137134411Y-72481707D01*
X137148835Y-72512203D01*
X137160199Y-72543965D01*
X137168396Y-72576688D01*
X137173346Y-72610057D01*
X137175001Y-72643750D01*
X137175001Y-73756250D01*
X137173346Y-73789943D01*
X137168396Y-73823312D01*
X137160199Y-73856035D01*
X137148835Y-73887797D01*
X137134411Y-73918293D01*
X137117069Y-73947227D01*
X137096973Y-73974323D01*
X137074319Y-73999318D01*
X137049324Y-74021972D01*
X137022228Y-74042068D01*
X136993294Y-74059410D01*
X136962798Y-74073834D01*
X136931036Y-74085198D01*
X136898313Y-74093395D01*
X136864944Y-74098345D01*
X136831251Y-74100000D01*
X136143751Y-74100000D01*
X136110058Y-74098345D01*
X136076689Y-74093395D01*
X136043966Y-74085198D01*
X136012204Y-74073834D01*
X135981708Y-74059410D01*
X135952774Y-74042068D01*
X135925678Y-74021972D01*
X135900683Y-73999318D01*
X135878029Y-73974323D01*
X135857933Y-73947227D01*
X135840591Y-73918293D01*
X135826167Y-73887797D01*
X135814803Y-73856035D01*
X135806606Y-73823312D01*
X135801656Y-73789943D01*
X135800001Y-73756250D01*
X135800001Y-72643750D01*
X135801656Y-72610057D01*
X135806606Y-72576688D01*
X135814803Y-72543965D01*
X135826167Y-72512203D01*
X135840591Y-72481707D01*
X135857933Y-72452773D01*
X135878029Y-72425677D01*
X135900683Y-72400682D01*
X135925678Y-72378028D01*
X135952774Y-72357932D01*
X135981708Y-72340590D01*
X136012204Y-72326166D01*
X136043966Y-72314802D01*
X136076689Y-72306605D01*
X136110058Y-72301655D01*
X136143751Y-72300000D01*
X136831251Y-72300000D01*
X136864944Y-72301655D01*
X136864944Y-72301655D01*
G37*
D15*
X136487501Y-73200000D03*
G04 #@! TD*
D13*
G04 #@! TO.C,D210*
G36*
X136864943Y-74501655D02*
X136898312Y-74506605D01*
X136931035Y-74514802D01*
X136962797Y-74526166D01*
X136993293Y-74540590D01*
X137022227Y-74557932D01*
X137049323Y-74578028D01*
X137074318Y-74600682D01*
X137096972Y-74625677D01*
X137117068Y-74652773D01*
X137134410Y-74681707D01*
X137148834Y-74712203D01*
X137160198Y-74743965D01*
X137168395Y-74776688D01*
X137173345Y-74810057D01*
X137175000Y-74843750D01*
X137175000Y-75956250D01*
X137173345Y-75989943D01*
X137168395Y-76023312D01*
X137160198Y-76056035D01*
X137148834Y-76087797D01*
X137134410Y-76118293D01*
X137117068Y-76147227D01*
X137096972Y-76174323D01*
X137074318Y-76199318D01*
X137049323Y-76221972D01*
X137022227Y-76242068D01*
X136993293Y-76259410D01*
X136962797Y-76273834D01*
X136931035Y-76285198D01*
X136898312Y-76293395D01*
X136864943Y-76298345D01*
X136831250Y-76300000D01*
X136143750Y-76300000D01*
X136110057Y-76298345D01*
X136076688Y-76293395D01*
X136043965Y-76285198D01*
X136012203Y-76273834D01*
X135981707Y-76259410D01*
X135952773Y-76242068D01*
X135925677Y-76221972D01*
X135900682Y-76199318D01*
X135878028Y-76174323D01*
X135857932Y-76147227D01*
X135840590Y-76118293D01*
X135826166Y-76087797D01*
X135814802Y-76056035D01*
X135806605Y-76023312D01*
X135801655Y-75989943D01*
X135800000Y-75956250D01*
X135800000Y-74843750D01*
X135801655Y-74810057D01*
X135806605Y-74776688D01*
X135814802Y-74743965D01*
X135826166Y-74712203D01*
X135840590Y-74681707D01*
X135857932Y-74652773D01*
X135878028Y-74625677D01*
X135900682Y-74600682D01*
X135925677Y-74578028D01*
X135952773Y-74557932D01*
X135981707Y-74540590D01*
X136012203Y-74526166D01*
X136043965Y-74514802D01*
X136076688Y-74506605D01*
X136110057Y-74501655D01*
X136143750Y-74500000D01*
X136831250Y-74500000D01*
X136864943Y-74501655D01*
X136864943Y-74501655D01*
G37*
D15*
X136487500Y-75400000D03*
D13*
G36*
X134989943Y-74501655D02*
X135023312Y-74506605D01*
X135056035Y-74514802D01*
X135087797Y-74526166D01*
X135118293Y-74540590D01*
X135147227Y-74557932D01*
X135174323Y-74578028D01*
X135199318Y-74600682D01*
X135221972Y-74625677D01*
X135242068Y-74652773D01*
X135259410Y-74681707D01*
X135273834Y-74712203D01*
X135285198Y-74743965D01*
X135293395Y-74776688D01*
X135298345Y-74810057D01*
X135300000Y-74843750D01*
X135300000Y-75956250D01*
X135298345Y-75989943D01*
X135293395Y-76023312D01*
X135285198Y-76056035D01*
X135273834Y-76087797D01*
X135259410Y-76118293D01*
X135242068Y-76147227D01*
X135221972Y-76174323D01*
X135199318Y-76199318D01*
X135174323Y-76221972D01*
X135147227Y-76242068D01*
X135118293Y-76259410D01*
X135087797Y-76273834D01*
X135056035Y-76285198D01*
X135023312Y-76293395D01*
X134989943Y-76298345D01*
X134956250Y-76300000D01*
X134268750Y-76300000D01*
X134235057Y-76298345D01*
X134201688Y-76293395D01*
X134168965Y-76285198D01*
X134137203Y-76273834D01*
X134106707Y-76259410D01*
X134077773Y-76242068D01*
X134050677Y-76221972D01*
X134025682Y-76199318D01*
X134003028Y-76174323D01*
X133982932Y-76147227D01*
X133965590Y-76118293D01*
X133951166Y-76087797D01*
X133939802Y-76056035D01*
X133931605Y-76023312D01*
X133926655Y-75989943D01*
X133925000Y-75956250D01*
X133925000Y-74843750D01*
X133926655Y-74810057D01*
X133931605Y-74776688D01*
X133939802Y-74743965D01*
X133951166Y-74712203D01*
X133965590Y-74681707D01*
X133982932Y-74652773D01*
X134003028Y-74625677D01*
X134025682Y-74600682D01*
X134050677Y-74578028D01*
X134077773Y-74557932D01*
X134106707Y-74540590D01*
X134137203Y-74526166D01*
X134168965Y-74514802D01*
X134201688Y-74506605D01*
X134235057Y-74501655D01*
X134268750Y-74500000D01*
X134956250Y-74500000D01*
X134989943Y-74501655D01*
X134989943Y-74501655D01*
G37*
D15*
X134612500Y-75400000D03*
G04 #@! TD*
D10*
G04 #@! TO.C,ICSP201*
X143600000Y-60200000D03*
D11*
X143600000Y-62740000D03*
X141060000Y-60200000D03*
X141060000Y-62740000D03*
X138520000Y-60200000D03*
X138520000Y-62740000D03*
G04 #@! TD*
D16*
G04 #@! TO.C,J201*
X154500000Y-65100000D03*
X153700000Y-65100000D03*
X152900000Y-65100000D03*
X152100000Y-65100000D03*
X151300000Y-65100000D03*
D17*
X157350000Y-65000000D03*
X157350000Y-59550000D03*
X148450000Y-65000000D03*
X148450000Y-59550000D03*
D18*
X155100000Y-62400000D03*
X150700000Y-62400000D03*
G04 #@! TD*
D10*
G04 #@! TO.C,J202*
X135300000Y-62700000D03*
D11*
X135300000Y-60160000D03*
G04 #@! TD*
D10*
G04 #@! TO.C,J301*
X145200000Y-125300000D03*
D11*
X147740000Y-125300000D03*
X150280000Y-125300000D03*
X152820000Y-125300000D03*
G04 #@! TD*
G04 #@! TO.C,J302*
X144240000Y-104350000D03*
X141700000Y-104350000D03*
X139160000Y-104350000D03*
D10*
X136620000Y-104350000D03*
G04 #@! TD*
G04 #@! TO.C,J306*
X152600000Y-109700000D03*
D11*
X150060000Y-109700000D03*
X147520000Y-109700000D03*
G04 #@! TD*
D13*
G04 #@! TO.C,R206*
G36*
X157689943Y-86326655D02*
X157723312Y-86331605D01*
X157756035Y-86339802D01*
X157787797Y-86351166D01*
X157818293Y-86365590D01*
X157847227Y-86382932D01*
X157874323Y-86403028D01*
X157899318Y-86425682D01*
X157921972Y-86450677D01*
X157942068Y-86477773D01*
X157959410Y-86506707D01*
X157973834Y-86537203D01*
X157985198Y-86568965D01*
X157993395Y-86601688D01*
X157998345Y-86635057D01*
X158000000Y-86668750D01*
X158000000Y-87356250D01*
X157998345Y-87389943D01*
X157993395Y-87423312D01*
X157985198Y-87456035D01*
X157973834Y-87487797D01*
X157959410Y-87518293D01*
X157942068Y-87547227D01*
X157921972Y-87574323D01*
X157899318Y-87599318D01*
X157874323Y-87621972D01*
X157847227Y-87642068D01*
X157818293Y-87659410D01*
X157787797Y-87673834D01*
X157756035Y-87685198D01*
X157723312Y-87693395D01*
X157689943Y-87698345D01*
X157656250Y-87700000D01*
X156543750Y-87700000D01*
X156510057Y-87698345D01*
X156476688Y-87693395D01*
X156443965Y-87685198D01*
X156412203Y-87673834D01*
X156381707Y-87659410D01*
X156352773Y-87642068D01*
X156325677Y-87621972D01*
X156300682Y-87599318D01*
X156278028Y-87574323D01*
X156257932Y-87547227D01*
X156240590Y-87518293D01*
X156226166Y-87487797D01*
X156214802Y-87456035D01*
X156206605Y-87423312D01*
X156201655Y-87389943D01*
X156200000Y-87356250D01*
X156200000Y-86668750D01*
X156201655Y-86635057D01*
X156206605Y-86601688D01*
X156214802Y-86568965D01*
X156226166Y-86537203D01*
X156240590Y-86506707D01*
X156257932Y-86477773D01*
X156278028Y-86450677D01*
X156300682Y-86425682D01*
X156325677Y-86403028D01*
X156352773Y-86382932D01*
X156381707Y-86365590D01*
X156412203Y-86351166D01*
X156443965Y-86339802D01*
X156476688Y-86331605D01*
X156510057Y-86326655D01*
X156543750Y-86325000D01*
X157656250Y-86325000D01*
X157689943Y-86326655D01*
X157689943Y-86326655D01*
G37*
D15*
X157100000Y-87012500D03*
D13*
G36*
X157689943Y-88201655D02*
X157723312Y-88206605D01*
X157756035Y-88214802D01*
X157787797Y-88226166D01*
X157818293Y-88240590D01*
X157847227Y-88257932D01*
X157874323Y-88278028D01*
X157899318Y-88300682D01*
X157921972Y-88325677D01*
X157942068Y-88352773D01*
X157959410Y-88381707D01*
X157973834Y-88412203D01*
X157985198Y-88443965D01*
X157993395Y-88476688D01*
X157998345Y-88510057D01*
X158000000Y-88543750D01*
X158000000Y-89231250D01*
X157998345Y-89264943D01*
X157993395Y-89298312D01*
X157985198Y-89331035D01*
X157973834Y-89362797D01*
X157959410Y-89393293D01*
X157942068Y-89422227D01*
X157921972Y-89449323D01*
X157899318Y-89474318D01*
X157874323Y-89496972D01*
X157847227Y-89517068D01*
X157818293Y-89534410D01*
X157787797Y-89548834D01*
X157756035Y-89560198D01*
X157723312Y-89568395D01*
X157689943Y-89573345D01*
X157656250Y-89575000D01*
X156543750Y-89575000D01*
X156510057Y-89573345D01*
X156476688Y-89568395D01*
X156443965Y-89560198D01*
X156412203Y-89548834D01*
X156381707Y-89534410D01*
X156352773Y-89517068D01*
X156325677Y-89496972D01*
X156300682Y-89474318D01*
X156278028Y-89449323D01*
X156257932Y-89422227D01*
X156240590Y-89393293D01*
X156226166Y-89362797D01*
X156214802Y-89331035D01*
X156206605Y-89298312D01*
X156201655Y-89264943D01*
X156200000Y-89231250D01*
X156200000Y-88543750D01*
X156201655Y-88510057D01*
X156206605Y-88476688D01*
X156214802Y-88443965D01*
X156226166Y-88412203D01*
X156240590Y-88381707D01*
X156257932Y-88352773D01*
X156278028Y-88325677D01*
X156300682Y-88300682D01*
X156325677Y-88278028D01*
X156352773Y-88257932D01*
X156381707Y-88240590D01*
X156412203Y-88226166D01*
X156443965Y-88214802D01*
X156476688Y-88206605D01*
X156510057Y-88201655D01*
X156543750Y-88200000D01*
X157656250Y-88200000D01*
X157689943Y-88201655D01*
X157689943Y-88201655D01*
G37*
D15*
X157100000Y-88887500D03*
G04 #@! TD*
D13*
G04 #@! TO.C,R304*
G36*
X157289943Y-114201655D02*
X157323312Y-114206605D01*
X157356035Y-114214802D01*
X157387797Y-114226166D01*
X157418293Y-114240590D01*
X157447227Y-114257932D01*
X157474323Y-114278028D01*
X157499318Y-114300682D01*
X157521972Y-114325677D01*
X157542068Y-114352773D01*
X157559410Y-114381707D01*
X157573834Y-114412203D01*
X157585198Y-114443965D01*
X157593395Y-114476688D01*
X157598345Y-114510057D01*
X157600000Y-114543750D01*
X157600000Y-115656250D01*
X157598345Y-115689943D01*
X157593395Y-115723312D01*
X157585198Y-115756035D01*
X157573834Y-115787797D01*
X157559410Y-115818293D01*
X157542068Y-115847227D01*
X157521972Y-115874323D01*
X157499318Y-115899318D01*
X157474323Y-115921972D01*
X157447227Y-115942068D01*
X157418293Y-115959410D01*
X157387797Y-115973834D01*
X157356035Y-115985198D01*
X157323312Y-115993395D01*
X157289943Y-115998345D01*
X157256250Y-116000000D01*
X156568750Y-116000000D01*
X156535057Y-115998345D01*
X156501688Y-115993395D01*
X156468965Y-115985198D01*
X156437203Y-115973834D01*
X156406707Y-115959410D01*
X156377773Y-115942068D01*
X156350677Y-115921972D01*
X156325682Y-115899318D01*
X156303028Y-115874323D01*
X156282932Y-115847227D01*
X156265590Y-115818293D01*
X156251166Y-115787797D01*
X156239802Y-115756035D01*
X156231605Y-115723312D01*
X156226655Y-115689943D01*
X156225000Y-115656250D01*
X156225000Y-114543750D01*
X156226655Y-114510057D01*
X156231605Y-114476688D01*
X156239802Y-114443965D01*
X156251166Y-114412203D01*
X156265590Y-114381707D01*
X156282932Y-114352773D01*
X156303028Y-114325677D01*
X156325682Y-114300682D01*
X156350677Y-114278028D01*
X156377773Y-114257932D01*
X156406707Y-114240590D01*
X156437203Y-114226166D01*
X156468965Y-114214802D01*
X156501688Y-114206605D01*
X156535057Y-114201655D01*
X156568750Y-114200000D01*
X157256250Y-114200000D01*
X157289943Y-114201655D01*
X157289943Y-114201655D01*
G37*
D15*
X156912500Y-115100000D03*
D13*
G36*
X159164943Y-114201655D02*
X159198312Y-114206605D01*
X159231035Y-114214802D01*
X159262797Y-114226166D01*
X159293293Y-114240590D01*
X159322227Y-114257932D01*
X159349323Y-114278028D01*
X159374318Y-114300682D01*
X159396972Y-114325677D01*
X159417068Y-114352773D01*
X159434410Y-114381707D01*
X159448834Y-114412203D01*
X159460198Y-114443965D01*
X159468395Y-114476688D01*
X159473345Y-114510057D01*
X159475000Y-114543750D01*
X159475000Y-115656250D01*
X159473345Y-115689943D01*
X159468395Y-115723312D01*
X159460198Y-115756035D01*
X159448834Y-115787797D01*
X159434410Y-115818293D01*
X159417068Y-115847227D01*
X159396972Y-115874323D01*
X159374318Y-115899318D01*
X159349323Y-115921972D01*
X159322227Y-115942068D01*
X159293293Y-115959410D01*
X159262797Y-115973834D01*
X159231035Y-115985198D01*
X159198312Y-115993395D01*
X159164943Y-115998345D01*
X159131250Y-116000000D01*
X158443750Y-116000000D01*
X158410057Y-115998345D01*
X158376688Y-115993395D01*
X158343965Y-115985198D01*
X158312203Y-115973834D01*
X158281707Y-115959410D01*
X158252773Y-115942068D01*
X158225677Y-115921972D01*
X158200682Y-115899318D01*
X158178028Y-115874323D01*
X158157932Y-115847227D01*
X158140590Y-115818293D01*
X158126166Y-115787797D01*
X158114802Y-115756035D01*
X158106605Y-115723312D01*
X158101655Y-115689943D01*
X158100000Y-115656250D01*
X158100000Y-114543750D01*
X158101655Y-114510057D01*
X158106605Y-114476688D01*
X158114802Y-114443965D01*
X158126166Y-114412203D01*
X158140590Y-114381707D01*
X158157932Y-114352773D01*
X158178028Y-114325677D01*
X158200682Y-114300682D01*
X158225677Y-114278028D01*
X158252773Y-114257932D01*
X158281707Y-114240590D01*
X158312203Y-114226166D01*
X158343965Y-114214802D01*
X158376688Y-114206605D01*
X158410057Y-114201655D01*
X158443750Y-114200000D01*
X159131250Y-114200000D01*
X159164943Y-114201655D01*
X159164943Y-114201655D01*
G37*
D15*
X158787500Y-115100000D03*
G04 #@! TD*
D13*
G04 #@! TO.C,R305*
G36*
X159439943Y-118726655D02*
X159473312Y-118731605D01*
X159506035Y-118739802D01*
X159537797Y-118751166D01*
X159568293Y-118765590D01*
X159597227Y-118782932D01*
X159624323Y-118803028D01*
X159649318Y-118825682D01*
X159671972Y-118850677D01*
X159692068Y-118877773D01*
X159709410Y-118906707D01*
X159723834Y-118937203D01*
X159735198Y-118968965D01*
X159743395Y-119001688D01*
X159748345Y-119035057D01*
X159750000Y-119068750D01*
X159750000Y-119756250D01*
X159748345Y-119789943D01*
X159743395Y-119823312D01*
X159735198Y-119856035D01*
X159723834Y-119887797D01*
X159709410Y-119918293D01*
X159692068Y-119947227D01*
X159671972Y-119974323D01*
X159649318Y-119999318D01*
X159624323Y-120021972D01*
X159597227Y-120042068D01*
X159568293Y-120059410D01*
X159537797Y-120073834D01*
X159506035Y-120085198D01*
X159473312Y-120093395D01*
X159439943Y-120098345D01*
X159406250Y-120100000D01*
X158293750Y-120100000D01*
X158260057Y-120098345D01*
X158226688Y-120093395D01*
X158193965Y-120085198D01*
X158162203Y-120073834D01*
X158131707Y-120059410D01*
X158102773Y-120042068D01*
X158075677Y-120021972D01*
X158050682Y-119999318D01*
X158028028Y-119974323D01*
X158007932Y-119947227D01*
X157990590Y-119918293D01*
X157976166Y-119887797D01*
X157964802Y-119856035D01*
X157956605Y-119823312D01*
X157951655Y-119789943D01*
X157950000Y-119756250D01*
X157950000Y-119068750D01*
X157951655Y-119035057D01*
X157956605Y-119001688D01*
X157964802Y-118968965D01*
X157976166Y-118937203D01*
X157990590Y-118906707D01*
X158007932Y-118877773D01*
X158028028Y-118850677D01*
X158050682Y-118825682D01*
X158075677Y-118803028D01*
X158102773Y-118782932D01*
X158131707Y-118765590D01*
X158162203Y-118751166D01*
X158193965Y-118739802D01*
X158226688Y-118731605D01*
X158260057Y-118726655D01*
X158293750Y-118725000D01*
X159406250Y-118725000D01*
X159439943Y-118726655D01*
X159439943Y-118726655D01*
G37*
D15*
X158850000Y-119412500D03*
D13*
G36*
X159439943Y-120601655D02*
X159473312Y-120606605D01*
X159506035Y-120614802D01*
X159537797Y-120626166D01*
X159568293Y-120640590D01*
X159597227Y-120657932D01*
X159624323Y-120678028D01*
X159649318Y-120700682D01*
X159671972Y-120725677D01*
X159692068Y-120752773D01*
X159709410Y-120781707D01*
X159723834Y-120812203D01*
X159735198Y-120843965D01*
X159743395Y-120876688D01*
X159748345Y-120910057D01*
X159750000Y-120943750D01*
X159750000Y-121631250D01*
X159748345Y-121664943D01*
X159743395Y-121698312D01*
X159735198Y-121731035D01*
X159723834Y-121762797D01*
X159709410Y-121793293D01*
X159692068Y-121822227D01*
X159671972Y-121849323D01*
X159649318Y-121874318D01*
X159624323Y-121896972D01*
X159597227Y-121917068D01*
X159568293Y-121934410D01*
X159537797Y-121948834D01*
X159506035Y-121960198D01*
X159473312Y-121968395D01*
X159439943Y-121973345D01*
X159406250Y-121975000D01*
X158293750Y-121975000D01*
X158260057Y-121973345D01*
X158226688Y-121968395D01*
X158193965Y-121960198D01*
X158162203Y-121948834D01*
X158131707Y-121934410D01*
X158102773Y-121917068D01*
X158075677Y-121896972D01*
X158050682Y-121874318D01*
X158028028Y-121849323D01*
X158007932Y-121822227D01*
X157990590Y-121793293D01*
X157976166Y-121762797D01*
X157964802Y-121731035D01*
X157956605Y-121698312D01*
X157951655Y-121664943D01*
X157950000Y-121631250D01*
X157950000Y-120943750D01*
X157951655Y-120910057D01*
X157956605Y-120876688D01*
X157964802Y-120843965D01*
X157976166Y-120812203D01*
X157990590Y-120781707D01*
X158007932Y-120752773D01*
X158028028Y-120725677D01*
X158050682Y-120700682D01*
X158075677Y-120678028D01*
X158102773Y-120657932D01*
X158131707Y-120640590D01*
X158162203Y-120626166D01*
X158193965Y-120614802D01*
X158226688Y-120606605D01*
X158260057Y-120601655D01*
X158293750Y-120600000D01*
X159406250Y-120600000D01*
X159439943Y-120601655D01*
X159439943Y-120601655D01*
G37*
D15*
X158850000Y-121287500D03*
G04 #@! TD*
D13*
G04 #@! TO.C,R311*
G36*
X144587493Y-117901535D02*
X144618435Y-117906125D01*
X144648778Y-117913725D01*
X144678230Y-117924263D01*
X144706508Y-117937638D01*
X144733338Y-117953719D01*
X144758463Y-117972353D01*
X144781640Y-117993360D01*
X144802647Y-118016537D01*
X144821281Y-118041662D01*
X144837362Y-118068492D01*
X144850737Y-118096770D01*
X144861275Y-118126222D01*
X144868875Y-118156565D01*
X144873465Y-118187507D01*
X144875000Y-118218750D01*
X144875000Y-118856250D01*
X144873465Y-118887493D01*
X144868875Y-118918435D01*
X144861275Y-118948778D01*
X144850737Y-118978230D01*
X144837362Y-119006508D01*
X144821281Y-119033338D01*
X144802647Y-119058463D01*
X144781640Y-119081640D01*
X144758463Y-119102647D01*
X144733338Y-119121281D01*
X144706508Y-119137362D01*
X144678230Y-119150737D01*
X144648778Y-119161275D01*
X144618435Y-119168875D01*
X144587493Y-119173465D01*
X144556250Y-119175000D01*
X143843750Y-119175000D01*
X143812507Y-119173465D01*
X143781565Y-119168875D01*
X143751222Y-119161275D01*
X143721770Y-119150737D01*
X143693492Y-119137362D01*
X143666662Y-119121281D01*
X143641537Y-119102647D01*
X143618360Y-119081640D01*
X143597353Y-119058463D01*
X143578719Y-119033338D01*
X143562638Y-119006508D01*
X143549263Y-118978230D01*
X143538725Y-118948778D01*
X143531125Y-118918435D01*
X143526535Y-118887493D01*
X143525000Y-118856250D01*
X143525000Y-118218750D01*
X143526535Y-118187507D01*
X143531125Y-118156565D01*
X143538725Y-118126222D01*
X143549263Y-118096770D01*
X143562638Y-118068492D01*
X143578719Y-118041662D01*
X143597353Y-118016537D01*
X143618360Y-117993360D01*
X143641537Y-117972353D01*
X143666662Y-117953719D01*
X143693492Y-117937638D01*
X143721770Y-117924263D01*
X143751222Y-117913725D01*
X143781565Y-117906125D01*
X143812507Y-117901535D01*
X143843750Y-117900000D01*
X144556250Y-117900000D01*
X144587493Y-117901535D01*
X144587493Y-117901535D01*
G37*
D19*
X144200000Y-118537500D03*
D13*
G36*
X144587493Y-116326535D02*
X144618435Y-116331125D01*
X144648778Y-116338725D01*
X144678230Y-116349263D01*
X144706508Y-116362638D01*
X144733338Y-116378719D01*
X144758463Y-116397353D01*
X144781640Y-116418360D01*
X144802647Y-116441537D01*
X144821281Y-116466662D01*
X144837362Y-116493492D01*
X144850737Y-116521770D01*
X144861275Y-116551222D01*
X144868875Y-116581565D01*
X144873465Y-116612507D01*
X144875000Y-116643750D01*
X144875000Y-117281250D01*
X144873465Y-117312493D01*
X144868875Y-117343435D01*
X144861275Y-117373778D01*
X144850737Y-117403230D01*
X144837362Y-117431508D01*
X144821281Y-117458338D01*
X144802647Y-117483463D01*
X144781640Y-117506640D01*
X144758463Y-117527647D01*
X144733338Y-117546281D01*
X144706508Y-117562362D01*
X144678230Y-117575737D01*
X144648778Y-117586275D01*
X144618435Y-117593875D01*
X144587493Y-117598465D01*
X144556250Y-117600000D01*
X143843750Y-117600000D01*
X143812507Y-117598465D01*
X143781565Y-117593875D01*
X143751222Y-117586275D01*
X143721770Y-117575737D01*
X143693492Y-117562362D01*
X143666662Y-117546281D01*
X143641537Y-117527647D01*
X143618360Y-117506640D01*
X143597353Y-117483463D01*
X143578719Y-117458338D01*
X143562638Y-117431508D01*
X143549263Y-117403230D01*
X143538725Y-117373778D01*
X143531125Y-117343435D01*
X143526535Y-117312493D01*
X143525000Y-117281250D01*
X143525000Y-116643750D01*
X143526535Y-116612507D01*
X143531125Y-116581565D01*
X143538725Y-116551222D01*
X143549263Y-116521770D01*
X143562638Y-116493492D01*
X143578719Y-116466662D01*
X143597353Y-116441537D01*
X143618360Y-116418360D01*
X143641537Y-116397353D01*
X143666662Y-116378719D01*
X143693492Y-116362638D01*
X143721770Y-116349263D01*
X143751222Y-116338725D01*
X143781565Y-116331125D01*
X143812507Y-116326535D01*
X143843750Y-116325000D01*
X144556250Y-116325000D01*
X144587493Y-116326535D01*
X144587493Y-116326535D01*
G37*
D19*
X144200000Y-116962500D03*
G04 #@! TD*
D13*
G04 #@! TO.C,R312*
G36*
X149439943Y-117601655D02*
X149473312Y-117606605D01*
X149506035Y-117614802D01*
X149537797Y-117626166D01*
X149568293Y-117640590D01*
X149597227Y-117657932D01*
X149624323Y-117678028D01*
X149649318Y-117700682D01*
X149671972Y-117725677D01*
X149692068Y-117752773D01*
X149709410Y-117781707D01*
X149723834Y-117812203D01*
X149735198Y-117843965D01*
X149743395Y-117876688D01*
X149748345Y-117910057D01*
X149750000Y-117943750D01*
X149750000Y-118631250D01*
X149748345Y-118664943D01*
X149743395Y-118698312D01*
X149735198Y-118731035D01*
X149723834Y-118762797D01*
X149709410Y-118793293D01*
X149692068Y-118822227D01*
X149671972Y-118849323D01*
X149649318Y-118874318D01*
X149624323Y-118896972D01*
X149597227Y-118917068D01*
X149568293Y-118934410D01*
X149537797Y-118948834D01*
X149506035Y-118960198D01*
X149473312Y-118968395D01*
X149439943Y-118973345D01*
X149406250Y-118975000D01*
X148293750Y-118975000D01*
X148260057Y-118973345D01*
X148226688Y-118968395D01*
X148193965Y-118960198D01*
X148162203Y-118948834D01*
X148131707Y-118934410D01*
X148102773Y-118917068D01*
X148075677Y-118896972D01*
X148050682Y-118874318D01*
X148028028Y-118849323D01*
X148007932Y-118822227D01*
X147990590Y-118793293D01*
X147976166Y-118762797D01*
X147964802Y-118731035D01*
X147956605Y-118698312D01*
X147951655Y-118664943D01*
X147950000Y-118631250D01*
X147950000Y-117943750D01*
X147951655Y-117910057D01*
X147956605Y-117876688D01*
X147964802Y-117843965D01*
X147976166Y-117812203D01*
X147990590Y-117781707D01*
X148007932Y-117752773D01*
X148028028Y-117725677D01*
X148050682Y-117700682D01*
X148075677Y-117678028D01*
X148102773Y-117657932D01*
X148131707Y-117640590D01*
X148162203Y-117626166D01*
X148193965Y-117614802D01*
X148226688Y-117606605D01*
X148260057Y-117601655D01*
X148293750Y-117600000D01*
X149406250Y-117600000D01*
X149439943Y-117601655D01*
X149439943Y-117601655D01*
G37*
D15*
X148850000Y-118287500D03*
D13*
G36*
X149439943Y-115726655D02*
X149473312Y-115731605D01*
X149506035Y-115739802D01*
X149537797Y-115751166D01*
X149568293Y-115765590D01*
X149597227Y-115782932D01*
X149624323Y-115803028D01*
X149649318Y-115825682D01*
X149671972Y-115850677D01*
X149692068Y-115877773D01*
X149709410Y-115906707D01*
X149723834Y-115937203D01*
X149735198Y-115968965D01*
X149743395Y-116001688D01*
X149748345Y-116035057D01*
X149750000Y-116068750D01*
X149750000Y-116756250D01*
X149748345Y-116789943D01*
X149743395Y-116823312D01*
X149735198Y-116856035D01*
X149723834Y-116887797D01*
X149709410Y-116918293D01*
X149692068Y-116947227D01*
X149671972Y-116974323D01*
X149649318Y-116999318D01*
X149624323Y-117021972D01*
X149597227Y-117042068D01*
X149568293Y-117059410D01*
X149537797Y-117073834D01*
X149506035Y-117085198D01*
X149473312Y-117093395D01*
X149439943Y-117098345D01*
X149406250Y-117100000D01*
X148293750Y-117100000D01*
X148260057Y-117098345D01*
X148226688Y-117093395D01*
X148193965Y-117085198D01*
X148162203Y-117073834D01*
X148131707Y-117059410D01*
X148102773Y-117042068D01*
X148075677Y-117021972D01*
X148050682Y-116999318D01*
X148028028Y-116974323D01*
X148007932Y-116947227D01*
X147990590Y-116918293D01*
X147976166Y-116887797D01*
X147964802Y-116856035D01*
X147956605Y-116823312D01*
X147951655Y-116789943D01*
X147950000Y-116756250D01*
X147950000Y-116068750D01*
X147951655Y-116035057D01*
X147956605Y-116001688D01*
X147964802Y-115968965D01*
X147976166Y-115937203D01*
X147990590Y-115906707D01*
X148007932Y-115877773D01*
X148028028Y-115850677D01*
X148050682Y-115825682D01*
X148075677Y-115803028D01*
X148102773Y-115782932D01*
X148131707Y-115765590D01*
X148162203Y-115751166D01*
X148193965Y-115739802D01*
X148226688Y-115731605D01*
X148260057Y-115726655D01*
X148293750Y-115725000D01*
X149406250Y-115725000D01*
X149439943Y-115726655D01*
X149439943Y-115726655D01*
G37*
D15*
X148850000Y-116412500D03*
G04 #@! TD*
D20*
G04 #@! TO.C,SW202*
X156100000Y-93950000D03*
X156100000Y-98950000D03*
X143600000Y-93950000D03*
X143600000Y-98950000D03*
G04 #@! TD*
D21*
G04 #@! TO.C,U201*
X145350000Y-77650000D03*
X145350000Y-78450000D03*
X145350000Y-79250000D03*
X145350000Y-80050000D03*
X145350000Y-80850000D03*
X145350000Y-81650000D03*
X145350000Y-82450000D03*
X145350000Y-83250000D03*
D22*
X146800000Y-84700000D03*
X147600000Y-84700000D03*
X148400000Y-84700000D03*
X149200000Y-84700000D03*
X150000000Y-84700000D03*
X150800000Y-84700000D03*
X151600000Y-84700000D03*
X152400000Y-84700000D03*
D21*
X153850000Y-83250000D03*
X153850000Y-82450000D03*
X153850000Y-81650000D03*
X153850000Y-80850000D03*
X153850000Y-80050000D03*
X153850000Y-79250000D03*
X153850000Y-78450000D03*
X153850000Y-77650000D03*
D22*
X152400000Y-76200000D03*
X151600000Y-76200000D03*
X150800000Y-76200000D03*
X150000000Y-76200000D03*
X149200000Y-76200000D03*
X148400000Y-76200000D03*
X147600000Y-76200000D03*
X146800000Y-76200000D03*
G04 #@! TD*
D10*
G04 #@! TO.C,U203*
X161700000Y-95400000D03*
D11*
X164240000Y-95400000D03*
X166780000Y-95400000D03*
X169320000Y-95400000D03*
G04 #@! TD*
D23*
G04 #@! TO.C,U301*
X153350000Y-118600000D03*
D13*
G36*
X153700000Y-119732843D02*
X153000000Y-119032843D01*
X153000000Y-118167157D01*
X153700000Y-117467157D01*
X153700000Y-119732843D01*
X153700000Y-119732843D01*
G37*
D24*
X153350000Y-118450000D03*
D25*
X154600000Y-118600000D03*
D26*
X155650000Y-117550000D03*
X155050000Y-117550000D03*
X153250000Y-117550000D03*
X153850000Y-117550000D03*
X155650000Y-119650000D03*
X153250000Y-119650000D03*
X153850000Y-119650000D03*
X154450000Y-119650000D03*
X155050000Y-119650000D03*
X154450000Y-117550000D03*
G04 #@! TD*
D27*
G04 #@! TO.C,U302*
X149870000Y-105700000D03*
X151140000Y-105700000D03*
D28*
X148600000Y-105700000D03*
G04 #@! TD*
D29*
G04 #@! TO.C,U304*
X138125000Y-116250000D03*
X140575000Y-116250000D03*
X138125000Y-115450000D03*
X140575000Y-115450000D03*
X138125000Y-114650000D03*
X140575000Y-114650000D03*
D30*
X139350000Y-115450000D03*
G04 #@! TD*
D31*
G04 #@! TO.C,Y201*
X139600000Y-82500000D03*
X139600000Y-86200000D03*
G04 #@! TD*
D32*
G04 #@! TO.C,SW201*
X156850000Y-75100000D03*
X156850000Y-67300000D03*
G04 #@! TD*
D13*
G04 #@! TO.C,C207*
G36*
X134739943Y-80001655D02*
X134773312Y-80006605D01*
X134806035Y-80014802D01*
X134837797Y-80026166D01*
X134868293Y-80040590D01*
X134897227Y-80057932D01*
X134924323Y-80078028D01*
X134949318Y-80100682D01*
X134971972Y-80125677D01*
X134992068Y-80152773D01*
X135009410Y-80181707D01*
X135023834Y-80212203D01*
X135035198Y-80243965D01*
X135043395Y-80276688D01*
X135048345Y-80310057D01*
X135050000Y-80343750D01*
X135050000Y-81456250D01*
X135048345Y-81489943D01*
X135043395Y-81523312D01*
X135035198Y-81556035D01*
X135023834Y-81587797D01*
X135009410Y-81618293D01*
X134992068Y-81647227D01*
X134971972Y-81674323D01*
X134949318Y-81699318D01*
X134924323Y-81721972D01*
X134897227Y-81742068D01*
X134868293Y-81759410D01*
X134837797Y-81773834D01*
X134806035Y-81785198D01*
X134773312Y-81793395D01*
X134739943Y-81798345D01*
X134706250Y-81800000D01*
X134018750Y-81800000D01*
X133985057Y-81798345D01*
X133951688Y-81793395D01*
X133918965Y-81785198D01*
X133887203Y-81773834D01*
X133856707Y-81759410D01*
X133827773Y-81742068D01*
X133800677Y-81721972D01*
X133775682Y-81699318D01*
X133753028Y-81674323D01*
X133732932Y-81647227D01*
X133715590Y-81618293D01*
X133701166Y-81587797D01*
X133689802Y-81556035D01*
X133681605Y-81523312D01*
X133676655Y-81489943D01*
X133675000Y-81456250D01*
X133675000Y-80343750D01*
X133676655Y-80310057D01*
X133681605Y-80276688D01*
X133689802Y-80243965D01*
X133701166Y-80212203D01*
X133715590Y-80181707D01*
X133732932Y-80152773D01*
X133753028Y-80125677D01*
X133775682Y-80100682D01*
X133800677Y-80078028D01*
X133827773Y-80057932D01*
X133856707Y-80040590D01*
X133887203Y-80026166D01*
X133918965Y-80014802D01*
X133951688Y-80006605D01*
X133985057Y-80001655D01*
X134018750Y-80000000D01*
X134706250Y-80000000D01*
X134739943Y-80001655D01*
X134739943Y-80001655D01*
G37*
D15*
X134362500Y-80900000D03*
D13*
G36*
X136614943Y-80001655D02*
X136648312Y-80006605D01*
X136681035Y-80014802D01*
X136712797Y-80026166D01*
X136743293Y-80040590D01*
X136772227Y-80057932D01*
X136799323Y-80078028D01*
X136824318Y-80100682D01*
X136846972Y-80125677D01*
X136867068Y-80152773D01*
X136884410Y-80181707D01*
X136898834Y-80212203D01*
X136910198Y-80243965D01*
X136918395Y-80276688D01*
X136923345Y-80310057D01*
X136925000Y-80343750D01*
X136925000Y-81456250D01*
X136923345Y-81489943D01*
X136918395Y-81523312D01*
X136910198Y-81556035D01*
X136898834Y-81587797D01*
X136884410Y-81618293D01*
X136867068Y-81647227D01*
X136846972Y-81674323D01*
X136824318Y-81699318D01*
X136799323Y-81721972D01*
X136772227Y-81742068D01*
X136743293Y-81759410D01*
X136712797Y-81773834D01*
X136681035Y-81785198D01*
X136648312Y-81793395D01*
X136614943Y-81798345D01*
X136581250Y-81800000D01*
X135893750Y-81800000D01*
X135860057Y-81798345D01*
X135826688Y-81793395D01*
X135793965Y-81785198D01*
X135762203Y-81773834D01*
X135731707Y-81759410D01*
X135702773Y-81742068D01*
X135675677Y-81721972D01*
X135650682Y-81699318D01*
X135628028Y-81674323D01*
X135607932Y-81647227D01*
X135590590Y-81618293D01*
X135576166Y-81587797D01*
X135564802Y-81556035D01*
X135556605Y-81523312D01*
X135551655Y-81489943D01*
X135550000Y-81456250D01*
X135550000Y-80343750D01*
X135551655Y-80310057D01*
X135556605Y-80276688D01*
X135564802Y-80243965D01*
X135576166Y-80212203D01*
X135590590Y-80181707D01*
X135607932Y-80152773D01*
X135628028Y-80125677D01*
X135650682Y-80100682D01*
X135675677Y-80078028D01*
X135702773Y-80057932D01*
X135731707Y-80040590D01*
X135762203Y-80026166D01*
X135793965Y-80014802D01*
X135826688Y-80006605D01*
X135860057Y-80001655D01*
X135893750Y-80000000D01*
X136581250Y-80000000D01*
X136614943Y-80001655D01*
X136614943Y-80001655D01*
G37*
D15*
X136237500Y-80900000D03*
G04 #@! TD*
D13*
G04 #@! TO.C,U303*
G36*
X138314372Y-96551525D02*
X138345112Y-96556085D01*
X138375257Y-96563636D01*
X138404516Y-96574105D01*
X138432609Y-96587392D01*
X138459264Y-96603368D01*
X138484224Y-96621880D01*
X138507250Y-96642750D01*
X138528120Y-96665776D01*
X138546632Y-96690736D01*
X138562608Y-96717391D01*
X138575895Y-96745484D01*
X138586364Y-96774743D01*
X138593915Y-96804888D01*
X138598475Y-96835628D01*
X138600000Y-96866667D01*
X138600000Y-98133333D01*
X138598475Y-98164372D01*
X138593915Y-98195112D01*
X138586364Y-98225257D01*
X138575895Y-98254516D01*
X138562608Y-98282609D01*
X138546632Y-98309264D01*
X138528120Y-98334224D01*
X138507250Y-98357250D01*
X138484224Y-98378120D01*
X138459264Y-98396632D01*
X138432609Y-98412608D01*
X138404516Y-98425895D01*
X138375257Y-98436364D01*
X138345112Y-98443915D01*
X138314372Y-98448475D01*
X138283333Y-98450000D01*
X136116667Y-98450000D01*
X136085628Y-98448475D01*
X136054888Y-98443915D01*
X136024743Y-98436364D01*
X135995484Y-98425895D01*
X135967391Y-98412608D01*
X135940736Y-98396632D01*
X135915776Y-98378120D01*
X135892750Y-98357250D01*
X135871880Y-98334224D01*
X135853368Y-98309264D01*
X135837392Y-98282609D01*
X135824105Y-98254516D01*
X135813636Y-98225257D01*
X135806085Y-98195112D01*
X135801525Y-98164372D01*
X135800000Y-98133333D01*
X135800000Y-96866667D01*
X135801525Y-96835628D01*
X135806085Y-96804888D01*
X135813636Y-96774743D01*
X135824105Y-96745484D01*
X135837392Y-96717391D01*
X135853368Y-96690736D01*
X135871880Y-96665776D01*
X135892750Y-96642750D01*
X135915776Y-96621880D01*
X135940736Y-96603368D01*
X135967391Y-96587392D01*
X135995484Y-96574105D01*
X136024743Y-96563636D01*
X136054888Y-96556085D01*
X136085628Y-96551525D01*
X136116667Y-96550000D01*
X138283333Y-96550000D01*
X138314372Y-96551525D01*
X138314372Y-96551525D01*
G37*
D33*
X137200000Y-97500000D03*
D13*
G36*
X136419603Y-98350963D02*
X136439018Y-98353843D01*
X136458057Y-98358612D01*
X136476537Y-98365224D01*
X136494279Y-98373616D01*
X136511114Y-98383706D01*
X136526879Y-98395398D01*
X136541421Y-98408579D01*
X136554602Y-98423121D01*
X136566294Y-98438886D01*
X136576384Y-98455721D01*
X136584776Y-98473463D01*
X136591388Y-98491943D01*
X136596157Y-98510982D01*
X136599037Y-98530397D01*
X136600000Y-98550000D01*
X136600000Y-99350000D01*
X136599037Y-99369603D01*
X136596157Y-99389018D01*
X136591388Y-99408057D01*
X136584776Y-99426537D01*
X136576384Y-99444279D01*
X136566294Y-99461114D01*
X136554602Y-99476879D01*
X136541421Y-99491421D01*
X136526879Y-99504602D01*
X136511114Y-99516294D01*
X136494279Y-99526384D01*
X136476537Y-99534776D01*
X136458057Y-99541388D01*
X136439018Y-99546157D01*
X136419603Y-99549037D01*
X136400000Y-99550000D01*
X136000000Y-99550000D01*
X135980397Y-99549037D01*
X135960982Y-99546157D01*
X135941943Y-99541388D01*
X135923463Y-99534776D01*
X135905721Y-99526384D01*
X135888886Y-99516294D01*
X135873121Y-99504602D01*
X135858579Y-99491421D01*
X135845398Y-99476879D01*
X135833706Y-99461114D01*
X135823616Y-99444279D01*
X135815224Y-99426537D01*
X135808612Y-99408057D01*
X135803843Y-99389018D01*
X135800963Y-99369603D01*
X135800000Y-99350000D01*
X135800000Y-98550000D01*
X135800963Y-98530397D01*
X135803843Y-98510982D01*
X135808612Y-98491943D01*
X135815224Y-98473463D01*
X135823616Y-98455721D01*
X135833706Y-98438886D01*
X135845398Y-98423121D01*
X135858579Y-98408579D01*
X135873121Y-98395398D01*
X135888886Y-98383706D01*
X135905721Y-98373616D01*
X135923463Y-98365224D01*
X135941943Y-98358612D01*
X135960982Y-98353843D01*
X135980397Y-98350963D01*
X136000000Y-98350000D01*
X136400000Y-98350000D01*
X136419603Y-98350963D01*
X136419603Y-98350963D01*
G37*
D34*
X136200000Y-98950000D03*
D13*
G36*
X137419603Y-98350963D02*
X137439018Y-98353843D01*
X137458057Y-98358612D01*
X137476537Y-98365224D01*
X137494279Y-98373616D01*
X137511114Y-98383706D01*
X137526879Y-98395398D01*
X137541421Y-98408579D01*
X137554602Y-98423121D01*
X137566294Y-98438886D01*
X137576384Y-98455721D01*
X137584776Y-98473463D01*
X137591388Y-98491943D01*
X137596157Y-98510982D01*
X137599037Y-98530397D01*
X137600000Y-98550000D01*
X137600000Y-99350000D01*
X137599037Y-99369603D01*
X137596157Y-99389018D01*
X137591388Y-99408057D01*
X137584776Y-99426537D01*
X137576384Y-99444279D01*
X137566294Y-99461114D01*
X137554602Y-99476879D01*
X137541421Y-99491421D01*
X137526879Y-99504602D01*
X137511114Y-99516294D01*
X137494279Y-99526384D01*
X137476537Y-99534776D01*
X137458057Y-99541388D01*
X137439018Y-99546157D01*
X137419603Y-99549037D01*
X137400000Y-99550000D01*
X137000000Y-99550000D01*
X136980397Y-99549037D01*
X136960982Y-99546157D01*
X136941943Y-99541388D01*
X136923463Y-99534776D01*
X136905721Y-99526384D01*
X136888886Y-99516294D01*
X136873121Y-99504602D01*
X136858579Y-99491421D01*
X136845398Y-99476879D01*
X136833706Y-99461114D01*
X136823616Y-99444279D01*
X136815224Y-99426537D01*
X136808612Y-99408057D01*
X136803843Y-99389018D01*
X136800963Y-99369603D01*
X136800000Y-99350000D01*
X136800000Y-98550000D01*
X136800963Y-98530397D01*
X136803843Y-98510982D01*
X136808612Y-98491943D01*
X136815224Y-98473463D01*
X136823616Y-98455721D01*
X136833706Y-98438886D01*
X136845398Y-98423121D01*
X136858579Y-98408579D01*
X136873121Y-98395398D01*
X136888886Y-98383706D01*
X136905721Y-98373616D01*
X136923463Y-98365224D01*
X136941943Y-98358612D01*
X136960982Y-98353843D01*
X136980397Y-98350963D01*
X137000000Y-98350000D01*
X137400000Y-98350000D01*
X137419603Y-98350963D01*
X137419603Y-98350963D01*
G37*
D34*
X137200000Y-98950000D03*
D13*
G36*
X138419603Y-98350963D02*
X138439018Y-98353843D01*
X138458057Y-98358612D01*
X138476537Y-98365224D01*
X138494279Y-98373616D01*
X138511114Y-98383706D01*
X138526879Y-98395398D01*
X138541421Y-98408579D01*
X138554602Y-98423121D01*
X138566294Y-98438886D01*
X138576384Y-98455721D01*
X138584776Y-98473463D01*
X138591388Y-98491943D01*
X138596157Y-98510982D01*
X138599037Y-98530397D01*
X138600000Y-98550000D01*
X138600000Y-99350000D01*
X138599037Y-99369603D01*
X138596157Y-99389018D01*
X138591388Y-99408057D01*
X138584776Y-99426537D01*
X138576384Y-99444279D01*
X138566294Y-99461114D01*
X138554602Y-99476879D01*
X138541421Y-99491421D01*
X138526879Y-99504602D01*
X138511114Y-99516294D01*
X138494279Y-99526384D01*
X138476537Y-99534776D01*
X138458057Y-99541388D01*
X138439018Y-99546157D01*
X138419603Y-99549037D01*
X138400000Y-99550000D01*
X138000000Y-99550000D01*
X137980397Y-99549037D01*
X137960982Y-99546157D01*
X137941943Y-99541388D01*
X137923463Y-99534776D01*
X137905721Y-99526384D01*
X137888886Y-99516294D01*
X137873121Y-99504602D01*
X137858579Y-99491421D01*
X137845398Y-99476879D01*
X137833706Y-99461114D01*
X137823616Y-99444279D01*
X137815224Y-99426537D01*
X137808612Y-99408057D01*
X137803843Y-99389018D01*
X137800963Y-99369603D01*
X137800000Y-99350000D01*
X137800000Y-98550000D01*
X137800963Y-98530397D01*
X137803843Y-98510982D01*
X137808612Y-98491943D01*
X137815224Y-98473463D01*
X137823616Y-98455721D01*
X137833706Y-98438886D01*
X137845398Y-98423121D01*
X137858579Y-98408579D01*
X137873121Y-98395398D01*
X137888886Y-98383706D01*
X137905721Y-98373616D01*
X137923463Y-98365224D01*
X137941943Y-98358612D01*
X137960982Y-98353843D01*
X137980397Y-98350963D01*
X138000000Y-98350000D01*
X138400000Y-98350000D01*
X138419603Y-98350963D01*
X138419603Y-98350963D01*
G37*
D34*
X138200000Y-98950000D03*
D13*
G36*
X138419603Y-95450963D02*
X138439018Y-95453843D01*
X138458057Y-95458612D01*
X138476537Y-95465224D01*
X138494279Y-95473616D01*
X138511114Y-95483706D01*
X138526879Y-95495398D01*
X138541421Y-95508579D01*
X138554602Y-95523121D01*
X138566294Y-95538886D01*
X138576384Y-95555721D01*
X138584776Y-95573463D01*
X138591388Y-95591943D01*
X138596157Y-95610982D01*
X138599037Y-95630397D01*
X138600000Y-95650000D01*
X138600000Y-96450000D01*
X138599037Y-96469603D01*
X138596157Y-96489018D01*
X138591388Y-96508057D01*
X138584776Y-96526537D01*
X138576384Y-96544279D01*
X138566294Y-96561114D01*
X138554602Y-96576879D01*
X138541421Y-96591421D01*
X138526879Y-96604602D01*
X138511114Y-96616294D01*
X138494279Y-96626384D01*
X138476537Y-96634776D01*
X138458057Y-96641388D01*
X138439018Y-96646157D01*
X138419603Y-96649037D01*
X138400000Y-96650000D01*
X138000000Y-96650000D01*
X137980397Y-96649037D01*
X137960982Y-96646157D01*
X137941943Y-96641388D01*
X137923463Y-96634776D01*
X137905721Y-96626384D01*
X137888886Y-96616294D01*
X137873121Y-96604602D01*
X137858579Y-96591421D01*
X137845398Y-96576879D01*
X137833706Y-96561114D01*
X137823616Y-96544279D01*
X137815224Y-96526537D01*
X137808612Y-96508057D01*
X137803843Y-96489018D01*
X137800963Y-96469603D01*
X137800000Y-96450000D01*
X137800000Y-95650000D01*
X137800963Y-95630397D01*
X137803843Y-95610982D01*
X137808612Y-95591943D01*
X137815224Y-95573463D01*
X137823616Y-95555721D01*
X137833706Y-95538886D01*
X137845398Y-95523121D01*
X137858579Y-95508579D01*
X137873121Y-95495398D01*
X137888886Y-95483706D01*
X137905721Y-95473616D01*
X137923463Y-95465224D01*
X137941943Y-95458612D01*
X137960982Y-95453843D01*
X137980397Y-95450963D01*
X138000000Y-95450000D01*
X138400000Y-95450000D01*
X138419603Y-95450963D01*
X138419603Y-95450963D01*
G37*
D34*
X138200000Y-96050000D03*
D13*
G36*
X137419603Y-95450963D02*
X137439018Y-95453843D01*
X137458057Y-95458612D01*
X137476537Y-95465224D01*
X137494279Y-95473616D01*
X137511114Y-95483706D01*
X137526879Y-95495398D01*
X137541421Y-95508579D01*
X137554602Y-95523121D01*
X137566294Y-95538886D01*
X137576384Y-95555721D01*
X137584776Y-95573463D01*
X137591388Y-95591943D01*
X137596157Y-95610982D01*
X137599037Y-95630397D01*
X137600000Y-95650000D01*
X137600000Y-96450000D01*
X137599037Y-96469603D01*
X137596157Y-96489018D01*
X137591388Y-96508057D01*
X137584776Y-96526537D01*
X137576384Y-96544279D01*
X137566294Y-96561114D01*
X137554602Y-96576879D01*
X137541421Y-96591421D01*
X137526879Y-96604602D01*
X137511114Y-96616294D01*
X137494279Y-96626384D01*
X137476537Y-96634776D01*
X137458057Y-96641388D01*
X137439018Y-96646157D01*
X137419603Y-96649037D01*
X137400000Y-96650000D01*
X137000000Y-96650000D01*
X136980397Y-96649037D01*
X136960982Y-96646157D01*
X136941943Y-96641388D01*
X136923463Y-96634776D01*
X136905721Y-96626384D01*
X136888886Y-96616294D01*
X136873121Y-96604602D01*
X136858579Y-96591421D01*
X136845398Y-96576879D01*
X136833706Y-96561114D01*
X136823616Y-96544279D01*
X136815224Y-96526537D01*
X136808612Y-96508057D01*
X136803843Y-96489018D01*
X136800963Y-96469603D01*
X136800000Y-96450000D01*
X136800000Y-95650000D01*
X136800963Y-95630397D01*
X136803843Y-95610982D01*
X136808612Y-95591943D01*
X136815224Y-95573463D01*
X136823616Y-95555721D01*
X136833706Y-95538886D01*
X136845398Y-95523121D01*
X136858579Y-95508579D01*
X136873121Y-95495398D01*
X136888886Y-95483706D01*
X136905721Y-95473616D01*
X136923463Y-95465224D01*
X136941943Y-95458612D01*
X136960982Y-95453843D01*
X136980397Y-95450963D01*
X137000000Y-95450000D01*
X137400000Y-95450000D01*
X137419603Y-95450963D01*
X137419603Y-95450963D01*
G37*
D34*
X137200000Y-96050000D03*
D13*
G36*
X136419603Y-95450963D02*
X136439018Y-95453843D01*
X136458057Y-95458612D01*
X136476537Y-95465224D01*
X136494279Y-95473616D01*
X136511114Y-95483706D01*
X136526879Y-95495398D01*
X136541421Y-95508579D01*
X136554602Y-95523121D01*
X136566294Y-95538886D01*
X136576384Y-95555721D01*
X136584776Y-95573463D01*
X136591388Y-95591943D01*
X136596157Y-95610982D01*
X136599037Y-95630397D01*
X136600000Y-95650000D01*
X136600000Y-96450000D01*
X136599037Y-96469603D01*
X136596157Y-96489018D01*
X136591388Y-96508057D01*
X136584776Y-96526537D01*
X136576384Y-96544279D01*
X136566294Y-96561114D01*
X136554602Y-96576879D01*
X136541421Y-96591421D01*
X136526879Y-96604602D01*
X136511114Y-96616294D01*
X136494279Y-96626384D01*
X136476537Y-96634776D01*
X136458057Y-96641388D01*
X136439018Y-96646157D01*
X136419603Y-96649037D01*
X136400000Y-96650000D01*
X136000000Y-96650000D01*
X135980397Y-96649037D01*
X135960982Y-96646157D01*
X135941943Y-96641388D01*
X135923463Y-96634776D01*
X135905721Y-96626384D01*
X135888886Y-96616294D01*
X135873121Y-96604602D01*
X135858579Y-96591421D01*
X135845398Y-96576879D01*
X135833706Y-96561114D01*
X135823616Y-96544279D01*
X135815224Y-96526537D01*
X135808612Y-96508057D01*
X135803843Y-96489018D01*
X135800963Y-96469603D01*
X135800000Y-96450000D01*
X135800000Y-95650000D01*
X135800963Y-95630397D01*
X135803843Y-95610982D01*
X135808612Y-95591943D01*
X135815224Y-95573463D01*
X135823616Y-95555721D01*
X135833706Y-95538886D01*
X135845398Y-95523121D01*
X135858579Y-95508579D01*
X135873121Y-95495398D01*
X135888886Y-95483706D01*
X135905721Y-95473616D01*
X135923463Y-95465224D01*
X135941943Y-95458612D01*
X135960982Y-95453843D01*
X135980397Y-95450963D01*
X136000000Y-95450000D01*
X136400000Y-95450000D01*
X136419603Y-95450963D01*
X136419603Y-95450963D01*
G37*
D34*
X136200000Y-96050000D03*
G04 #@! TD*
D11*
G04 #@! TO.C,J303*
X158800000Y-103160000D03*
X158800000Y-105700000D03*
X158800000Y-108240000D03*
D10*
X158800000Y-110780000D03*
G04 #@! TD*
G04 #@! TO.C,J305*
X136600000Y-109900000D03*
D11*
X139140000Y-109900000D03*
X141680000Y-109900000D03*
X144220000Y-109900000D03*
G04 #@! TD*
D10*
G04 #@! TO.C,J203*
X159700000Y-77300000D03*
G04 #@! TD*
M02*
